G04*
G04 #@! TF.GenerationSoftware,Altium Limited,Altium Designer,22.9.1 (49)*
G04*
G04 Layer_Color=16711935*
%FSLAX25Y25*%
%MOIN*%
G70*
G04*
G04 #@! TF.SameCoordinates,8C7AA2B9-2782-4D16-8663-33B98A07A00E*
G04*
G04*
G04 #@! TF.FilePolarity,Negative*
G04*
G01*
G75*
%ADD18C,0.00000*%
%ADD20C,0.07178*%
%ADD21C,0.06706*%
%ADD22R,0.06706X0.06706*%
%ADD23R,0.06194X0.06194*%
%ADD24C,0.06194*%
%ADD25C,0.07099*%
%ADD26R,0.07099X0.07099*%
%ADD27C,0.07493*%
%ADD28R,0.07493X0.07493*%
%ADD29R,0.05524X0.05524*%
%ADD30C,0.05524*%
%ADD31R,0.07099X0.07099*%
%ADD32R,0.05918X0.05918*%
%ADD33C,0.05918*%
%ADD34C,0.04737*%
D18*
X190890Y162500D02*
X190739Y163499D01*
X190301Y164410D01*
X189614Y165150D01*
X188739Y165656D01*
X187753Y165881D01*
X186746Y165805D01*
X185805Y165436D01*
X185015Y164806D01*
X184446Y163971D01*
X184148Y163005D01*
Y161995D01*
X184446Y161029D01*
X185015Y160194D01*
X185805Y159564D01*
X186746Y159195D01*
X187753Y159119D01*
X188739Y159344D01*
X189614Y159850D01*
X190301Y160590D01*
X190739Y161501D01*
X190890Y162500D01*
Y172500D02*
X190739Y173499D01*
X190301Y174410D01*
X189614Y175150D01*
X188739Y175656D01*
X187753Y175881D01*
X186746Y175805D01*
X185805Y175436D01*
X185015Y174806D01*
X184446Y173971D01*
X184148Y173005D01*
Y171995D01*
X184446Y171029D01*
X185015Y170194D01*
X185805Y169564D01*
X186746Y169195D01*
X187753Y169120D01*
X188739Y169344D01*
X189614Y169850D01*
X190301Y170590D01*
X190739Y171501D01*
X190890Y172500D01*
Y182500D02*
X190739Y183499D01*
X190301Y184410D01*
X189614Y185150D01*
X188739Y185656D01*
X187753Y185880D01*
X186746Y185805D01*
X185805Y185436D01*
X185015Y184806D01*
X184446Y183971D01*
X184148Y183005D01*
Y181995D01*
X184446Y181029D01*
X185015Y180194D01*
X185805Y179564D01*
X186746Y179195D01*
X187753Y179120D01*
X188739Y179344D01*
X189614Y179850D01*
X190301Y180590D01*
X190739Y181501D01*
X190890Y182500D01*
Y192500D02*
X190739Y193499D01*
X190301Y194410D01*
X189614Y195150D01*
X188739Y195656D01*
X187753Y195880D01*
X186746Y195805D01*
X185805Y195436D01*
X185015Y194806D01*
X184446Y193971D01*
X184148Y193005D01*
Y191995D01*
X184446Y191029D01*
X185015Y190194D01*
X185805Y189564D01*
X186746Y189195D01*
X187753Y189120D01*
X188739Y189344D01*
X189614Y189850D01*
X190301Y190590D01*
X190739Y191501D01*
X190890Y192500D01*
Y202500D02*
X190739Y203499D01*
X190301Y204410D01*
X189614Y205150D01*
X188739Y205656D01*
X187753Y205880D01*
X186746Y205805D01*
X185805Y205436D01*
X185015Y204806D01*
X184446Y203971D01*
X184148Y203005D01*
Y201995D01*
X184446Y201029D01*
X185015Y200194D01*
X185805Y199564D01*
X186746Y199195D01*
X187753Y199119D01*
X188739Y199344D01*
X189614Y199850D01*
X190301Y200590D01*
X190739Y201501D01*
X190890Y202500D01*
Y212500D02*
X190739Y213499D01*
X190301Y214410D01*
X189614Y215150D01*
X188739Y215656D01*
X187753Y215880D01*
X186746Y215805D01*
X185805Y215436D01*
X185015Y214806D01*
X184446Y213971D01*
X184148Y213005D01*
Y211995D01*
X184446Y211029D01*
X185015Y210194D01*
X185805Y209564D01*
X186746Y209195D01*
X187753Y209120D01*
X188739Y209344D01*
X189614Y209850D01*
X190301Y210590D01*
X190739Y211501D01*
X190890Y212500D01*
X73390Y162500D02*
X73239Y163499D01*
X72801Y164410D01*
X72114Y165150D01*
X71238Y165656D01*
X70253Y165881D01*
X69246Y165805D01*
X68305Y165436D01*
X67515Y164806D01*
X66946Y163971D01*
X66648Y163005D01*
Y161995D01*
X66946Y161029D01*
X67515Y160194D01*
X68305Y159564D01*
X69246Y159195D01*
X70253Y159119D01*
X71238Y159344D01*
X72114Y159850D01*
X72801Y160590D01*
X73239Y161501D01*
X73390Y162500D01*
Y172500D02*
X73239Y173499D01*
X72801Y174410D01*
X72114Y175150D01*
X71238Y175656D01*
X70253Y175881D01*
X69246Y175805D01*
X68305Y175436D01*
X67515Y174806D01*
X66946Y173971D01*
X66648Y173005D01*
Y171995D01*
X66946Y171029D01*
X67515Y170194D01*
X68305Y169564D01*
X69246Y169195D01*
X70253Y169120D01*
X71238Y169344D01*
X72114Y169850D01*
X72801Y170590D01*
X73239Y171501D01*
X73390Y172500D01*
Y182500D02*
X73239Y183499D01*
X72801Y184410D01*
X72114Y185150D01*
X71238Y185656D01*
X70253Y185880D01*
X69246Y185805D01*
X68305Y185436D01*
X67515Y184806D01*
X66946Y183971D01*
X66648Y183005D01*
Y181995D01*
X66946Y181029D01*
X67515Y180194D01*
X68305Y179564D01*
X69246Y179195D01*
X70253Y179120D01*
X71238Y179344D01*
X72114Y179850D01*
X72801Y180590D01*
X73239Y181501D01*
X73390Y182500D01*
Y192500D02*
X73239Y193499D01*
X72801Y194410D01*
X72114Y195150D01*
X71238Y195656D01*
X70253Y195880D01*
X69246Y195805D01*
X68305Y195436D01*
X67515Y194806D01*
X66946Y193971D01*
X66648Y193005D01*
Y191995D01*
X66946Y191029D01*
X67515Y190194D01*
X68305Y189564D01*
X69246Y189195D01*
X70253Y189120D01*
X71238Y189344D01*
X72114Y189850D01*
X72801Y190590D01*
X73239Y191501D01*
X73390Y192500D01*
Y202500D02*
X73239Y203499D01*
X72801Y204410D01*
X72114Y205150D01*
X71238Y205656D01*
X70253Y205880D01*
X69246Y205805D01*
X68305Y205436D01*
X67515Y204806D01*
X66946Y203971D01*
X66648Y203005D01*
Y201995D01*
X66946Y201029D01*
X67515Y200194D01*
X68305Y199564D01*
X69246Y199195D01*
X70253Y199119D01*
X71238Y199344D01*
X72114Y199850D01*
X72801Y200590D01*
X73239Y201501D01*
X73390Y202500D01*
Y212500D02*
X73239Y213499D01*
X72801Y214410D01*
X72114Y215150D01*
X71238Y215656D01*
X70253Y215880D01*
X69246Y215805D01*
X68305Y215436D01*
X67515Y214806D01*
X66946Y213971D01*
X66648Y213005D01*
Y211995D01*
X66946Y211029D01*
X67515Y210194D01*
X68305Y209564D01*
X69246Y209195D01*
X70253Y209120D01*
X71238Y209344D01*
X72114Y209850D01*
X72801Y210590D01*
X73239Y211501D01*
X73390Y212500D01*
X27890Y261500D02*
X27739Y262499D01*
X27301Y263410D01*
X26614Y264150D01*
X25738Y264656D01*
X24753Y264880D01*
X23746Y264805D01*
X22805Y264436D01*
X22015Y263806D01*
X21446Y262971D01*
X21148Y262005D01*
Y260995D01*
X21446Y260029D01*
X22015Y259194D01*
X22805Y258564D01*
X23746Y258195D01*
X24753Y258120D01*
X25738Y258344D01*
X26614Y258850D01*
X27301Y259590D01*
X27739Y260501D01*
X27890Y261500D01*
Y271500D02*
X27739Y272499D01*
X27301Y273410D01*
X26614Y274150D01*
X25738Y274656D01*
X24753Y274881D01*
X23746Y274805D01*
X22805Y274436D01*
X22015Y273806D01*
X21446Y272971D01*
X21148Y272005D01*
Y270995D01*
X21446Y270029D01*
X22015Y269194D01*
X22805Y268564D01*
X23746Y268195D01*
X24753Y268120D01*
X25738Y268344D01*
X26614Y268850D01*
X27301Y269590D01*
X27739Y270501D01*
X27890Y271500D01*
X24890Y44500D02*
X24739Y45499D01*
X24301Y46410D01*
X23614Y47150D01*
X22738Y47656D01*
X21753Y47881D01*
X20746Y47805D01*
X19805Y47436D01*
X19015Y46806D01*
X18446Y45971D01*
X18148Y45005D01*
Y43995D01*
X18446Y43029D01*
X19015Y42194D01*
X19805Y41564D01*
X20746Y41195D01*
X21753Y41120D01*
X22738Y41344D01*
X23614Y41850D01*
X24301Y42590D01*
X24739Y43501D01*
X24890Y44500D01*
Y54500D02*
X24739Y55499D01*
X24301Y56410D01*
X23614Y57150D01*
X22738Y57656D01*
X21753Y57881D01*
X20746Y57805D01*
X19805Y57436D01*
X19015Y56806D01*
X18446Y55971D01*
X18148Y55005D01*
Y53995D01*
X18446Y53029D01*
X19015Y52194D01*
X19805Y51564D01*
X20746Y51195D01*
X21753Y51120D01*
X22738Y51344D01*
X23614Y51850D01*
X24301Y52590D01*
X24739Y53501D01*
X24890Y54500D01*
Y64500D02*
X24739Y65499D01*
X24301Y66410D01*
X23614Y67150D01*
X22738Y67656D01*
X21753Y67880D01*
X20746Y67805D01*
X19805Y67436D01*
X19015Y66806D01*
X18446Y65971D01*
X18148Y65005D01*
Y63995D01*
X18446Y63029D01*
X19015Y62194D01*
X19805Y61564D01*
X20746Y61195D01*
X21753Y61120D01*
X22738Y61344D01*
X23614Y61850D01*
X24301Y62590D01*
X24739Y63501D01*
X24890Y64500D01*
Y74500D02*
X24739Y75499D01*
X24301Y76410D01*
X23614Y77150D01*
X22738Y77656D01*
X21753Y77881D01*
X20746Y77805D01*
X19805Y77436D01*
X19015Y76806D01*
X18446Y75971D01*
X18148Y75005D01*
Y73995D01*
X18446Y73029D01*
X19015Y72194D01*
X19805Y71564D01*
X20746Y71195D01*
X21753Y71119D01*
X22738Y71344D01*
X23614Y71850D01*
X24301Y72590D01*
X24739Y73501D01*
X24890Y74500D01*
Y84500D02*
X24739Y85499D01*
X24301Y86410D01*
X23614Y87150D01*
X22738Y87656D01*
X21753Y87880D01*
X20746Y87805D01*
X19805Y87436D01*
X19015Y86806D01*
X18446Y85971D01*
X18148Y85005D01*
Y83995D01*
X18446Y83029D01*
X19015Y82194D01*
X19805Y81564D01*
X20746Y81195D01*
X21753Y81120D01*
X22738Y81344D01*
X23614Y81850D01*
X24301Y82590D01*
X24739Y83501D01*
X24890Y84500D01*
Y94500D02*
X24739Y95499D01*
X24301Y96410D01*
X23614Y97150D01*
X22738Y97656D01*
X21753Y97881D01*
X20746Y97805D01*
X19805Y97436D01*
X19015Y96806D01*
X18446Y95971D01*
X18148Y95005D01*
Y93995D01*
X18446Y93029D01*
X19015Y92194D01*
X19805Y91564D01*
X20746Y91195D01*
X21753Y91119D01*
X22738Y91344D01*
X23614Y91850D01*
X24301Y92590D01*
X24739Y93501D01*
X24890Y94500D01*
X259390Y77500D02*
X259239Y78499D01*
X258801Y79410D01*
X258114Y80150D01*
X257239Y80656D01*
X256253Y80880D01*
X255246Y80805D01*
X254305Y80436D01*
X253515Y79806D01*
X252946Y78971D01*
X252648Y78005D01*
Y76995D01*
X252946Y76029D01*
X253515Y75194D01*
X254305Y74564D01*
X255246Y74195D01*
X256253Y74120D01*
X257239Y74344D01*
X258114Y74850D01*
X258801Y75590D01*
X259239Y76501D01*
X259390Y77500D01*
X269390D02*
X269239Y78499D01*
X268801Y79410D01*
X268114Y80150D01*
X267238Y80656D01*
X266253Y80880D01*
X265246Y80805D01*
X264305Y80436D01*
X263515Y79806D01*
X262946Y78971D01*
X262648Y78005D01*
Y76995D01*
X262946Y76029D01*
X263515Y75194D01*
X264305Y74564D01*
X265246Y74195D01*
X266253Y74120D01*
X267238Y74344D01*
X268114Y74850D01*
X268801Y75590D01*
X269239Y76501D01*
X269390Y77500D01*
X259390Y51500D02*
X259239Y52499D01*
X258801Y53410D01*
X258114Y54150D01*
X257239Y54656D01*
X256253Y54880D01*
X255246Y54805D01*
X254305Y54436D01*
X253515Y53806D01*
X252946Y52971D01*
X252648Y52005D01*
Y50995D01*
X252946Y50029D01*
X253515Y49194D01*
X254305Y48564D01*
X255246Y48195D01*
X256253Y48120D01*
X257239Y48344D01*
X258114Y48850D01*
X258801Y49590D01*
X259239Y50501D01*
X259390Y51500D01*
X269390D02*
X269239Y52499D01*
X268801Y53410D01*
X268114Y54150D01*
X267238Y54656D01*
X266253Y54880D01*
X265246Y54805D01*
X264305Y54436D01*
X263515Y53806D01*
X262946Y52971D01*
X262648Y52005D01*
Y50995D01*
X262946Y50029D01*
X263515Y49194D01*
X264305Y48564D01*
X265246Y48195D01*
X266253Y48120D01*
X267238Y48344D01*
X268114Y48850D01*
X268801Y49590D01*
X269239Y50501D01*
X269390Y51500D01*
D20*
X187500Y162500D02*
D03*
Y172500D02*
D03*
Y182500D02*
D03*
Y192500D02*
D03*
Y202500D02*
D03*
Y212500D02*
D03*
X70000Y162500D02*
D03*
Y172500D02*
D03*
Y182500D02*
D03*
Y192500D02*
D03*
Y202500D02*
D03*
Y212500D02*
D03*
X24500Y261500D02*
D03*
Y271500D02*
D03*
X21500Y44500D02*
D03*
Y54500D02*
D03*
Y64500D02*
D03*
Y74500D02*
D03*
Y84500D02*
D03*
Y94500D02*
D03*
X256000Y77500D02*
D03*
X266000D02*
D03*
X256000Y51500D02*
D03*
X266000D02*
D03*
D21*
X159000Y100500D02*
D03*
Y110500D02*
D03*
Y120500D02*
D03*
Y130500D02*
D03*
Y140500D02*
D03*
Y150500D02*
D03*
Y160500D02*
D03*
Y170500D02*
D03*
Y180500D02*
D03*
Y190500D02*
D03*
Y200500D02*
D03*
Y210500D02*
D03*
Y220500D02*
D03*
Y230500D02*
D03*
X129000Y100500D02*
D03*
Y110500D02*
D03*
Y120500D02*
D03*
Y130500D02*
D03*
Y140500D02*
D03*
Y150500D02*
D03*
Y160500D02*
D03*
Y170500D02*
D03*
Y180500D02*
D03*
Y190500D02*
D03*
Y200500D02*
D03*
Y210500D02*
D03*
Y220500D02*
D03*
X54705Y255642D02*
D03*
Y273358D02*
D03*
X80295D02*
D03*
Y255642D02*
D03*
X273500Y104500D02*
D03*
Y114500D02*
D03*
Y124500D02*
D03*
Y134500D02*
D03*
X243500Y104500D02*
D03*
Y114500D02*
D03*
Y124500D02*
D03*
Y233000D02*
D03*
Y223000D02*
D03*
Y213000D02*
D03*
Y203000D02*
D03*
Y193000D02*
D03*
Y183000D02*
D03*
Y173000D02*
D03*
Y163000D02*
D03*
X273500Y243000D02*
D03*
Y233000D02*
D03*
Y223000D02*
D03*
Y213000D02*
D03*
Y203000D02*
D03*
Y193000D02*
D03*
Y183000D02*
D03*
Y173000D02*
D03*
Y163000D02*
D03*
D22*
X129000Y230500D02*
D03*
X243500Y134500D02*
D03*
Y243000D02*
D03*
D23*
X123373Y270000D02*
D03*
X18000Y20500D02*
D03*
X170000Y270000D02*
D03*
D24*
X123373Y260000D02*
D03*
X113373Y270000D02*
D03*
Y260000D02*
D03*
X103373Y270000D02*
D03*
Y260000D02*
D03*
X28000Y20500D02*
D03*
X38000D02*
D03*
X48000D02*
D03*
X58000D02*
D03*
X68000D02*
D03*
X78000D02*
D03*
X88000D02*
D03*
X98000D02*
D03*
X108000D02*
D03*
X118000D02*
D03*
X128000D02*
D03*
X138000D02*
D03*
X148000D02*
D03*
X158000D02*
D03*
X168000D02*
D03*
X178000D02*
D03*
X188000D02*
D03*
X198000D02*
D03*
X208000D02*
D03*
X170000Y260000D02*
D03*
X160000Y270000D02*
D03*
Y260000D02*
D03*
X150000Y270000D02*
D03*
Y260000D02*
D03*
D25*
X63000Y105937D02*
D03*
Y115937D02*
D03*
X218000Y34972D02*
D03*
X22500Y122972D02*
D03*
X300500Y234028D02*
D03*
X301500Y94028D02*
D03*
D26*
X63000Y125937D02*
D03*
D27*
X62016Y45921D02*
D03*
Y55961D02*
D03*
D28*
Y66000D02*
D03*
D29*
X102500Y156894D02*
D03*
X219000Y195713D02*
D03*
D30*
X102500Y166500D02*
D03*
Y176106D02*
D03*
X219000Y186106D02*
D03*
Y176500D02*
D03*
D31*
X218000Y94028D02*
D03*
X22500Y182028D02*
D03*
X300500Y174972D02*
D03*
X301500Y34972D02*
D03*
D32*
X219000Y222819D02*
D03*
Y149819D02*
D03*
X23000Y225500D02*
D03*
X102000Y226500D02*
D03*
Y104500D02*
D03*
D33*
X219000Y242819D02*
D03*
Y129819D02*
D03*
X23000Y205500D02*
D03*
X102000Y206500D02*
D03*
Y124500D02*
D03*
D34*
X175000Y207500D02*
D03*
X119600Y143697D02*
D03*
X78200Y167500D02*
D03*
X263700Y194800D02*
D03*
X188100Y28000D02*
D03*
M02*
