G04*
G04 #@! TF.GenerationSoftware,Altium Limited,Altium Designer,22.9.1 (49)*
G04*
G04 Layer_Physical_Order=2*
G04 Layer_Color=16711680*
%FSLAX25Y25*%
%MOIN*%
G70*
G04*
G04 #@! TF.SameCoordinates,8C7AA2B9-2782-4D16-8663-33B98A07A00E*
G04*
G04*
G04 #@! TF.FilePolarity,Positive*
G04*
G01*
G75*
%ADD35C,0.01500*%
%ADD36C,0.06378*%
%ADD37C,0.05906*%
%ADD38R,0.05906X0.05906*%
%ADD39R,0.05394X0.05394*%
%ADD40C,0.05394*%
%ADD41C,0.06299*%
%ADD42R,0.06299X0.06299*%
%ADD43C,0.06693*%
%ADD44R,0.06693X0.06693*%
%ADD45R,0.04724X0.04724*%
%ADD46C,0.04724*%
%ADD47R,0.06299X0.06299*%
%ADD48R,0.05118X0.05118*%
%ADD49C,0.05118*%
%ADD50C,0.03937*%
D35*
X133600Y165900D02*
X139000Y160500D01*
X129000Y170500D02*
X133600Y165900D01*
X28770Y116702D02*
X39535Y105937D01*
X22500Y122972D02*
X28770Y116702D01*
X268900Y198400D02*
X273500Y203000D01*
X218500Y207500D02*
X227600Y198400D01*
X175000Y207500D02*
X218500D01*
X227600Y198400D02*
X268900D01*
X103373Y270000D02*
X110273Y276900D01*
X170700D01*
X174300Y273300D01*
Y265700D02*
Y273300D01*
X164300Y265700D02*
X174300D01*
X160000Y270000D02*
X164300Y265700D01*
X154000Y175500D02*
X159000Y170500D01*
X127200Y175500D02*
X154000D01*
X124400Y172700D02*
X127200Y175500D01*
X124400Y165100D02*
Y172700D01*
Y165100D02*
X129000Y160500D01*
X16761Y89761D02*
X21500Y94500D01*
X16761Y71239D02*
Y89761D01*
Y71239D02*
X18500Y69500D01*
X58516D01*
X62016Y66000D01*
X39535Y105937D02*
X63000D01*
X28770Y81770D02*
Y116702D01*
X21500Y74500D02*
X28770Y81770D01*
X133600Y147500D02*
Y165900D01*
X132000Y145900D02*
X133600Y147500D01*
X126500Y145900D02*
X132000D01*
X124900Y147500D02*
X126500Y145900D01*
X85000Y147500D02*
X124900D01*
X70000Y162500D02*
X85000Y147500D01*
X90563Y115937D02*
X102000Y104500D01*
X63000Y115937D02*
X90563D01*
X62016Y66000D02*
X67700Y71684D01*
Y111237D01*
X63000Y115937D02*
X67700Y111237D01*
X19313Y66687D02*
X21500Y64500D01*
X16274Y66687D02*
X19313D01*
X14461Y68500D02*
X16274Y66687D01*
X14461Y68500D02*
Y136361D01*
X55600Y177500D01*
X82600D01*
X89900Y184800D01*
X116000D01*
X118000Y186800D01*
Y213000D01*
X125500Y220500D01*
X129000D01*
X238900Y129100D02*
X243500Y124500D01*
X238900Y129100D02*
Y158400D01*
X243500Y163000D01*
X102500Y156894D02*
X108894Y150500D01*
X129000D01*
X119600Y142100D02*
Y143697D01*
Y142100D02*
X126600Y135100D01*
X147900D01*
X157900Y125100D01*
X161400D01*
X163600Y122900D01*
Y78100D02*
Y122900D01*
X160400Y74900D02*
X163600Y78100D01*
X136300Y74900D02*
X160400D01*
X83000Y21600D02*
X136300Y74900D01*
X83000Y17300D02*
Y21600D01*
X79800Y14100D02*
X83000Y17300D01*
X64400Y14100D02*
X79800D01*
X58000Y20500D02*
X64400Y14100D01*
X78200Y167500D02*
X93138Y182438D01*
X119200D01*
X120900Y184138D01*
Y210400D01*
X125600Y215100D01*
X184900D01*
X187500Y212500D01*
X65200Y207300D02*
X70000Y202500D01*
X65200Y207300D02*
Y262600D01*
X66900Y264300D01*
X119073D01*
X123373Y260000D01*
X127673Y264300D01*
X155700D01*
X160000Y260000D01*
X202400Y217600D01*
X268900D01*
X273500Y213000D01*
X113373Y270000D02*
X117673Y274300D01*
X165700D01*
X170000Y270000D01*
X154400Y145100D02*
X159000Y140500D01*
X154400Y145100D02*
Y152700D01*
X157600Y155900D01*
X163500D01*
X175100Y167500D01*
X196100D01*
X197000Y168400D01*
X248900D01*
X273500Y193000D01*
X253028Y94028D02*
X273500Y114500D01*
X218000Y94028D02*
X253028D01*
X65200Y167700D02*
X70000Y172500D01*
X65200Y145300D02*
Y167700D01*
Y145300D02*
X71000Y139500D01*
X110900D01*
X124500Y125900D01*
X143600D01*
X159000Y110500D01*
X129000Y200500D02*
X144000Y185500D01*
X171900D01*
X179700Y177700D01*
X196000D01*
X199400Y181100D01*
Y196500D01*
X202600Y199700D01*
X223000D01*
X234700Y188000D01*
X256900D01*
X263700Y194800D01*
X78000Y20500D02*
X133600Y76100D01*
Y115900D01*
X129000Y120500D02*
X133600Y115900D01*
X98000Y20500D02*
X105500Y28000D01*
X188100D01*
X22500Y182028D02*
X27972Y187500D01*
X109600D01*
X115000Y192900D01*
Y216500D01*
X129000Y230500D01*
X103858Y255642D02*
X129000Y230500D01*
X80295Y255642D02*
X103858D01*
X139000Y160500D02*
X159000D01*
Y150500D02*
X195000Y114500D01*
X243500D01*
X198000Y20500D02*
X208000D01*
X256500Y260000D02*
X273500Y243000D01*
X170000Y260000D02*
X256500D01*
X273500Y243000D02*
X282472Y234028D01*
X300500D01*
X219000Y176500D02*
X222500Y173000D01*
X243500D01*
X219000Y195713D02*
X231713Y183000D01*
X243500D01*
D36*
X187500Y162500D02*
D03*
Y172500D02*
D03*
Y182500D02*
D03*
Y192500D02*
D03*
Y202500D02*
D03*
Y212500D02*
D03*
X70000Y162500D02*
D03*
Y172500D02*
D03*
Y182500D02*
D03*
Y192500D02*
D03*
Y202500D02*
D03*
Y212500D02*
D03*
X24500Y261500D02*
D03*
Y271500D02*
D03*
X21500Y44500D02*
D03*
Y54500D02*
D03*
Y64500D02*
D03*
Y74500D02*
D03*
Y84500D02*
D03*
Y94500D02*
D03*
X256000Y77500D02*
D03*
X266000D02*
D03*
X256000Y51500D02*
D03*
X266000D02*
D03*
D37*
X159000Y100500D02*
D03*
Y110500D02*
D03*
Y120500D02*
D03*
Y130500D02*
D03*
Y140500D02*
D03*
Y150500D02*
D03*
Y160500D02*
D03*
Y170500D02*
D03*
Y180500D02*
D03*
Y190500D02*
D03*
Y200500D02*
D03*
Y210500D02*
D03*
Y220500D02*
D03*
Y230500D02*
D03*
X129000Y100500D02*
D03*
Y110500D02*
D03*
Y120500D02*
D03*
Y130500D02*
D03*
Y140500D02*
D03*
Y150500D02*
D03*
Y160500D02*
D03*
Y170500D02*
D03*
Y180500D02*
D03*
Y190500D02*
D03*
Y200500D02*
D03*
Y210500D02*
D03*
Y220500D02*
D03*
X54705Y255642D02*
D03*
Y273358D02*
D03*
X80295D02*
D03*
Y255642D02*
D03*
X273500Y104500D02*
D03*
Y114500D02*
D03*
Y124500D02*
D03*
Y134500D02*
D03*
X243500Y104500D02*
D03*
Y114500D02*
D03*
Y124500D02*
D03*
Y233000D02*
D03*
Y223000D02*
D03*
Y213000D02*
D03*
Y203000D02*
D03*
Y193000D02*
D03*
Y183000D02*
D03*
Y173000D02*
D03*
Y163000D02*
D03*
X273500Y243000D02*
D03*
Y233000D02*
D03*
Y223000D02*
D03*
Y213000D02*
D03*
Y203000D02*
D03*
Y193000D02*
D03*
Y183000D02*
D03*
Y173000D02*
D03*
Y163000D02*
D03*
D38*
X129000Y230500D02*
D03*
X243500Y134500D02*
D03*
Y243000D02*
D03*
D39*
X123373Y270000D02*
D03*
X18000Y20500D02*
D03*
X170000Y270000D02*
D03*
D40*
X123373Y260000D02*
D03*
X113373Y270000D02*
D03*
Y260000D02*
D03*
X103373Y270000D02*
D03*
Y260000D02*
D03*
X28000Y20500D02*
D03*
X38000D02*
D03*
X48000D02*
D03*
X58000D02*
D03*
X68000D02*
D03*
X78000D02*
D03*
X88000D02*
D03*
X98000D02*
D03*
X108000D02*
D03*
X118000D02*
D03*
X128000D02*
D03*
X138000D02*
D03*
X148000D02*
D03*
X158000D02*
D03*
X168000D02*
D03*
X178000D02*
D03*
X188000D02*
D03*
X198000D02*
D03*
X208000D02*
D03*
X170000Y260000D02*
D03*
X160000Y270000D02*
D03*
Y260000D02*
D03*
X150000Y270000D02*
D03*
Y260000D02*
D03*
D41*
X63000Y105937D02*
D03*
Y115937D02*
D03*
X218000Y34972D02*
D03*
X22500Y122972D02*
D03*
X300500Y234028D02*
D03*
X301500Y94028D02*
D03*
D42*
X63000Y125937D02*
D03*
D43*
X62016Y45921D02*
D03*
Y55961D02*
D03*
D44*
Y66000D02*
D03*
D45*
X102500Y156894D02*
D03*
X219000Y195713D02*
D03*
D46*
X102500Y166500D02*
D03*
Y176106D02*
D03*
X219000Y186106D02*
D03*
Y176500D02*
D03*
D47*
X218000Y94028D02*
D03*
X22500Y182028D02*
D03*
X300500Y174972D02*
D03*
X301500Y34972D02*
D03*
D48*
X219000Y222819D02*
D03*
Y149819D02*
D03*
X23000Y225500D02*
D03*
X102000Y226500D02*
D03*
Y104500D02*
D03*
D49*
X219000Y242819D02*
D03*
Y129819D02*
D03*
X23000Y205500D02*
D03*
X102000Y206500D02*
D03*
Y124500D02*
D03*
D50*
X175000Y207500D02*
D03*
X119600Y143697D02*
D03*
X78200Y167500D02*
D03*
X263700Y194800D02*
D03*
X188100Y28000D02*
D03*
M02*
