G04*
G04 #@! TF.GenerationSoftware,Altium Limited,Altium Designer,22.9.1 (49)*
G04*
G04 Layer_Physical_Order=1*
G04 Layer_Color=255*
%FSLAX25Y25*%
%MOIN*%
G70*
G04*
G04 #@! TF.SameCoordinates,8C7AA2B9-2782-4D16-8663-33B98A07A00E*
G04*
G04*
G04 #@! TF.FilePolarity,Positive*
G04*
G01*
G75*
%ADD17R,0.03150X0.03740*%
%ADD35C,0.01500*%
%ADD36C,0.06378*%
%ADD37C,0.05906*%
%ADD38R,0.05906X0.05906*%
%ADD39R,0.05394X0.05394*%
%ADD40C,0.05394*%
%ADD41C,0.06299*%
%ADD42R,0.06299X0.06299*%
%ADD43C,0.06693*%
%ADD44R,0.06693X0.06693*%
%ADD45R,0.04724X0.04724*%
%ADD46C,0.04724*%
%ADD47R,0.06299X0.06299*%
%ADD48R,0.05118X0.05118*%
%ADD49C,0.05118*%
%ADD50C,0.03937*%
G36*
X301013Y299166D02*
X301015Y299167D01*
X301018Y299166D01*
X302004D01*
X303959Y298911D01*
X305866Y298405D01*
X307690Y297657D01*
X309403Y296680D01*
X310975Y295489D01*
X312380Y294105D01*
X313594Y292551D01*
X314597Y290853D01*
X315371Y289039D01*
X315905Y287141D01*
X316189Y285189D01*
X316204Y284209D01*
X316700Y20222D01*
X316697Y18962D01*
X316368Y16462D01*
X315716Y14026D01*
X314751Y11697D01*
X313490Y9513D01*
X311955Y7513D01*
X310172Y5730D01*
X308172Y4195D01*
X305988Y2935D01*
X303659Y1970D01*
X301223Y1317D01*
X298724Y988D01*
X297463D01*
X297463Y988D01*
X297462Y988D01*
X19160Y642D01*
X17958D01*
X15572Y956D01*
X13248Y1578D01*
X11024Y2499D01*
X8940Y3703D01*
X7031Y5168D01*
X5329Y6869D01*
X3864Y8779D01*
X2661Y10863D01*
X1740Y13086D01*
X1117Y15411D01*
X803Y17797D01*
Y19000D01*
X803Y19000D01*
X803Y19001D01*
X620Y278308D01*
Y279676D01*
X978Y282391D01*
X1686Y285036D01*
X2734Y287566D01*
X4104Y289938D01*
X5771Y292110D01*
X7707Y294047D01*
X9879Y295714D01*
X12251Y297083D01*
X14781Y298131D01*
X17426Y298840D01*
X20141Y299197D01*
X295998D01*
X301013Y299166D01*
D02*
G37*
%LPC*%
G36*
X81295Y277213D02*
Y274358D01*
X84150D01*
X84146Y274390D01*
X83748Y275352D01*
X83114Y276177D01*
X82289Y276811D01*
X81327Y277209D01*
X81295Y277213D01*
D02*
G37*
G36*
X79295D02*
X79263Y277209D01*
X78302Y276811D01*
X77476Y276177D01*
X76842Y275352D01*
X76444Y274390D01*
X76440Y274358D01*
X79295D01*
Y277213D01*
D02*
G37*
G36*
X54705Y277143D02*
X53725Y277014D01*
X52812Y276636D01*
X52028Y276035D01*
X51427Y275251D01*
X51049Y274338D01*
X50920Y273358D01*
X51049Y272378D01*
X51427Y271466D01*
X52028Y270682D01*
X52812Y270080D01*
X53725Y269702D01*
X54705Y269573D01*
X55685Y269702D01*
X56597Y270080D01*
X57381Y270682D01*
X57983Y271466D01*
X58361Y272378D01*
X58490Y273358D01*
X58361Y274338D01*
X57983Y275251D01*
X57381Y276035D01*
X56597Y276636D01*
X55685Y277014D01*
X54705Y277143D01*
D02*
G37*
G36*
X84150Y272358D02*
X81295D01*
Y269503D01*
X81327Y269507D01*
X82289Y269905D01*
X83114Y270539D01*
X83748Y271365D01*
X84146Y272326D01*
X84150Y272358D01*
D02*
G37*
G36*
X79295D02*
X76440D01*
X76444Y272326D01*
X76842Y271365D01*
X77476Y270539D01*
X78302Y269905D01*
X79263Y269507D01*
X79295Y269503D01*
Y272358D01*
D02*
G37*
G36*
X160000Y273527D02*
X159087Y273407D01*
X158237Y273055D01*
X157506Y272494D01*
X156946Y271763D01*
X156593Y270913D01*
X156473Y270000D01*
X156593Y269087D01*
X156669Y268904D01*
X154583Y266817D01*
X154240Y266305D01*
X154120Y265700D01*
Y260862D01*
X153620Y260829D01*
X153602Y260965D01*
X153229Y261864D01*
X152637Y262637D01*
X151864Y263229D01*
X151000Y263587D01*
Y260000D01*
Y256413D01*
X151864Y256771D01*
X152637Y257363D01*
X153229Y258136D01*
X153602Y259035D01*
X153620Y259171D01*
X154120Y259138D01*
Y253100D01*
X154240Y252495D01*
X154583Y251982D01*
X164785Y241780D01*
Y215060D01*
X164285Y214853D01*
X162920Y216217D01*
X162408Y216560D01*
X161803Y216680D01*
X160892D01*
X160792Y217180D01*
X160893Y217222D01*
X161677Y217824D01*
X162278Y218607D01*
X162656Y219520D01*
X162785Y220500D01*
X162656Y221480D01*
X162278Y222393D01*
X161677Y223177D01*
X160893Y223778D01*
X159980Y224156D01*
X159000Y224285D01*
X158020Y224156D01*
X157107Y223778D01*
X156324Y223177D01*
X155722Y222393D01*
X155344Y221480D01*
X155215Y220500D01*
X155344Y219520D01*
X155722Y218607D01*
X156324Y217824D01*
X157107Y217222D01*
X157208Y217180D01*
X157108Y216680D01*
X144800D01*
X144195Y216560D01*
X143683Y216217D01*
X138382Y210917D01*
X138040Y210405D01*
X137920Y209800D01*
Y202155D01*
X137420Y202105D01*
X137360Y202405D01*
X137018Y202918D01*
X132917Y207017D01*
X132405Y207360D01*
X131990Y207443D01*
X131928Y207518D01*
X131798Y207871D01*
X131797Y207980D01*
X132278Y208607D01*
X132656Y209520D01*
X132785Y210500D01*
X132656Y211480D01*
X132278Y212393D01*
X131676Y213176D01*
X130893Y213778D01*
X129980Y214156D01*
X129000Y214285D01*
X128020Y214156D01*
X127107Y213778D01*
X126323Y213176D01*
X125722Y212393D01*
X125603Y212106D01*
X102812Y212280D01*
X102775Y212273D01*
X102738Y212279D01*
X97638Y212079D01*
X97368Y212014D01*
X97095Y211960D01*
X97069Y211943D01*
X97039Y211935D01*
X96814Y211772D01*
X96583Y211617D01*
X96565Y211591D01*
X96540Y211573D01*
X96394Y211336D01*
X96240Y211105D01*
X96234Y211074D01*
X96217Y211047D01*
X96174Y210772D01*
X96120Y210500D01*
Y177755D01*
X82183Y163818D01*
X81840Y163305D01*
X81720Y162700D01*
Y53955D01*
X59345Y31580D01*
X37500D01*
X36895Y31460D01*
X36382Y31117D01*
X29096Y23831D01*
X28913Y23907D01*
X28000Y24027D01*
X27087Y23907D01*
X26904Y23831D01*
X17880Y32855D01*
Y41843D01*
X18380Y42013D01*
X18655Y41655D01*
X19488Y41016D01*
X20459Y40614D01*
X21500Y40477D01*
X22541Y40614D01*
X23512Y41016D01*
X24345Y41655D01*
X24984Y42488D01*
X25386Y43459D01*
X25523Y44500D01*
X25386Y45541D01*
X25208Y45973D01*
X27417Y48182D01*
X27760Y48695D01*
X27880Y49300D01*
Y109700D01*
X27760Y110305D01*
X27417Y110818D01*
X19380Y118855D01*
Y119758D01*
X19880Y120004D01*
X20508Y119522D01*
X21469Y119124D01*
X22500Y118989D01*
X23531Y119124D01*
X24492Y119522D01*
X25317Y120156D01*
X25950Y120981D01*
X26348Y121941D01*
X26484Y122972D01*
X26348Y124003D01*
X26177Y124415D01*
X28317Y126555D01*
X28660Y127068D01*
X28780Y127672D01*
Y221300D01*
X28660Y221905D01*
X28317Y222417D01*
X26359Y224376D01*
Y228859D01*
X19641D01*
Y222141D01*
X24124D01*
X25620Y220645D01*
Y208606D01*
X25120Y208360D01*
X24795Y208609D01*
X24000Y208938D01*
Y205500D01*
Y202062D01*
X24795Y202391D01*
X25120Y202640D01*
X25620Y202394D01*
Y185977D01*
X18550D01*
Y180313D01*
X16682Y178445D01*
X16340Y177932D01*
X16220Y177328D01*
Y118200D01*
X16340Y117595D01*
X16682Y117083D01*
X24720Y109045D01*
Y97940D01*
X24220Y97693D01*
X23613Y98159D01*
X22593Y98581D01*
X22500Y98593D01*
Y94500D01*
Y90407D01*
X22593Y90419D01*
X23613Y90841D01*
X24220Y91307D01*
X24720Y91060D01*
Y87620D01*
X24220Y87441D01*
X23512Y87984D01*
X22541Y88386D01*
X21500Y88523D01*
X20459Y88386D01*
X19488Y87984D01*
X18655Y87345D01*
X18016Y86512D01*
X17614Y85541D01*
X17477Y84500D01*
X17614Y83459D01*
X18016Y82488D01*
X18655Y81655D01*
X19488Y81016D01*
X20459Y80614D01*
X21500Y80477D01*
X22541Y80614D01*
X23512Y81016D01*
X24220Y81559D01*
X24720Y81380D01*
Y77620D01*
X24220Y77441D01*
X23512Y77984D01*
X22541Y78386D01*
X21500Y78523D01*
X20459Y78386D01*
X19488Y77984D01*
X18655Y77345D01*
X18016Y76512D01*
X17614Y75541D01*
X17477Y74500D01*
X17614Y73459D01*
X18016Y72488D01*
X18655Y71655D01*
X19488Y71016D01*
X20459Y70614D01*
X21500Y70477D01*
X22541Y70614D01*
X23512Y71016D01*
X24220Y71559D01*
X24720Y71380D01*
Y67620D01*
X24220Y67441D01*
X23512Y67984D01*
X22541Y68386D01*
X21500Y68523D01*
X20459Y68386D01*
X19488Y67984D01*
X18655Y67345D01*
X18016Y66512D01*
X17614Y65541D01*
X17477Y64500D01*
X17614Y63459D01*
X17792Y63027D01*
X12882Y58118D01*
X12540Y57605D01*
X12420Y57000D01*
Y24500D01*
X12540Y23895D01*
X12882Y23382D01*
X14503Y21762D01*
Y17003D01*
X21497D01*
Y23997D01*
X16738D01*
X15580Y25155D01*
Y30031D01*
X16042Y30223D01*
X24669Y21596D01*
X24593Y21413D01*
X24473Y20500D01*
X24593Y19587D01*
X24946Y18736D01*
X25506Y18006D01*
X26237Y17446D01*
X27087Y17093D01*
X28000Y16973D01*
X28913Y17093D01*
X29763Y17446D01*
X30494Y18006D01*
X31054Y18736D01*
X31407Y19587D01*
X31527Y20500D01*
X31407Y21413D01*
X31331Y21596D01*
X38155Y28420D01*
X60000D01*
X60605Y28540D01*
X61118Y28883D01*
X83558Y51323D01*
X84020Y51131D01*
Y41255D01*
X70345Y27580D01*
X43500D01*
X42895Y27460D01*
X42382Y27117D01*
X39096Y23831D01*
X38913Y23907D01*
X38000Y24027D01*
X37087Y23907D01*
X36237Y23554D01*
X35506Y22994D01*
X34945Y22264D01*
X34593Y21413D01*
X34473Y20500D01*
X34593Y19587D01*
X34945Y18736D01*
X35506Y18006D01*
X36237Y17446D01*
X37087Y17093D01*
X38000Y16973D01*
X38913Y17093D01*
X39764Y17446D01*
X40494Y18006D01*
X41054Y18736D01*
X41407Y19587D01*
X41527Y20500D01*
X41407Y21413D01*
X41331Y21596D01*
X44155Y24420D01*
X47151D01*
X47184Y23920D01*
X47087Y23907D01*
X46237Y23554D01*
X45506Y22994D01*
X44945Y22264D01*
X44593Y21413D01*
X44473Y20500D01*
X44593Y19587D01*
X44945Y18736D01*
X45506Y18006D01*
X46237Y17446D01*
X47087Y17093D01*
X48000Y16973D01*
X48913Y17093D01*
X49096Y17169D01*
X55182Y11083D01*
X55695Y10740D01*
X56300Y10620D01*
X100000D01*
X100605Y10740D01*
X101118Y11083D01*
X104817Y14783D01*
X105160Y15295D01*
X105280Y15900D01*
Y17549D01*
X105780Y17796D01*
X106237Y17446D01*
X107087Y17093D01*
X108000Y16973D01*
X108913Y17093D01*
X109096Y17169D01*
X116442Y9823D01*
X116954Y9481D01*
X117559Y9360D01*
X155888D01*
X156493Y9481D01*
X157005Y9823D01*
X163365Y16183D01*
X163707Y16695D01*
X163827Y17300D01*
Y97253D01*
X163707Y97858D01*
X163365Y98370D01*
X162527Y99208D01*
X162656Y99520D01*
X162785Y100500D01*
X162656Y101480D01*
X162278Y102393D01*
X161677Y103176D01*
X160893Y103778D01*
X159980Y104156D01*
X159000Y104285D01*
X158020Y104156D01*
X157107Y103778D01*
X156324Y103176D01*
X155722Y102393D01*
X155344Y101480D01*
X155215Y100500D01*
X155344Y99520D01*
X155722Y98607D01*
X156324Y97824D01*
X157107Y97222D01*
X158020Y96844D01*
X159000Y96715D01*
X159980Y96844D01*
X160292Y96973D01*
X160667Y96598D01*
Y23492D01*
X160167Y23245D01*
X159764Y23554D01*
X158913Y23907D01*
X158000Y24027D01*
X157087Y23907D01*
X156237Y23554D01*
X155506Y22994D01*
X154946Y22264D01*
X154593Y21413D01*
X154473Y20500D01*
X154593Y19587D01*
X154946Y18736D01*
X155506Y18006D01*
X156237Y17446D01*
X157087Y17093D01*
X158000Y16973D01*
X158913Y17093D01*
X159229Y17224D01*
X159512Y16800D01*
X155233Y12521D01*
X150356D01*
X150165Y12983D01*
X153365Y16183D01*
X153707Y16695D01*
X153827Y17300D01*
Y173092D01*
X157708Y176973D01*
X158020Y176844D01*
X159000Y176715D01*
X159980Y176844D01*
X160893Y177222D01*
X161677Y177823D01*
X162278Y178607D01*
X162656Y179520D01*
X162785Y180500D01*
X162656Y181480D01*
X162278Y182393D01*
X161677Y183177D01*
X160893Y183778D01*
X159980Y184156D01*
X159000Y184285D01*
X158020Y184156D01*
X157107Y183778D01*
X156324Y183177D01*
X155722Y182393D01*
X155344Y181480D01*
X155215Y180500D01*
X155344Y179520D01*
X155473Y179208D01*
X151480Y175215D01*
X150980Y175423D01*
Y190245D01*
X157708Y196973D01*
X158020Y196844D01*
X159000Y196715D01*
X159980Y196844D01*
X160893Y197222D01*
X161422Y197629D01*
X161922Y197382D01*
Y195657D01*
X160292Y194027D01*
X159980Y194156D01*
X159000Y194285D01*
X158020Y194156D01*
X157107Y193778D01*
X156324Y193176D01*
X155722Y192393D01*
X155344Y191480D01*
X155215Y190500D01*
X155344Y189520D01*
X155722Y188607D01*
X156324Y187823D01*
X157107Y187222D01*
X158020Y186844D01*
X159000Y186715D01*
X159980Y186844D01*
X160893Y187222D01*
X161677Y187823D01*
X162278Y188607D01*
X162656Y189520D01*
X162785Y190500D01*
X162656Y191480D01*
X162527Y191792D01*
X164285Y193550D01*
X164785Y193343D01*
Y148520D01*
X160292Y144027D01*
X159980Y144156D01*
X159000Y144285D01*
X158020Y144156D01*
X157107Y143778D01*
X156324Y143176D01*
X155722Y142393D01*
X155344Y141480D01*
X155215Y140500D01*
X155344Y139520D01*
X155722Y138607D01*
X156324Y137823D01*
X157107Y137222D01*
X158020Y136844D01*
X159000Y136715D01*
X159980Y136844D01*
X160893Y137222D01*
X161677Y137823D01*
X162278Y138607D01*
X162656Y139520D01*
X162785Y140500D01*
X162656Y141480D01*
X162527Y141792D01*
X166623Y145888D01*
X167085Y145697D01*
Y140820D01*
X160292Y134027D01*
X159980Y134156D01*
X159000Y134285D01*
X158020Y134156D01*
X157107Y133778D01*
X156324Y133177D01*
X155722Y132393D01*
X155344Y131480D01*
X155215Y130500D01*
X155344Y129520D01*
X155722Y128607D01*
X156324Y127823D01*
X157107Y127222D01*
X158020Y126844D01*
X159000Y126715D01*
X159980Y126844D01*
X160893Y127222D01*
X161677Y127823D01*
X162278Y128607D01*
X162656Y129520D01*
X162785Y130500D01*
X162656Y131480D01*
X162527Y131792D01*
X169783Y139048D01*
X170125Y139560D01*
X170246Y140165D01*
Y251335D01*
X170125Y251940D01*
X169783Y252452D01*
X163331Y258904D01*
X163407Y259087D01*
X163527Y260000D01*
X163407Y260913D01*
X163055Y261764D01*
X162494Y262494D01*
X161764Y263054D01*
X160913Y263407D01*
X160000Y263527D01*
X159087Y263407D01*
X158237Y263054D01*
X157780Y262704D01*
X157280Y262951D01*
Y265045D01*
X158904Y266669D01*
X159087Y266593D01*
X160000Y266473D01*
X160913Y266593D01*
X161764Y266946D01*
X162494Y267506D01*
X163055Y268236D01*
X163407Y269087D01*
X163527Y270000D01*
X163407Y270913D01*
X163055Y271763D01*
X162494Y272494D01*
X161764Y273055D01*
X160913Y273407D01*
X160000Y273527D01*
D02*
G37*
G36*
X150000D02*
X149087Y273407D01*
X148237Y273055D01*
X147506Y272494D01*
X146946Y271763D01*
X146593Y270913D01*
X146473Y270000D01*
X146593Y269087D01*
X146669Y268904D01*
X127883Y250117D01*
X127540Y249605D01*
X127420Y249000D01*
Y234253D01*
X125247D01*
Y226747D01*
X132753D01*
Y234253D01*
X130580D01*
Y248345D01*
X148904Y266669D01*
X149087Y266593D01*
X150000Y266473D01*
X150913Y266593D01*
X151763Y266946D01*
X152494Y267506D01*
X153054Y268236D01*
X153407Y269087D01*
X153527Y270000D01*
X153407Y270913D01*
X153054Y271763D01*
X152494Y272494D01*
X151763Y273055D01*
X150913Y273407D01*
X150000Y273527D01*
D02*
G37*
G36*
X25500Y265594D02*
Y262500D01*
X28594D01*
X28581Y262594D01*
X28159Y263613D01*
X27488Y264488D01*
X26613Y265159D01*
X25594Y265581D01*
X25500Y265594D01*
D02*
G37*
G36*
X23500D02*
X23406Y265581D01*
X22387Y265159D01*
X21512Y264488D01*
X20841Y263613D01*
X20419Y262594D01*
X20406Y262500D01*
X23500D01*
Y265594D01*
D02*
G37*
G36*
X173497Y273497D02*
X166503D01*
Y266503D01*
X171262D01*
X173420Y264345D01*
Y262109D01*
X172920Y261939D01*
X172494Y262494D01*
X171764Y263054D01*
X170913Y263407D01*
X170000Y263527D01*
X169087Y263407D01*
X168236Y263054D01*
X167506Y262494D01*
X166946Y261764D01*
X166593Y260913D01*
X166473Y260000D01*
X166593Y259087D01*
X166946Y258237D01*
X167506Y257506D01*
X168236Y256945D01*
X169087Y256593D01*
X170000Y256473D01*
X170913Y256593D01*
X171764Y256945D01*
X172494Y257506D01*
X172920Y258061D01*
X173420Y257891D01*
Y209777D01*
X173026Y209474D01*
X172582Y208896D01*
X172303Y208223D01*
X172208Y207500D01*
X172303Y206777D01*
X172582Y206104D01*
X173026Y205525D01*
X173420Y205223D01*
Y137155D01*
X160292Y124027D01*
X159980Y124156D01*
X159000Y124285D01*
X158020Y124156D01*
X157107Y123778D01*
X156324Y123177D01*
X155722Y122393D01*
X155344Y121480D01*
X155215Y120500D01*
X155344Y119520D01*
X155722Y118607D01*
X156324Y117824D01*
X157107Y117222D01*
X158020Y116844D01*
X159000Y116715D01*
X159980Y116844D01*
X160893Y117222D01*
X161677Y117824D01*
X162278Y118607D01*
X162656Y119520D01*
X162785Y120500D01*
X162656Y121480D01*
X162527Y121792D01*
X176118Y135382D01*
X176460Y135895D01*
X176580Y136500D01*
Y205223D01*
X176974Y205525D01*
X177418Y206104D01*
X177697Y206777D01*
X177792Y207500D01*
X177697Y208223D01*
X177418Y208896D01*
X176974Y209474D01*
X176580Y209777D01*
Y265000D01*
X176460Y265605D01*
X176118Y266118D01*
X173497Y268738D01*
Y273497D01*
D02*
G37*
G36*
X149000Y263587D02*
X148136Y263229D01*
X147363Y262637D01*
X146771Y261864D01*
X146413Y261000D01*
X149000D01*
Y263587D01*
D02*
G37*
G36*
X28594Y260500D02*
X25500D01*
Y257406D01*
X25594Y257419D01*
X26613Y257841D01*
X27488Y258512D01*
X28159Y259387D01*
X28581Y260406D01*
X28594Y260500D01*
D02*
G37*
G36*
X23500D02*
X20406D01*
X20419Y260406D01*
X20841Y259387D01*
X21512Y258512D01*
X22387Y257841D01*
X23406Y257419D01*
X23500Y257406D01*
Y260500D01*
D02*
G37*
G36*
X126870Y273497D02*
X119876D01*
Y266503D01*
X121792D01*
Y263130D01*
X121609Y263054D01*
X120879Y262494D01*
X120318Y261764D01*
X119966Y260913D01*
X119846Y260000D01*
X119966Y259087D01*
X120318Y258237D01*
X120879Y257506D01*
X121609Y256945D01*
X122460Y256593D01*
X123373Y256473D01*
X124286Y256593D01*
X125136Y256945D01*
X125867Y257506D01*
X126427Y258237D01*
X126780Y259087D01*
X126900Y260000D01*
X126780Y260913D01*
X126427Y261764D01*
X125867Y262494D01*
X125136Y263054D01*
X124953Y263130D01*
Y266503D01*
X126870D01*
Y273497D01*
D02*
G37*
G36*
X24500Y275523D02*
X23459Y275386D01*
X22488Y274984D01*
X21655Y274345D01*
X21016Y273512D01*
X20614Y272541D01*
X20477Y271500D01*
X20614Y270459D01*
X21016Y269488D01*
X21655Y268655D01*
X22488Y268016D01*
X23459Y267614D01*
X24500Y267477D01*
X25541Y267614D01*
X25973Y267792D01*
X45920Y247845D01*
Y141437D01*
X46040Y140832D01*
X46382Y140320D01*
X59050Y127652D01*
Y121987D01*
X59499D01*
X59690Y121526D01*
X55983Y117817D01*
X55640Y117305D01*
X55520Y116700D01*
Y60876D01*
X55640Y60272D01*
X55983Y59759D01*
X58188Y57554D01*
X57976Y57043D01*
X57834Y55961D01*
X57976Y54878D01*
X58394Y53869D01*
X59058Y53003D01*
X59925Y52339D01*
X60933Y51921D01*
X62016Y51778D01*
X63098Y51921D01*
X64107Y52339D01*
X64920Y52962D01*
X65410Y52855D01*
X65420Y52852D01*
Y51560D01*
X63609Y49749D01*
X63098Y49961D01*
X62016Y50103D01*
X60933Y49961D01*
X59925Y49543D01*
X59058Y48878D01*
X58394Y48012D01*
X57976Y47004D01*
X57834Y45921D01*
X57976Y44839D01*
X58394Y43830D01*
X59058Y42964D01*
X59925Y42299D01*
X60933Y41881D01*
X62016Y41739D01*
X63098Y41881D01*
X64107Y42299D01*
X64973Y42964D01*
X65638Y43830D01*
X66056Y44839D01*
X66198Y45921D01*
X66056Y47004D01*
X65844Y47514D01*
X68117Y49788D01*
X68460Y50301D01*
X68580Y50905D01*
Y101937D01*
X68460Y102542D01*
X68117Y103054D01*
X66677Y104495D01*
X66848Y104906D01*
X66984Y105937D01*
X66848Y106968D01*
X66677Y107379D01*
X71118Y111820D01*
X71460Y112332D01*
X71580Y112937D01*
Y158837D01*
X72012Y159016D01*
X72845Y159655D01*
X73484Y160488D01*
X73886Y161459D01*
X74023Y162500D01*
X73886Y163541D01*
X73484Y164512D01*
X72845Y165345D01*
X72713Y165446D01*
X72874Y165920D01*
X75923D01*
X76226Y165525D01*
X76804Y165082D01*
X77477Y164803D01*
X78200Y164708D01*
X78923Y164803D01*
X79596Y165082D01*
X80174Y165525D01*
X80618Y166104D01*
X80897Y166777D01*
X80992Y167500D01*
X80897Y168223D01*
X80618Y168896D01*
X80174Y169474D01*
X79596Y169918D01*
X78923Y170197D01*
X78200Y170292D01*
X77477Y170197D01*
X76804Y169918D01*
X76226Y169474D01*
X75923Y169080D01*
X72874D01*
X72713Y169554D01*
X72845Y169655D01*
X73484Y170488D01*
X73886Y171459D01*
X74023Y172500D01*
X73886Y173541D01*
X73484Y174512D01*
X72845Y175345D01*
X72487Y175620D01*
X72657Y176120D01*
X74700D01*
X75305Y176240D01*
X75818Y176583D01*
X94918Y195683D01*
X95260Y196195D01*
X95380Y196800D01*
Y239773D01*
X112277Y256669D01*
X112460Y256593D01*
X113373Y256473D01*
X114286Y256593D01*
X115136Y256945D01*
X115867Y257506D01*
X116427Y258237D01*
X116780Y259087D01*
X116900Y260000D01*
X116780Y260913D01*
X116427Y261764D01*
X115867Y262494D01*
X115136Y263054D01*
X114953Y263130D01*
Y266870D01*
X115136Y266946D01*
X115867Y267506D01*
X116427Y268236D01*
X116780Y269087D01*
X116900Y270000D01*
X116780Y270913D01*
X116427Y271763D01*
X115867Y272494D01*
X115136Y273055D01*
X114286Y273407D01*
X113373Y273527D01*
X112460Y273407D01*
X111609Y273055D01*
X110879Y272494D01*
X110318Y271763D01*
X109966Y270913D01*
X109846Y270000D01*
X109966Y269087D01*
X110318Y268236D01*
X110879Y267506D01*
X111609Y266946D01*
X111792Y266870D01*
Y263130D01*
X111609Y263054D01*
X110879Y262494D01*
X110318Y261764D01*
X109966Y260913D01*
X109846Y260000D01*
X109966Y259087D01*
X110042Y258904D01*
X92682Y241545D01*
X92340Y241032D01*
X92220Y240427D01*
Y197455D01*
X74045Y179280D01*
X73120D01*
X72941Y179780D01*
X73484Y180488D01*
X73886Y181459D01*
X74023Y182500D01*
X73886Y183541D01*
X73708Y183973D01*
X88318Y198582D01*
X88660Y199095D01*
X88780Y199700D01*
Y243173D01*
X102277Y256669D01*
X102460Y256593D01*
X103373Y256473D01*
X104286Y256593D01*
X105136Y256945D01*
X105867Y257506D01*
X106427Y258237D01*
X106780Y259087D01*
X106900Y260000D01*
X106780Y260913D01*
X106427Y261764D01*
X105867Y262494D01*
X105136Y263054D01*
X104953Y263130D01*
Y266870D01*
X105136Y266946D01*
X105867Y267506D01*
X106427Y268236D01*
X106780Y269087D01*
X106900Y270000D01*
X106780Y270913D01*
X106427Y271763D01*
X105867Y272494D01*
X105136Y273055D01*
X104286Y273407D01*
X103373Y273527D01*
X102460Y273407D01*
X101609Y273055D01*
X100879Y272494D01*
X100318Y271763D01*
X99966Y270913D01*
X99846Y270000D01*
X99966Y269087D01*
X100318Y268236D01*
X100879Y267506D01*
X101609Y266946D01*
X101792Y266870D01*
Y263130D01*
X101609Y263054D01*
X100879Y262494D01*
X100318Y261764D01*
X99966Y260913D01*
X99846Y260000D01*
X99966Y259087D01*
X100042Y258904D01*
X86083Y244945D01*
X85740Y244432D01*
X85620Y243827D01*
Y200355D01*
X71473Y186208D01*
X71041Y186386D01*
X70000Y186523D01*
X68959Y186386D01*
X67988Y185984D01*
X67280Y185441D01*
X66780Y185620D01*
Y187045D01*
X68527Y188792D01*
X68959Y188614D01*
X70000Y188477D01*
X71041Y188614D01*
X72012Y189016D01*
X72845Y189655D01*
X73484Y190488D01*
X73886Y191459D01*
X74023Y192500D01*
X73886Y193541D01*
X73484Y194512D01*
X72845Y195345D01*
X72012Y195984D01*
X71041Y196386D01*
X70000Y196523D01*
X68959Y196386D01*
X67988Y195984D01*
X67155Y195345D01*
X66516Y194512D01*
X66114Y193541D01*
X65977Y192500D01*
X66114Y191459D01*
X66292Y191027D01*
X64082Y188818D01*
X63740Y188305D01*
X63620Y187700D01*
Y180500D01*
X63740Y179895D01*
X64082Y179383D01*
X66882Y176583D01*
X67395Y176240D01*
X67478Y176223D01*
X67603Y175689D01*
X67155Y175345D01*
X66516Y174512D01*
X66114Y173541D01*
X65977Y172500D01*
X66114Y171459D01*
X66516Y170488D01*
X67155Y169655D01*
X67436Y169439D01*
X67312Y168904D01*
X66882Y168617D01*
X62883Y164618D01*
X62540Y164105D01*
X62420Y163500D01*
Y133600D01*
X62540Y132995D01*
X62883Y132483D01*
X65017Y130349D01*
X64825Y129887D01*
X61285D01*
X49080Y142092D01*
Y248500D01*
X48960Y249105D01*
X48618Y249618D01*
X28208Y270027D01*
X28386Y270459D01*
X28523Y271500D01*
X28386Y272541D01*
X27984Y273512D01*
X27345Y274345D01*
X26512Y274984D01*
X25541Y275386D01*
X24500Y275523D01*
D02*
G37*
G36*
X149000Y259000D02*
X146413D01*
X146771Y258136D01*
X147363Y257363D01*
X148136Y256771D01*
X149000Y256413D01*
Y259000D01*
D02*
G37*
G36*
X80295Y259427D02*
X79316Y259298D01*
X78403Y258920D01*
X77619Y258318D01*
X77017Y257534D01*
X76639Y256622D01*
X76510Y255642D01*
X76639Y254662D01*
X77017Y253749D01*
X77619Y252965D01*
X78403Y252364D01*
X79316Y251986D01*
X80295Y251857D01*
X81275Y251986D01*
X82188Y252364D01*
X82972Y252965D01*
X83573Y253749D01*
X83951Y254662D01*
X84080Y255642D01*
X83951Y256622D01*
X83573Y257534D01*
X82972Y258318D01*
X82188Y258920D01*
X81275Y259298D01*
X80295Y259427D01*
D02*
G37*
G36*
X54705D02*
X53725Y259298D01*
X52812Y258920D01*
X52028Y258318D01*
X51427Y257534D01*
X51049Y256622D01*
X50920Y255642D01*
X51049Y254662D01*
X51427Y253749D01*
X52028Y252965D01*
X52812Y252364D01*
X53725Y251986D01*
X54705Y251857D01*
X55685Y251986D01*
X56597Y252364D01*
X57381Y252965D01*
X57983Y253749D01*
X58361Y254662D01*
X58490Y255642D01*
X58361Y256622D01*
X57983Y257534D01*
X57381Y258318D01*
X56597Y258920D01*
X55685Y259298D01*
X54705Y259427D01*
D02*
G37*
G36*
X220000Y246257D02*
Y243819D01*
X222438D01*
X222109Y244614D01*
X221538Y245357D01*
X220795Y245928D01*
X220000Y246257D01*
D02*
G37*
G36*
X218000D02*
X217205Y245928D01*
X216462Y245357D01*
X215891Y244614D01*
X215562Y243819D01*
X218000D01*
Y246257D01*
D02*
G37*
G36*
X222438Y241819D02*
X220000D01*
Y239381D01*
X220795Y239710D01*
X221538Y240281D01*
X222109Y241024D01*
X222438Y241819D01*
D02*
G37*
G36*
X218000D02*
X215562D01*
X215891Y241024D01*
X216462Y240281D01*
X217205Y239710D01*
X218000Y239381D01*
Y241819D01*
D02*
G37*
G36*
X300500Y238011D02*
X299469Y237876D01*
X298508Y237478D01*
X297683Y236844D01*
X297050Y236019D01*
X296652Y235059D01*
X296516Y234028D01*
X296652Y232997D01*
X297050Y232036D01*
X297683Y231211D01*
X298508Y230578D01*
X299469Y230180D01*
X300500Y230044D01*
X301531Y230180D01*
X302492Y230578D01*
X303317Y231211D01*
X303950Y232036D01*
X304348Y232997D01*
X304484Y234028D01*
X304348Y235059D01*
X303950Y236019D01*
X303317Y236844D01*
X302492Y237478D01*
X301531Y237876D01*
X300500Y238011D01*
D02*
G37*
G36*
X105559Y230059D02*
X103000D01*
Y227500D01*
X105559D01*
Y230059D01*
D02*
G37*
G36*
X101000D02*
X98441D01*
Y227500D01*
X101000D01*
Y230059D01*
D02*
G37*
G36*
X159000Y234285D02*
X158020Y234156D01*
X157107Y233778D01*
X156324Y233176D01*
X155722Y232393D01*
X155344Y231480D01*
X155215Y230500D01*
X155344Y229520D01*
X155722Y228607D01*
X156324Y227823D01*
X157107Y227222D01*
X158020Y226844D01*
X159000Y226715D01*
X159980Y226844D01*
X160893Y227222D01*
X161677Y227823D01*
X162278Y228607D01*
X162656Y229520D01*
X162785Y230500D01*
X162656Y231480D01*
X162278Y232393D01*
X161677Y233176D01*
X160893Y233778D01*
X159980Y234156D01*
X159000Y234285D01*
D02*
G37*
G36*
X105559Y225500D02*
X103000D01*
Y222941D01*
X105559D01*
Y225500D01*
D02*
G37*
G36*
X101000D02*
X98441D01*
Y222941D01*
X101000D01*
Y225500D01*
D02*
G37*
G36*
X129000Y224285D02*
X128020Y224156D01*
X127107Y223778D01*
X126323Y223177D01*
X125722Y222393D01*
X125344Y221480D01*
X125215Y220500D01*
X125344Y219520D01*
X125722Y218607D01*
X126323Y217824D01*
X127107Y217222D01*
X128020Y216844D01*
X129000Y216715D01*
X129980Y216844D01*
X130893Y217222D01*
X131676Y217824D01*
X132278Y218607D01*
X132656Y219520D01*
X132785Y220500D01*
X132656Y221480D01*
X132278Y222393D01*
X131676Y223177D01*
X130893Y223778D01*
X129980Y224156D01*
X129000Y224285D01*
D02*
G37*
G36*
X71000Y216594D02*
Y213500D01*
X74094D01*
X74081Y213594D01*
X73659Y214613D01*
X72988Y215488D01*
X72113Y216159D01*
X71094Y216581D01*
X71000Y216594D01*
D02*
G37*
G36*
X69000D02*
X68906Y216581D01*
X67887Y216159D01*
X67012Y215488D01*
X66341Y214613D01*
X65919Y213594D01*
X65907Y213500D01*
X69000D01*
Y216594D01*
D02*
G37*
G36*
X187500Y216523D02*
X186459Y216386D01*
X185488Y215984D01*
X184655Y215345D01*
X184016Y214512D01*
X183614Y213541D01*
X183477Y212500D01*
X183614Y211459D01*
X184016Y210488D01*
X184655Y209655D01*
X185488Y209016D01*
X186459Y208614D01*
X187500Y208477D01*
X188541Y208614D01*
X189512Y209016D01*
X190345Y209655D01*
X190984Y210488D01*
X191386Y211459D01*
X191523Y212500D01*
X191386Y213541D01*
X190984Y214512D01*
X190345Y215345D01*
X189512Y215984D01*
X188541Y216386D01*
X187500Y216523D01*
D02*
G37*
G36*
X74094Y211500D02*
X71000D01*
Y208406D01*
X71094Y208419D01*
X72113Y208841D01*
X72988Y209512D01*
X73659Y210387D01*
X74081Y211406D01*
X74094Y211500D01*
D02*
G37*
G36*
X69000D02*
X65907D01*
X65919Y211406D01*
X66341Y210387D01*
X67012Y209512D01*
X67887Y208841D01*
X68906Y208419D01*
X69000Y208406D01*
Y211500D01*
D02*
G37*
G36*
X22000Y208938D02*
X21205Y208609D01*
X20462Y208038D01*
X19891Y207295D01*
X19562Y206500D01*
X22000D01*
Y208938D01*
D02*
G37*
G36*
Y204500D02*
X19562D01*
X19891Y203705D01*
X20462Y202962D01*
X21205Y202391D01*
X22000Y202062D01*
Y204500D01*
D02*
G37*
G36*
X187500Y206523D02*
X186459Y206386D01*
X185488Y205984D01*
X184655Y205345D01*
X184016Y204512D01*
X183614Y203541D01*
X183477Y202500D01*
X183614Y201459D01*
X184016Y200488D01*
X184655Y199655D01*
X185488Y199016D01*
X186459Y198614D01*
X187500Y198477D01*
X188541Y198614D01*
X189512Y199016D01*
X190345Y199655D01*
X190984Y200488D01*
X191386Y201459D01*
X191523Y202500D01*
X191386Y203541D01*
X190984Y204512D01*
X190345Y205345D01*
X189512Y205984D01*
X188541Y206386D01*
X187500Y206523D01*
D02*
G37*
G36*
X70000D02*
X68959Y206386D01*
X67988Y205984D01*
X67155Y205345D01*
X66516Y204512D01*
X66114Y203541D01*
X65977Y202500D01*
X66114Y201459D01*
X66516Y200488D01*
X67155Y199655D01*
X67988Y199016D01*
X68959Y198614D01*
X70000Y198477D01*
X71041Y198614D01*
X72012Y199016D01*
X72845Y199655D01*
X73484Y200488D01*
X73886Y201459D01*
X74023Y202500D01*
X73886Y203541D01*
X73484Y204512D01*
X72845Y205345D01*
X72012Y205984D01*
X71041Y206386D01*
X70000Y206523D01*
D02*
G37*
G36*
X187500Y196523D02*
X186459Y196386D01*
X185488Y195984D01*
X184655Y195345D01*
X184016Y194512D01*
X183614Y193541D01*
X183477Y192500D01*
X183614Y191459D01*
X184016Y190488D01*
X184655Y189655D01*
X185488Y189016D01*
X186459Y188614D01*
X187500Y188477D01*
X188541Y188614D01*
X189512Y189016D01*
X190345Y189655D01*
X190984Y190488D01*
X191386Y191459D01*
X191523Y192500D01*
X191386Y193541D01*
X190984Y194512D01*
X190345Y195345D01*
X189512Y195984D01*
X188541Y196386D01*
X187500Y196523D01*
D02*
G37*
G36*
X219000Y189296D02*
X218175Y189187D01*
X217405Y188869D01*
X216745Y188362D01*
X216238Y187701D01*
X215919Y186932D01*
X215810Y186106D01*
X215919Y185281D01*
X216238Y184512D01*
X216745Y183851D01*
X217405Y183344D01*
X218175Y183026D01*
X219000Y182917D01*
X219826Y183026D01*
X220595Y183344D01*
X221255Y183851D01*
X221762Y184512D01*
X222081Y185281D01*
X222189Y186106D01*
X222081Y186932D01*
X221762Y187701D01*
X221255Y188362D01*
X220595Y188869D01*
X219826Y189187D01*
X219000Y189296D01*
D02*
G37*
G36*
X187500Y186523D02*
X186459Y186386D01*
X185488Y185984D01*
X184655Y185345D01*
X184016Y184512D01*
X183614Y183541D01*
X183477Y182500D01*
X183614Y181459D01*
X184016Y180488D01*
X184655Y179655D01*
X185488Y179016D01*
X186459Y178614D01*
X187500Y178477D01*
X188541Y178614D01*
X189512Y179016D01*
X190345Y179655D01*
X190984Y180488D01*
X191386Y181459D01*
X191523Y182500D01*
X191386Y183541D01*
X190984Y184512D01*
X190345Y185345D01*
X189512Y185984D01*
X188541Y186386D01*
X187500Y186523D01*
D02*
G37*
G36*
X160000Y174355D02*
Y171500D01*
X162855D01*
X162851Y171532D01*
X162453Y172493D01*
X161819Y173319D01*
X160993Y173953D01*
X160032Y174351D01*
X160000Y174355D01*
D02*
G37*
G36*
X158000D02*
X157968Y174351D01*
X157007Y173953D01*
X156181Y173319D01*
X155547Y172493D01*
X155149Y171532D01*
X155145Y171500D01*
X158000D01*
Y174355D01*
D02*
G37*
G36*
X276300Y278080D02*
X258318D01*
X257713Y277960D01*
X257201Y277618D01*
X254001Y274417D01*
X253658Y273905D01*
X253538Y273300D01*
Y269170D01*
X252875D01*
X252743Y269170D01*
X252375D01*
X252243Y269170D01*
X247625D01*
Y263830D01*
X247642D01*
X247833Y263368D01*
X223283Y238818D01*
X222940Y238305D01*
X222820Y237700D01*
Y226273D01*
X222359Y226178D01*
X222320Y226178D01*
X215641D01*
Y219460D01*
X217420D01*
Y198875D01*
X215838D01*
Y192550D01*
X222162D01*
Y198875D01*
X220580D01*
Y219460D01*
X222320D01*
X222359Y219460D01*
X222820Y219365D01*
Y153273D01*
X222359Y153178D01*
X222320Y153178D01*
X220580D01*
Y173732D01*
X220595Y173738D01*
X221255Y174245D01*
X221762Y174905D01*
X222081Y175674D01*
X222189Y176500D01*
X222081Y177325D01*
X221762Y178095D01*
X221255Y178755D01*
X220595Y179262D01*
X219826Y179581D01*
X219000Y179690D01*
X218175Y179581D01*
X217405Y179262D01*
X216745Y178755D01*
X216238Y178095D01*
X215919Y177325D01*
X215810Y176500D01*
X215919Y175674D01*
X216238Y174905D01*
X216745Y174245D01*
X217405Y173738D01*
X217420Y173732D01*
Y153178D01*
X215641D01*
Y146460D01*
X222320D01*
X222359Y146460D01*
X222820Y146365D01*
Y131204D01*
X222320Y131105D01*
X222109Y131614D01*
X221538Y132357D01*
X220795Y132928D01*
X220000Y133257D01*
Y129819D01*
Y126381D01*
X220795Y126710D01*
X221538Y127281D01*
X222109Y128024D01*
X222320Y128533D01*
X222820Y128434D01*
Y115655D01*
X186983Y79817D01*
X186640Y79305D01*
X186520Y78700D01*
Y30277D01*
X186126Y29974D01*
X185682Y29396D01*
X185403Y28723D01*
X185308Y28000D01*
X185403Y27277D01*
X185682Y26604D01*
X186126Y26026D01*
X186704Y25582D01*
X187377Y25303D01*
X188100Y25208D01*
X188823Y25303D01*
X189496Y25582D01*
X190075Y26026D01*
X190518Y26604D01*
X190797Y27277D01*
X190892Y28000D01*
X190797Y28723D01*
X190518Y29396D01*
X190075Y29974D01*
X189680Y30277D01*
Y78045D01*
X225518Y113883D01*
X225860Y114395D01*
X225980Y115000D01*
Y237045D01*
X251117Y262182D01*
X251460Y262695D01*
X251580Y263300D01*
Y263830D01*
X252243D01*
X252375Y263830D01*
X252743D01*
X252875Y263830D01*
X256820D01*
Y130055D01*
X244792Y118027D01*
X244480Y118156D01*
X243500Y118285D01*
X242520Y118156D01*
X241607Y117778D01*
X240980Y117297D01*
X240480Y117506D01*
Y121204D01*
X240980Y121451D01*
X241507Y121047D01*
X242468Y120649D01*
X242500Y120645D01*
Y124500D01*
Y128355D01*
X242468Y128351D01*
X241507Y127953D01*
X240980Y127549D01*
X240480Y127796D01*
Y130747D01*
X247253D01*
Y136018D01*
X249218Y137982D01*
X249560Y138495D01*
X249680Y139100D01*
Y238400D01*
X249560Y239005D01*
X249218Y239517D01*
X247253Y241482D01*
Y246753D01*
X239747D01*
Y239247D01*
X245018D01*
X246520Y237745D01*
Y236006D01*
X246020Y235797D01*
X245393Y236278D01*
X244480Y236656D01*
X243500Y236785D01*
X242520Y236656D01*
X241607Y236278D01*
X240824Y235677D01*
X240222Y234893D01*
X239844Y233980D01*
X239715Y233000D01*
X239844Y232020D01*
X239973Y231708D01*
X237783Y229518D01*
X237440Y229005D01*
X237320Y228400D01*
Y109100D01*
X237440Y108495D01*
X237783Y107983D01*
X239973Y105792D01*
X239844Y105480D01*
X239715Y104500D01*
X239844Y103520D01*
X240222Y102607D01*
X240824Y101823D01*
X241607Y101222D01*
X242520Y100844D01*
X243500Y100715D01*
X244480Y100844D01*
X245393Y101222D01*
X246020Y101703D01*
X246520Y101494D01*
Y90555D01*
X206883Y50918D01*
X206540Y50405D01*
X206420Y49800D01*
Y23630D01*
X206237Y23554D01*
X205506Y22994D01*
X204945Y22264D01*
X204593Y21413D01*
X204473Y20500D01*
X204593Y19587D01*
X204945Y18736D01*
X205506Y18006D01*
X206237Y17446D01*
X207087Y17093D01*
X208000Y16973D01*
X208913Y17093D01*
X209764Y17446D01*
X210494Y18006D01*
X211054Y18736D01*
X211407Y19587D01*
X211527Y20500D01*
X211407Y21413D01*
X211054Y22264D01*
X210494Y22994D01*
X209764Y23554D01*
X209580Y23630D01*
Y49145D01*
X249218Y88783D01*
X249560Y89295D01*
X249680Y89900D01*
Y109900D01*
X249560Y110505D01*
X249218Y111018D01*
X247027Y113208D01*
X247156Y113520D01*
X247285Y114500D01*
X247156Y115480D01*
X247027Y115792D01*
X259518Y128282D01*
X259860Y128795D01*
X259980Y129400D01*
Y269445D01*
X262955Y272420D01*
X264649D01*
X264732Y272319D01*
X264635Y271653D01*
X264582Y271618D01*
X262582Y269618D01*
X262240Y269105D01*
X262120Y268500D01*
Y197077D01*
X261725Y196774D01*
X261282Y196196D01*
X261003Y195523D01*
X260908Y194800D01*
X261003Y194077D01*
X261282Y193404D01*
X261725Y192825D01*
X262304Y192382D01*
X262977Y192103D01*
X263700Y192008D01*
X264423Y192103D01*
X265096Y192382D01*
X265674Y192825D01*
X266118Y193404D01*
X266397Y194077D01*
X266492Y194800D01*
X266397Y195523D01*
X266118Y196196D01*
X265674Y196774D01*
X265280Y197077D01*
Y224672D01*
X265780Y224879D01*
X267301Y223358D01*
Y187618D01*
X267422Y187013D01*
X267764Y186501D01*
X269973Y184292D01*
X269844Y183980D01*
X269715Y183000D01*
X269844Y182020D01*
X270222Y181107D01*
X270824Y180324D01*
X271607Y179722D01*
X272520Y179344D01*
X273500Y179215D01*
X274480Y179344D01*
X275393Y179722D01*
X276177Y180324D01*
X276778Y181107D01*
X277156Y182020D01*
X277285Y183000D01*
X277156Y183980D01*
X276778Y184893D01*
X276177Y185677D01*
X275393Y186278D01*
X274480Y186656D01*
X273500Y186785D01*
X272520Y186656D01*
X272208Y186527D01*
X270462Y188273D01*
Y190025D01*
X270962Y190217D01*
X271607Y189722D01*
X272520Y189344D01*
X273500Y189215D01*
X274480Y189344D01*
X275393Y189722D01*
X276177Y190323D01*
X276778Y191107D01*
X277156Y192020D01*
X277285Y193000D01*
X277156Y193980D01*
X276778Y194893D01*
X276177Y195677D01*
X275393Y196278D01*
X274480Y196656D01*
X273500Y196785D01*
X272520Y196656D01*
X271607Y196278D01*
X270962Y195783D01*
X270462Y195975D01*
Y200026D01*
X270962Y200217D01*
X271607Y199722D01*
X272520Y199344D01*
X273500Y199215D01*
X274480Y199344D01*
X275393Y199722D01*
X276177Y200324D01*
X276778Y201107D01*
X277156Y202020D01*
X277285Y203000D01*
X277156Y203980D01*
X276778Y204893D01*
X276177Y205677D01*
X275393Y206278D01*
X274480Y206656D01*
X273500Y206785D01*
X272520Y206656D01*
X271607Y206278D01*
X270962Y205783D01*
X270462Y205975D01*
Y210026D01*
X270962Y210217D01*
X271607Y209722D01*
X272520Y209344D01*
X273500Y209215D01*
X274480Y209344D01*
X275393Y209722D01*
X276177Y210324D01*
X276778Y211107D01*
X277156Y212020D01*
X277285Y213000D01*
X277156Y213980D01*
X276778Y214893D01*
X276177Y215676D01*
X275393Y216278D01*
X274480Y216656D01*
X273500Y216785D01*
X272520Y216656D01*
X271607Y216278D01*
X270962Y215783D01*
X270462Y215974D01*
Y220025D01*
X270962Y220217D01*
X271607Y219722D01*
X272520Y219344D01*
X273500Y219215D01*
X274480Y219344D01*
X275393Y219722D01*
X276177Y220323D01*
X276778Y221107D01*
X277156Y222020D01*
X277285Y223000D01*
X277156Y223980D01*
X276778Y224893D01*
X276177Y225676D01*
X275393Y226278D01*
X274480Y226656D01*
X273500Y226785D01*
X272520Y226656D01*
X272208Y226527D01*
X270578Y228157D01*
Y229882D01*
X271078Y230129D01*
X271607Y229722D01*
X272520Y229344D01*
X273500Y229215D01*
X274480Y229344D01*
X274792Y229473D01*
X298920Y205345D01*
Y178922D01*
X296550D01*
Y171023D01*
X304450D01*
Y178922D01*
X302080D01*
Y206000D01*
X301960Y206605D01*
X301618Y207118D01*
X277027Y231708D01*
X277156Y232020D01*
X277285Y233000D01*
X277156Y233980D01*
X276778Y234893D01*
X276329Y235478D01*
X276499Y236012D01*
X276509Y236024D01*
X276605Y236043D01*
X277117Y236385D01*
X280617Y239885D01*
X280960Y240398D01*
X281080Y241003D01*
Y273300D01*
X280960Y273905D01*
X280617Y274417D01*
X277417Y277618D01*
X276905Y277960D01*
X276300Y278080D01*
D02*
G37*
G36*
X273500Y176785D02*
X272520Y176656D01*
X271607Y176278D01*
X270824Y175677D01*
X270222Y174893D01*
X269844Y173980D01*
X269715Y173000D01*
X269844Y172020D01*
X270222Y171107D01*
X270824Y170324D01*
X271607Y169722D01*
X272520Y169344D01*
X273500Y169215D01*
X274480Y169344D01*
X275393Y169722D01*
X276177Y170324D01*
X276778Y171107D01*
X277156Y172020D01*
X277285Y173000D01*
X277156Y173980D01*
X276778Y174893D01*
X276177Y175677D01*
X275393Y176278D01*
X274480Y176656D01*
X273500Y176785D01*
D02*
G37*
G36*
X187500Y176523D02*
X186459Y176386D01*
X185488Y175984D01*
X184655Y175345D01*
X184016Y174512D01*
X183614Y173541D01*
X183477Y172500D01*
X183614Y171459D01*
X184016Y170488D01*
X184655Y169655D01*
X185488Y169016D01*
X186459Y168614D01*
X187500Y168477D01*
X188541Y168614D01*
X189512Y169016D01*
X190345Y169655D01*
X190984Y170488D01*
X191386Y171459D01*
X191523Y172500D01*
X191386Y173541D01*
X190984Y174512D01*
X190345Y175345D01*
X189512Y175984D01*
X188541Y176386D01*
X187500Y176523D01*
D02*
G37*
G36*
X162855Y169500D02*
X160000D01*
Y166645D01*
X160032Y166649D01*
X160993Y167047D01*
X161819Y167681D01*
X162453Y168507D01*
X162851Y169468D01*
X162855Y169500D01*
D02*
G37*
G36*
X158000D02*
X155145D01*
X155149Y169468D01*
X155547Y168507D01*
X156181Y167681D01*
X157007Y167047D01*
X157968Y166649D01*
X158000Y166645D01*
Y169500D01*
D02*
G37*
G36*
X273500Y166785D02*
X272520Y166656D01*
X271607Y166278D01*
X270824Y165676D01*
X270222Y164893D01*
X269844Y163980D01*
X269715Y163000D01*
X269844Y162020D01*
X270222Y161107D01*
X270824Y160324D01*
X271607Y159722D01*
X272520Y159344D01*
X273500Y159215D01*
X274480Y159344D01*
X275393Y159722D01*
X276177Y160324D01*
X276778Y161107D01*
X277156Y162020D01*
X277285Y163000D01*
X277156Y163980D01*
X276778Y164893D01*
X276177Y165676D01*
X275393Y166278D01*
X274480Y166656D01*
X273500Y166785D01*
D02*
G37*
G36*
X187500Y166523D02*
X186459Y166386D01*
X185488Y165984D01*
X184655Y165345D01*
X184016Y164512D01*
X183614Y163541D01*
X183477Y162500D01*
X183614Y161459D01*
X184016Y160488D01*
X184655Y159655D01*
X185488Y159016D01*
X186459Y158614D01*
X187500Y158477D01*
X188541Y158614D01*
X189512Y159016D01*
X190345Y159655D01*
X190984Y160488D01*
X191386Y161459D01*
X191523Y162500D01*
X191386Y163541D01*
X190984Y164512D01*
X190345Y165345D01*
X189512Y165984D01*
X188541Y166386D01*
X187500Y166523D01*
D02*
G37*
G36*
X159000Y164285D02*
X158020Y164156D01*
X157107Y163778D01*
X156324Y163177D01*
X155722Y162393D01*
X155344Y161480D01*
X155215Y160500D01*
X155344Y159520D01*
X155722Y158607D01*
X156324Y157824D01*
X157107Y157222D01*
X157420Y157093D01*
Y153907D01*
X157107Y153778D01*
X156324Y153176D01*
X155722Y152393D01*
X155344Y151480D01*
X155215Y150500D01*
X155344Y149520D01*
X155722Y148607D01*
X156324Y147824D01*
X157107Y147222D01*
X158020Y146844D01*
X159000Y146715D01*
X159980Y146844D01*
X160893Y147222D01*
X161677Y147824D01*
X162278Y148607D01*
X162656Y149520D01*
X162785Y150500D01*
X162656Y151480D01*
X162278Y152393D01*
X161677Y153176D01*
X160893Y153778D01*
X160580Y153907D01*
Y157093D01*
X160893Y157222D01*
X161677Y157824D01*
X162278Y158607D01*
X162656Y159520D01*
X162785Y160500D01*
X162656Y161480D01*
X162278Y162393D01*
X161677Y163177D01*
X160893Y163778D01*
X159980Y164156D01*
X159000Y164285D01*
D02*
G37*
G36*
X218000Y133257D02*
X217205Y132928D01*
X216462Y132357D01*
X215891Y131614D01*
X215562Y130819D01*
X218000D01*
Y133257D01*
D02*
G37*
G36*
Y128819D02*
X215562D01*
X215891Y128024D01*
X216462Y127281D01*
X217205Y126710D01*
X218000Y126381D01*
Y128819D01*
D02*
G37*
G36*
X244500Y128355D02*
Y125500D01*
X247355D01*
X247351Y125532D01*
X246953Y126493D01*
X246319Y127319D01*
X245493Y127953D01*
X244532Y128351D01*
X244500Y128355D01*
D02*
G37*
G36*
X273500Y128285D02*
X272520Y128156D01*
X271607Y127778D01*
X270824Y127176D01*
X270222Y126393D01*
X269844Y125480D01*
X269715Y124500D01*
X269844Y123520D01*
X269973Y123208D01*
X264882Y118117D01*
X264540Y117605D01*
X264420Y117000D01*
Y81163D01*
X263988Y80984D01*
X263155Y80345D01*
X262516Y79512D01*
X262114Y78541D01*
X261977Y77500D01*
X262114Y76459D01*
X262292Y76027D01*
X254883Y68617D01*
X254540Y68105D01*
X254420Y67500D01*
Y55163D01*
X253988Y54984D01*
X253155Y54345D01*
X252516Y53512D01*
X252114Y52541D01*
X251977Y51500D01*
X252114Y50459D01*
X252516Y49488D01*
X253155Y48655D01*
X253988Y48016D01*
X254959Y47614D01*
X256000Y47477D01*
X257041Y47614D01*
X258012Y48016D01*
X258845Y48655D01*
X259484Y49488D01*
X259886Y50459D01*
X260023Y51500D01*
X259886Y52541D01*
X259484Y53512D01*
X258845Y54345D01*
X258012Y54984D01*
X257580Y55163D01*
Y66845D01*
X264527Y73792D01*
X264959Y73614D01*
X266000Y73477D01*
X267041Y73614D01*
X268012Y74016D01*
X268720Y74559D01*
X269220Y74380D01*
Y56955D01*
X267473Y55208D01*
X267041Y55386D01*
X266000Y55523D01*
X264959Y55386D01*
X263988Y54984D01*
X263155Y54345D01*
X262516Y53512D01*
X262114Y52541D01*
X261977Y51500D01*
X262114Y50459D01*
X262516Y49488D01*
X263155Y48655D01*
X263988Y48016D01*
X264959Y47614D01*
X266000Y47477D01*
X267041Y47614D01*
X268012Y48016D01*
X268845Y48655D01*
X269484Y49488D01*
X269886Y50459D01*
X270023Y51500D01*
X269886Y52541D01*
X269708Y52973D01*
X271918Y55182D01*
X272260Y55695D01*
X272380Y56300D01*
Y85800D01*
X272260Y86405D01*
X271918Y86918D01*
X270480Y88355D01*
Y101494D01*
X270980Y101703D01*
X271607Y101222D01*
X272520Y100844D01*
X273500Y100715D01*
X274480Y100844D01*
X275393Y101222D01*
X276177Y101823D01*
X276778Y102607D01*
X277156Y103520D01*
X277285Y104500D01*
X277156Y105480D01*
X276778Y106393D01*
X276177Y107176D01*
X275393Y107778D01*
X274480Y108156D01*
X273500Y108285D01*
X272520Y108156D01*
X271607Y107778D01*
X270980Y107297D01*
X270480Y107506D01*
Y109245D01*
X272208Y110973D01*
X272520Y110844D01*
X273500Y110715D01*
X274480Y110844D01*
X275393Y111222D01*
X276177Y111823D01*
X276778Y112607D01*
X277156Y113520D01*
X277285Y114500D01*
X277156Y115480D01*
X276778Y116393D01*
X276177Y117176D01*
X275393Y117778D01*
X274480Y118156D01*
X273500Y118285D01*
X272520Y118156D01*
X271607Y117778D01*
X270824Y117176D01*
X270222Y116393D01*
X269844Y115480D01*
X269715Y114500D01*
X269844Y113520D01*
X269973Y113208D01*
X268080Y111315D01*
X267580Y111522D01*
Y116345D01*
X272208Y120973D01*
X272520Y120844D01*
X273500Y120715D01*
X274480Y120844D01*
X275393Y121222D01*
X276177Y121824D01*
X276778Y122607D01*
X277156Y123520D01*
X277285Y124500D01*
X277156Y125480D01*
X276778Y126393D01*
X276177Y127176D01*
X275393Y127778D01*
X274480Y128156D01*
X273500Y128285D01*
D02*
G37*
G36*
X247355Y123500D02*
X244500D01*
Y120645D01*
X244532Y120649D01*
X245493Y121047D01*
X246319Y121681D01*
X246953Y122507D01*
X247351Y123468D01*
X247355Y123500D01*
D02*
G37*
G36*
X159000Y114285D02*
X158020Y114156D01*
X157107Y113778D01*
X156324Y113177D01*
X155722Y112393D01*
X155344Y111480D01*
X155215Y110500D01*
X155344Y109520D01*
X155722Y108607D01*
X156324Y107824D01*
X157107Y107222D01*
X158020Y106844D01*
X159000Y106715D01*
X159980Y106844D01*
X160893Y107222D01*
X161677Y107824D01*
X162278Y108607D01*
X162656Y109520D01*
X162785Y110500D01*
X162656Y111480D01*
X162278Y112393D01*
X161677Y113177D01*
X160893Y113778D01*
X159980Y114156D01*
X159000Y114285D01*
D02*
G37*
G36*
X20500Y98593D02*
X20406Y98581D01*
X19387Y98159D01*
X18512Y97488D01*
X17841Y96613D01*
X17419Y95594D01*
X17406Y95500D01*
X20500D01*
Y98593D01*
D02*
G37*
G36*
Y93500D02*
X17406D01*
X17419Y93406D01*
X17841Y92387D01*
X18512Y91512D01*
X19387Y90841D01*
X20406Y90419D01*
X20500Y90407D01*
Y93500D01*
D02*
G37*
G36*
X221950Y97977D02*
X214050D01*
Y90078D01*
X221950D01*
Y97977D01*
D02*
G37*
G36*
X273500Y138285D02*
X272520Y138156D01*
X271607Y137778D01*
X270824Y137177D01*
X270222Y136393D01*
X269844Y135480D01*
X269715Y134500D01*
X269844Y133520D01*
X270222Y132607D01*
X270824Y131824D01*
X271607Y131222D01*
X272520Y130844D01*
X273500Y130715D01*
X274480Y130844D01*
X274792Y130973D01*
X299920Y105845D01*
Y97648D01*
X299508Y97478D01*
X298683Y96845D01*
X298050Y96019D01*
X297652Y95059D01*
X297516Y94028D01*
X297652Y92997D01*
X298050Y92036D01*
X298683Y91211D01*
X299508Y90578D01*
X300469Y90180D01*
X301500Y90044D01*
X302531Y90180D01*
X303492Y90578D01*
X304317Y91211D01*
X304950Y92036D01*
X305348Y92997D01*
X305484Y94028D01*
X305348Y95059D01*
X304950Y96019D01*
X304317Y96845D01*
X303492Y97478D01*
X303080Y97648D01*
Y106500D01*
X302960Y107105D01*
X302618Y107617D01*
X277027Y133208D01*
X277156Y133520D01*
X277285Y134500D01*
X277156Y135480D01*
X276778Y136393D01*
X276177Y137177D01*
X275393Y137778D01*
X274480Y138156D01*
X273500Y138285D01*
D02*
G37*
G36*
X256000Y81523D02*
X254959Y81386D01*
X253988Y80984D01*
X253155Y80345D01*
X252516Y79512D01*
X252114Y78541D01*
X251977Y77500D01*
X252114Y76459D01*
X252516Y75488D01*
X253155Y74655D01*
X253988Y74016D01*
X254069Y73982D01*
X254185Y73393D01*
X219443Y38650D01*
X219031Y38820D01*
X218000Y38956D01*
X216969Y38820D01*
X216008Y38422D01*
X215183Y37789D01*
X214550Y36964D01*
X214152Y36003D01*
X214016Y34972D01*
X214152Y33941D01*
X214550Y32981D01*
X215183Y32155D01*
X216008Y31522D01*
X216969Y31124D01*
X218000Y30989D01*
X219031Y31124D01*
X219992Y31522D01*
X220817Y32155D01*
X221450Y32981D01*
X221848Y33941D01*
X221984Y34972D01*
X221848Y36003D01*
X221677Y36415D01*
X257118Y71855D01*
X257460Y72368D01*
X257580Y72972D01*
Y73837D01*
X258012Y74016D01*
X258845Y74655D01*
X259484Y75488D01*
X259886Y76459D01*
X260023Y77500D01*
X259886Y78541D01*
X259484Y79512D01*
X258845Y80345D01*
X258012Y80984D01*
X257041Y81386D01*
X256000Y81523D01*
D02*
G37*
G36*
X305650Y39122D02*
X302500D01*
Y35972D01*
X305650D01*
Y39122D01*
D02*
G37*
G36*
X300500D02*
X297350D01*
Y35972D01*
X300500D01*
Y39122D01*
D02*
G37*
G36*
X305650Y33972D02*
X302500D01*
Y30823D01*
X305650D01*
Y33972D01*
D02*
G37*
G36*
X300500D02*
X297350D01*
Y30823D01*
X300500D01*
Y33972D01*
D02*
G37*
G36*
X189000Y24087D02*
Y21500D01*
X191587D01*
X191229Y22364D01*
X190637Y23137D01*
X189864Y23729D01*
X189000Y24087D01*
D02*
G37*
G36*
X187000D02*
X186136Y23729D01*
X185363Y23137D01*
X184771Y22364D01*
X184413Y21500D01*
X187000D01*
Y24087D01*
D02*
G37*
G36*
X179000D02*
Y21500D01*
X181587D01*
X181229Y22364D01*
X180637Y23137D01*
X179864Y23729D01*
X179000Y24087D01*
D02*
G37*
G36*
X177000D02*
X176136Y23729D01*
X175363Y23137D01*
X174771Y22364D01*
X174413Y21500D01*
X177000D01*
Y24087D01*
D02*
G37*
G36*
X198000Y24027D02*
X197087Y23907D01*
X196237Y23554D01*
X195506Y22994D01*
X194946Y22264D01*
X194593Y21413D01*
X194473Y20500D01*
X194593Y19587D01*
X194946Y18736D01*
X195506Y18006D01*
X196237Y17446D01*
X197087Y17093D01*
X198000Y16973D01*
X198913Y17093D01*
X199764Y17446D01*
X200494Y18006D01*
X201055Y18736D01*
X201407Y19587D01*
X201527Y20500D01*
X201407Y21413D01*
X201055Y22264D01*
X200494Y22994D01*
X199764Y23554D01*
X198913Y23907D01*
X198000Y24027D01*
D02*
G37*
G36*
X168000D02*
X167087Y23907D01*
X166236Y23554D01*
X165506Y22994D01*
X164945Y22264D01*
X164593Y21413D01*
X164473Y20500D01*
X164593Y19587D01*
X164945Y18736D01*
X165506Y18006D01*
X166236Y17446D01*
X167087Y17093D01*
X168000Y16973D01*
X168913Y17093D01*
X169764Y17446D01*
X170494Y18006D01*
X171054Y18736D01*
X171407Y19587D01*
X171527Y20500D01*
X171407Y21413D01*
X171054Y22264D01*
X170494Y22994D01*
X169764Y23554D01*
X168913Y23907D01*
X168000Y24027D01*
D02*
G37*
G36*
X191587Y19500D02*
X189000D01*
Y16913D01*
X189864Y17271D01*
X190637Y17863D01*
X191229Y18636D01*
X191587Y19500D01*
D02*
G37*
G36*
X187000D02*
X184413D01*
X184771Y18636D01*
X185363Y17863D01*
X186136Y17271D01*
X187000Y16913D01*
Y19500D01*
D02*
G37*
G36*
X181587D02*
X179000D01*
Y16913D01*
X179864Y17271D01*
X180637Y17863D01*
X181229Y18636D01*
X181587Y19500D01*
D02*
G37*
G36*
X177000D02*
X174413D01*
X174771Y18636D01*
X175363Y17863D01*
X176136Y17271D01*
X177000Y16913D01*
Y19500D01*
D02*
G37*
%LPD*%
G36*
X158237Y256945D02*
X159087Y256593D01*
X160000Y256473D01*
X160913Y256593D01*
X161096Y256669D01*
X167085Y250680D01*
Y244603D01*
X166623Y244412D01*
X157280Y253755D01*
Y257049D01*
X157780Y257295D01*
X158237Y256945D01*
D02*
G37*
G36*
X161922Y207382D02*
Y203618D01*
X161422Y203371D01*
X160893Y203778D01*
X159980Y204156D01*
X159000Y204285D01*
X158020Y204156D01*
X157107Y203778D01*
X156324Y203176D01*
X155722Y202393D01*
X155344Y201480D01*
X155215Y200500D01*
X155344Y199520D01*
X155473Y199208D01*
X148283Y192017D01*
X147940Y191505D01*
X147820Y190900D01*
Y32555D01*
X139096Y23831D01*
X138913Y23907D01*
X138000Y24027D01*
X137087Y23907D01*
X136237Y23554D01*
X135780Y23204D01*
X135280Y23451D01*
Y55226D01*
X142918Y62863D01*
X143260Y63376D01*
X143380Y63981D01*
Y192645D01*
X157708Y206973D01*
X158020Y206844D01*
X159000Y206715D01*
X159980Y206844D01*
X160893Y207222D01*
X161422Y207629D01*
X161922Y207382D01*
D02*
G37*
G36*
X156203Y213020D02*
X155722Y212393D01*
X155344Y211480D01*
X155215Y210500D01*
X155344Y209520D01*
X155473Y209208D01*
X141542Y195277D01*
X141080Y195469D01*
Y209145D01*
X145455Y213520D01*
X155994D01*
X156203Y213020D01*
D02*
G37*
G36*
X125582Y208946D02*
X125722Y208607D01*
X126323Y207823D01*
X126372Y207787D01*
X126334Y207185D01*
X126083Y207017D01*
X123283Y204218D01*
X122940Y203705D01*
X122820Y203100D01*
Y195100D01*
X122940Y194495D01*
X123283Y193983D01*
X125473Y191792D01*
X125344Y191480D01*
X125215Y190500D01*
X125344Y189520D01*
X125722Y188607D01*
X126323Y187823D01*
X127107Y187222D01*
X128020Y186844D01*
X129000Y186715D01*
X129980Y186844D01*
X130893Y187222D01*
X131520Y187703D01*
X132020Y187494D01*
Y183506D01*
X131520Y183297D01*
X130893Y183778D01*
X129980Y184156D01*
X129000Y184285D01*
X128020Y184156D01*
X127107Y183778D01*
X126323Y183177D01*
X125722Y182393D01*
X125344Y181480D01*
X125215Y180500D01*
X125344Y179520D01*
X125473Y179208D01*
X118482Y172218D01*
X118140Y171705D01*
X118020Y171100D01*
Y163445D01*
X117556Y163157D01*
X117520Y163163D01*
X117199Y163643D01*
X105575Y175267D01*
X105581Y175281D01*
X105690Y176106D01*
X105581Y176932D01*
X105262Y177701D01*
X104755Y178362D01*
X104095Y178869D01*
X104080Y178875D01*
Y191000D01*
X103960Y191605D01*
X103618Y192118D01*
X103580Y192155D01*
Y203519D01*
X103694Y203566D01*
X104396Y204104D01*
X104934Y204806D01*
X105273Y205623D01*
X105388Y206500D01*
X105273Y207377D01*
X104934Y208194D01*
X104618Y208606D01*
X104866Y209104D01*
X125582Y208946D01*
D02*
G37*
G36*
X100306Y203566D02*
X100420Y203519D01*
Y191500D01*
X100540Y190895D01*
X100882Y190383D01*
X100920Y190345D01*
Y178875D01*
X100905Y178869D01*
X100245Y178362D01*
X99780Y177757D01*
X99589Y177765D01*
X99280Y177897D01*
Y203742D01*
X99780Y203969D01*
X100306Y203566D01*
D02*
G37*
G36*
X132020Y177494D02*
Y173506D01*
X131520Y173297D01*
X130893Y173778D01*
X129980Y174156D01*
X129000Y174285D01*
X128020Y174156D01*
X127107Y173778D01*
X126323Y173177D01*
X125722Y172393D01*
X125344Y171480D01*
X125215Y170500D01*
X125344Y169520D01*
X125722Y168607D01*
X126323Y167824D01*
X127107Y167222D01*
X128020Y166844D01*
X129000Y166715D01*
X129980Y166844D01*
X130893Y167222D01*
X131520Y167703D01*
X132020Y167494D01*
Y163795D01*
X131520Y163549D01*
X130993Y163953D01*
X130032Y164351D01*
X130000Y164355D01*
Y160500D01*
Y156645D01*
X130032Y156649D01*
X130993Y157047D01*
X131520Y157451D01*
X132020Y157204D01*
Y153506D01*
X131520Y153297D01*
X130893Y153778D01*
X129980Y154156D01*
X129000Y154285D01*
X128020Y154156D01*
X127107Y153778D01*
X126323Y153176D01*
X125722Y152393D01*
X125344Y151480D01*
X125215Y150500D01*
X125344Y149520D01*
X125722Y148607D01*
X126323Y147824D01*
X127107Y147222D01*
X128020Y146844D01*
X129000Y146715D01*
X129980Y146844D01*
X130893Y147222D01*
X131520Y147703D01*
X132020Y147494D01*
Y143506D01*
X131520Y143297D01*
X130893Y143778D01*
X129980Y144156D01*
X129000Y144285D01*
X128020Y144156D01*
X127107Y143778D01*
X126323Y143176D01*
X125722Y142393D01*
X125593Y142080D01*
X123119D01*
X122514Y141960D01*
X122253Y141786D01*
X121907Y142156D01*
X122018Y142301D01*
X122297Y142974D01*
X122392Y143697D01*
X122297Y144420D01*
X122018Y145093D01*
X121574Y145672D01*
X121180Y145974D01*
Y170445D01*
X127708Y176973D01*
X128020Y176844D01*
X129000Y176715D01*
X129980Y176844D01*
X130893Y177222D01*
X131520Y177703D01*
X132020Y177494D01*
D02*
G37*
G36*
X25620Y128327D02*
X23943Y126650D01*
X23531Y126820D01*
X22500Y126956D01*
X21469Y126820D01*
X20508Y126422D01*
X19880Y125941D01*
X19380Y126187D01*
Y176673D01*
X20785Y178078D01*
X25620D01*
Y128327D01*
D02*
G37*
G36*
X126640Y133420D02*
X126323Y133177D01*
X125722Y132393D01*
X125344Y131480D01*
X125215Y130500D01*
X125344Y129520D01*
X125722Y128607D01*
X126323Y127823D01*
X127107Y127222D01*
X128020Y126844D01*
X129000Y126715D01*
X129980Y126844D01*
X130292Y126973D01*
X132020Y125245D01*
Y123506D01*
X131520Y123297D01*
X130893Y123778D01*
X129980Y124156D01*
X129000Y124285D01*
X128020Y124156D01*
X127107Y123778D01*
X126323Y123177D01*
X125722Y122393D01*
X125344Y121480D01*
X125215Y120500D01*
X125344Y119520D01*
X125722Y118607D01*
X126323Y117824D01*
X127107Y117222D01*
X128020Y116844D01*
X129000Y116715D01*
X129980Y116844D01*
X130893Y117222D01*
X131520Y117703D01*
X132020Y117494D01*
Y113506D01*
X131520Y113297D01*
X130893Y113778D01*
X129980Y114156D01*
X129000Y114285D01*
X128020Y114156D01*
X127107Y113778D01*
X126323Y113177D01*
X125722Y112393D01*
X125572Y112030D01*
X89188Y111498D01*
X88993Y111959D01*
X91055Y114020D01*
X104600D01*
X105205Y114140D01*
X105718Y114482D01*
X125155Y133920D01*
X126471D01*
X126640Y133420D01*
D02*
G37*
G36*
X99342Y175867D02*
X99419Y175281D01*
X99738Y174512D01*
X100245Y173851D01*
X100905Y173344D01*
X101674Y173026D01*
X102500Y172917D01*
X103325Y173026D01*
X103340Y173031D01*
X114501Y161870D01*
Y141300D01*
X114621Y140695D01*
X114964Y140182D01*
X116383Y138764D01*
X116895Y138421D01*
X117500Y138301D01*
X122500D01*
X123105Y138421D01*
X123617Y138764D01*
X123773Y138920D01*
X125593D01*
X125722Y138607D01*
X126323Y137823D01*
X126640Y137580D01*
X126471Y137080D01*
X124500D01*
X123895Y136960D01*
X123382Y136618D01*
X103945Y117180D01*
X90400D01*
X89795Y117060D01*
X89283Y116718D01*
X85342Y112777D01*
X84880Y112969D01*
Y162045D01*
X98817Y175982D01*
X98822Y175989D01*
X99342Y175867D01*
D02*
G37*
G36*
X125722Y108607D02*
X126203Y107980D01*
X125994Y107480D01*
X112100D01*
X111495Y107360D01*
X110983Y107018D01*
X106021Y102056D01*
X105559Y102247D01*
Y103500D01*
X103000D01*
Y100941D01*
X104253D01*
X104444Y100479D01*
X91183Y87217D01*
X90840Y86705D01*
X90720Y86100D01*
Y23451D01*
X90220Y23204D01*
X89763Y23554D01*
X89580Y23630D01*
Y108343D01*
X98224Y108469D01*
X98441Y107972D01*
Y105500D01*
X102000D01*
X105559D01*
Y108059D01*
X104376D01*
X104372Y108559D01*
X125613Y108870D01*
X125722Y108607D01*
D02*
G37*
G36*
X134320Y104553D02*
Y99755D01*
X102583Y68018D01*
X102240Y67505D01*
X102120Y66900D01*
Y16555D01*
X99345Y13780D01*
X56955D01*
X51331Y19404D01*
X51407Y19587D01*
X51527Y20500D01*
X51407Y21413D01*
X51055Y22264D01*
X50494Y22994D01*
X49764Y23554D01*
X48913Y23907D01*
X48816Y23920D01*
X48849Y24420D01*
X57152D01*
X57184Y23920D01*
X57087Y23907D01*
X56236Y23554D01*
X55506Y22994D01*
X54945Y22264D01*
X54593Y21413D01*
X54473Y20500D01*
X54593Y19587D01*
X54945Y18736D01*
X55506Y18006D01*
X56236Y17446D01*
X57087Y17093D01*
X58000Y16973D01*
X58913Y17093D01*
X59763Y17446D01*
X60494Y18006D01*
X61054Y18736D01*
X61407Y19587D01*
X61527Y20500D01*
X61407Y21413D01*
X61054Y22264D01*
X60494Y22994D01*
X59763Y23554D01*
X58913Y23907D01*
X58816Y23920D01*
X58849Y24420D01*
X67151D01*
X67184Y23920D01*
X67087Y23907D01*
X66237Y23554D01*
X65506Y22994D01*
X64946Y22264D01*
X64593Y21413D01*
X64473Y20500D01*
X64593Y19587D01*
X64946Y18736D01*
X65506Y18006D01*
X66237Y17446D01*
X67087Y17093D01*
X68000Y16973D01*
X68913Y17093D01*
X69096Y17169D01*
X71183Y15082D01*
X71695Y14740D01*
X72300Y14620D01*
X90400D01*
X91005Y14740D01*
X91518Y15082D01*
X93418Y16983D01*
X93760Y17495D01*
X93880Y18100D01*
Y85445D01*
X112755Y104320D01*
X127108D01*
X127208Y103820D01*
X127107Y103778D01*
X126323Y103176D01*
X125722Y102393D01*
X125344Y101480D01*
X125215Y100500D01*
X125344Y99520D01*
X125473Y99208D01*
X96882Y70618D01*
X96540Y70105D01*
X96420Y69500D01*
Y23630D01*
X96236Y23554D01*
X95506Y22994D01*
X94946Y22264D01*
X94593Y21413D01*
X94473Y20500D01*
X94593Y19587D01*
X94946Y18736D01*
X95506Y18006D01*
X96236Y17446D01*
X97087Y17093D01*
X98000Y16973D01*
X98913Y17093D01*
X99764Y17446D01*
X100494Y18006D01*
X101055Y18736D01*
X101407Y19587D01*
X101527Y20500D01*
X101407Y21413D01*
X101055Y22264D01*
X100494Y22994D01*
X99764Y23554D01*
X99580Y23630D01*
Y68845D01*
X127708Y96973D01*
X128020Y96844D01*
X129000Y96715D01*
X129980Y96844D01*
X130893Y97222D01*
X131676Y97824D01*
X132278Y98607D01*
X132656Y99520D01*
X132785Y100500D01*
X132656Y101480D01*
X132278Y102393D01*
X131676Y103176D01*
X130893Y103778D01*
X130792Y103820D01*
X130892Y104320D01*
X132800D01*
X133405Y104440D01*
X133820Y104717D01*
X134320Y104553D01*
D02*
G37*
G36*
X24720Y61380D02*
Y57620D01*
X24220Y57441D01*
X23512Y57984D01*
X22541Y58386D01*
X21500Y58523D01*
X20459Y58386D01*
X19488Y57984D01*
X18655Y57345D01*
X18016Y56512D01*
X17614Y55541D01*
X17477Y54500D01*
X17614Y53459D01*
X17792Y53027D01*
X16042Y51277D01*
X15580Y51469D01*
Y56345D01*
X20027Y60792D01*
X20459Y60614D01*
X21500Y60477D01*
X22541Y60614D01*
X23512Y61016D01*
X24220Y61559D01*
X24720Y61380D01*
D02*
G37*
G36*
X150667Y30224D02*
Y23492D01*
X150167Y23245D01*
X149764Y23554D01*
X148913Y23907D01*
X148000Y24027D01*
X147087Y23907D01*
X146237Y23554D01*
X145506Y22994D01*
X144946Y22264D01*
X144593Y21413D01*
X144473Y20500D01*
X144593Y19587D01*
X144669Y19404D01*
X143098Y17833D01*
X140992D01*
X140745Y18333D01*
X141054Y18736D01*
X141407Y19587D01*
X141527Y20500D01*
X141407Y21413D01*
X141331Y21596D01*
X150167Y30432D01*
X150667Y30224D01*
D02*
G37*
G36*
X86420Y38531D02*
Y23630D01*
X86237Y23554D01*
X85506Y22994D01*
X84945Y22264D01*
X84593Y21413D01*
X84473Y20500D01*
X84593Y19587D01*
X84945Y18736D01*
X85295Y18280D01*
X85049Y17780D01*
X80951D01*
X80704Y18280D01*
X81055Y18736D01*
X81407Y19587D01*
X81527Y20500D01*
X81407Y21413D01*
X81055Y22264D01*
X80494Y22994D01*
X79764Y23554D01*
X78913Y23907D01*
X78000Y24027D01*
X77087Y23907D01*
X76236Y23554D01*
X75506Y22994D01*
X74945Y22264D01*
X74593Y21413D01*
X74473Y20500D01*
X74593Y19587D01*
X74945Y18736D01*
X75296Y18280D01*
X75049Y17780D01*
X72955D01*
X71331Y19404D01*
X71407Y19587D01*
X71527Y20500D01*
X71407Y21413D01*
X71055Y22264D01*
X70494Y22994D01*
X69763Y23554D01*
X68913Y23907D01*
X68816Y23920D01*
X68849Y24420D01*
X71000D01*
X71605Y24540D01*
X72118Y24882D01*
X85958Y38723D01*
X86420Y38531D01*
D02*
G37*
G36*
X137920Y98745D02*
Y71535D01*
X126883Y60498D01*
X126540Y59985D01*
X126420Y59381D01*
Y23630D01*
X126236Y23554D01*
X125506Y22994D01*
X124945Y22264D01*
X124593Y21413D01*
X124473Y20500D01*
X124593Y19587D01*
X124945Y18736D01*
X125506Y18006D01*
X126236Y17446D01*
X127087Y17093D01*
X128000Y16973D01*
X128913Y17093D01*
X129763Y17446D01*
X130494Y18006D01*
X131054Y18736D01*
X131407Y19587D01*
X131527Y20500D01*
X131407Y21413D01*
X131054Y22264D01*
X130494Y22994D01*
X129763Y23554D01*
X129580Y23630D01*
Y58726D01*
X139758Y68903D01*
X140220Y68712D01*
Y64635D01*
X132582Y56998D01*
X132240Y56485D01*
X132120Y55881D01*
Y17953D01*
X132240Y17348D01*
X132582Y16836D01*
X134097Y15321D01*
X133890Y14821D01*
X125914D01*
X121331Y19404D01*
X121407Y19587D01*
X121527Y20500D01*
X121407Y21413D01*
X121054Y22264D01*
X120494Y22994D01*
X119764Y23554D01*
X118913Y23907D01*
X118000Y24027D01*
X117087Y23907D01*
X116236Y23554D01*
X115506Y22994D01*
X114945Y22264D01*
X114593Y21413D01*
X114473Y20500D01*
X114593Y19587D01*
X114945Y18736D01*
X115506Y18006D01*
X116236Y17446D01*
X117087Y17093D01*
X118000Y16973D01*
X118913Y17093D01*
X119096Y17169D01*
X123282Y12983D01*
X123091Y12521D01*
X118214D01*
X111331Y19404D01*
X111407Y19587D01*
X111527Y20500D01*
X111407Y21413D01*
X111055Y22264D01*
X110494Y22994D01*
X109764Y23554D01*
X108913Y23907D01*
X108000Y24027D01*
X107087Y23907D01*
X106237Y23554D01*
X105780Y23204D01*
X105280Y23451D01*
Y66245D01*
X137018Y97983D01*
X137360Y98495D01*
X137420Y98795D01*
X137920Y98745D01*
D02*
G37*
%LPC*%
G36*
X128000Y164355D02*
X127968Y164351D01*
X127007Y163953D01*
X126181Y163319D01*
X125547Y162493D01*
X125149Y161532D01*
X125145Y161500D01*
X128000D01*
Y164355D01*
D02*
G37*
G36*
Y159500D02*
X125145D01*
X125149Y159468D01*
X125547Y158507D01*
X126181Y157681D01*
X127007Y157047D01*
X127968Y156649D01*
X128000Y156645D01*
Y159500D01*
D02*
G37*
G36*
X102500Y169690D02*
X101674Y169581D01*
X100905Y169262D01*
X100245Y168755D01*
X99738Y168095D01*
X99419Y167325D01*
X99310Y166500D01*
X99419Y165674D01*
X99738Y164905D01*
X100245Y164245D01*
X100905Y163738D01*
X101674Y163419D01*
X102500Y163311D01*
X103325Y163419D01*
X104095Y163738D01*
X104755Y164245D01*
X105262Y164905D01*
X105581Y165674D01*
X105690Y166500D01*
X105581Y167325D01*
X105262Y168095D01*
X104755Y168755D01*
X104095Y169262D01*
X103325Y169581D01*
X102500Y169690D01*
D02*
G37*
G36*
X105662Y160056D02*
X99338D01*
Y153732D01*
X100920D01*
Y141755D01*
X100882Y141718D01*
X100540Y141205D01*
X100420Y140600D01*
Y127481D01*
X100306Y127434D01*
X99604Y126896D01*
X99066Y126194D01*
X98727Y125377D01*
X98612Y124500D01*
X98727Y123623D01*
X99066Y122806D01*
X99604Y122104D01*
X100306Y121566D01*
X101123Y121227D01*
X102000Y121112D01*
X102877Y121227D01*
X103694Y121566D01*
X104396Y122104D01*
X104934Y122806D01*
X105273Y123623D01*
X105388Y124500D01*
X105273Y125377D01*
X104934Y126194D01*
X104396Y126896D01*
X103694Y127434D01*
X103580Y127481D01*
Y139945D01*
X103618Y139982D01*
X103960Y140495D01*
X104080Y141100D01*
Y153732D01*
X105662D01*
Y160056D01*
D02*
G37*
G36*
X101000Y103500D02*
X98441D01*
Y100941D01*
X101000D01*
Y103500D01*
D02*
G37*
%LPD*%
G36*
X66114Y161459D02*
X66516Y160488D01*
X67155Y159655D01*
X67988Y159016D01*
X68420Y158837D01*
Y132069D01*
X67958Y131877D01*
X65580Y134255D01*
Y161679D01*
X66080Y161712D01*
X66114Y161459D01*
D02*
G37*
G36*
X68420Y119932D02*
Y113592D01*
X64442Y109615D01*
X64031Y109785D01*
X63000Y109921D01*
X61969Y109785D01*
X61008Y109387D01*
X60183Y108754D01*
X59550Y107929D01*
X59152Y106968D01*
X58680Y107075D01*
Y114216D01*
X59180Y114315D01*
X59375Y113844D01*
X60040Y112978D01*
X60907Y112312D01*
X61917Y111894D01*
X62000Y111883D01*
Y115937D01*
X63000D01*
Y116937D01*
X67054D01*
X67043Y117020D01*
X66625Y118030D01*
X65960Y118896D01*
X65669Y119120D01*
X65838Y119620D01*
X66800D01*
X67404Y119740D01*
X67917Y120082D01*
X67958Y120123D01*
X68420Y119932D01*
D02*
G37*
G36*
X59550Y103945D02*
X60183Y103120D01*
X61008Y102487D01*
X61969Y102089D01*
X63000Y101953D01*
X64031Y102089D01*
X64442Y102260D01*
X65420Y101282D01*
Y70346D01*
X63016D01*
Y66000D01*
X61016D01*
Y70346D01*
X58680D01*
Y104799D01*
X59152Y104906D01*
X59550Y103945D01*
D02*
G37*
%LPC*%
G36*
X67054Y114937D02*
X64000D01*
Y111883D01*
X64083Y111894D01*
X65093Y112312D01*
X65960Y112978D01*
X66625Y113844D01*
X67043Y114854D01*
X67054Y114937D01*
D02*
G37*
%LPD*%
G36*
X275620Y247355D02*
X274792Y246527D01*
X274480Y246656D01*
X273500Y246785D01*
X272520Y246656D01*
X271607Y246278D01*
X270962Y245783D01*
X270462Y245974D01*
Y263830D01*
X271257D01*
X271257Y263830D01*
X271625D01*
Y263830D01*
X271757Y263830D01*
X275620D01*
Y247355D01*
D02*
G37*
G36*
X266507Y268365D02*
Y263830D01*
X267301D01*
Y240457D01*
X265780Y238936D01*
X265280Y239143D01*
Y267845D01*
X266007Y268572D01*
X266507Y268365D01*
D02*
G37*
G36*
X244500Y159145D02*
X244532Y159149D01*
X245493Y159547D01*
X246020Y159951D01*
X246520Y159704D01*
Y139755D01*
X245018Y138253D01*
X240480D01*
Y159704D01*
X240980Y159951D01*
X241507Y159547D01*
X242468Y159149D01*
X242500Y159145D01*
Y163000D01*
X244500D01*
Y159145D01*
D02*
G37*
D17*
X274000Y266500D02*
D03*
X268882D02*
D03*
X250000D02*
D03*
X255118D02*
D03*
D35*
X175000Y207500D02*
Y265000D01*
X170000Y270000D02*
X175000Y265000D01*
X159000Y120500D02*
X175000Y136500D01*
Y207500D01*
X28000Y20500D02*
X37500Y30000D01*
X60000D01*
X83300Y53300D01*
Y162700D01*
X97700Y177100D01*
Y210500D01*
X102800Y210700D01*
X129000Y210500D01*
X88000Y20500D02*
Y109900D01*
X129000Y110500D01*
X119600Y171100D02*
X129000Y180500D01*
X119600Y143697D02*
Y171100D01*
X102500Y176106D02*
X116081Y162525D01*
Y141300D02*
Y162525D01*
Y141300D02*
X117500Y139881D01*
X122500D01*
X123119Y140500D01*
X129000D01*
X57100Y60876D02*
X62016Y55961D01*
X57100Y60876D02*
Y116700D01*
X61600Y121200D01*
X66800D01*
X67700Y122100D01*
Y129900D01*
X64000Y133600D02*
X67700Y129900D01*
X64000Y133600D02*
Y163500D01*
X68000Y167500D01*
X78200D01*
X118000Y20500D02*
X125259Y13241D01*
X148188D01*
X152247Y17300D01*
Y173747D01*
X159000Y180500D01*
X128000Y20500D02*
Y59381D01*
X139500Y70881D01*
Y209800D01*
X144800Y215100D01*
X161803D01*
X163503Y213400D01*
Y195003D02*
Y213400D01*
X159000Y190500D02*
X163503Y195003D01*
X138000Y20500D02*
X149400Y31900D01*
Y190900D01*
X159000Y200500D01*
X143753Y16253D02*
X148000Y20500D01*
X135400Y16253D02*
X143753D01*
X133700Y17953D02*
X135400Y16253D01*
X133700Y17953D02*
Y55881D01*
X141800Y63981D01*
Y193300D01*
X159000Y210500D01*
X255118Y266500D02*
Y273300D01*
X258318Y276500D01*
X276300D01*
X279500Y273300D01*
Y241003D02*
Y273300D01*
X276000Y237503D02*
X279500Y241003D01*
X271200Y237503D02*
X276000D01*
X268997Y235300D02*
X271200Y237503D01*
X268997Y227503D02*
Y235300D01*
Y227503D02*
X273500Y223000D01*
X268882Y239803D02*
Y266500D01*
X266697Y237618D02*
X268882Y239803D01*
X266697Y226197D02*
Y237618D01*
Y226197D02*
X268882Y224013D01*
Y187618D02*
Y224013D01*
Y187618D02*
X273500Y183000D01*
X123373Y260000D02*
Y270000D01*
X160000Y260000D02*
X168665Y251335D01*
Y140165D02*
Y251335D01*
X159000Y130500D02*
X168665Y140165D01*
X65200Y187700D02*
X70000Y192500D01*
X65200Y180500D02*
Y187700D01*
Y180500D02*
X68000Y177700D01*
X74700D01*
X93800Y196800D01*
Y240427D01*
X113373Y260000D01*
Y270000D01*
X238900Y109100D02*
X243500Y104500D01*
X238900Y109100D02*
Y228400D01*
X243500Y233000D01*
X70000Y182500D02*
X87200Y199700D01*
Y243827D01*
X103373Y260000D01*
Y270000D01*
X155700Y265700D02*
X160000Y270000D01*
X155700Y253100D02*
Y265700D01*
Y253100D02*
X166365Y242435D01*
Y147865D02*
Y242435D01*
X159000Y140500D02*
X166365Y147865D01*
X243500Y134500D02*
X248100Y139100D01*
Y238400D01*
X243500Y243000D02*
X248100Y238400D01*
X266000Y51500D02*
X270800Y56300D01*
Y85800D01*
X268900Y87700D02*
X270800Y85800D01*
X268900Y87700D02*
Y109900D01*
X273500Y114500D01*
X256000Y51500D02*
Y67500D01*
X266000Y77500D01*
Y117000D01*
X273500Y124500D01*
X14000Y24500D02*
X18000Y20500D01*
X14000Y24500D02*
Y57000D01*
X21500Y64500D01*
X16300Y32200D02*
X28000Y20500D01*
X16300Y32200D02*
Y49300D01*
X21500Y54500D01*
X38000Y20500D02*
X43500Y26000D01*
X71000D01*
X85600Y40600D01*
Y110800D01*
X90400Y115600D01*
X104600D01*
X124500Y135500D01*
X132000D01*
X133600Y137100D01*
Y195900D01*
X129000Y200500D02*
X133600Y195900D01*
X263700Y194800D02*
Y268500D01*
X265700Y270500D01*
X272000D01*
X274000Y268500D01*
Y266500D02*
Y268500D01*
X48000Y20500D02*
X56300Y12200D01*
X100000D01*
X103700Y15900D01*
Y66900D01*
X135900Y99100D01*
Y201800D01*
X131800Y205900D02*
X135900Y201800D01*
X127200Y205900D02*
X131800D01*
X124400Y203100D02*
X127200Y205900D01*
X124400Y195100D02*
Y203100D01*
Y195100D02*
X129000Y190500D01*
X68000Y20500D02*
X72300Y16200D01*
X90400D01*
X92300Y18100D01*
Y86100D01*
X112100Y105900D01*
X132800D01*
X133600Y106700D01*
Y125900D01*
X129000Y130500D02*
X133600Y125900D01*
X98000Y20500D02*
Y69500D01*
X129000Y100500D01*
X188100Y28000D02*
Y78700D01*
X224400Y115000D01*
Y237700D01*
X250000Y263300D01*
Y266500D01*
X108000Y20500D02*
X117559Y10941D01*
X155888D01*
X162247Y17300D01*
Y97253D01*
X159000Y100500D02*
X162247Y97253D01*
X24500Y271500D02*
X47500Y248500D01*
Y141437D02*
Y248500D01*
Y141437D02*
X63000Y125937D01*
X273500Y233000D02*
X300500Y206000D01*
Y174972D02*
Y206000D01*
X273500Y134500D02*
X301500Y106500D01*
Y94028D02*
Y106500D01*
X218000Y34972D02*
X256000Y72972D01*
Y77500D01*
X21500Y44500D02*
X26300Y49300D01*
Y109700D01*
X17800Y118200D02*
X26300Y109700D01*
X17800Y118200D02*
Y177328D01*
X22500Y182028D01*
X129000Y230500D02*
Y249000D01*
X150000Y270000D01*
X63000Y105937D02*
X70000Y112937D01*
Y162500D01*
X63000Y105937D02*
X67000Y101937D01*
Y50905D02*
Y101937D01*
X62016Y45921D02*
X67000Y50905D01*
X22500Y122972D02*
X27200Y127672D01*
Y221300D01*
X23000Y225500D02*
X27200Y221300D01*
X159000Y150500D02*
Y160500D01*
X243500Y114500D02*
X248100Y109900D01*
Y89900D02*
Y109900D01*
X208000Y49800D02*
X248100Y89900D01*
X208000Y20500D02*
Y49800D01*
X243500Y114500D02*
X258400Y129400D01*
Y270100D01*
X262300Y274000D01*
X273300D01*
X277200Y270100D01*
Y246700D02*
Y270100D01*
X273500Y243000D02*
X277200Y246700D01*
X102000Y124500D02*
Y140600D01*
X102500Y141100D01*
Y156894D01*
Y176106D02*
Y191000D01*
X102000Y191500D02*
X102500Y191000D01*
X102000Y191500D02*
Y206500D01*
X219000Y149819D02*
Y176500D01*
Y195713D02*
Y222819D01*
D36*
X187500Y162500D02*
D03*
Y172500D02*
D03*
Y182500D02*
D03*
Y192500D02*
D03*
Y202500D02*
D03*
Y212500D02*
D03*
X70000Y162500D02*
D03*
Y172500D02*
D03*
Y182500D02*
D03*
Y192500D02*
D03*
Y202500D02*
D03*
Y212500D02*
D03*
X24500Y261500D02*
D03*
Y271500D02*
D03*
X21500Y44500D02*
D03*
Y54500D02*
D03*
Y64500D02*
D03*
Y74500D02*
D03*
Y84500D02*
D03*
Y94500D02*
D03*
X256000Y77500D02*
D03*
X266000D02*
D03*
X256000Y51500D02*
D03*
X266000D02*
D03*
D37*
X159000Y100500D02*
D03*
Y110500D02*
D03*
Y120500D02*
D03*
Y130500D02*
D03*
Y140500D02*
D03*
Y150500D02*
D03*
Y160500D02*
D03*
Y170500D02*
D03*
Y180500D02*
D03*
Y190500D02*
D03*
Y200500D02*
D03*
Y210500D02*
D03*
Y220500D02*
D03*
Y230500D02*
D03*
X129000Y100500D02*
D03*
Y110500D02*
D03*
Y120500D02*
D03*
Y130500D02*
D03*
Y140500D02*
D03*
Y150500D02*
D03*
Y160500D02*
D03*
Y170500D02*
D03*
Y180500D02*
D03*
Y190500D02*
D03*
Y200500D02*
D03*
Y210500D02*
D03*
Y220500D02*
D03*
X54705Y255642D02*
D03*
Y273358D02*
D03*
X80295D02*
D03*
Y255642D02*
D03*
X273500Y104500D02*
D03*
Y114500D02*
D03*
Y124500D02*
D03*
Y134500D02*
D03*
X243500Y104500D02*
D03*
Y114500D02*
D03*
Y124500D02*
D03*
Y233000D02*
D03*
Y223000D02*
D03*
Y213000D02*
D03*
Y203000D02*
D03*
Y193000D02*
D03*
Y183000D02*
D03*
Y173000D02*
D03*
Y163000D02*
D03*
X273500Y243000D02*
D03*
Y233000D02*
D03*
Y223000D02*
D03*
Y213000D02*
D03*
Y203000D02*
D03*
Y193000D02*
D03*
Y183000D02*
D03*
Y173000D02*
D03*
Y163000D02*
D03*
D38*
X129000Y230500D02*
D03*
X243500Y134500D02*
D03*
Y243000D02*
D03*
D39*
X123373Y270000D02*
D03*
X18000Y20500D02*
D03*
X170000Y270000D02*
D03*
D40*
X123373Y260000D02*
D03*
X113373Y270000D02*
D03*
Y260000D02*
D03*
X103373Y270000D02*
D03*
Y260000D02*
D03*
X28000Y20500D02*
D03*
X38000D02*
D03*
X48000D02*
D03*
X58000D02*
D03*
X68000D02*
D03*
X78000D02*
D03*
X88000D02*
D03*
X98000D02*
D03*
X108000D02*
D03*
X118000D02*
D03*
X128000D02*
D03*
X138000D02*
D03*
X148000D02*
D03*
X158000D02*
D03*
X168000D02*
D03*
X178000D02*
D03*
X188000D02*
D03*
X198000D02*
D03*
X208000D02*
D03*
X170000Y260000D02*
D03*
X160000Y270000D02*
D03*
Y260000D02*
D03*
X150000Y270000D02*
D03*
Y260000D02*
D03*
D41*
X63000Y105937D02*
D03*
Y115937D02*
D03*
X218000Y34972D02*
D03*
X22500Y122972D02*
D03*
X300500Y234028D02*
D03*
X301500Y94028D02*
D03*
D42*
X63000Y125937D02*
D03*
D43*
X62016Y45921D02*
D03*
Y55961D02*
D03*
D44*
Y66000D02*
D03*
D45*
X102500Y156894D02*
D03*
X219000Y195713D02*
D03*
D46*
X102500Y166500D02*
D03*
Y176106D02*
D03*
X219000Y186106D02*
D03*
Y176500D02*
D03*
D47*
X218000Y94028D02*
D03*
X22500Y182028D02*
D03*
X300500Y174972D02*
D03*
X301500Y34972D02*
D03*
D48*
X219000Y222819D02*
D03*
Y149819D02*
D03*
X23000Y225500D02*
D03*
X102000Y226500D02*
D03*
Y104500D02*
D03*
D49*
X219000Y242819D02*
D03*
Y129819D02*
D03*
X23000Y205500D02*
D03*
X102000Y206500D02*
D03*
Y124500D02*
D03*
D50*
X175000Y207500D02*
D03*
X119600Y143697D02*
D03*
X78200Y167500D02*
D03*
X263700Y194800D02*
D03*
X188100Y28000D02*
D03*
M02*
