M48
;Layer_Color=9474304
;FILE_FORMAT=2:4
INCH,TZ
;TYPE=PLATED
T1F00S00C0.0197
T2F00S00C0.0276
T3F00S00C0.0315
T4F00S00C0.0354
T5F00S00C0.0394
T6F00S00C0.0402
T7F00S00C0.0433
%
T01
X18810Y2800
X7820Y16750
X11960Y14370
X17500Y20750
X26370Y19480
T02
X10250Y15689
Y16650
Y17611
X21900Y17650
Y18611
Y19571
T03
X10200Y10450
Y12450
X2300Y20550
Y22550
X10200Y22650
Y20650
X21900Y22282
Y24282
Y14982
Y12982
T04
X27350Y10450
Y11450
Y12450
X24350
Y11450
Y10450
X15900Y10050
Y11050
Y12050
X12900
Y11050
Y10050
Y13050
Y14050
Y15050
Y16050
Y17050
Y18050
Y19050
Y20050
Y21050
Y22050
Y23050
X15900
Y22050
Y21050
Y20050
Y19050
Y18050
Y17050
Y16050
Y15050
Y14050
Y13050
X24350Y13450
Y16300
Y17300
Y18300
Y19300
Y20300
Y21300
Y22300
Y23300
Y24300
X27350
Y23300
Y22300
Y21300
Y20300
Y19300
Y18300
Y17300
Y16300
Y13450
T05
X6300Y10594
Y11594
Y12594
X5470Y25564
Y27336
X8030
Y25564
T06
X25600Y5150
X26600
Y7750
X25600
X20800Y2050
X19800
X18800
X17800
X16800
X15800
X14800
X13800
X12800
X11800
X10800
X9800
X8800
X7800
X6800
X5800
X4800
X3800
X2800
X1800
X2150Y4450
Y5450
Y6450
Y7450
Y8450
Y9450
X7000Y16250
Y17250
Y18250
Y19250
Y20250
Y21250
X2450Y26150
Y27150
X10337Y27000
X11337
X12337
Y26000
X11337
X10337
X15000
X16000
X17000
Y27000
X16000
X15000
X18750Y21250
Y20250
Y19250
Y18250
Y17250
Y16250
T07
X30150Y3497
Y9403
X21800
Y3497
X6202Y4592
Y5596
Y6600
X2250Y12297
Y18203
X30050Y17497
Y23403
M30
