G04*
G04 #@! TF.GenerationSoftware,Altium Limited,Altium Designer,22.9.1 (49)*
G04*
G04 Layer_Color=32896*
%FSLAX25Y25*%
%MOIN*%
G70*
G04*
G04 #@! TF.SameCoordinates,2D7BEFF4-9F28-405B-851C-CABBC44A95C7*
G04*
G04*
G04 #@! TF.FilePolarity,Positive*
G04*
G01*
G75*
%ADD28C,0.00000*%
G36*
X50884Y201407D02*
X50901D01*
X50919Y201406D01*
X50939Y201405D01*
X50985Y201400D01*
X51032Y201393D01*
X51078Y201384D01*
X51099Y201379D01*
X51121Y201372D01*
X51122D01*
X51125Y201370D01*
X51131Y201367D01*
X51138Y201364D01*
X51148Y201362D01*
X51158Y201356D01*
X51182Y201344D01*
X51208Y201330D01*
X51237Y201311D01*
X51262Y201290D01*
X51287Y201264D01*
Y201263D01*
X51290Y201261D01*
X51292Y201257D01*
X51295Y201251D01*
X51300Y201244D01*
X51305Y201237D01*
X51315Y201216D01*
X51325Y201190D01*
X51335Y201160D01*
X51341Y201124D01*
X51344Y201086D01*
Y201071D01*
X51342Y201061D01*
X51341Y201050D01*
X51338Y201035D01*
X51335Y201020D01*
X51331Y201003D01*
X51325Y200986D01*
X51320Y200967D01*
X51311Y200948D01*
X51301Y200930D01*
X51290Y200911D01*
X51275Y200892D01*
X51260Y200875D01*
X51242Y200860D01*
X51241Y200858D01*
X51237Y200855D01*
X51230Y200851D01*
X51218Y200844D01*
X51205Y200837D01*
X51188Y200830D01*
X51168Y200820D01*
X51145Y200811D01*
X51119Y200802D01*
X51089Y200794D01*
X51056Y200785D01*
X51019Y200778D01*
X50979Y200771D01*
X50936Y200767D01*
X50889Y200764D01*
X50839Y200762D01*
X50838D01*
X50832D01*
X50822D01*
X50810D01*
X50795Y200764D01*
X50778D01*
X50759Y200765D01*
X50738Y200767D01*
X50693Y200771D01*
X50646Y200778D01*
X50599Y200787D01*
X50577Y200792D01*
X50556Y200798D01*
X50555D01*
X50552Y200800D01*
X50546Y200802D01*
X50539Y200805D01*
X50529Y200808D01*
X50519Y200814D01*
X50494Y200825D01*
X50469Y200840D01*
X50442Y200858D01*
X50414Y200880D01*
X50392Y200905D01*
Y200907D01*
X50389Y200908D01*
X50386Y200912D01*
X50383Y200918D01*
X50377Y200925D01*
X50373Y200934D01*
X50362Y200955D01*
X50352Y200981D01*
X50341Y201011D01*
X50336Y201047D01*
X50333Y201086D01*
Y201098D01*
X50334Y201114D01*
X50337Y201133D01*
X50341Y201154D01*
X50347Y201177D01*
X50354Y201201D01*
X50366Y201224D01*
Y201226D01*
X50367Y201227D01*
X50371Y201234D01*
X50379Y201246D01*
X50389Y201260D01*
X50403Y201276D01*
X50419Y201293D01*
X50437Y201309D01*
X50459Y201324D01*
X50462Y201326D01*
X50469Y201331D01*
X50482Y201337D01*
X50500Y201347D01*
X50522Y201356D01*
X50546Y201367D01*
X50575Y201377D01*
X50606Y201386D01*
X50608D01*
X50610Y201387D01*
X50615Y201389D01*
X50622Y201390D01*
X50630Y201392D01*
X50640Y201393D01*
X50653Y201396D01*
X50668Y201397D01*
X50683Y201400D01*
X50700Y201402D01*
X50720Y201403D01*
X50740Y201406D01*
X50763Y201407D01*
X50786D01*
X50812Y201409D01*
X50839D01*
X50841D01*
X50846D01*
X50856D01*
X50868D01*
X50884Y201407D01*
D02*
G37*
G36*
Y200638D02*
X50901D01*
X50919Y200637D01*
X50939Y200635D01*
X50985Y200631D01*
X51032Y200624D01*
X51078Y200615D01*
X51099Y200609D01*
X51121Y200602D01*
X51122D01*
X51125Y200601D01*
X51131Y200598D01*
X51138Y200595D01*
X51148Y200592D01*
X51158Y200587D01*
X51182Y200575D01*
X51208Y200561D01*
X51237Y200542D01*
X51262Y200521D01*
X51287Y200495D01*
Y200494D01*
X51290Y200492D01*
X51292Y200488D01*
X51295Y200482D01*
X51300Y200475D01*
X51305Y200468D01*
X51315Y200446D01*
X51325Y200421D01*
X51335Y200391D01*
X51341Y200355D01*
X51344Y200316D01*
Y200302D01*
X51342Y200292D01*
X51341Y200280D01*
X51338Y200266D01*
X51335Y200251D01*
X51331Y200233D01*
X51325Y200216D01*
X51320Y200198D01*
X51311Y200179D01*
X51301Y200160D01*
X51290Y200142D01*
X51275Y200123D01*
X51260Y200106D01*
X51242Y200090D01*
X51241Y200089D01*
X51237Y200086D01*
X51230Y200082D01*
X51218Y200075D01*
X51205Y200067D01*
X51188Y200060D01*
X51168Y200050D01*
X51145Y200042D01*
X51119Y200033D01*
X51089Y200025D01*
X51056Y200016D01*
X51019Y200009D01*
X50979Y200002D01*
X50936Y199997D01*
X50889Y199995D01*
X50839Y199993D01*
X50838D01*
X50832D01*
X50822D01*
X50810D01*
X50795Y199995D01*
X50778D01*
X50759Y199996D01*
X50738Y199997D01*
X50693Y200002D01*
X50646Y200009D01*
X50599Y200017D01*
X50577Y200023D01*
X50556Y200029D01*
X50555D01*
X50552Y200030D01*
X50546Y200033D01*
X50539Y200036D01*
X50529Y200039D01*
X50519Y200044D01*
X50494Y200056D01*
X50469Y200070D01*
X50442Y200089D01*
X50414Y200110D01*
X50392Y200136D01*
Y200137D01*
X50389Y200139D01*
X50386Y200143D01*
X50383Y200149D01*
X50377Y200156D01*
X50373Y200165D01*
X50362Y200186D01*
X50352Y200212D01*
X50341Y200242D01*
X50336Y200278D01*
X50333Y200316D01*
Y200329D01*
X50334Y200345D01*
X50337Y200363D01*
X50341Y200385D01*
X50347Y200408D01*
X50354Y200432D01*
X50366Y200455D01*
Y200456D01*
X50367Y200458D01*
X50371Y200465D01*
X50379Y200476D01*
X50389Y200491D01*
X50403Y200506D01*
X50419Y200524D01*
X50437Y200539D01*
X50459Y200555D01*
X50462Y200556D01*
X50469Y200562D01*
X50482Y200568D01*
X50500Y200578D01*
X50522Y200587D01*
X50546Y200598D01*
X50575Y200608D01*
X50606Y200617D01*
X50608D01*
X50610Y200618D01*
X50615Y200619D01*
X50622Y200621D01*
X50630Y200622D01*
X50640Y200624D01*
X50653Y200626D01*
X50668Y200628D01*
X50683Y200631D01*
X50700Y200632D01*
X50720Y200634D01*
X50740Y200637D01*
X50763Y200638D01*
X50786D01*
X50812Y200639D01*
X50839D01*
X50841D01*
X50846D01*
X50856D01*
X50868D01*
X50884Y200638D01*
D02*
G37*
G36*
X50447Y199872D02*
X50450Y199869D01*
X50456Y199863D01*
X50464Y199857D01*
X50475Y199849D01*
X50486Y199837D01*
X50500Y199826D01*
X50517Y199813D01*
X50535Y199800D01*
X50555Y199784D01*
X50577Y199768D01*
X50600Y199753D01*
X50626Y199736D01*
X50653Y199718D01*
X50683Y199701D01*
X50713Y199684D01*
X50715Y199683D01*
X50720Y199680D01*
X50729Y199676D01*
X50742Y199668D01*
X50758Y199661D01*
X50775Y199653D01*
X50795Y199643D01*
X50818Y199633D01*
X50843Y199621D01*
X50869Y199608D01*
X50898Y199597D01*
X50928Y199585D01*
X50989Y199563D01*
X51055Y199541D01*
X51056D01*
X51061Y199540D01*
X51068Y199538D01*
X51077Y199535D01*
X51088Y199533D01*
X51102Y199530D01*
X51118Y199525D01*
X51135Y199523D01*
X51155Y199518D01*
X51177Y199514D01*
X51222Y199507D01*
X51272Y199500D01*
X51327Y199495D01*
Y199371D01*
X51325D01*
X51321D01*
X51315D01*
X51307Y199372D01*
X51295D01*
X51281Y199374D01*
X51265Y199375D01*
X51248Y199377D01*
X51228Y199380D01*
X51208Y199382D01*
X51184Y199387D01*
X51160Y199391D01*
X51134Y199395D01*
X51105Y199401D01*
X51047Y199415D01*
X51045D01*
X51039Y199417D01*
X51031Y199420D01*
X51018Y199424D01*
X51004Y199428D01*
X50986Y199434D01*
X50966Y199440D01*
X50945Y199448D01*
X50921Y199457D01*
X50896Y199465D01*
X50842Y199487D01*
X50785Y199513D01*
X50728Y199541D01*
X50726Y199543D01*
X50720Y199546D01*
X50713Y199550D01*
X50702Y199556D01*
X50689Y199563D01*
X50673Y199573D01*
X50656Y199583D01*
X50638Y199594D01*
X50596Y199621D01*
X50553Y199650D01*
X50509Y199683D01*
X50467Y199717D01*
Y199232D01*
X50350D01*
Y199873D01*
X50446D01*
X50447Y199872D01*
D02*
G37*
G36*
X51327Y198908D02*
X51188D01*
Y199046D01*
X51327D01*
Y198908D01*
D02*
G37*
G36*
Y198053D02*
X51325D01*
X51320D01*
X51311D01*
X51300Y198054D01*
X51287Y198055D01*
X51272Y198058D01*
X51258Y198061D01*
X51242Y198067D01*
X51241D01*
X51240Y198068D01*
X51231Y198071D01*
X51218Y198077D01*
X51201Y198085D01*
X51181Y198097D01*
X51158Y198111D01*
X51135Y198127D01*
X51111Y198147D01*
X51109D01*
X51108Y198150D01*
X51099Y198157D01*
X51086Y198170D01*
X51068Y198188D01*
X51047Y198210D01*
X51021Y198237D01*
X50992Y198270D01*
X50962Y198306D01*
X50961Y198307D01*
X50956Y198313D01*
X50949Y198321D01*
X50941Y198331D01*
X50929Y198344D01*
X50916Y198360D01*
X50902Y198376D01*
X50886Y198394D01*
X50852Y198430D01*
X50818Y198466D01*
X50801Y198483D01*
X50783Y198499D01*
X50768Y198513D01*
X50752Y198524D01*
X50750D01*
X50749Y198527D01*
X50745Y198530D01*
X50739Y198533D01*
X50723Y198543D01*
X50705Y198555D01*
X50682Y198565D01*
X50657Y198574D01*
X50630Y198580D01*
X50605Y198583D01*
X50603D01*
X50602D01*
X50593Y198582D01*
X50579Y198580D01*
X50563Y198576D01*
X50543Y198570D01*
X50523Y198560D01*
X50503Y198547D01*
X50483Y198530D01*
X50480Y198527D01*
X50475Y198520D01*
X50467Y198510D01*
X50457Y198494D01*
X50449Y198474D01*
X50440Y198451D01*
X50434Y198424D01*
X50433Y198394D01*
Y198386D01*
X50434Y198380D01*
X50436Y198363D01*
X50440Y198343D01*
X50446Y198321D01*
X50456Y198297D01*
X50469Y198274D01*
X50486Y198253D01*
X50489Y198250D01*
X50496Y198244D01*
X50507Y198236D01*
X50524Y198227D01*
X50545Y198217D01*
X50570Y198208D01*
X50599Y198203D01*
X50632Y198200D01*
X50619Y198075D01*
X50617D01*
X50613Y198077D01*
X50606D01*
X50596Y198078D01*
X50585Y198081D01*
X50572Y198084D01*
X50556Y198088D01*
X50540Y198093D01*
X50506Y198104D01*
X50472Y198121D01*
X50454Y198131D01*
X50437Y198144D01*
X50422Y198157D01*
X50407Y198171D01*
X50406Y198173D01*
X50404Y198176D01*
X50400Y198180D01*
X50396Y198187D01*
X50390Y198196D01*
X50384Y198205D01*
X50377Y198217D01*
X50370Y198231D01*
X50363Y198247D01*
X50356Y198264D01*
X50350Y198283D01*
X50344Y198303D01*
X50340Y198324D01*
X50336Y198347D01*
X50334Y198371D01*
X50333Y198397D01*
Y198412D01*
X50334Y198422D01*
X50336Y198433D01*
X50337Y198447D01*
X50340Y198463D01*
X50343Y198479D01*
X50353Y198516D01*
X50367Y198553D01*
X50376Y198572D01*
X50386Y198590D01*
X50399Y198607D01*
X50413Y198623D01*
X50414Y198625D01*
X50416Y198627D01*
X50422Y198630D01*
X50427Y198636D01*
X50434Y198643D01*
X50445Y198650D01*
X50454Y198657D01*
X50467Y198666D01*
X50494Y198680D01*
X50529Y198695D01*
X50546Y198700D01*
X50566Y198703D01*
X50586Y198706D01*
X50608Y198707D01*
X50610D01*
X50617D01*
X50629Y198706D01*
X50645Y198705D01*
X50662Y198702D01*
X50682Y198696D01*
X50703Y198690D01*
X50725Y198682D01*
X50728Y198680D01*
X50735Y198677D01*
X50746Y198672D01*
X50762Y198663D01*
X50779Y198652D01*
X50801Y198637D01*
X50822Y198620D01*
X50846Y198600D01*
X50849Y198597D01*
X50858Y198590D01*
X50865Y198583D01*
X50872Y198576D01*
X50881Y198567D01*
X50892Y198556D01*
X50903Y198545D01*
X50916Y198530D01*
X50931Y198516D01*
X50946Y198499D01*
X50962Y198480D01*
X50981Y198460D01*
X50999Y198437D01*
X51019Y198414D01*
X51021Y198413D01*
X51024Y198410D01*
X51028Y198404D01*
X51034Y198397D01*
X51042Y198389D01*
X51051Y198379D01*
X51069Y198356D01*
X51091Y198331D01*
X51112Y198309D01*
X51131Y198289D01*
X51138Y198280D01*
X51145Y198273D01*
X51147Y198271D01*
X51151Y198267D01*
X51157Y198261D01*
X51165Y198254D01*
X51175Y198247D01*
X51185Y198238D01*
X51209Y198221D01*
Y198709D01*
X51327D01*
Y198053D01*
D02*
G37*
G36*
Y197636D02*
X50553D01*
X50555Y197635D01*
X50560Y197628D01*
X50569Y197619D01*
X50579Y197605D01*
X50592Y197589D01*
X50606Y197569D01*
X50622Y197546D01*
X50638Y197521D01*
Y197519D01*
X50639Y197518D01*
X50645Y197509D01*
X50652Y197495D01*
X50660Y197478D01*
X50670Y197458D01*
X50680Y197436D01*
X50690Y197415D01*
X50699Y197393D01*
X50582D01*
Y197395D01*
X50579Y197398D01*
X50577Y197403D01*
X50573Y197411D01*
X50569Y197419D01*
X50563Y197429D01*
X50549Y197453D01*
X50533Y197482D01*
X50513Y197511D01*
X50490Y197541D01*
X50466Y197571D01*
X50464Y197572D01*
X50463Y197573D01*
X50459Y197578D01*
X50454Y197583D01*
X50440Y197596D01*
X50423Y197614D01*
X50403Y197631D01*
X50380Y197649D01*
X50357Y197665D01*
X50333Y197679D01*
Y197758D01*
X51327D01*
Y197636D01*
D02*
G37*
G36*
X80635Y201407D02*
X80653D01*
X80671Y201406D01*
X80691Y201405D01*
X80737Y201400D01*
X80784Y201393D01*
X80830Y201384D01*
X80851Y201379D01*
X80873Y201372D01*
X80874D01*
X80877Y201370D01*
X80883Y201367D01*
X80890Y201364D01*
X80900Y201362D01*
X80910Y201356D01*
X80934Y201344D01*
X80960Y201330D01*
X80989Y201311D01*
X81014Y201290D01*
X81039Y201264D01*
Y201263D01*
X81042Y201261D01*
X81044Y201257D01*
X81047Y201251D01*
X81052Y201244D01*
X81057Y201237D01*
X81067Y201216D01*
X81077Y201190D01*
X81087Y201160D01*
X81093Y201124D01*
X81096Y201086D01*
Y201071D01*
X81094Y201061D01*
X81093Y201050D01*
X81090Y201035D01*
X81087Y201020D01*
X81083Y201003D01*
X81077Y200986D01*
X81072Y200967D01*
X81063Y200948D01*
X81053Y200930D01*
X81042Y200911D01*
X81027Y200892D01*
X81012Y200875D01*
X80994Y200860D01*
X80993Y200858D01*
X80989Y200855D01*
X80981Y200851D01*
X80970Y200844D01*
X80957Y200837D01*
X80940Y200830D01*
X80920Y200820D01*
X80897Y200811D01*
X80871Y200802D01*
X80841Y200794D01*
X80809Y200785D01*
X80771Y200778D01*
X80731Y200771D01*
X80688Y200767D01*
X80641Y200764D01*
X80591Y200762D01*
X80590D01*
X80584D01*
X80574D01*
X80563D01*
X80547Y200764D01*
X80530D01*
X80511Y200765D01*
X80490Y200767D01*
X80445Y200771D01*
X80398Y200778D01*
X80351Y200787D01*
X80329Y200792D01*
X80308Y200798D01*
X80307D01*
X80304Y200800D01*
X80298Y200802D01*
X80291Y200805D01*
X80281Y200808D01*
X80271Y200814D01*
X80247Y200825D01*
X80221Y200840D01*
X80194Y200858D01*
X80166Y200880D01*
X80144Y200905D01*
Y200907D01*
X80141Y200908D01*
X80138Y200912D01*
X80135Y200918D01*
X80129Y200925D01*
X80125Y200934D01*
X80114Y200955D01*
X80103Y200981D01*
X80093Y201011D01*
X80088Y201047D01*
X80085Y201086D01*
Y201098D01*
X80086Y201114D01*
X80089Y201133D01*
X80093Y201154D01*
X80099Y201177D01*
X80106Y201201D01*
X80118Y201224D01*
Y201226D01*
X80119Y201227D01*
X80124Y201234D01*
X80131Y201246D01*
X80141Y201260D01*
X80155Y201276D01*
X80171Y201293D01*
X80189Y201309D01*
X80211Y201324D01*
X80214Y201326D01*
X80221Y201331D01*
X80234Y201337D01*
X80252Y201347D01*
X80274Y201356D01*
X80298Y201367D01*
X80327Y201377D01*
X80358Y201386D01*
X80360D01*
X80362Y201387D01*
X80367Y201389D01*
X80374Y201390D01*
X80382Y201392D01*
X80392Y201393D01*
X80405Y201396D01*
X80419Y201397D01*
X80435Y201400D01*
X80452Y201402D01*
X80472Y201403D01*
X80493Y201406D01*
X80515Y201407D01*
X80538D01*
X80564Y201409D01*
X80591D01*
X80593D01*
X80598D01*
X80608D01*
X80620D01*
X80635Y201407D01*
D02*
G37*
G36*
X80841Y200504D02*
X81079D01*
Y200382D01*
X80841D01*
Y199952D01*
X80730D01*
X80089Y200405D01*
Y200504D01*
X80730D01*
Y200638D01*
X80841D01*
Y200504D01*
D02*
G37*
G36*
X81079Y199206D02*
X81077D01*
X81072D01*
X81063D01*
X81052Y199208D01*
X81039Y199209D01*
X81024Y199212D01*
X81010Y199215D01*
X80994Y199221D01*
X80993D01*
X80992Y199222D01*
X80983Y199225D01*
X80970Y199231D01*
X80953Y199239D01*
X80933Y199251D01*
X80910Y199265D01*
X80887Y199281D01*
X80863Y199301D01*
X80861D01*
X80860Y199304D01*
X80851Y199311D01*
X80839Y199324D01*
X80820Y199342D01*
X80799Y199364D01*
X80773Y199391D01*
X80744Y199424D01*
X80714Y199460D01*
X80713Y199461D01*
X80708Y199467D01*
X80701Y199475D01*
X80693Y199485D01*
X80681Y199498D01*
X80668Y199514D01*
X80654Y199530D01*
X80638Y199548D01*
X80604Y199584D01*
X80570Y199620D01*
X80553Y199637D01*
X80535Y199653D01*
X80520Y199667D01*
X80504Y199678D01*
X80502D01*
X80501Y199681D01*
X80497Y199684D01*
X80491Y199687D01*
X80475Y199697D01*
X80457Y199708D01*
X80434Y199718D01*
X80409Y199729D01*
X80382Y199734D01*
X80357Y199737D01*
X80355D01*
X80354D01*
X80345Y199736D01*
X80331Y199734D01*
X80315Y199730D01*
X80295Y199724D01*
X80275Y199714D01*
X80255Y199701D01*
X80235Y199684D01*
X80232Y199681D01*
X80226Y199674D01*
X80219Y199664D01*
X80209Y199648D01*
X80201Y199628D01*
X80192Y199606D01*
X80186Y199578D01*
X80185Y199548D01*
Y199540D01*
X80186Y199534D01*
X80188Y199517D01*
X80192Y199497D01*
X80198Y199475D01*
X80208Y199451D01*
X80221Y199428D01*
X80238Y199407D01*
X80241Y199404D01*
X80248Y199398D01*
X80259Y199390D01*
X80277Y199381D01*
X80297Y199371D01*
X80322Y199362D01*
X80351Y199357D01*
X80384Y199354D01*
X80371Y199229D01*
X80370D01*
X80365Y199231D01*
X80358D01*
X80348Y199232D01*
X80337Y199235D01*
X80324Y199238D01*
X80308Y199242D01*
X80292Y199247D01*
X80258Y199258D01*
X80224Y199275D01*
X80207Y199285D01*
X80189Y199298D01*
X80174Y199311D01*
X80159Y199325D01*
X80158Y199327D01*
X80156Y199329D01*
X80152Y199334D01*
X80148Y199341D01*
X80142Y199349D01*
X80136Y199360D01*
X80129Y199371D01*
X80122Y199385D01*
X80115Y199401D01*
X80108Y199418D01*
X80102Y199437D01*
X80096Y199457D01*
X80092Y199478D01*
X80088Y199501D01*
X80086Y199525D01*
X80085Y199551D01*
Y199565D01*
X80086Y199575D01*
X80088Y199587D01*
X80089Y199601D01*
X80092Y199617D01*
X80095Y199633D01*
X80105Y199670D01*
X80119Y199707D01*
X80128Y199726D01*
X80138Y199744D01*
X80151Y199761D01*
X80165Y199777D01*
X80166Y199778D01*
X80168Y199781D01*
X80174Y199784D01*
X80179Y199790D01*
X80186Y199797D01*
X80196Y199804D01*
X80207Y199811D01*
X80219Y199820D01*
X80247Y199834D01*
X80281Y199849D01*
X80298Y199854D01*
X80318Y199857D01*
X80338Y199860D01*
X80360Y199862D01*
X80362D01*
X80370D01*
X80381Y199860D01*
X80397Y199859D01*
X80414Y199856D01*
X80434Y199850D01*
X80455Y199844D01*
X80477Y199836D01*
X80480Y199834D01*
X80487Y199831D01*
X80498Y199826D01*
X80514Y199817D01*
X80531Y199806D01*
X80553Y199791D01*
X80574Y199774D01*
X80598Y199754D01*
X80601Y199751D01*
X80610Y199744D01*
X80617Y199737D01*
X80624Y199730D01*
X80633Y199721D01*
X80644Y199710D01*
X80655Y199698D01*
X80668Y199684D01*
X80683Y199670D01*
X80698Y199653D01*
X80714Y199634D01*
X80733Y199614D01*
X80751Y199591D01*
X80771Y199568D01*
X80773Y199567D01*
X80776Y199564D01*
X80780Y199558D01*
X80786Y199551D01*
X80794Y199543D01*
X80803Y199533D01*
X80821Y199510D01*
X80843Y199485D01*
X80864Y199462D01*
X80883Y199443D01*
X80890Y199434D01*
X80897Y199427D01*
X80899Y199425D01*
X80903Y199421D01*
X80909Y199415D01*
X80917Y199408D01*
X80927Y199401D01*
X80937Y199392D01*
X80962Y199375D01*
Y199863D01*
X81079D01*
Y199206D01*
D02*
G37*
G36*
Y198908D02*
X80940D01*
Y199046D01*
X81079D01*
Y198908D01*
D02*
G37*
G36*
X80767Y198725D02*
X80778Y198723D01*
X80791Y198722D01*
X80807Y198719D01*
X80823Y198716D01*
X80860Y198707D01*
X80899Y198693D01*
X80919Y198685D01*
X80937Y198673D01*
X80957Y198662D01*
X80976Y198647D01*
X80977Y198646D01*
X80981Y198643D01*
X80987Y198637D01*
X80994Y198630D01*
X81003Y198620D01*
X81014Y198609D01*
X81024Y198594D01*
X81036Y198579D01*
X81047Y198562D01*
X81057Y198542D01*
X81067Y198520D01*
X81077Y198497D01*
X81085Y198473D01*
X81090Y198446D01*
X81094Y198417D01*
X81096Y198387D01*
Y198374D01*
X81094Y198364D01*
X81093Y198353D01*
X81092Y198340D01*
X81090Y198324D01*
X81086Y198309D01*
X81077Y198273D01*
X81064Y198237D01*
X81056Y198218D01*
X81046Y198200D01*
X81034Y198183D01*
X81022Y198166D01*
X81020Y198164D01*
X81019Y198161D01*
X81013Y198158D01*
X81007Y198153D01*
X81000Y198145D01*
X80992Y198138D01*
X80980Y198130D01*
X80967Y198123D01*
X80954Y198114D01*
X80939Y198105D01*
X80904Y198090D01*
X80864Y198077D01*
X80843Y198073D01*
X80820Y198070D01*
X80810Y198197D01*
X80811D01*
X80814D01*
X80818Y198198D01*
X80826Y198200D01*
X80841Y198204D01*
X80863Y198210D01*
X80884Y198218D01*
X80909Y198230D01*
X80930Y198244D01*
X80950Y198261D01*
X80951Y198264D01*
X80957Y198270D01*
X80964Y198281D01*
X80973Y198297D01*
X80981Y198314D01*
X80989Y198336D01*
X80994Y198360D01*
X80996Y198387D01*
Y198396D01*
X80994Y198401D01*
X80993Y198419D01*
X80987Y198439D01*
X80980Y198463D01*
X80969Y198487D01*
X80951Y198513D01*
X80941Y198524D01*
X80930Y198536D01*
X80929Y198537D01*
X80927Y198539D01*
X80923Y198542D01*
X80919Y198546D01*
X80903Y198556D01*
X80883Y198567D01*
X80859Y198577D01*
X80828Y198587D01*
X80793Y198594D01*
X80774Y198597D01*
X80754D01*
X80753D01*
X80750D01*
X80744D01*
X80737Y198596D01*
X80728D01*
X80718Y198594D01*
X80695Y198590D01*
X80668Y198583D01*
X80641Y198573D01*
X80615Y198559D01*
X80591Y198539D01*
X80590D01*
X80588Y198536D01*
X80581Y198529D01*
X80571Y198516D01*
X80560Y198499D01*
X80550Y198476D01*
X80540Y198450D01*
X80532Y198420D01*
X80530Y198403D01*
Y198376D01*
X80531Y198364D01*
X80532Y198350D01*
X80537Y198333D01*
X80541Y198316D01*
X80548Y198297D01*
X80557Y198278D01*
X80558Y198277D01*
X80561Y198271D01*
X80568Y198263D01*
X80575Y198251D01*
X80585Y198240D01*
X80598Y198228D01*
X80611Y198216D01*
X80627Y198205D01*
X80611Y198091D01*
X80102Y198187D01*
Y198679D01*
X80218D01*
Y198283D01*
X80485Y198230D01*
X80484Y198231D01*
X80483Y198234D01*
X80480Y198238D01*
X80475Y198246D01*
X80471Y198254D01*
X80465Y198264D01*
X80454Y198287D01*
X80442Y198316D01*
X80432Y198347D01*
X80425Y198381D01*
X80422Y198399D01*
Y198430D01*
X80424Y198439D01*
X80425Y198450D01*
X80427Y198463D01*
X80430Y198477D01*
X80434Y198493D01*
X80444Y198527D01*
X80451Y198546D01*
X80461Y198565D01*
X80471Y198583D01*
X80483Y198602D01*
X80497Y198619D01*
X80512Y198636D01*
X80514Y198637D01*
X80517Y198640D01*
X80521Y198645D01*
X80528Y198650D01*
X80538Y198657D01*
X80548Y198665D01*
X80561Y198673D01*
X80575Y198682D01*
X80591Y198689D01*
X80608Y198697D01*
X80628Y198705D01*
X80648Y198712D01*
X80670Y198717D01*
X80694Y198722D01*
X80718Y198725D01*
X80744Y198726D01*
X80746D01*
X80750D01*
X80757D01*
X80767Y198725D01*
D02*
G37*
G36*
X81079Y197636D02*
X80305D01*
X80307Y197635D01*
X80312Y197628D01*
X80321Y197619D01*
X80331Y197605D01*
X80344Y197589D01*
X80358Y197569D01*
X80374Y197546D01*
X80389Y197521D01*
Y197519D01*
X80391Y197518D01*
X80397Y197509D01*
X80404Y197495D01*
X80412Y197478D01*
X80422Y197458D01*
X80432Y197436D01*
X80442Y197415D01*
X80451Y197393D01*
X80334D01*
Y197395D01*
X80331Y197398D01*
X80329Y197403D01*
X80325Y197411D01*
X80321Y197419D01*
X80315Y197429D01*
X80301Y197453D01*
X80285Y197482D01*
X80265Y197511D01*
X80242Y197541D01*
X80218Y197571D01*
X80216Y197572D01*
X80215Y197573D01*
X80211Y197578D01*
X80207Y197583D01*
X80192Y197596D01*
X80175Y197614D01*
X80155Y197631D01*
X80132Y197649D01*
X80109Y197665D01*
X80085Y197679D01*
Y197758D01*
X81079D01*
Y197636D01*
D02*
G37*
G36*
X56635Y168801D02*
X56653D01*
X56671Y168800D01*
X56691Y168799D01*
X56737Y168794D01*
X56784Y168787D01*
X56830Y168779D01*
X56851Y168773D01*
X56873Y168766D01*
X56874D01*
X56877Y168764D01*
X56883Y168762D01*
X56890Y168759D01*
X56900Y168756D01*
X56910Y168750D01*
X56934Y168739D01*
X56960Y168724D01*
X56989Y168706D01*
X57014Y168684D01*
X57039Y168658D01*
Y168657D01*
X57042Y168656D01*
X57044Y168651D01*
X57047Y168646D01*
X57052Y168639D01*
X57057Y168631D01*
X57067Y168610D01*
X57077Y168584D01*
X57087Y168554D01*
X57093Y168518D01*
X57096Y168480D01*
Y168465D01*
X57095Y168456D01*
X57093Y168444D01*
X57090Y168430D01*
X57087Y168414D01*
X57083Y168397D01*
X57077Y168380D01*
X57072Y168361D01*
X57063Y168342D01*
X57053Y168324D01*
X57042Y168305D01*
X57027Y168287D01*
X57012Y168270D01*
X56994Y168254D01*
X56993Y168252D01*
X56989Y168249D01*
X56981Y168245D01*
X56970Y168238D01*
X56957Y168231D01*
X56940Y168224D01*
X56920Y168214D01*
X56897Y168205D01*
X56871Y168197D01*
X56841Y168188D01*
X56809Y168180D01*
X56771Y168172D01*
X56731Y168165D01*
X56688Y168161D01*
X56641Y168158D01*
X56591Y168157D01*
X56590D01*
X56584D01*
X56574D01*
X56563D01*
X56547Y168158D01*
X56530D01*
X56511Y168159D01*
X56490Y168161D01*
X56445Y168165D01*
X56398Y168172D01*
X56351Y168181D01*
X56329Y168187D01*
X56308Y168192D01*
X56307D01*
X56304Y168194D01*
X56298Y168197D01*
X56291Y168200D01*
X56281Y168202D01*
X56271Y168208D01*
X56247Y168219D01*
X56221Y168234D01*
X56194Y168252D01*
X56166Y168274D01*
X56144Y168300D01*
Y168301D01*
X56141Y168302D01*
X56138Y168307D01*
X56135Y168313D01*
X56129Y168320D01*
X56125Y168328D01*
X56113Y168350D01*
X56103Y168375D01*
X56094Y168405D01*
X56088Y168441D01*
X56085Y168480D01*
Y168493D01*
X56086Y168508D01*
X56089Y168527D01*
X56094Y168548D01*
X56099Y168571D01*
X56106Y168596D01*
X56118Y168619D01*
Y168620D01*
X56119Y168621D01*
X56124Y168629D01*
X56131Y168640D01*
X56141Y168654D01*
X56155Y168670D01*
X56171Y168687D01*
X56189Y168703D01*
X56211Y168719D01*
X56214Y168720D01*
X56221Y168726D01*
X56234Y168731D01*
X56252Y168742D01*
X56274Y168750D01*
X56298Y168762D01*
X56327Y168772D01*
X56358Y168780D01*
X56359D01*
X56362Y168781D01*
X56367Y168783D01*
X56374Y168784D01*
X56382Y168786D01*
X56392Y168787D01*
X56405Y168790D01*
X56419Y168791D01*
X56435Y168794D01*
X56452Y168796D01*
X56472Y168797D01*
X56493Y168800D01*
X56515Y168801D01*
X56538D01*
X56564Y168803D01*
X56591D01*
X56593D01*
X56598D01*
X56608D01*
X56620D01*
X56635Y168801D01*
D02*
G37*
G36*
X56841Y167898D02*
X57079D01*
Y167776D01*
X56841D01*
Y167346D01*
X56730D01*
X56089Y167799D01*
Y167898D01*
X56730D01*
Y168032D01*
X56841D01*
Y167898D01*
D02*
G37*
G36*
X56767Y167273D02*
X56779Y167271D01*
X56791Y167270D01*
X56807Y167267D01*
X56823Y167264D01*
X56860Y167256D01*
X56899Y167241D01*
X56919Y167233D01*
X56937Y167221D01*
X56957Y167210D01*
X56976Y167196D01*
X56977Y167194D01*
X56981Y167191D01*
X56987Y167186D01*
X56994Y167178D01*
X57003Y167168D01*
X57014Y167157D01*
X57024Y167143D01*
X57036Y167127D01*
X57047Y167110D01*
X57057Y167090D01*
X57067Y167068D01*
X57077Y167045D01*
X57085Y167021D01*
X57090Y166994D01*
X57095Y166965D01*
X57096Y166935D01*
Y166922D01*
X57095Y166912D01*
X57093Y166901D01*
X57092Y166888D01*
X57090Y166873D01*
X57086Y166857D01*
X57077Y166821D01*
X57064Y166785D01*
X57056Y166767D01*
X57046Y166748D01*
X57034Y166731D01*
X57022Y166714D01*
X57020Y166712D01*
X57019Y166709D01*
X57013Y166707D01*
X57007Y166701D01*
X57000Y166694D01*
X56991Y166687D01*
X56980Y166678D01*
X56967Y166671D01*
X56954Y166662D01*
X56939Y166654D01*
X56904Y166638D01*
X56864Y166625D01*
X56843Y166621D01*
X56820Y166618D01*
X56810Y166745D01*
X56811D01*
X56814D01*
X56818Y166747D01*
X56826Y166748D01*
X56841Y166752D01*
X56863Y166758D01*
X56884Y166767D01*
X56909Y166778D01*
X56930Y166792D01*
X56950Y166809D01*
X56951Y166812D01*
X56957Y166818D01*
X56964Y166830D01*
X56973Y166845D01*
X56981Y166862D01*
X56989Y166884D01*
X56994Y166908D01*
X56996Y166935D01*
Y166944D01*
X56994Y166950D01*
X56993Y166967D01*
X56987Y166987D01*
X56980Y167011D01*
X56969Y167035D01*
X56951Y167061D01*
X56941Y167073D01*
X56930Y167084D01*
X56929Y167086D01*
X56927Y167087D01*
X56923Y167090D01*
X56919Y167094D01*
X56903Y167104D01*
X56883Y167116D01*
X56859Y167126D01*
X56828Y167136D01*
X56793Y167143D01*
X56774Y167146D01*
X56754D01*
X56753D01*
X56750D01*
X56744D01*
X56737Y167144D01*
X56728D01*
X56718Y167143D01*
X56695Y167138D01*
X56668Y167131D01*
X56641Y167121D01*
X56615Y167107D01*
X56591Y167087D01*
X56590D01*
X56588Y167084D01*
X56581Y167077D01*
X56571Y167064D01*
X56560Y167047D01*
X56550Y167024D01*
X56540Y166998D01*
X56533Y166968D01*
X56530Y166951D01*
Y166924D01*
X56531Y166912D01*
X56533Y166898D01*
X56537Y166881D01*
X56541Y166864D01*
X56548Y166845D01*
X56557Y166827D01*
X56558Y166825D01*
X56561Y166820D01*
X56568Y166811D01*
X56575Y166799D01*
X56585Y166788D01*
X56598Y166777D01*
X56611Y166764D01*
X56627Y166754D01*
X56611Y166639D01*
X56102Y166735D01*
Y167227D01*
X56218D01*
Y166831D01*
X56485Y166778D01*
X56484Y166779D01*
X56482Y166782D01*
X56480Y166787D01*
X56475Y166794D01*
X56471Y166802D01*
X56465Y166812D01*
X56454Y166835D01*
X56442Y166864D01*
X56432Y166895D01*
X56425Y166930D01*
X56422Y166947D01*
Y166978D01*
X56424Y166987D01*
X56425Y166998D01*
X56427Y167011D01*
X56429Y167025D01*
X56434Y167041D01*
X56444Y167076D01*
X56451Y167094D01*
X56461Y167113D01*
X56471Y167131D01*
X56482Y167150D01*
X56497Y167167D01*
X56512Y167184D01*
X56514Y167186D01*
X56517Y167189D01*
X56521Y167193D01*
X56528Y167199D01*
X56538Y167206D01*
X56548Y167213D01*
X56561Y167221D01*
X56575Y167230D01*
X56591Y167237D01*
X56608Y167246D01*
X56628Y167253D01*
X56648Y167260D01*
X56670Y167266D01*
X56694Y167270D01*
X56718Y167273D01*
X56744Y167274D01*
X56746D01*
X56750D01*
X56757D01*
X56767Y167273D01*
D02*
G37*
G36*
X57079Y166302D02*
X56940D01*
Y166441D01*
X57079D01*
Y166302D01*
D02*
G37*
G36*
Y165447D02*
X57077D01*
X57072D01*
X57063D01*
X57052Y165448D01*
X57039Y165450D01*
X57024Y165453D01*
X57010Y165455D01*
X56994Y165461D01*
X56993D01*
X56991Y165463D01*
X56983Y165465D01*
X56970Y165471D01*
X56953Y165480D01*
X56933Y165491D01*
X56910Y165505D01*
X56887Y165521D01*
X56863Y165541D01*
X56861D01*
X56860Y165544D01*
X56851Y165551D01*
X56839Y165564D01*
X56820Y165583D01*
X56798Y165604D01*
X56773Y165631D01*
X56744Y165664D01*
X56714Y165700D01*
X56713Y165701D01*
X56708Y165707D01*
X56701Y165716D01*
X56693Y165726D01*
X56681Y165738D01*
X56668Y165754D01*
X56654Y165770D01*
X56638Y165788D01*
X56604Y165824D01*
X56570Y165860D01*
X56552Y165877D01*
X56535Y165893D01*
X56520Y165907D01*
X56504Y165919D01*
X56502D01*
X56501Y165921D01*
X56497Y165924D01*
X56491Y165927D01*
X56475Y165937D01*
X56457Y165949D01*
X56434Y165959D01*
X56410Y165969D01*
X56382Y165974D01*
X56357Y165977D01*
X56355D01*
X56354D01*
X56345Y165976D01*
X56331Y165974D01*
X56315Y165970D01*
X56295Y165964D01*
X56275Y165954D01*
X56255Y165942D01*
X56235Y165924D01*
X56232Y165921D01*
X56226Y165914D01*
X56219Y165904D01*
X56209Y165889D01*
X56201Y165869D01*
X56192Y165846D01*
X56186Y165819D01*
X56185Y165788D01*
Y165780D01*
X56186Y165774D01*
X56188Y165757D01*
X56192Y165737D01*
X56198Y165716D01*
X56208Y165691D01*
X56221Y165668D01*
X56238Y165647D01*
X56241Y165644D01*
X56248Y165638D01*
X56259Y165630D01*
X56277Y165621D01*
X56297Y165611D01*
X56322Y165603D01*
X56351Y165597D01*
X56384Y165594D01*
X56371Y165470D01*
X56370D01*
X56365Y165471D01*
X56358D01*
X56348Y165472D01*
X56337Y165475D01*
X56324Y165478D01*
X56308Y165482D01*
X56292Y165487D01*
X56258Y165498D01*
X56224Y165515D01*
X56207Y165525D01*
X56189Y165538D01*
X56174Y165551D01*
X56159Y165565D01*
X56158Y165567D01*
X56156Y165570D01*
X56152Y165574D01*
X56148Y165581D01*
X56142Y165590D01*
X56136Y165600D01*
X56129Y165611D01*
X56122Y165626D01*
X56115Y165641D01*
X56108Y165658D01*
X56102Y165677D01*
X56096Y165697D01*
X56092Y165718D01*
X56088Y165741D01*
X56086Y165766D01*
X56085Y165791D01*
Y165806D01*
X56086Y165816D01*
X56088Y165827D01*
X56089Y165841D01*
X56092Y165857D01*
X56095Y165873D01*
X56105Y165910D01*
X56119Y165947D01*
X56128Y165966D01*
X56138Y165984D01*
X56151Y166002D01*
X56165Y166017D01*
X56166Y166019D01*
X56168Y166022D01*
X56174Y166024D01*
X56179Y166030D01*
X56186Y166037D01*
X56196Y166044D01*
X56207Y166052D01*
X56219Y166060D01*
X56247Y166075D01*
X56281Y166089D01*
X56298Y166095D01*
X56318Y166097D01*
X56338Y166100D01*
X56359Y166102D01*
X56362D01*
X56370D01*
X56381Y166100D01*
X56397Y166099D01*
X56414Y166096D01*
X56434Y166090D01*
X56455Y166085D01*
X56477Y166076D01*
X56480Y166075D01*
X56487Y166072D01*
X56498Y166066D01*
X56514Y166057D01*
X56531Y166046D01*
X56552Y166032D01*
X56574Y166015D01*
X56598Y165994D01*
X56601Y165992D01*
X56610Y165984D01*
X56617Y165977D01*
X56624Y165970D01*
X56633Y165962D01*
X56644Y165950D01*
X56656Y165939D01*
X56668Y165924D01*
X56683Y165910D01*
X56698Y165893D01*
X56714Y165874D01*
X56733Y165854D01*
X56751Y165831D01*
X56771Y165808D01*
X56773Y165807D01*
X56776Y165804D01*
X56780Y165798D01*
X56786Y165791D01*
X56794Y165783D01*
X56803Y165773D01*
X56821Y165750D01*
X56843Y165726D01*
X56864Y165703D01*
X56883Y165683D01*
X56890Y165674D01*
X56897Y165667D01*
X56899Y165665D01*
X56903Y165661D01*
X56909Y165656D01*
X56917Y165648D01*
X56927Y165641D01*
X56937Y165633D01*
X56962Y165615D01*
Y166103D01*
X57079D01*
Y165447D01*
D02*
G37*
G36*
X63884Y146801D02*
X63901D01*
X63919Y146800D01*
X63939Y146799D01*
X63985Y146794D01*
X64032Y146787D01*
X64078Y146779D01*
X64099Y146773D01*
X64121Y146766D01*
X64122D01*
X64125Y146764D01*
X64131Y146762D01*
X64138Y146759D01*
X64148Y146756D01*
X64158Y146750D01*
X64182Y146739D01*
X64208Y146724D01*
X64237Y146706D01*
X64262Y146684D01*
X64287Y146659D01*
Y146657D01*
X64290Y146656D01*
X64292Y146651D01*
X64295Y146646D01*
X64300Y146639D01*
X64305Y146631D01*
X64315Y146610D01*
X64325Y146584D01*
X64335Y146554D01*
X64341Y146518D01*
X64344Y146480D01*
Y146466D01*
X64342Y146456D01*
X64341Y146444D01*
X64338Y146430D01*
X64335Y146414D01*
X64331Y146397D01*
X64325Y146380D01*
X64320Y146361D01*
X64311Y146343D01*
X64301Y146324D01*
X64290Y146305D01*
X64275Y146287D01*
X64260Y146270D01*
X64242Y146254D01*
X64241Y146252D01*
X64237Y146249D01*
X64230Y146245D01*
X64218Y146238D01*
X64205Y146231D01*
X64188Y146224D01*
X64168Y146214D01*
X64145Y146205D01*
X64119Y146197D01*
X64089Y146188D01*
X64056Y146179D01*
X64019Y146172D01*
X63979Y146165D01*
X63936Y146161D01*
X63889Y146158D01*
X63839Y146157D01*
X63838D01*
X63832D01*
X63822D01*
X63810D01*
X63795Y146158D01*
X63778D01*
X63759Y146159D01*
X63738Y146161D01*
X63693Y146165D01*
X63646Y146172D01*
X63599Y146181D01*
X63577Y146187D01*
X63556Y146192D01*
X63555D01*
X63552Y146194D01*
X63546Y146197D01*
X63539Y146200D01*
X63529Y146202D01*
X63519Y146208D01*
X63494Y146220D01*
X63469Y146234D01*
X63442Y146252D01*
X63414Y146274D01*
X63392Y146300D01*
Y146301D01*
X63389Y146302D01*
X63386Y146307D01*
X63383Y146312D01*
X63377Y146320D01*
X63373Y146328D01*
X63362Y146350D01*
X63352Y146375D01*
X63341Y146405D01*
X63336Y146441D01*
X63333Y146480D01*
Y146493D01*
X63334Y146508D01*
X63337Y146527D01*
X63341Y146548D01*
X63347Y146571D01*
X63354Y146596D01*
X63366Y146618D01*
Y146620D01*
X63367Y146621D01*
X63371Y146628D01*
X63379Y146640D01*
X63389Y146654D01*
X63403Y146670D01*
X63419Y146687D01*
X63437Y146703D01*
X63459Y146719D01*
X63462Y146720D01*
X63469Y146726D01*
X63482Y146731D01*
X63500Y146741D01*
X63522Y146750D01*
X63546Y146762D01*
X63575Y146772D01*
X63606Y146780D01*
X63608D01*
X63610Y146782D01*
X63615Y146783D01*
X63622Y146784D01*
X63630Y146786D01*
X63640Y146787D01*
X63653Y146790D01*
X63668Y146792D01*
X63683Y146794D01*
X63700Y146796D01*
X63721Y146797D01*
X63740Y146800D01*
X63763Y146801D01*
X63786D01*
X63812Y146803D01*
X63839D01*
X63841D01*
X63846D01*
X63856D01*
X63868D01*
X63884Y146801D01*
D02*
G37*
G36*
X64089Y145898D02*
X64327D01*
Y145776D01*
X64089D01*
Y145346D01*
X63978D01*
X63337Y145799D01*
Y145898D01*
X63978D01*
Y146032D01*
X64089D01*
Y145898D01*
D02*
G37*
G36*
X64015Y145273D02*
X64026Y145271D01*
X64039Y145270D01*
X64055Y145267D01*
X64071Y145264D01*
X64108Y145256D01*
X64147Y145241D01*
X64167Y145233D01*
X64185Y145221D01*
X64205Y145210D01*
X64224Y145196D01*
X64225Y145194D01*
X64230Y145191D01*
X64235Y145186D01*
X64242Y145178D01*
X64251Y145168D01*
X64262Y145157D01*
X64272Y145143D01*
X64284Y145127D01*
X64295Y145110D01*
X64305Y145090D01*
X64315Y145068D01*
X64325Y145045D01*
X64332Y145021D01*
X64338Y144994D01*
X64342Y144965D01*
X64344Y144935D01*
Y144922D01*
X64342Y144913D01*
X64341Y144901D01*
X64340Y144888D01*
X64338Y144872D01*
X64334Y144857D01*
X64325Y144821D01*
X64312Y144785D01*
X64304Y144767D01*
X64294Y144748D01*
X64282Y144731D01*
X64270Y144714D01*
X64268Y144712D01*
X64267Y144709D01*
X64261Y144707D01*
X64255Y144701D01*
X64248Y144694D01*
X64240Y144687D01*
X64228Y144678D01*
X64215Y144671D01*
X64202Y144662D01*
X64187Y144654D01*
X64152Y144638D01*
X64112Y144625D01*
X64091Y144621D01*
X64068Y144618D01*
X64058Y144745D01*
X64059D01*
X64062D01*
X64066Y144747D01*
X64074Y144748D01*
X64089Y144752D01*
X64111Y144758D01*
X64132Y144767D01*
X64157Y144778D01*
X64178Y144792D01*
X64198Y144809D01*
X64200Y144812D01*
X64205Y144818D01*
X64212Y144829D01*
X64221Y144845D01*
X64230Y144862D01*
X64237Y144884D01*
X64242Y144908D01*
X64244Y144935D01*
Y144944D01*
X64242Y144950D01*
X64241Y144967D01*
X64235Y144987D01*
X64228Y145011D01*
X64217Y145036D01*
X64200Y145061D01*
X64189Y145073D01*
X64178Y145084D01*
X64177Y145086D01*
X64175Y145087D01*
X64171Y145090D01*
X64167Y145094D01*
X64151Y145104D01*
X64131Y145116D01*
X64107Y145126D01*
X64077Y145136D01*
X64041Y145143D01*
X64022Y145146D01*
X64002D01*
X64001D01*
X63998D01*
X63992D01*
X63985Y145144D01*
X63976D01*
X63966Y145143D01*
X63943Y145138D01*
X63916Y145131D01*
X63889Y145121D01*
X63863Y145107D01*
X63839Y145087D01*
X63838D01*
X63836Y145084D01*
X63829Y145077D01*
X63819Y145064D01*
X63808Y145047D01*
X63798Y145024D01*
X63788Y144998D01*
X63780Y144968D01*
X63778Y144951D01*
Y144924D01*
X63779Y144913D01*
X63780Y144898D01*
X63785Y144881D01*
X63789Y144864D01*
X63796Y144845D01*
X63805Y144827D01*
X63806Y144825D01*
X63809Y144819D01*
X63816Y144811D01*
X63823Y144799D01*
X63833Y144788D01*
X63846Y144777D01*
X63859Y144764D01*
X63875Y144754D01*
X63859Y144639D01*
X63350Y144735D01*
Y145227D01*
X63466D01*
Y144831D01*
X63733Y144778D01*
X63732Y144780D01*
X63731Y144782D01*
X63728Y144787D01*
X63723Y144794D01*
X63719Y144802D01*
X63713Y144812D01*
X63702Y144835D01*
X63690Y144864D01*
X63680Y144895D01*
X63673Y144930D01*
X63670Y144947D01*
Y144978D01*
X63672Y144987D01*
X63673Y144998D01*
X63675Y145011D01*
X63678Y145026D01*
X63682Y145041D01*
X63692Y145076D01*
X63699Y145094D01*
X63709Y145113D01*
X63719Y145131D01*
X63731Y145150D01*
X63745Y145167D01*
X63761Y145184D01*
X63762Y145186D01*
X63765Y145188D01*
X63769Y145193D01*
X63776Y145199D01*
X63786Y145206D01*
X63796Y145213D01*
X63809Y145221D01*
X63823Y145230D01*
X63839Y145237D01*
X63856Y145246D01*
X63876Y145253D01*
X63896Y145260D01*
X63918Y145266D01*
X63942Y145270D01*
X63966Y145273D01*
X63992Y145274D01*
X63994D01*
X63998D01*
X64005D01*
X64015Y145273D01*
D02*
G37*
G36*
X64327Y144302D02*
X64188D01*
Y144441D01*
X64327D01*
Y144302D01*
D02*
G37*
G36*
Y143447D02*
X64325D01*
X64320D01*
X64311D01*
X64300Y143448D01*
X64287Y143450D01*
X64272Y143453D01*
X64258Y143455D01*
X64242Y143461D01*
X64241D01*
X64240Y143463D01*
X64231Y143465D01*
X64218Y143471D01*
X64201Y143480D01*
X64181Y143491D01*
X64158Y143505D01*
X64135Y143521D01*
X64111Y143541D01*
X64109D01*
X64108Y143544D01*
X64099Y143551D01*
X64087Y143564D01*
X64068Y143583D01*
X64047Y143604D01*
X64021Y143631D01*
X63992Y143664D01*
X63962Y143700D01*
X63961Y143701D01*
X63956Y143707D01*
X63949Y143716D01*
X63941Y143726D01*
X63929Y143738D01*
X63916Y143754D01*
X63902Y143770D01*
X63886Y143789D01*
X63852Y143824D01*
X63818Y143860D01*
X63801Y143877D01*
X63783Y143893D01*
X63768Y143907D01*
X63752Y143919D01*
X63750D01*
X63749Y143921D01*
X63745Y143924D01*
X63739Y143927D01*
X63723Y143937D01*
X63705Y143949D01*
X63682Y143959D01*
X63657Y143969D01*
X63630Y143974D01*
X63605Y143977D01*
X63603D01*
X63602D01*
X63593Y143976D01*
X63579Y143974D01*
X63563Y143970D01*
X63543Y143964D01*
X63523Y143954D01*
X63503Y143941D01*
X63483Y143924D01*
X63480Y143921D01*
X63475Y143914D01*
X63467Y143904D01*
X63457Y143889D01*
X63449Y143869D01*
X63440Y143846D01*
X63434Y143818D01*
X63433Y143789D01*
Y143780D01*
X63434Y143774D01*
X63436Y143757D01*
X63440Y143737D01*
X63446Y143716D01*
X63456Y143691D01*
X63469Y143668D01*
X63486Y143647D01*
X63489Y143644D01*
X63496Y143638D01*
X63507Y143630D01*
X63525Y143621D01*
X63545Y143611D01*
X63570Y143603D01*
X63599Y143597D01*
X63632Y143594D01*
X63619Y143470D01*
X63617D01*
X63613Y143471D01*
X63606D01*
X63596Y143473D01*
X63585Y143475D01*
X63572Y143478D01*
X63556Y143482D01*
X63540Y143487D01*
X63506Y143498D01*
X63472Y143515D01*
X63455Y143525D01*
X63437Y143538D01*
X63422Y143551D01*
X63407Y143565D01*
X63406Y143567D01*
X63404Y143570D01*
X63400Y143574D01*
X63396Y143581D01*
X63390Y143590D01*
X63384Y143600D01*
X63377Y143611D01*
X63370Y143625D01*
X63363Y143641D01*
X63356Y143658D01*
X63350Y143677D01*
X63344Y143697D01*
X63340Y143718D01*
X63336Y143741D01*
X63334Y143766D01*
X63333Y143791D01*
Y143806D01*
X63334Y143816D01*
X63336Y143827D01*
X63337Y143841D01*
X63340Y143857D01*
X63343Y143873D01*
X63353Y143910D01*
X63367Y143947D01*
X63376Y143966D01*
X63386Y143984D01*
X63399Y144002D01*
X63413Y144017D01*
X63414Y144019D01*
X63416Y144022D01*
X63422Y144025D01*
X63427Y144030D01*
X63434Y144037D01*
X63445Y144044D01*
X63455Y144052D01*
X63467Y144060D01*
X63494Y144074D01*
X63529Y144089D01*
X63546Y144095D01*
X63566Y144097D01*
X63586Y144100D01*
X63608Y144102D01*
X63610D01*
X63617D01*
X63629Y144100D01*
X63645Y144099D01*
X63662Y144096D01*
X63682Y144090D01*
X63703Y144085D01*
X63725Y144076D01*
X63728Y144074D01*
X63735Y144072D01*
X63746Y144066D01*
X63762Y144057D01*
X63779Y144046D01*
X63801Y144032D01*
X63822Y144015D01*
X63846Y143994D01*
X63849Y143992D01*
X63858Y143984D01*
X63865Y143977D01*
X63872Y143970D01*
X63881Y143962D01*
X63892Y143950D01*
X63903Y143939D01*
X63916Y143924D01*
X63931Y143910D01*
X63946Y143893D01*
X63962Y143874D01*
X63981Y143854D01*
X63999Y143831D01*
X64019Y143808D01*
X64021Y143807D01*
X64024Y143804D01*
X64028Y143798D01*
X64034Y143791D01*
X64042Y143783D01*
X64051Y143773D01*
X64069Y143750D01*
X64091Y143726D01*
X64112Y143703D01*
X64131Y143683D01*
X64138Y143674D01*
X64145Y143667D01*
X64147Y143666D01*
X64151Y143661D01*
X64157Y143656D01*
X64165Y143648D01*
X64175Y143641D01*
X64185Y143633D01*
X64210Y143615D01*
Y144103D01*
X64327D01*
Y143447D01*
D02*
G37*
G36*
X181384Y145801D02*
X181401D01*
X181419Y145800D01*
X181439Y145799D01*
X181485Y145794D01*
X181532Y145787D01*
X181578Y145779D01*
X181599Y145773D01*
X181621Y145766D01*
X181622D01*
X181625Y145764D01*
X181631Y145762D01*
X181638Y145759D01*
X181648Y145756D01*
X181658Y145750D01*
X181682Y145739D01*
X181708Y145724D01*
X181737Y145706D01*
X181762Y145684D01*
X181787Y145659D01*
Y145657D01*
X181790Y145656D01*
X181792Y145651D01*
X181795Y145646D01*
X181800Y145639D01*
X181805Y145631D01*
X181815Y145610D01*
X181825Y145584D01*
X181835Y145554D01*
X181841Y145518D01*
X181844Y145480D01*
Y145466D01*
X181843Y145456D01*
X181841Y145444D01*
X181838Y145430D01*
X181835Y145414D01*
X181831Y145397D01*
X181825Y145380D01*
X181820Y145361D01*
X181811Y145343D01*
X181801Y145324D01*
X181790Y145305D01*
X181775Y145287D01*
X181760Y145270D01*
X181742Y145254D01*
X181741Y145252D01*
X181737Y145249D01*
X181729Y145245D01*
X181718Y145238D01*
X181705Y145231D01*
X181688Y145224D01*
X181668Y145214D01*
X181645Y145205D01*
X181619Y145197D01*
X181589Y145188D01*
X181556Y145179D01*
X181519Y145172D01*
X181479Y145165D01*
X181436Y145161D01*
X181389Y145158D01*
X181339Y145157D01*
X181338D01*
X181332D01*
X181322D01*
X181310D01*
X181295Y145158D01*
X181278D01*
X181259Y145159D01*
X181238Y145161D01*
X181193Y145165D01*
X181146Y145172D01*
X181099Y145181D01*
X181077Y145187D01*
X181056Y145192D01*
X181055D01*
X181052Y145194D01*
X181046Y145197D01*
X181039Y145200D01*
X181029Y145202D01*
X181019Y145208D01*
X180994Y145220D01*
X180969Y145234D01*
X180942Y145252D01*
X180914Y145274D01*
X180892Y145300D01*
Y145301D01*
X180889Y145302D01*
X180886Y145307D01*
X180883Y145312D01*
X180877Y145320D01*
X180873Y145328D01*
X180861Y145350D01*
X180851Y145375D01*
X180842Y145405D01*
X180836Y145441D01*
X180833Y145480D01*
Y145493D01*
X180834Y145508D01*
X180837Y145527D01*
X180842Y145548D01*
X180847Y145571D01*
X180854Y145596D01*
X180866Y145618D01*
Y145620D01*
X180867Y145621D01*
X180871Y145628D01*
X180879Y145640D01*
X180889Y145654D01*
X180903Y145670D01*
X180919Y145687D01*
X180937Y145703D01*
X180959Y145719D01*
X180962Y145720D01*
X180969Y145726D01*
X180982Y145731D01*
X181000Y145741D01*
X181022Y145750D01*
X181046Y145762D01*
X181075Y145772D01*
X181106Y145780D01*
X181107D01*
X181110Y145782D01*
X181115Y145783D01*
X181122Y145784D01*
X181130Y145786D01*
X181140Y145787D01*
X181153Y145790D01*
X181167Y145791D01*
X181183Y145794D01*
X181200Y145796D01*
X181220Y145797D01*
X181240Y145800D01*
X181263Y145801D01*
X181286D01*
X181312Y145803D01*
X181339D01*
X181341D01*
X181346D01*
X181356D01*
X181368D01*
X181384Y145801D01*
D02*
G37*
G36*
X181589Y144898D02*
X181827D01*
Y144776D01*
X181589D01*
Y144346D01*
X181478D01*
X180837Y144799D01*
Y144898D01*
X181478D01*
Y145032D01*
X181589D01*
Y144898D01*
D02*
G37*
G36*
X181515Y144273D02*
X181527Y144271D01*
X181539Y144270D01*
X181555Y144267D01*
X181571Y144264D01*
X181608Y144256D01*
X181647Y144241D01*
X181667Y144233D01*
X181685Y144221D01*
X181705Y144210D01*
X181724Y144196D01*
X181725Y144194D01*
X181729Y144191D01*
X181735Y144186D01*
X181742Y144178D01*
X181751Y144168D01*
X181762Y144157D01*
X181772Y144143D01*
X181784Y144127D01*
X181795Y144110D01*
X181805Y144090D01*
X181815Y144068D01*
X181825Y144045D01*
X181833Y144021D01*
X181838Y143994D01*
X181843Y143965D01*
X181844Y143935D01*
Y143922D01*
X181843Y143912D01*
X181841Y143901D01*
X181840Y143888D01*
X181838Y143872D01*
X181834Y143857D01*
X181825Y143821D01*
X181813Y143785D01*
X181804Y143767D01*
X181794Y143748D01*
X181782Y143731D01*
X181770Y143714D01*
X181768Y143712D01*
X181767Y143709D01*
X181761Y143707D01*
X181755Y143701D01*
X181748Y143694D01*
X181739Y143687D01*
X181728Y143678D01*
X181715Y143671D01*
X181702Y143662D01*
X181687Y143654D01*
X181652Y143638D01*
X181612Y143625D01*
X181591Y143621D01*
X181568Y143618D01*
X181558Y143745D01*
X181559D01*
X181562D01*
X181567Y143747D01*
X181574Y143748D01*
X181589Y143752D01*
X181611Y143758D01*
X181632Y143767D01*
X181657Y143778D01*
X181678Y143792D01*
X181698Y143809D01*
X181700Y143812D01*
X181705Y143818D01*
X181712Y143830D01*
X181721Y143845D01*
X181729Y143862D01*
X181737Y143884D01*
X181742Y143908D01*
X181744Y143935D01*
Y143944D01*
X181742Y143950D01*
X181741Y143967D01*
X181735Y143987D01*
X181728Y144011D01*
X181717Y144035D01*
X181700Y144061D01*
X181690Y144073D01*
X181678Y144084D01*
X181677Y144086D01*
X181675Y144087D01*
X181671Y144090D01*
X181667Y144094D01*
X181651Y144104D01*
X181631Y144116D01*
X181606Y144126D01*
X181577Y144136D01*
X181541Y144143D01*
X181522Y144146D01*
X181502D01*
X181501D01*
X181498D01*
X181492D01*
X181485Y144144D01*
X181476D01*
X181466Y144143D01*
X181444Y144138D01*
X181416Y144131D01*
X181389Y144121D01*
X181363Y144107D01*
X181339Y144087D01*
X181338D01*
X181336Y144084D01*
X181329Y144077D01*
X181319Y144064D01*
X181308Y144047D01*
X181298Y144024D01*
X181288Y143998D01*
X181281Y143968D01*
X181278Y143951D01*
Y143924D01*
X181279Y143912D01*
X181281Y143898D01*
X181285Y143881D01*
X181289Y143864D01*
X181296Y143845D01*
X181305Y143827D01*
X181306Y143825D01*
X181309Y143819D01*
X181316Y143811D01*
X181323Y143799D01*
X181333Y143788D01*
X181346Y143777D01*
X181359Y143764D01*
X181375Y143754D01*
X181359Y143639D01*
X180850Y143735D01*
Y144227D01*
X180966D01*
Y143831D01*
X181233Y143778D01*
X181232Y143780D01*
X181230Y143782D01*
X181228Y143787D01*
X181223Y143794D01*
X181219Y143802D01*
X181213Y143812D01*
X181202Y143835D01*
X181190Y143864D01*
X181180Y143895D01*
X181173Y143930D01*
X181170Y143947D01*
Y143978D01*
X181172Y143987D01*
X181173Y143998D01*
X181175Y144011D01*
X181177Y144026D01*
X181182Y144041D01*
X181192Y144076D01*
X181199Y144094D01*
X181209Y144113D01*
X181219Y144131D01*
X181230Y144150D01*
X181245Y144167D01*
X181261Y144184D01*
X181262Y144186D01*
X181265Y144188D01*
X181269Y144193D01*
X181276Y144199D01*
X181286Y144206D01*
X181296Y144213D01*
X181309Y144221D01*
X181323Y144230D01*
X181339Y144237D01*
X181356Y144246D01*
X181376Y144253D01*
X181396Y144260D01*
X181418Y144266D01*
X181442Y144270D01*
X181466Y144273D01*
X181492Y144274D01*
X181494D01*
X181498D01*
X181505D01*
X181515Y144273D01*
D02*
G37*
G36*
X181827Y143302D02*
X181688D01*
Y143441D01*
X181827D01*
Y143302D01*
D02*
G37*
G36*
Y142447D02*
X181825D01*
X181820D01*
X181811D01*
X181800Y142448D01*
X181787Y142450D01*
X181772Y142453D01*
X181758Y142455D01*
X181742Y142461D01*
X181741D01*
X181739Y142463D01*
X181731Y142465D01*
X181718Y142471D01*
X181701Y142480D01*
X181681Y142491D01*
X181658Y142505D01*
X181635Y142521D01*
X181611Y142541D01*
X181609D01*
X181608Y142544D01*
X181599Y142551D01*
X181587Y142564D01*
X181568Y142583D01*
X181546Y142604D01*
X181521Y142631D01*
X181492Y142664D01*
X181462Y142700D01*
X181461Y142701D01*
X181456Y142707D01*
X181449Y142716D01*
X181441Y142726D01*
X181429Y142738D01*
X181416Y142754D01*
X181402Y142770D01*
X181386Y142789D01*
X181352Y142824D01*
X181318Y142860D01*
X181300Y142877D01*
X181283Y142893D01*
X181268Y142907D01*
X181252Y142919D01*
X181251D01*
X181249Y142921D01*
X181245Y142924D01*
X181239Y142927D01*
X181223Y142937D01*
X181205Y142949D01*
X181182Y142959D01*
X181158Y142969D01*
X181130Y142974D01*
X181105Y142977D01*
X181103D01*
X181102D01*
X181093Y142976D01*
X181079Y142974D01*
X181063Y142970D01*
X181043Y142964D01*
X181023Y142954D01*
X181003Y142941D01*
X180983Y142924D01*
X180980Y142921D01*
X180974Y142914D01*
X180967Y142904D01*
X180957Y142889D01*
X180949Y142869D01*
X180940Y142846D01*
X180934Y142818D01*
X180933Y142789D01*
Y142780D01*
X180934Y142774D01*
X180936Y142757D01*
X180940Y142737D01*
X180946Y142716D01*
X180956Y142691D01*
X180969Y142668D01*
X180986Y142647D01*
X180989Y142644D01*
X180996Y142638D01*
X181007Y142630D01*
X181025Y142621D01*
X181045Y142611D01*
X181070Y142603D01*
X181099Y142597D01*
X181132Y142594D01*
X181119Y142470D01*
X181117D01*
X181113Y142471D01*
X181106D01*
X181096Y142473D01*
X181085Y142475D01*
X181072Y142478D01*
X181056Y142482D01*
X181040Y142487D01*
X181006Y142498D01*
X180972Y142515D01*
X180955Y142525D01*
X180937Y142538D01*
X180922Y142551D01*
X180907Y142565D01*
X180906Y142567D01*
X180904Y142570D01*
X180900Y142574D01*
X180896Y142581D01*
X180890Y142590D01*
X180884Y142600D01*
X180877Y142611D01*
X180870Y142625D01*
X180863Y142641D01*
X180856Y142658D01*
X180850Y142677D01*
X180844Y142697D01*
X180840Y142718D01*
X180836Y142741D01*
X180834Y142766D01*
X180833Y142791D01*
Y142806D01*
X180834Y142816D01*
X180836Y142827D01*
X180837Y142841D01*
X180840Y142857D01*
X180843Y142873D01*
X180853Y142910D01*
X180867Y142947D01*
X180876Y142966D01*
X180886Y142984D01*
X180899Y143002D01*
X180913Y143017D01*
X180914Y143019D01*
X180916Y143022D01*
X180922Y143025D01*
X180927Y143030D01*
X180934Y143037D01*
X180945Y143044D01*
X180955Y143052D01*
X180967Y143060D01*
X180994Y143075D01*
X181029Y143089D01*
X181046Y143095D01*
X181066Y143097D01*
X181086Y143100D01*
X181107Y143102D01*
X181110D01*
X181117D01*
X181129Y143100D01*
X181145Y143099D01*
X181162Y143096D01*
X181182Y143090D01*
X181203Y143085D01*
X181225Y143076D01*
X181228Y143075D01*
X181235Y143072D01*
X181246Y143066D01*
X181262Y143057D01*
X181279Y143046D01*
X181300Y143032D01*
X181322Y143015D01*
X181346Y142994D01*
X181349Y142992D01*
X181358Y142984D01*
X181365Y142977D01*
X181372Y142970D01*
X181381Y142962D01*
X181392Y142950D01*
X181404Y142939D01*
X181416Y142924D01*
X181431Y142910D01*
X181446Y142893D01*
X181462Y142874D01*
X181481Y142854D01*
X181499Y142831D01*
X181519Y142808D01*
X181521Y142807D01*
X181524Y142804D01*
X181528Y142798D01*
X181534Y142791D01*
X181542Y142783D01*
X181551Y142773D01*
X181569Y142750D01*
X181591Y142726D01*
X181612Y142703D01*
X181631Y142683D01*
X181638Y142674D01*
X181645Y142667D01*
X181647Y142666D01*
X181651Y142661D01*
X181657Y142656D01*
X181665Y142648D01*
X181675Y142641D01*
X181685Y142633D01*
X181710Y142615D01*
Y143103D01*
X181827D01*
Y142447D01*
D02*
G37*
G36*
X174135Y167801D02*
X174153D01*
X174171Y167800D01*
X174191Y167799D01*
X174237Y167794D01*
X174284Y167787D01*
X174330Y167779D01*
X174351Y167773D01*
X174373Y167766D01*
X174374D01*
X174377Y167764D01*
X174383Y167762D01*
X174390Y167759D01*
X174400Y167756D01*
X174410Y167750D01*
X174434Y167739D01*
X174460Y167724D01*
X174489Y167706D01*
X174514Y167684D01*
X174539Y167658D01*
Y167657D01*
X174542Y167656D01*
X174545Y167651D01*
X174547Y167646D01*
X174552Y167639D01*
X174557Y167631D01*
X174567Y167610D01*
X174577Y167584D01*
X174587Y167554D01*
X174593Y167518D01*
X174596Y167480D01*
Y167465D01*
X174594Y167455D01*
X174593Y167444D01*
X174590Y167430D01*
X174587Y167414D01*
X174583Y167397D01*
X174577Y167380D01*
X174572Y167361D01*
X174563Y167342D01*
X174553Y167324D01*
X174542Y167305D01*
X174527Y167287D01*
X174512Y167270D01*
X174494Y167254D01*
X174493Y167252D01*
X174489Y167250D01*
X174481Y167245D01*
X174470Y167238D01*
X174457Y167231D01*
X174440Y167224D01*
X174420Y167214D01*
X174397Y167205D01*
X174371Y167197D01*
X174341Y167188D01*
X174309Y167180D01*
X174271Y167172D01*
X174231Y167165D01*
X174188Y167161D01*
X174141Y167158D01*
X174091Y167157D01*
X174090D01*
X174084D01*
X174074D01*
X174063D01*
X174047Y167158D01*
X174030D01*
X174011Y167159D01*
X173990Y167161D01*
X173945Y167165D01*
X173898Y167172D01*
X173851Y167181D01*
X173829Y167187D01*
X173808Y167192D01*
X173807D01*
X173804Y167194D01*
X173798Y167197D01*
X173791Y167200D01*
X173781Y167202D01*
X173771Y167208D01*
X173747Y167219D01*
X173721Y167234D01*
X173694Y167252D01*
X173666Y167274D01*
X173644Y167300D01*
Y167301D01*
X173641Y167302D01*
X173638Y167307D01*
X173635Y167313D01*
X173629Y167320D01*
X173625Y167328D01*
X173614Y167350D01*
X173603Y167375D01*
X173593Y167405D01*
X173588Y167441D01*
X173585Y167480D01*
Y167493D01*
X173586Y167508D01*
X173589Y167527D01*
X173593Y167548D01*
X173599Y167571D01*
X173606Y167596D01*
X173618Y167619D01*
Y167620D01*
X173619Y167621D01*
X173624Y167629D01*
X173631Y167640D01*
X173641Y167654D01*
X173655Y167670D01*
X173671Y167687D01*
X173689Y167703D01*
X173711Y167719D01*
X173714Y167720D01*
X173721Y167726D01*
X173734Y167731D01*
X173752Y167742D01*
X173774Y167750D01*
X173798Y167762D01*
X173827Y167771D01*
X173858Y167780D01*
X173860D01*
X173862Y167781D01*
X173867Y167783D01*
X173874Y167784D01*
X173882Y167786D01*
X173892Y167787D01*
X173905Y167790D01*
X173919Y167791D01*
X173935Y167794D01*
X173952Y167796D01*
X173972Y167797D01*
X173993Y167800D01*
X174015Y167801D01*
X174038D01*
X174064Y167803D01*
X174091D01*
X174093D01*
X174098D01*
X174108D01*
X174120D01*
X174135Y167801D01*
D02*
G37*
G36*
X174341Y166898D02*
X174579D01*
Y166776D01*
X174341D01*
Y166346D01*
X174230D01*
X173589Y166799D01*
Y166898D01*
X174230D01*
Y167032D01*
X174341D01*
Y166898D01*
D02*
G37*
G36*
X174267Y166273D02*
X174278Y166271D01*
X174291Y166270D01*
X174307Y166267D01*
X174323Y166264D01*
X174360Y166256D01*
X174399Y166241D01*
X174419Y166233D01*
X174437Y166221D01*
X174457Y166210D01*
X174476Y166196D01*
X174477Y166194D01*
X174481Y166191D01*
X174487Y166186D01*
X174494Y166179D01*
X174503Y166168D01*
X174514Y166157D01*
X174524Y166143D01*
X174536Y166127D01*
X174547Y166110D01*
X174557Y166090D01*
X174567Y166068D01*
X174577Y166045D01*
X174584Y166021D01*
X174590Y165994D01*
X174594Y165965D01*
X174596Y165935D01*
Y165922D01*
X174594Y165912D01*
X174593Y165901D01*
X174592Y165888D01*
X174590Y165873D01*
X174586Y165857D01*
X174577Y165821D01*
X174565Y165785D01*
X174556Y165767D01*
X174546Y165748D01*
X174534Y165731D01*
X174522Y165714D01*
X174520Y165712D01*
X174519Y165709D01*
X174513Y165707D01*
X174507Y165701D01*
X174500Y165694D01*
X174492Y165687D01*
X174480Y165678D01*
X174467Y165671D01*
X174454Y165662D01*
X174439Y165654D01*
X174404Y165638D01*
X174364Y165625D01*
X174343Y165621D01*
X174320Y165618D01*
X174310Y165745D01*
X174311D01*
X174314D01*
X174319Y165747D01*
X174326Y165748D01*
X174341Y165752D01*
X174363Y165758D01*
X174384Y165767D01*
X174409Y165778D01*
X174430Y165792D01*
X174450Y165810D01*
X174451Y165812D01*
X174457Y165818D01*
X174464Y165830D01*
X174473Y165845D01*
X174481Y165862D01*
X174489Y165884D01*
X174494Y165908D01*
X174496Y165935D01*
Y165944D01*
X174494Y165950D01*
X174493Y165967D01*
X174487Y165987D01*
X174480Y166011D01*
X174469Y166035D01*
X174451Y166061D01*
X174442Y166073D01*
X174430Y166084D01*
X174429Y166086D01*
X174427Y166087D01*
X174423Y166090D01*
X174419Y166094D01*
X174403Y166104D01*
X174383Y166116D01*
X174358Y166126D01*
X174328Y166136D01*
X174293Y166143D01*
X174274Y166146D01*
X174254D01*
X174253D01*
X174250D01*
X174244D01*
X174237Y166144D01*
X174228D01*
X174218Y166143D01*
X174196Y166138D01*
X174168Y166131D01*
X174141Y166121D01*
X174116Y166107D01*
X174091Y166087D01*
X174090D01*
X174088Y166084D01*
X174081Y166077D01*
X174071Y166064D01*
X174060Y166047D01*
X174050Y166024D01*
X174040Y165998D01*
X174032Y165968D01*
X174030Y165951D01*
Y165924D01*
X174031Y165912D01*
X174032Y165898D01*
X174037Y165881D01*
X174041Y165864D01*
X174048Y165845D01*
X174057Y165827D01*
X174058Y165825D01*
X174061Y165820D01*
X174068Y165811D01*
X174075Y165799D01*
X174085Y165788D01*
X174098Y165777D01*
X174111Y165764D01*
X174127Y165754D01*
X174111Y165639D01*
X173602Y165735D01*
Y166227D01*
X173718D01*
Y165831D01*
X173985Y165778D01*
X173984Y165779D01*
X173983Y165782D01*
X173980Y165787D01*
X173975Y165794D01*
X173971Y165802D01*
X173965Y165812D01*
X173954Y165835D01*
X173942Y165864D01*
X173932Y165895D01*
X173925Y165930D01*
X173922Y165947D01*
Y165978D01*
X173924Y165987D01*
X173925Y165998D01*
X173927Y166011D01*
X173930Y166025D01*
X173934Y166041D01*
X173944Y166076D01*
X173951Y166094D01*
X173961Y166113D01*
X173971Y166131D01*
X173983Y166150D01*
X173997Y166167D01*
X174012Y166184D01*
X174014Y166186D01*
X174017Y166189D01*
X174021Y166193D01*
X174028Y166199D01*
X174038Y166206D01*
X174048Y166213D01*
X174061Y166221D01*
X174075Y166230D01*
X174091Y166237D01*
X174108Y166246D01*
X174128Y166253D01*
X174148Y166260D01*
X174170Y166266D01*
X174194Y166270D01*
X174218Y166273D01*
X174244Y166274D01*
X174246D01*
X174250D01*
X174257D01*
X174267Y166273D01*
D02*
G37*
G36*
X174579Y165302D02*
X174440D01*
Y165441D01*
X174579D01*
Y165302D01*
D02*
G37*
G36*
Y164447D02*
X174577D01*
X174572D01*
X174563D01*
X174552Y164448D01*
X174539Y164450D01*
X174524Y164453D01*
X174510Y164455D01*
X174494Y164461D01*
X174493D01*
X174492Y164462D01*
X174483Y164465D01*
X174470Y164471D01*
X174453Y164480D01*
X174433Y164491D01*
X174410Y164505D01*
X174387Y164521D01*
X174363Y164541D01*
X174361D01*
X174360Y164544D01*
X174351Y164551D01*
X174338Y164564D01*
X174320Y164583D01*
X174299Y164604D01*
X174273Y164631D01*
X174244Y164664D01*
X174214Y164700D01*
X174213Y164701D01*
X174208Y164707D01*
X174201Y164716D01*
X174193Y164726D01*
X174181Y164739D01*
X174168Y164754D01*
X174154Y164770D01*
X174138Y164788D01*
X174104Y164824D01*
X174070Y164860D01*
X174053Y164877D01*
X174035Y164893D01*
X174020Y164907D01*
X174004Y164919D01*
X174003D01*
X174001Y164921D01*
X173997Y164924D01*
X173991Y164927D01*
X173975Y164937D01*
X173957Y164949D01*
X173934Y164959D01*
X173909Y164969D01*
X173882Y164974D01*
X173857Y164977D01*
X173855D01*
X173854D01*
X173845Y164976D01*
X173831Y164974D01*
X173815Y164970D01*
X173795Y164964D01*
X173775Y164954D01*
X173755Y164942D01*
X173735Y164924D01*
X173732Y164921D01*
X173726Y164914D01*
X173719Y164904D01*
X173709Y164889D01*
X173701Y164869D01*
X173692Y164846D01*
X173686Y164819D01*
X173685Y164788D01*
Y164780D01*
X173686Y164774D01*
X173688Y164757D01*
X173692Y164737D01*
X173698Y164716D01*
X173708Y164691D01*
X173721Y164668D01*
X173738Y164647D01*
X173741Y164644D01*
X173748Y164638D01*
X173759Y164630D01*
X173776Y164621D01*
X173797Y164611D01*
X173822Y164603D01*
X173851Y164597D01*
X173884Y164594D01*
X173871Y164470D01*
X173870D01*
X173865Y164471D01*
X173858D01*
X173848Y164472D01*
X173837Y164475D01*
X173824Y164478D01*
X173808Y164482D01*
X173792Y164487D01*
X173758Y164498D01*
X173724Y164515D01*
X173706Y164525D01*
X173689Y164538D01*
X173674Y164551D01*
X173659Y164565D01*
X173658Y164567D01*
X173656Y164570D01*
X173652Y164574D01*
X173648Y164581D01*
X173642Y164590D01*
X173636Y164600D01*
X173629Y164611D01*
X173622Y164626D01*
X173615Y164641D01*
X173608Y164658D01*
X173602Y164677D01*
X173596Y164697D01*
X173592Y164718D01*
X173588Y164741D01*
X173586Y164766D01*
X173585Y164791D01*
Y164806D01*
X173586Y164816D01*
X173588Y164827D01*
X173589Y164841D01*
X173592Y164857D01*
X173595Y164873D01*
X173605Y164910D01*
X173619Y164947D01*
X173628Y164966D01*
X173638Y164984D01*
X173651Y165002D01*
X173665Y165017D01*
X173666Y165019D01*
X173668Y165022D01*
X173674Y165024D01*
X173679Y165030D01*
X173686Y165037D01*
X173696Y165044D01*
X173706Y165052D01*
X173719Y165060D01*
X173747Y165075D01*
X173781Y165089D01*
X173798Y165094D01*
X173818Y165097D01*
X173838Y165100D01*
X173860Y165102D01*
X173862D01*
X173870D01*
X173881Y165100D01*
X173897Y165099D01*
X173914Y165096D01*
X173934Y165090D01*
X173955Y165085D01*
X173977Y165076D01*
X173980Y165075D01*
X173987Y165072D01*
X173998Y165066D01*
X174014Y165057D01*
X174031Y165046D01*
X174053Y165032D01*
X174074Y165015D01*
X174098Y164994D01*
X174101Y164992D01*
X174110Y164984D01*
X174117Y164977D01*
X174124Y164970D01*
X174133Y164962D01*
X174144Y164950D01*
X174155Y164939D01*
X174168Y164924D01*
X174183Y164910D01*
X174198Y164893D01*
X174214Y164874D01*
X174233Y164854D01*
X174251Y164831D01*
X174271Y164808D01*
X174273Y164807D01*
X174276Y164804D01*
X174280Y164798D01*
X174286Y164791D01*
X174294Y164783D01*
X174303Y164773D01*
X174321Y164750D01*
X174343Y164726D01*
X174364Y164703D01*
X174383Y164683D01*
X174390Y164674D01*
X174397Y164667D01*
X174399Y164665D01*
X174403Y164661D01*
X174409Y164655D01*
X174417Y164648D01*
X174427Y164641D01*
X174437Y164633D01*
X174461Y164615D01*
Y165103D01*
X174579D01*
Y164447D01*
D02*
G37*
G36*
X198135Y200407D02*
X198153D01*
X198171Y200406D01*
X198191Y200405D01*
X198237Y200400D01*
X198284Y200393D01*
X198330Y200384D01*
X198351Y200379D01*
X198373Y200372D01*
X198374D01*
X198377Y200370D01*
X198383Y200367D01*
X198390Y200364D01*
X198400Y200362D01*
X198410Y200356D01*
X198434Y200344D01*
X198460Y200330D01*
X198489Y200311D01*
X198514Y200290D01*
X198539Y200264D01*
Y200263D01*
X198542Y200261D01*
X198545Y200257D01*
X198547Y200251D01*
X198552Y200244D01*
X198557Y200237D01*
X198567Y200216D01*
X198577Y200190D01*
X198587Y200160D01*
X198593Y200124D01*
X198596Y200086D01*
Y200071D01*
X198594Y200061D01*
X198593Y200050D01*
X198590Y200036D01*
X198587Y200020D01*
X198583Y200003D01*
X198577Y199986D01*
X198572Y199967D01*
X198563Y199948D01*
X198553Y199930D01*
X198542Y199911D01*
X198527Y199892D01*
X198512Y199875D01*
X198494Y199860D01*
X198493Y199858D01*
X198489Y199855D01*
X198482Y199851D01*
X198470Y199844D01*
X198457Y199837D01*
X198440Y199830D01*
X198420Y199820D01*
X198397Y199811D01*
X198371Y199802D01*
X198341Y199794D01*
X198309Y199785D01*
X198271Y199778D01*
X198231Y199771D01*
X198188Y199767D01*
X198141Y199764D01*
X198091Y199762D01*
X198090D01*
X198084D01*
X198074D01*
X198063D01*
X198047Y199764D01*
X198030D01*
X198011Y199765D01*
X197990Y199767D01*
X197945Y199771D01*
X197898Y199778D01*
X197851Y199787D01*
X197829Y199792D01*
X197808Y199798D01*
X197807D01*
X197804Y199800D01*
X197798Y199802D01*
X197791Y199805D01*
X197781Y199808D01*
X197771Y199814D01*
X197747Y199825D01*
X197721Y199840D01*
X197694Y199858D01*
X197666Y199880D01*
X197644Y199905D01*
Y199907D01*
X197641Y199908D01*
X197638Y199913D01*
X197635Y199918D01*
X197629Y199925D01*
X197625Y199934D01*
X197614Y199955D01*
X197603Y199981D01*
X197593Y200011D01*
X197588Y200047D01*
X197585Y200086D01*
Y200098D01*
X197586Y200114D01*
X197589Y200133D01*
X197593Y200154D01*
X197599Y200177D01*
X197606Y200201D01*
X197618Y200224D01*
Y200226D01*
X197619Y200227D01*
X197624Y200234D01*
X197631Y200246D01*
X197641Y200260D01*
X197655Y200276D01*
X197671Y200293D01*
X197689Y200309D01*
X197711Y200324D01*
X197714Y200326D01*
X197721Y200331D01*
X197734Y200337D01*
X197752Y200347D01*
X197774Y200356D01*
X197798Y200367D01*
X197827Y200377D01*
X197858Y200386D01*
X197860D01*
X197862Y200387D01*
X197867Y200389D01*
X197874Y200390D01*
X197882Y200392D01*
X197892Y200393D01*
X197905Y200396D01*
X197919Y200397D01*
X197935Y200400D01*
X197952Y200402D01*
X197973Y200403D01*
X197993Y200406D01*
X198015Y200407D01*
X198038D01*
X198064Y200409D01*
X198091D01*
X198093D01*
X198098D01*
X198108D01*
X198120D01*
X198135Y200407D01*
D02*
G37*
G36*
X198341Y199504D02*
X198579D01*
Y199382D01*
X198341D01*
Y198952D01*
X198230D01*
X197589Y199405D01*
Y199504D01*
X198230D01*
Y199638D01*
X198341D01*
Y199504D01*
D02*
G37*
G36*
X198579Y198206D02*
X198577D01*
X198572D01*
X198563D01*
X198552Y198208D01*
X198539Y198209D01*
X198524Y198212D01*
X198510Y198215D01*
X198494Y198221D01*
X198493D01*
X198492Y198222D01*
X198483Y198225D01*
X198470Y198231D01*
X198453Y198239D01*
X198433Y198251D01*
X198410Y198265D01*
X198387Y198281D01*
X198363Y198301D01*
X198361D01*
X198360Y198304D01*
X198351Y198311D01*
X198338Y198324D01*
X198320Y198342D01*
X198299Y198364D01*
X198273Y198391D01*
X198244Y198424D01*
X198214Y198460D01*
X198213Y198461D01*
X198208Y198467D01*
X198201Y198475D01*
X198193Y198485D01*
X198181Y198498D01*
X198168Y198514D01*
X198154Y198530D01*
X198138Y198548D01*
X198104Y198584D01*
X198070Y198620D01*
X198053Y198637D01*
X198035Y198653D01*
X198020Y198667D01*
X198004Y198678D01*
X198003D01*
X198001Y198681D01*
X197997Y198684D01*
X197991Y198687D01*
X197975Y198697D01*
X197957Y198708D01*
X197934Y198719D01*
X197909Y198729D01*
X197882Y198734D01*
X197857Y198737D01*
X197855D01*
X197854D01*
X197845Y198736D01*
X197831Y198734D01*
X197815Y198730D01*
X197795Y198724D01*
X197775Y198714D01*
X197755Y198701D01*
X197735Y198684D01*
X197732Y198681D01*
X197727Y198674D01*
X197719Y198664D01*
X197709Y198648D01*
X197701Y198628D01*
X197692Y198606D01*
X197686Y198578D01*
X197685Y198548D01*
Y198540D01*
X197686Y198534D01*
X197688Y198517D01*
X197692Y198497D01*
X197698Y198475D01*
X197708Y198451D01*
X197721Y198428D01*
X197738Y198407D01*
X197741Y198404D01*
X197748Y198398D01*
X197759Y198390D01*
X197776Y198381D01*
X197797Y198371D01*
X197822Y198362D01*
X197851Y198357D01*
X197884Y198354D01*
X197871Y198229D01*
X197870D01*
X197865Y198231D01*
X197858D01*
X197848Y198232D01*
X197837Y198235D01*
X197824Y198238D01*
X197808Y198242D01*
X197792Y198247D01*
X197758Y198258D01*
X197724Y198275D01*
X197706Y198285D01*
X197689Y198298D01*
X197674Y198311D01*
X197659Y198325D01*
X197658Y198327D01*
X197656Y198329D01*
X197652Y198334D01*
X197648Y198341D01*
X197642Y198349D01*
X197636Y198360D01*
X197629Y198371D01*
X197622Y198385D01*
X197615Y198401D01*
X197608Y198418D01*
X197602Y198437D01*
X197596Y198457D01*
X197592Y198478D01*
X197588Y198501D01*
X197586Y198525D01*
X197585Y198551D01*
Y198565D01*
X197586Y198575D01*
X197588Y198587D01*
X197589Y198601D01*
X197592Y198617D01*
X197595Y198633D01*
X197605Y198670D01*
X197619Y198707D01*
X197628Y198726D01*
X197638Y198744D01*
X197651Y198761D01*
X197665Y198777D01*
X197666Y198778D01*
X197668Y198781D01*
X197674Y198784D01*
X197679Y198790D01*
X197686Y198797D01*
X197696Y198804D01*
X197706Y198811D01*
X197719Y198820D01*
X197747Y198834D01*
X197781Y198849D01*
X197798Y198854D01*
X197818Y198857D01*
X197838Y198860D01*
X197860Y198862D01*
X197862D01*
X197870D01*
X197881Y198860D01*
X197897Y198859D01*
X197914Y198856D01*
X197934Y198850D01*
X197955Y198844D01*
X197977Y198836D01*
X197980Y198834D01*
X197987Y198831D01*
X197998Y198826D01*
X198014Y198817D01*
X198031Y198806D01*
X198053Y198791D01*
X198074Y198774D01*
X198098Y198754D01*
X198101Y198751D01*
X198110Y198744D01*
X198117Y198737D01*
X198124Y198730D01*
X198133Y198721D01*
X198144Y198710D01*
X198155Y198698D01*
X198168Y198684D01*
X198183Y198670D01*
X198198Y198653D01*
X198214Y198634D01*
X198233Y198614D01*
X198251Y198591D01*
X198271Y198568D01*
X198273Y198567D01*
X198276Y198564D01*
X198280Y198558D01*
X198286Y198551D01*
X198294Y198543D01*
X198303Y198533D01*
X198321Y198510D01*
X198343Y198485D01*
X198364Y198462D01*
X198383Y198442D01*
X198390Y198434D01*
X198397Y198427D01*
X198399Y198425D01*
X198403Y198421D01*
X198409Y198415D01*
X198417Y198408D01*
X198427Y198401D01*
X198437Y198392D01*
X198461Y198375D01*
Y198863D01*
X198579D01*
Y198206D01*
D02*
G37*
G36*
Y197908D02*
X198440D01*
Y198046D01*
X198579D01*
Y197908D01*
D02*
G37*
G36*
X198267Y197725D02*
X198278Y197723D01*
X198291Y197722D01*
X198307Y197719D01*
X198323Y197716D01*
X198360Y197707D01*
X198399Y197693D01*
X198419Y197685D01*
X198437Y197673D01*
X198457Y197662D01*
X198476Y197647D01*
X198477Y197646D01*
X198482Y197643D01*
X198487Y197637D01*
X198494Y197630D01*
X198503Y197620D01*
X198514Y197609D01*
X198524Y197594D01*
X198536Y197579D01*
X198547Y197562D01*
X198557Y197542D01*
X198567Y197520D01*
X198577Y197497D01*
X198584Y197473D01*
X198590Y197446D01*
X198594Y197417D01*
X198596Y197387D01*
Y197374D01*
X198594Y197364D01*
X198593Y197353D01*
X198592Y197340D01*
X198590Y197324D01*
X198586Y197309D01*
X198577Y197273D01*
X198565Y197237D01*
X198556Y197218D01*
X198546Y197200D01*
X198534Y197183D01*
X198522Y197166D01*
X198520Y197164D01*
X198519Y197161D01*
X198513Y197158D01*
X198507Y197153D01*
X198500Y197145D01*
X198492Y197138D01*
X198480Y197130D01*
X198467Y197123D01*
X198454Y197114D01*
X198439Y197105D01*
X198404Y197090D01*
X198364Y197077D01*
X198343Y197073D01*
X198320Y197070D01*
X198310Y197197D01*
X198311D01*
X198314D01*
X198319Y197198D01*
X198326Y197200D01*
X198341Y197204D01*
X198363Y197210D01*
X198384Y197218D01*
X198409Y197230D01*
X198430Y197244D01*
X198450Y197261D01*
X198451Y197264D01*
X198457Y197270D01*
X198464Y197281D01*
X198473Y197297D01*
X198482Y197314D01*
X198489Y197336D01*
X198494Y197360D01*
X198496Y197387D01*
Y197396D01*
X198494Y197401D01*
X198493Y197419D01*
X198487Y197439D01*
X198480Y197463D01*
X198469Y197487D01*
X198451Y197513D01*
X198442Y197524D01*
X198430Y197536D01*
X198429Y197537D01*
X198427Y197539D01*
X198423Y197542D01*
X198419Y197546D01*
X198403Y197556D01*
X198383Y197567D01*
X198359Y197577D01*
X198328Y197587D01*
X198293Y197594D01*
X198274Y197597D01*
X198254D01*
X198253D01*
X198250D01*
X198244D01*
X198237Y197596D01*
X198228D01*
X198218Y197594D01*
X198196Y197590D01*
X198168Y197583D01*
X198141Y197573D01*
X198116Y197559D01*
X198091Y197539D01*
X198090D01*
X198088Y197536D01*
X198081Y197529D01*
X198071Y197516D01*
X198060Y197499D01*
X198050Y197476D01*
X198040Y197450D01*
X198032Y197420D01*
X198030Y197403D01*
Y197376D01*
X198031Y197364D01*
X198032Y197350D01*
X198037Y197333D01*
X198041Y197316D01*
X198048Y197297D01*
X198057Y197278D01*
X198058Y197277D01*
X198061Y197271D01*
X198068Y197263D01*
X198075Y197251D01*
X198085Y197240D01*
X198098Y197228D01*
X198111Y197216D01*
X198127Y197205D01*
X198111Y197091D01*
X197602Y197187D01*
Y197679D01*
X197718D01*
Y197283D01*
X197985Y197230D01*
X197984Y197231D01*
X197983Y197234D01*
X197980Y197238D01*
X197975Y197246D01*
X197971Y197254D01*
X197965Y197264D01*
X197954Y197287D01*
X197942Y197316D01*
X197932Y197347D01*
X197925Y197381D01*
X197922Y197399D01*
Y197430D01*
X197924Y197439D01*
X197925Y197450D01*
X197927Y197463D01*
X197930Y197477D01*
X197934Y197493D01*
X197944Y197527D01*
X197951Y197546D01*
X197961Y197564D01*
X197971Y197583D01*
X197983Y197602D01*
X197997Y197619D01*
X198012Y197636D01*
X198014Y197637D01*
X198017Y197640D01*
X198021Y197645D01*
X198028Y197650D01*
X198038Y197657D01*
X198048Y197665D01*
X198061Y197673D01*
X198075Y197682D01*
X198091Y197689D01*
X198108Y197697D01*
X198128Y197705D01*
X198148Y197712D01*
X198170Y197717D01*
X198194Y197722D01*
X198218Y197725D01*
X198244Y197726D01*
X198246D01*
X198250D01*
X198257D01*
X198267Y197725D01*
D02*
G37*
G36*
X198579Y196636D02*
X197805D01*
X197807Y196635D01*
X197812Y196628D01*
X197821Y196619D01*
X197831Y196605D01*
X197844Y196589D01*
X197858Y196569D01*
X197874Y196546D01*
X197889Y196521D01*
Y196519D01*
X197891Y196518D01*
X197897Y196509D01*
X197904Y196495D01*
X197912Y196478D01*
X197922Y196458D01*
X197932Y196436D01*
X197942Y196415D01*
X197951Y196393D01*
X197834D01*
Y196395D01*
X197831Y196398D01*
X197829Y196403D01*
X197825Y196411D01*
X197821Y196419D01*
X197815Y196429D01*
X197801Y196453D01*
X197785Y196482D01*
X197765Y196511D01*
X197742Y196541D01*
X197718Y196571D01*
X197716Y196572D01*
X197715Y196573D01*
X197711Y196578D01*
X197706Y196583D01*
X197692Y196596D01*
X197675Y196614D01*
X197655Y196631D01*
X197632Y196649D01*
X197609Y196665D01*
X197585Y196679D01*
Y196758D01*
X198579D01*
Y196636D01*
D02*
G37*
G36*
X168384Y200407D02*
X168401D01*
X168419Y200406D01*
X168439Y200405D01*
X168485Y200400D01*
X168532Y200393D01*
X168578Y200384D01*
X168599Y200379D01*
X168621Y200372D01*
X168622D01*
X168625Y200370D01*
X168631Y200367D01*
X168638Y200364D01*
X168648Y200362D01*
X168658Y200356D01*
X168682Y200344D01*
X168708Y200330D01*
X168737Y200311D01*
X168762Y200290D01*
X168787Y200264D01*
Y200263D01*
X168790Y200261D01*
X168792Y200257D01*
X168795Y200251D01*
X168800Y200244D01*
X168805Y200237D01*
X168815Y200216D01*
X168825Y200190D01*
X168835Y200160D01*
X168841Y200124D01*
X168844Y200086D01*
Y200071D01*
X168842Y200061D01*
X168841Y200050D01*
X168838Y200036D01*
X168835Y200020D01*
X168831Y200003D01*
X168825Y199986D01*
X168820Y199967D01*
X168811Y199948D01*
X168801Y199930D01*
X168790Y199911D01*
X168775Y199892D01*
X168760Y199875D01*
X168742Y199860D01*
X168741Y199858D01*
X168737Y199855D01*
X168729Y199851D01*
X168718Y199844D01*
X168705Y199837D01*
X168688Y199830D01*
X168668Y199820D01*
X168645Y199811D01*
X168619Y199802D01*
X168589Y199794D01*
X168556Y199785D01*
X168519Y199778D01*
X168479Y199771D01*
X168436Y199767D01*
X168389Y199764D01*
X168339Y199762D01*
X168338D01*
X168332D01*
X168322D01*
X168310D01*
X168295Y199764D01*
X168278D01*
X168259Y199765D01*
X168238Y199767D01*
X168193Y199771D01*
X168146Y199778D01*
X168099Y199787D01*
X168077Y199792D01*
X168056Y199798D01*
X168055D01*
X168052Y199800D01*
X168046Y199802D01*
X168039Y199805D01*
X168029Y199808D01*
X168019Y199814D01*
X167994Y199825D01*
X167969Y199840D01*
X167942Y199858D01*
X167914Y199880D01*
X167892Y199905D01*
Y199907D01*
X167889Y199908D01*
X167886Y199913D01*
X167883Y199918D01*
X167877Y199925D01*
X167873Y199934D01*
X167861Y199955D01*
X167851Y199981D01*
X167841Y200011D01*
X167836Y200047D01*
X167833Y200086D01*
Y200098D01*
X167834Y200114D01*
X167837Y200133D01*
X167841Y200154D01*
X167847Y200177D01*
X167854Y200201D01*
X167866Y200224D01*
Y200226D01*
X167867Y200227D01*
X167871Y200234D01*
X167879Y200246D01*
X167889Y200260D01*
X167903Y200276D01*
X167919Y200293D01*
X167937Y200309D01*
X167959Y200324D01*
X167962Y200326D01*
X167969Y200331D01*
X167982Y200337D01*
X168000Y200347D01*
X168022Y200356D01*
X168046Y200367D01*
X168075Y200377D01*
X168106Y200386D01*
X168107D01*
X168110Y200387D01*
X168115Y200389D01*
X168122Y200390D01*
X168130Y200392D01*
X168140Y200393D01*
X168153Y200396D01*
X168167Y200397D01*
X168183Y200400D01*
X168200Y200402D01*
X168220Y200403D01*
X168240Y200406D01*
X168263Y200407D01*
X168286D01*
X168312Y200409D01*
X168339D01*
X168341D01*
X168346D01*
X168356D01*
X168368D01*
X168384Y200407D01*
D02*
G37*
G36*
Y199638D02*
X168401D01*
X168419Y199637D01*
X168439Y199635D01*
X168485Y199631D01*
X168532Y199624D01*
X168578Y199615D01*
X168599Y199609D01*
X168621Y199602D01*
X168622D01*
X168625Y199601D01*
X168631Y199598D01*
X168638Y199595D01*
X168648Y199592D01*
X168658Y199586D01*
X168682Y199575D01*
X168708Y199561D01*
X168737Y199542D01*
X168762Y199521D01*
X168787Y199495D01*
Y199494D01*
X168790Y199492D01*
X168792Y199488D01*
X168795Y199482D01*
X168800Y199475D01*
X168805Y199468D01*
X168815Y199446D01*
X168825Y199421D01*
X168835Y199391D01*
X168841Y199355D01*
X168844Y199316D01*
Y199302D01*
X168842Y199292D01*
X168841Y199281D01*
X168838Y199266D01*
X168835Y199250D01*
X168831Y199233D01*
X168825Y199216D01*
X168820Y199197D01*
X168811Y199179D01*
X168801Y199160D01*
X168790Y199142D01*
X168775Y199123D01*
X168760Y199106D01*
X168742Y199090D01*
X168741Y199089D01*
X168737Y199086D01*
X168729Y199082D01*
X168718Y199075D01*
X168705Y199067D01*
X168688Y199060D01*
X168668Y199050D01*
X168645Y199042D01*
X168619Y199033D01*
X168589Y199024D01*
X168556Y199016D01*
X168519Y199009D01*
X168479Y199002D01*
X168436Y198997D01*
X168389Y198995D01*
X168339Y198993D01*
X168338D01*
X168332D01*
X168322D01*
X168310D01*
X168295Y198995D01*
X168278D01*
X168259Y198996D01*
X168238Y198997D01*
X168193Y199002D01*
X168146Y199009D01*
X168099Y199017D01*
X168077Y199023D01*
X168056Y199029D01*
X168055D01*
X168052Y199030D01*
X168046Y199033D01*
X168039Y199036D01*
X168029Y199039D01*
X168019Y199045D01*
X167994Y199056D01*
X167969Y199070D01*
X167942Y199089D01*
X167914Y199110D01*
X167892Y199136D01*
Y199137D01*
X167889Y199139D01*
X167886Y199143D01*
X167883Y199149D01*
X167877Y199156D01*
X167873Y199165D01*
X167861Y199186D01*
X167851Y199212D01*
X167841Y199242D01*
X167836Y199278D01*
X167833Y199316D01*
Y199329D01*
X167834Y199345D01*
X167837Y199363D01*
X167841Y199385D01*
X167847Y199408D01*
X167854Y199432D01*
X167866Y199455D01*
Y199456D01*
X167867Y199458D01*
X167871Y199465D01*
X167879Y199476D01*
X167889Y199491D01*
X167903Y199506D01*
X167919Y199524D01*
X167937Y199539D01*
X167959Y199555D01*
X167962Y199557D01*
X167969Y199562D01*
X167982Y199568D01*
X168000Y199578D01*
X168022Y199586D01*
X168046Y199598D01*
X168075Y199608D01*
X168106Y199617D01*
X168107D01*
X168110Y199618D01*
X168115Y199619D01*
X168122Y199621D01*
X168130Y199622D01*
X168140Y199624D01*
X168153Y199627D01*
X168167Y199628D01*
X168183Y199631D01*
X168200Y199632D01*
X168220Y199634D01*
X168240Y199637D01*
X168263Y199638D01*
X168286D01*
X168312Y199639D01*
X168339D01*
X168341D01*
X168346D01*
X168356D01*
X168368D01*
X168384Y199638D01*
D02*
G37*
G36*
X167947Y198872D02*
X167950Y198869D01*
X167956Y198863D01*
X167964Y198857D01*
X167974Y198849D01*
X167986Y198837D01*
X168000Y198826D01*
X168017Y198813D01*
X168035Y198800D01*
X168055Y198784D01*
X168077Y198768D01*
X168100Y198753D01*
X168126Y198736D01*
X168153Y198719D01*
X168183Y198701D01*
X168213Y198684D01*
X168215Y198683D01*
X168220Y198680D01*
X168229Y198676D01*
X168242Y198668D01*
X168258Y198661D01*
X168275Y198653D01*
X168295Y198643D01*
X168318Y198633D01*
X168343Y198621D01*
X168369Y198608D01*
X168398Y198597D01*
X168428Y198585D01*
X168489Y198563D01*
X168555Y198541D01*
X168556D01*
X168561Y198540D01*
X168568Y198538D01*
X168577Y198535D01*
X168588Y198533D01*
X168602Y198530D01*
X168618Y198525D01*
X168635Y198523D01*
X168655Y198518D01*
X168677Y198514D01*
X168722Y198507D01*
X168772Y198500D01*
X168827Y198495D01*
Y198371D01*
X168825D01*
X168821D01*
X168815D01*
X168807Y198372D01*
X168795D01*
X168781Y198374D01*
X168765Y198375D01*
X168748Y198377D01*
X168728Y198380D01*
X168708Y198382D01*
X168684Y198387D01*
X168659Y198391D01*
X168634Y198395D01*
X168605Y198401D01*
X168546Y198415D01*
X168545D01*
X168539Y198417D01*
X168531Y198420D01*
X168518Y198424D01*
X168504Y198428D01*
X168486Y198434D01*
X168466Y198440D01*
X168445Y198448D01*
X168421Y198457D01*
X168396Y198465D01*
X168342Y198487D01*
X168285Y198513D01*
X168228Y198541D01*
X168226Y198543D01*
X168220Y198546D01*
X168213Y198550D01*
X168202Y198556D01*
X168189Y198563D01*
X168173Y198573D01*
X168156Y198583D01*
X168138Y198594D01*
X168096Y198621D01*
X168053Y198650D01*
X168009Y198683D01*
X167967Y198717D01*
Y198232D01*
X167850D01*
Y198873D01*
X167946D01*
X167947Y198872D01*
D02*
G37*
G36*
X168827Y197908D02*
X168688D01*
Y198046D01*
X168827D01*
Y197908D01*
D02*
G37*
G36*
Y197053D02*
X168825D01*
X168820D01*
X168811D01*
X168800Y197054D01*
X168787Y197055D01*
X168772Y197058D01*
X168758Y197061D01*
X168742Y197067D01*
X168741D01*
X168739Y197068D01*
X168731Y197071D01*
X168718Y197077D01*
X168701Y197085D01*
X168681Y197097D01*
X168658Y197111D01*
X168635Y197127D01*
X168611Y197147D01*
X168609D01*
X168608Y197150D01*
X168599Y197157D01*
X168587Y197170D01*
X168568Y197188D01*
X168546Y197210D01*
X168521Y197237D01*
X168492Y197270D01*
X168462Y197306D01*
X168461Y197307D01*
X168456Y197313D01*
X168449Y197321D01*
X168441Y197331D01*
X168429Y197344D01*
X168416Y197360D01*
X168402Y197376D01*
X168386Y197394D01*
X168352Y197430D01*
X168318Y197466D01*
X168300Y197483D01*
X168283Y197499D01*
X168268Y197513D01*
X168252Y197524D01*
X168251D01*
X168249Y197527D01*
X168245Y197530D01*
X168239Y197533D01*
X168223Y197543D01*
X168205Y197555D01*
X168182Y197564D01*
X168157Y197574D01*
X168130Y197580D01*
X168105Y197583D01*
X168103D01*
X168102D01*
X168093Y197582D01*
X168079Y197580D01*
X168063Y197576D01*
X168043Y197570D01*
X168023Y197560D01*
X168003Y197547D01*
X167983Y197530D01*
X167980Y197527D01*
X167974Y197520D01*
X167967Y197510D01*
X167957Y197494D01*
X167949Y197474D01*
X167940Y197451D01*
X167934Y197424D01*
X167933Y197394D01*
Y197386D01*
X167934Y197380D01*
X167936Y197363D01*
X167940Y197343D01*
X167946Y197321D01*
X167956Y197297D01*
X167969Y197274D01*
X167986Y197253D01*
X167989Y197250D01*
X167996Y197244D01*
X168007Y197236D01*
X168025Y197227D01*
X168045Y197217D01*
X168070Y197208D01*
X168099Y197203D01*
X168132Y197200D01*
X168119Y197075D01*
X168117D01*
X168113Y197077D01*
X168106D01*
X168096Y197078D01*
X168085Y197081D01*
X168072Y197084D01*
X168056Y197088D01*
X168040Y197093D01*
X168006Y197104D01*
X167972Y197121D01*
X167955Y197131D01*
X167937Y197144D01*
X167922Y197157D01*
X167907Y197171D01*
X167906Y197173D01*
X167904Y197176D01*
X167900Y197180D01*
X167896Y197187D01*
X167890Y197195D01*
X167884Y197205D01*
X167877Y197217D01*
X167870Y197231D01*
X167863Y197247D01*
X167856Y197264D01*
X167850Y197283D01*
X167844Y197303D01*
X167840Y197324D01*
X167836Y197347D01*
X167834Y197371D01*
X167833Y197397D01*
Y197412D01*
X167834Y197422D01*
X167836Y197433D01*
X167837Y197447D01*
X167840Y197463D01*
X167843Y197479D01*
X167853Y197516D01*
X167867Y197553D01*
X167876Y197572D01*
X167886Y197590D01*
X167899Y197607D01*
X167913Y197623D01*
X167914Y197625D01*
X167916Y197627D01*
X167922Y197630D01*
X167927Y197636D01*
X167934Y197643D01*
X167945Y197650D01*
X167955Y197657D01*
X167967Y197666D01*
X167994Y197680D01*
X168029Y197695D01*
X168046Y197700D01*
X168066Y197703D01*
X168086Y197706D01*
X168107Y197707D01*
X168110D01*
X168117D01*
X168129Y197706D01*
X168145Y197705D01*
X168162Y197702D01*
X168182Y197696D01*
X168203Y197690D01*
X168225Y197682D01*
X168228Y197680D01*
X168235Y197677D01*
X168246Y197672D01*
X168262Y197663D01*
X168279Y197652D01*
X168300Y197637D01*
X168322Y197620D01*
X168346Y197600D01*
X168349Y197597D01*
X168358Y197590D01*
X168365Y197583D01*
X168372Y197576D01*
X168381Y197567D01*
X168392Y197556D01*
X168403Y197545D01*
X168416Y197530D01*
X168431Y197516D01*
X168446Y197499D01*
X168462Y197480D01*
X168481Y197460D01*
X168499Y197437D01*
X168519Y197414D01*
X168521Y197413D01*
X168524Y197410D01*
X168528Y197404D01*
X168534Y197397D01*
X168542Y197389D01*
X168551Y197379D01*
X168569Y197356D01*
X168591Y197331D01*
X168612Y197309D01*
X168631Y197289D01*
X168638Y197280D01*
X168645Y197273D01*
X168647Y197271D01*
X168651Y197267D01*
X168657Y197261D01*
X168665Y197254D01*
X168675Y197247D01*
X168685Y197238D01*
X168710Y197221D01*
Y197709D01*
X168827D01*
Y197053D01*
D02*
G37*
G36*
Y196636D02*
X168053D01*
X168055Y196635D01*
X168060Y196628D01*
X168069Y196619D01*
X168079Y196605D01*
X168092Y196589D01*
X168106Y196569D01*
X168122Y196546D01*
X168138Y196521D01*
Y196519D01*
X168139Y196518D01*
X168145Y196509D01*
X168152Y196495D01*
X168160Y196478D01*
X168170Y196458D01*
X168180Y196436D01*
X168190Y196415D01*
X168199Y196393D01*
X168082D01*
Y196395D01*
X168079Y196398D01*
X168077Y196403D01*
X168073Y196411D01*
X168069Y196419D01*
X168063Y196429D01*
X168049Y196453D01*
X168033Y196482D01*
X168013Y196511D01*
X167990Y196541D01*
X167966Y196571D01*
X167964Y196572D01*
X167963Y196573D01*
X167959Y196578D01*
X167955Y196583D01*
X167940Y196596D01*
X167923Y196614D01*
X167903Y196631D01*
X167880Y196649D01*
X167857Y196665D01*
X167833Y196679D01*
Y196758D01*
X168827D01*
Y196636D01*
D02*
G37*
%LPC*%
G36*
X50884Y201284D02*
X50839D01*
X50838D01*
X50836D01*
X50829D01*
X50816D01*
X50799Y201283D01*
X50780D01*
X50758Y201281D01*
X50733Y201280D01*
X50706Y201277D01*
X50652Y201270D01*
X50625Y201266D01*
X50599Y201260D01*
X50575Y201254D01*
X50552Y201246D01*
X50532Y201237D01*
X50515Y201227D01*
X50513D01*
X50512Y201224D01*
X50507Y201221D01*
X50502Y201217D01*
X50489Y201204D01*
X50473Y201188D01*
X50459Y201167D01*
X50446Y201143D01*
X50440Y201130D01*
X50436Y201116D01*
X50434Y201100D01*
X50433Y201084D01*
Y201076D01*
X50434Y201070D01*
X50437Y201054D01*
X50442Y201035D01*
X50450Y201014D01*
X50463Y200991D01*
X50472Y200980D01*
X50480Y200968D01*
X50492Y200958D01*
X50504Y200948D01*
X50506D01*
X50509Y200945D01*
X50515Y200943D01*
X50522Y200938D01*
X50533Y200934D01*
X50546Y200928D01*
X50562Y200924D01*
X50580Y200918D01*
X50602Y200912D01*
X50626Y200907D01*
X50653Y200901D01*
X50683Y200897D01*
X50718Y200892D01*
X50755Y200890D01*
X50795Y200888D01*
X50839Y200887D01*
X50842D01*
X50849D01*
X50862D01*
X50879Y200888D01*
X50898D01*
X50921Y200890D01*
X50945Y200891D01*
X50971Y200894D01*
X51026Y200901D01*
X51054Y200905D01*
X51079Y200911D01*
X51104Y200917D01*
X51127Y200925D01*
X51147Y200934D01*
X51164Y200944D01*
X51165D01*
X51167Y200947D01*
X51177Y200954D01*
X51190Y200967D01*
X51204Y200983D01*
X51218Y201004D01*
X51231Y201028D01*
X51241Y201056D01*
X51242Y201070D01*
X51244Y201086D01*
Y201094D01*
X51242Y201100D01*
X51240Y201114D01*
X51234Y201134D01*
X51224Y201156D01*
X51209Y201180D01*
X51201Y201191D01*
X51190Y201203D01*
X51178Y201214D01*
X51164Y201226D01*
X51162D01*
X51160Y201229D01*
X51155Y201231D01*
X51148Y201234D01*
X51138Y201240D01*
X51125Y201244D01*
X51111Y201250D01*
X51094Y201256D01*
X51072Y201260D01*
X51049Y201266D01*
X51022Y201272D01*
X50994Y201276D01*
X50959Y201279D01*
X50924Y201281D01*
X50884Y201284D01*
D02*
G37*
G36*
Y200515D02*
X50839D01*
X50838D01*
X50836D01*
X50829D01*
X50816D01*
X50799Y200514D01*
X50780D01*
X50758Y200512D01*
X50733Y200511D01*
X50706Y200508D01*
X50652Y200501D01*
X50625Y200496D01*
X50599Y200491D01*
X50575Y200485D01*
X50552Y200476D01*
X50532Y200468D01*
X50515Y200458D01*
X50513D01*
X50512Y200455D01*
X50507Y200452D01*
X50502Y200448D01*
X50489Y200435D01*
X50473Y200419D01*
X50459Y200398D01*
X50446Y200373D01*
X50440Y200361D01*
X50436Y200346D01*
X50434Y200330D01*
X50433Y200315D01*
Y200306D01*
X50434Y200301D01*
X50437Y200285D01*
X50442Y200266D01*
X50450Y200245D01*
X50463Y200222D01*
X50472Y200210D01*
X50480Y200199D01*
X50492Y200189D01*
X50504Y200179D01*
X50506D01*
X50509Y200176D01*
X50515Y200173D01*
X50522Y200169D01*
X50533Y200165D01*
X50546Y200159D01*
X50562Y200155D01*
X50580Y200149D01*
X50602Y200143D01*
X50626Y200137D01*
X50653Y200132D01*
X50683Y200128D01*
X50718Y200123D01*
X50755Y200120D01*
X50795Y200119D01*
X50839Y200117D01*
X50842D01*
X50849D01*
X50862D01*
X50879Y200119D01*
X50898D01*
X50921Y200120D01*
X50945Y200122D01*
X50971Y200125D01*
X51026Y200132D01*
X51054Y200136D01*
X51079Y200142D01*
X51104Y200148D01*
X51127Y200156D01*
X51147Y200165D01*
X51164Y200175D01*
X51165D01*
X51167Y200178D01*
X51177Y200185D01*
X51190Y200198D01*
X51204Y200213D01*
X51218Y200235D01*
X51231Y200259D01*
X51241Y200286D01*
X51242Y200301D01*
X51244Y200316D01*
Y200325D01*
X51242Y200330D01*
X51240Y200345D01*
X51234Y200365D01*
X51224Y200386D01*
X51209Y200411D01*
X51201Y200422D01*
X51190Y200433D01*
X51178Y200445D01*
X51164Y200456D01*
X51162D01*
X51160Y200459D01*
X51155Y200462D01*
X51148Y200465D01*
X51138Y200471D01*
X51125Y200475D01*
X51111Y200481D01*
X51094Y200486D01*
X51072Y200491D01*
X51049Y200496D01*
X51022Y200502D01*
X50994Y200506D01*
X50959Y200509D01*
X50924Y200512D01*
X50884Y200515D01*
D02*
G37*
G36*
X80635Y201284D02*
X80591D01*
X80590D01*
X80588D01*
X80581D01*
X80568D01*
X80551Y201283D01*
X80532D01*
X80510Y201281D01*
X80485Y201280D01*
X80458Y201277D01*
X80404Y201270D01*
X80377Y201266D01*
X80351Y201260D01*
X80327Y201254D01*
X80304Y201246D01*
X80284Y201237D01*
X80266Y201227D01*
X80265D01*
X80264Y201224D01*
X80259Y201221D01*
X80254Y201217D01*
X80241Y201204D01*
X80225Y201188D01*
X80211Y201167D01*
X80198Y201143D01*
X80192Y201130D01*
X80188Y201116D01*
X80186Y201100D01*
X80185Y201084D01*
Y201076D01*
X80186Y201070D01*
X80189Y201054D01*
X80194Y201035D01*
X80202Y201014D01*
X80215Y200991D01*
X80224Y200980D01*
X80232Y200968D01*
X80244Y200958D01*
X80256Y200948D01*
X80258D01*
X80261Y200945D01*
X80266Y200943D01*
X80274Y200938D01*
X80285Y200934D01*
X80298Y200928D01*
X80314Y200924D01*
X80332Y200918D01*
X80354Y200912D01*
X80378Y200907D01*
X80405Y200901D01*
X80435Y200897D01*
X80470Y200892D01*
X80507Y200890D01*
X80547Y200888D01*
X80591Y200887D01*
X80594D01*
X80601D01*
X80614D01*
X80631Y200888D01*
X80650D01*
X80673Y200890D01*
X80697Y200891D01*
X80723Y200894D01*
X80778Y200901D01*
X80806Y200905D01*
X80831Y200911D01*
X80856Y200917D01*
X80879Y200925D01*
X80899Y200934D01*
X80916Y200944D01*
X80917D01*
X80919Y200947D01*
X80929Y200954D01*
X80941Y200967D01*
X80956Y200983D01*
X80970Y201004D01*
X80983Y201028D01*
X80993Y201056D01*
X80994Y201070D01*
X80996Y201086D01*
Y201094D01*
X80994Y201100D01*
X80992Y201114D01*
X80986Y201134D01*
X80976Y201156D01*
X80962Y201180D01*
X80953Y201191D01*
X80941Y201203D01*
X80930Y201214D01*
X80916Y201226D01*
X80914D01*
X80911Y201229D01*
X80907Y201231D01*
X80900Y201234D01*
X80890Y201240D01*
X80877Y201244D01*
X80863Y201250D01*
X80846Y201256D01*
X80824Y201260D01*
X80801Y201266D01*
X80774Y201272D01*
X80746Y201276D01*
X80711Y201279D01*
X80676Y201281D01*
X80635Y201284D01*
D02*
G37*
G36*
X80730Y200382D02*
X80287D01*
X80730Y200070D01*
Y200382D01*
D02*
G37*
G36*
X56635Y168678D02*
X56591D01*
X56590D01*
X56588D01*
X56581D01*
X56568D01*
X56551Y168677D01*
X56533D01*
X56510Y168676D01*
X56485Y168674D01*
X56458Y168671D01*
X56404Y168664D01*
X56377Y168660D01*
X56351Y168654D01*
X56327Y168649D01*
X56304Y168640D01*
X56284Y168631D01*
X56266Y168621D01*
X56265D01*
X56264Y168619D01*
X56259Y168616D01*
X56254Y168611D01*
X56241Y168598D01*
X56225Y168583D01*
X56211Y168561D01*
X56198Y168537D01*
X56192Y168524D01*
X56188Y168510D01*
X56186Y168494D01*
X56185Y168478D01*
Y168470D01*
X56186Y168464D01*
X56189Y168448D01*
X56194Y168430D01*
X56202Y168408D01*
X56215Y168385D01*
X56224Y168374D01*
X56232Y168362D01*
X56244Y168352D01*
X56257Y168342D01*
X56258D01*
X56261Y168340D01*
X56266Y168337D01*
X56274Y168333D01*
X56285Y168328D01*
X56298Y168323D01*
X56314Y168318D01*
X56332Y168313D01*
X56354Y168307D01*
X56378Y168301D01*
X56405Y168295D01*
X56435Y168291D01*
X56470Y168287D01*
X56507Y168284D01*
X56547Y168282D01*
X56591Y168281D01*
X56594D01*
X56601D01*
X56614D01*
X56631Y168282D01*
X56650D01*
X56673Y168284D01*
X56697Y168285D01*
X56723Y168288D01*
X56779Y168295D01*
X56806Y168300D01*
X56831Y168305D01*
X56856Y168311D01*
X56879Y168320D01*
X56899Y168328D01*
X56916Y168338D01*
X56917D01*
X56919Y168341D01*
X56929Y168348D01*
X56941Y168361D01*
X56956Y168377D01*
X56970Y168398D01*
X56983Y168423D01*
X56993Y168450D01*
X56994Y168464D01*
X56996Y168480D01*
Y168488D01*
X56994Y168494D01*
X56991Y168508D01*
X56986Y168528D01*
X56976Y168550D01*
X56962Y168574D01*
X56953Y168586D01*
X56941Y168597D01*
X56930Y168608D01*
X56916Y168620D01*
X56914D01*
X56911Y168623D01*
X56907Y168626D01*
X56900Y168629D01*
X56890Y168634D01*
X56877Y168639D01*
X56863Y168644D01*
X56846Y168650D01*
X56824Y168654D01*
X56801Y168660D01*
X56774Y168666D01*
X56746Y168670D01*
X56711Y168673D01*
X56675Y168676D01*
X56635Y168678D01*
D02*
G37*
G36*
X56730Y167776D02*
X56287D01*
X56730Y167464D01*
Y167776D01*
D02*
G37*
G36*
X63884Y146678D02*
X63839D01*
X63838D01*
X63836D01*
X63829D01*
X63816D01*
X63799Y146677D01*
X63780D01*
X63758Y146676D01*
X63733Y146674D01*
X63706Y146671D01*
X63652Y146664D01*
X63625Y146660D01*
X63599Y146654D01*
X63575Y146649D01*
X63552Y146640D01*
X63532Y146631D01*
X63515Y146621D01*
X63513D01*
X63512Y146618D01*
X63507Y146616D01*
X63502Y146611D01*
X63489Y146598D01*
X63473Y146583D01*
X63459Y146561D01*
X63446Y146537D01*
X63440Y146524D01*
X63436Y146510D01*
X63434Y146494D01*
X63433Y146478D01*
Y146470D01*
X63434Y146464D01*
X63437Y146448D01*
X63442Y146430D01*
X63450Y146408D01*
X63463Y146385D01*
X63472Y146374D01*
X63480Y146362D01*
X63492Y146353D01*
X63504Y146343D01*
X63506D01*
X63509Y146340D01*
X63515Y146337D01*
X63522Y146333D01*
X63533Y146328D01*
X63546Y146323D01*
X63562Y146318D01*
X63580Y146312D01*
X63602Y146307D01*
X63626Y146301D01*
X63653Y146295D01*
X63683Y146291D01*
X63718Y146287D01*
X63755Y146284D01*
X63795Y146282D01*
X63839Y146281D01*
X63842D01*
X63849D01*
X63862D01*
X63879Y146282D01*
X63898D01*
X63921Y146284D01*
X63945Y146285D01*
X63971Y146288D01*
X64026Y146295D01*
X64054Y146300D01*
X64079Y146305D01*
X64104Y146311D01*
X64127Y146320D01*
X64147Y146328D01*
X64164Y146338D01*
X64165D01*
X64167Y146341D01*
X64177Y146348D01*
X64189Y146361D01*
X64204Y146377D01*
X64218Y146398D01*
X64231Y146423D01*
X64241Y146450D01*
X64242Y146464D01*
X64244Y146480D01*
Y146488D01*
X64242Y146494D01*
X64240Y146508D01*
X64234Y146528D01*
X64224Y146550D01*
X64210Y146574D01*
X64201Y146586D01*
X64189Y146597D01*
X64178Y146608D01*
X64164Y146620D01*
X64162D01*
X64160Y146623D01*
X64155Y146626D01*
X64148Y146628D01*
X64138Y146634D01*
X64125Y146639D01*
X64111Y146644D01*
X64094Y146650D01*
X64072Y146654D01*
X64049Y146660D01*
X64022Y146666D01*
X63994Y146670D01*
X63959Y146673D01*
X63924Y146676D01*
X63884Y146678D01*
D02*
G37*
G36*
X63978Y145776D02*
X63535D01*
X63978Y145465D01*
Y145776D01*
D02*
G37*
G36*
X181384Y145678D02*
X181339D01*
X181338D01*
X181336D01*
X181329D01*
X181316D01*
X181299Y145677D01*
X181281D01*
X181258Y145676D01*
X181233Y145674D01*
X181206Y145671D01*
X181152Y145664D01*
X181125Y145660D01*
X181099Y145654D01*
X181075Y145649D01*
X181052Y145640D01*
X181032Y145631D01*
X181015Y145621D01*
X181013D01*
X181012Y145618D01*
X181007Y145616D01*
X181002Y145611D01*
X180989Y145598D01*
X180973Y145583D01*
X180959Y145561D01*
X180946Y145537D01*
X180940Y145524D01*
X180936Y145510D01*
X180934Y145494D01*
X180933Y145478D01*
Y145470D01*
X180934Y145464D01*
X180937Y145448D01*
X180942Y145430D01*
X180950Y145408D01*
X180963Y145385D01*
X180972Y145374D01*
X180980Y145362D01*
X180992Y145352D01*
X181005Y145343D01*
X181006D01*
X181009Y145340D01*
X181015Y145337D01*
X181022Y145333D01*
X181033Y145328D01*
X181046Y145323D01*
X181062Y145318D01*
X181080Y145312D01*
X181102Y145307D01*
X181126Y145301D01*
X181153Y145295D01*
X181183Y145291D01*
X181218Y145287D01*
X181255Y145284D01*
X181295Y145282D01*
X181339Y145281D01*
X181342D01*
X181349D01*
X181362D01*
X181379Y145282D01*
X181398D01*
X181421Y145284D01*
X181445Y145285D01*
X181471Y145288D01*
X181527Y145295D01*
X181554Y145300D01*
X181579Y145305D01*
X181604Y145311D01*
X181627Y145320D01*
X181647Y145328D01*
X181664Y145338D01*
X181665D01*
X181667Y145341D01*
X181677Y145348D01*
X181690Y145361D01*
X181704Y145377D01*
X181718Y145398D01*
X181731Y145423D01*
X181741Y145450D01*
X181742Y145464D01*
X181744Y145480D01*
Y145488D01*
X181742Y145494D01*
X181739Y145508D01*
X181734Y145528D01*
X181724Y145550D01*
X181710Y145574D01*
X181701Y145586D01*
X181690Y145597D01*
X181678Y145608D01*
X181664Y145620D01*
X181662D01*
X181659Y145623D01*
X181655Y145626D01*
X181648Y145628D01*
X181638Y145634D01*
X181625Y145639D01*
X181611Y145644D01*
X181594Y145650D01*
X181572Y145654D01*
X181549Y145660D01*
X181522Y145666D01*
X181494Y145670D01*
X181459Y145673D01*
X181423Y145676D01*
X181384Y145678D01*
D02*
G37*
G36*
X181478Y144776D02*
X181035D01*
X181478Y144465D01*
Y144776D01*
D02*
G37*
G36*
X174135Y167678D02*
X174091D01*
X174090D01*
X174088D01*
X174081D01*
X174068D01*
X174051Y167677D01*
X174032D01*
X174010Y167676D01*
X173985Y167674D01*
X173958Y167671D01*
X173904Y167664D01*
X173877Y167660D01*
X173851Y167654D01*
X173827Y167648D01*
X173804Y167640D01*
X173784Y167631D01*
X173767Y167621D01*
X173765D01*
X173764Y167619D01*
X173759Y167616D01*
X173754Y167611D01*
X173741Y167598D01*
X173725Y167583D01*
X173711Y167561D01*
X173698Y167537D01*
X173692Y167524D01*
X173688Y167510D01*
X173686Y167494D01*
X173685Y167478D01*
Y167470D01*
X173686Y167464D01*
X173689Y167448D01*
X173694Y167430D01*
X173702Y167408D01*
X173715Y167385D01*
X173724Y167374D01*
X173732Y167362D01*
X173744Y167352D01*
X173757Y167342D01*
X173758D01*
X173761Y167340D01*
X173767Y167337D01*
X173774Y167332D01*
X173785Y167328D01*
X173798Y167323D01*
X173814Y167318D01*
X173832Y167313D01*
X173854Y167307D01*
X173878Y167301D01*
X173905Y167295D01*
X173935Y167291D01*
X173970Y167287D01*
X174007Y167284D01*
X174047Y167282D01*
X174091Y167281D01*
X174094D01*
X174101D01*
X174114D01*
X174131Y167282D01*
X174150D01*
X174173Y167284D01*
X174197Y167285D01*
X174223Y167288D01*
X174278Y167295D01*
X174306Y167300D01*
X174331Y167305D01*
X174356Y167311D01*
X174379Y167320D01*
X174399Y167328D01*
X174416Y167338D01*
X174417D01*
X174419Y167341D01*
X174429Y167348D01*
X174442Y167361D01*
X174456Y167377D01*
X174470Y167398D01*
X174483Y167423D01*
X174493Y167450D01*
X174494Y167464D01*
X174496Y167480D01*
Y167488D01*
X174494Y167494D01*
X174492Y167508D01*
X174486Y167528D01*
X174476Y167550D01*
X174461Y167574D01*
X174453Y167586D01*
X174442Y167597D01*
X174430Y167608D01*
X174416Y167620D01*
X174414D01*
X174411Y167623D01*
X174407Y167626D01*
X174400Y167629D01*
X174390Y167634D01*
X174377Y167639D01*
X174363Y167644D01*
X174346Y167650D01*
X174324Y167654D01*
X174301Y167660D01*
X174274Y167666D01*
X174246Y167670D01*
X174211Y167673D01*
X174176Y167676D01*
X174135Y167678D01*
D02*
G37*
G36*
X174230Y166776D02*
X173787D01*
X174230Y166464D01*
Y166776D01*
D02*
G37*
G36*
X198135Y200284D02*
X198091D01*
X198090D01*
X198088D01*
X198081D01*
X198068D01*
X198051Y200283D01*
X198032D01*
X198010Y200282D01*
X197985Y200280D01*
X197958Y200277D01*
X197904Y200270D01*
X197877Y200266D01*
X197851Y200260D01*
X197827Y200254D01*
X197804Y200246D01*
X197784Y200237D01*
X197766Y200227D01*
X197765D01*
X197764Y200224D01*
X197759Y200221D01*
X197754Y200217D01*
X197741Y200204D01*
X197725Y200188D01*
X197711Y200167D01*
X197698Y200143D01*
X197692Y200130D01*
X197688Y200116D01*
X197686Y200100D01*
X197685Y200084D01*
Y200076D01*
X197686Y200070D01*
X197689Y200054D01*
X197694Y200036D01*
X197702Y200014D01*
X197715Y199991D01*
X197724Y199980D01*
X197732Y199968D01*
X197744Y199958D01*
X197757Y199948D01*
X197758D01*
X197761Y199945D01*
X197766Y199943D01*
X197774Y199938D01*
X197785Y199934D01*
X197798Y199928D01*
X197814Y199924D01*
X197832Y199918D01*
X197854Y199913D01*
X197878Y199907D01*
X197905Y199901D01*
X197935Y199897D01*
X197970Y199892D01*
X198007Y199890D01*
X198047Y199888D01*
X198091Y199887D01*
X198094D01*
X198101D01*
X198114D01*
X198131Y199888D01*
X198150D01*
X198173Y199890D01*
X198197Y199891D01*
X198223Y199894D01*
X198278Y199901D01*
X198306Y199905D01*
X198331Y199911D01*
X198356Y199917D01*
X198379Y199925D01*
X198399Y199934D01*
X198416Y199944D01*
X198417D01*
X198419Y199947D01*
X198429Y199954D01*
X198442Y199967D01*
X198456Y199983D01*
X198470Y200004D01*
X198483Y200028D01*
X198493Y200056D01*
X198494Y200070D01*
X198496Y200086D01*
Y200094D01*
X198494Y200100D01*
X198492Y200114D01*
X198486Y200134D01*
X198476Y200156D01*
X198461Y200180D01*
X198453Y200191D01*
X198442Y200203D01*
X198430Y200214D01*
X198416Y200226D01*
X198414D01*
X198412Y200229D01*
X198407Y200231D01*
X198400Y200234D01*
X198390Y200240D01*
X198377Y200244D01*
X198363Y200250D01*
X198346Y200256D01*
X198324Y200260D01*
X198301Y200266D01*
X198274Y200272D01*
X198246Y200276D01*
X198211Y200279D01*
X198176Y200282D01*
X198135Y200284D01*
D02*
G37*
G36*
X198230Y199382D02*
X197787D01*
X198230Y199070D01*
Y199382D01*
D02*
G37*
G36*
X168384Y200284D02*
X168339D01*
X168338D01*
X168336D01*
X168329D01*
X168316D01*
X168299Y200283D01*
X168280D01*
X168258Y200282D01*
X168233Y200280D01*
X168206Y200277D01*
X168152Y200270D01*
X168125Y200266D01*
X168099Y200260D01*
X168075Y200254D01*
X168052Y200246D01*
X168032Y200237D01*
X168015Y200227D01*
X168013D01*
X168012Y200224D01*
X168007Y200221D01*
X168002Y200217D01*
X167989Y200204D01*
X167973Y200188D01*
X167959Y200167D01*
X167946Y200143D01*
X167940Y200130D01*
X167936Y200116D01*
X167934Y200100D01*
X167933Y200084D01*
Y200076D01*
X167934Y200070D01*
X167937Y200054D01*
X167942Y200036D01*
X167950Y200014D01*
X167963Y199991D01*
X167972Y199980D01*
X167980Y199968D01*
X167992Y199958D01*
X168005Y199948D01*
X168006D01*
X168009Y199945D01*
X168015Y199943D01*
X168022Y199938D01*
X168033Y199934D01*
X168046Y199928D01*
X168062Y199924D01*
X168080Y199918D01*
X168102Y199913D01*
X168126Y199907D01*
X168153Y199901D01*
X168183Y199897D01*
X168218Y199892D01*
X168255Y199890D01*
X168295Y199888D01*
X168339Y199887D01*
X168342D01*
X168349D01*
X168362D01*
X168379Y199888D01*
X168398D01*
X168421Y199890D01*
X168445Y199891D01*
X168471Y199894D01*
X168526Y199901D01*
X168554Y199905D01*
X168579Y199911D01*
X168604Y199917D01*
X168627Y199925D01*
X168647Y199934D01*
X168664Y199944D01*
X168665D01*
X168667Y199947D01*
X168677Y199954D01*
X168690Y199967D01*
X168704Y199983D01*
X168718Y200004D01*
X168731Y200028D01*
X168741Y200056D01*
X168742Y200070D01*
X168744Y200086D01*
Y200094D01*
X168742Y200100D01*
X168739Y200114D01*
X168734Y200134D01*
X168724Y200156D01*
X168710Y200180D01*
X168701Y200191D01*
X168690Y200203D01*
X168678Y200214D01*
X168664Y200226D01*
X168662D01*
X168659Y200229D01*
X168655Y200231D01*
X168648Y200234D01*
X168638Y200240D01*
X168625Y200244D01*
X168611Y200250D01*
X168594Y200256D01*
X168572Y200260D01*
X168549Y200266D01*
X168522Y200272D01*
X168494Y200276D01*
X168459Y200279D01*
X168423Y200282D01*
X168384Y200284D01*
D02*
G37*
G36*
Y199515D02*
X168339D01*
X168338D01*
X168336D01*
X168329D01*
X168316D01*
X168299Y199514D01*
X168280D01*
X168258Y199512D01*
X168233Y199511D01*
X168206Y199508D01*
X168152Y199501D01*
X168125Y199496D01*
X168099Y199491D01*
X168075Y199485D01*
X168052Y199476D01*
X168032Y199468D01*
X168015Y199458D01*
X168013D01*
X168012Y199455D01*
X168007Y199452D01*
X168002Y199448D01*
X167989Y199435D01*
X167973Y199419D01*
X167959Y199398D01*
X167946Y199373D01*
X167940Y199361D01*
X167936Y199346D01*
X167934Y199330D01*
X167933Y199315D01*
Y199306D01*
X167934Y199301D01*
X167937Y199285D01*
X167942Y199266D01*
X167950Y199245D01*
X167963Y199222D01*
X167972Y199210D01*
X167980Y199199D01*
X167992Y199189D01*
X168005Y199179D01*
X168006D01*
X168009Y199176D01*
X168015Y199173D01*
X168022Y199169D01*
X168033Y199165D01*
X168046Y199159D01*
X168062Y199155D01*
X168080Y199149D01*
X168102Y199143D01*
X168126Y199137D01*
X168153Y199132D01*
X168183Y199127D01*
X168218Y199123D01*
X168255Y199120D01*
X168295Y199119D01*
X168339Y199118D01*
X168342D01*
X168349D01*
X168362D01*
X168379Y199119D01*
X168398D01*
X168421Y199120D01*
X168445Y199122D01*
X168471Y199125D01*
X168526Y199132D01*
X168554Y199136D01*
X168579Y199142D01*
X168604Y199147D01*
X168627Y199156D01*
X168647Y199165D01*
X168664Y199175D01*
X168665D01*
X168667Y199178D01*
X168677Y199185D01*
X168690Y199197D01*
X168704Y199213D01*
X168718Y199235D01*
X168731Y199259D01*
X168741Y199286D01*
X168742Y199301D01*
X168744Y199316D01*
Y199325D01*
X168742Y199330D01*
X168739Y199345D01*
X168734Y199365D01*
X168724Y199386D01*
X168710Y199411D01*
X168701Y199422D01*
X168690Y199434D01*
X168678Y199445D01*
X168664Y199456D01*
X168662D01*
X168659Y199459D01*
X168655Y199462D01*
X168648Y199465D01*
X168638Y199471D01*
X168625Y199475D01*
X168611Y199481D01*
X168594Y199486D01*
X168572Y199491D01*
X168549Y199496D01*
X168522Y199502D01*
X168494Y199506D01*
X168459Y199509D01*
X168423Y199512D01*
X168384Y199515D01*
D02*
G37*
%LPD*%
D28*
X71587Y230543D02*
X83339D01*
X51138Y223291D02*
X51453Y223043D01*
X50827Y225543D02*
X51138Y223291D01*
X50827Y223543D02*
Y225543D01*
X50516Y223291D02*
X50827Y223543D01*
X50516Y223291D02*
X50827Y225543D01*
Y223543D02*
X51453Y223043D01*
X50201D02*
X50827Y223543D01*
X50201Y223043D02*
X50827Y225543D01*
X51453Y223043D01*
X48067Y225543D02*
X61067D01*
X80890Y228291D02*
X81201Y228043D01*
X80575Y230543D02*
X80890Y228291D01*
X80575Y228543D02*
Y230543D01*
X80264Y228291D02*
X80575Y228543D01*
X80264Y228291D02*
X80575Y230543D01*
Y228543D02*
X81201Y228043D01*
X79953D02*
X80575Y228543D01*
X79953Y228043D02*
X80575Y230543D01*
X81201Y228043D01*
X50827Y204445D02*
Y225543D01*
X80575Y204445D02*
Y230543D01*
X56890Y183291D02*
X57201Y183043D01*
X56575Y185543D02*
X56890Y183291D01*
X56575Y183543D02*
Y185543D01*
X56264Y183291D02*
X56575Y183543D01*
X56264Y183291D02*
X56575Y185543D01*
Y183543D02*
X57201Y183043D01*
X55953D02*
X56575Y183543D01*
X55953Y183043D02*
X56575Y185543D01*
X57201Y183043D01*
X53815Y185543D02*
X61067D01*
X50201Y178043D02*
X50516Y177795D01*
X50827Y175543D01*
Y177543D01*
X51138Y177795D01*
X50827Y175543D02*
X51138Y177795D01*
X50201Y178043D02*
X50827Y177543D01*
X51453Y178043D01*
X50827Y175543D02*
X51453Y178043D01*
X50201D02*
X50827Y175543D01*
Y196641D01*
X56575Y175543D02*
Y185543D01*
X55953Y178043D02*
X56264Y177795D01*
X56575Y175543D01*
Y177543D01*
X56890Y177795D01*
X56575Y175543D02*
X56890Y177795D01*
X55953Y178043D02*
X56575Y177543D01*
X57201Y178043D01*
X56575Y175543D02*
X57201Y178043D01*
X55953D02*
X56575Y175543D01*
Y171393D02*
Y175543D01*
X48067D02*
X61067D01*
X53815D02*
X61067D01*
X79953Y173043D02*
X80264Y172795D01*
X80575Y170543D01*
Y172543D01*
X80890Y172795D01*
X80575Y170543D02*
X80890Y172795D01*
X79953Y173043D02*
X80575Y172543D01*
X81201Y173043D01*
X80575Y170543D02*
X81201Y173043D01*
X79953D02*
X80575Y170543D01*
Y196641D01*
X71587Y170543D02*
X83339D01*
X61079Y146354D02*
X61327Y146669D01*
X58827Y146043D02*
X61079Y146354D01*
X58827Y146043D02*
X60827D01*
X61079Y145732D01*
X58827Y146043D02*
X61079Y145732D01*
X60827Y146043D02*
X61327Y146669D01*
X60827Y146043D02*
X61327Y145417D01*
X58827Y146043D02*
X61327Y145417D01*
X58827Y146043D02*
X61327Y146669D01*
X58827Y146043D02*
X62575D01*
X66327Y145417D02*
X66575Y145732D01*
X68827Y146043D01*
X66827D02*
X68827D01*
X66575Y146354D02*
X66827Y146043D01*
X66575Y146354D02*
X68827Y146043D01*
X66327Y145417D02*
X66827Y146043D01*
X66327Y146669D02*
X66827Y146043D01*
X66327Y146669D02*
X68827Y146043D01*
X66327Y145417D02*
X68827Y146043D01*
X65079D02*
X68827D01*
Y143283D02*
Y167783D01*
X58827Y143283D02*
Y167783D01*
X176327Y142283D02*
Y166783D01*
X186327Y142283D02*
Y166783D01*
X182579Y145043D02*
X186327D01*
X183827Y144417D02*
X186327Y145043D01*
X183827Y145669D02*
X186327Y145043D01*
X183827Y145669D02*
X184327Y145043D01*
X183827Y144417D02*
X184327Y145043D01*
X184075Y145354D02*
X186327Y145043D01*
X184075Y145354D02*
X184327Y145043D01*
X186327D01*
X184075Y144732D02*
X186327Y145043D01*
X183827Y144417D02*
X184075Y144732D01*
X176327Y145043D02*
X180075D01*
X176327D02*
X178827Y145669D01*
X176327Y145043D02*
X178827Y144417D01*
X178327Y145043D02*
X178827Y144417D01*
X178327Y145043D02*
X178827Y145669D01*
X176327Y145043D02*
X178579Y144732D01*
X178327Y145043D02*
X178579Y144732D01*
X176327Y145043D02*
X178327D01*
X176327D02*
X178579Y145354D01*
X178827Y145669D01*
X189087Y169543D02*
X200839D01*
X198075D02*
Y195641D01*
X197453Y172043D02*
X198075Y169543D01*
X198701Y172043D01*
X198075Y171543D02*
X198701Y172043D01*
X197453D02*
X198075Y171543D01*
Y169543D02*
X198390Y171795D01*
X198075Y171543D02*
X198390Y171795D01*
X198075Y169543D02*
Y171543D01*
X197764Y171795D02*
X198075Y169543D01*
X197453Y172043D02*
X197764Y171795D01*
X171315Y174543D02*
X178567D01*
X165567D02*
X178567D01*
X174075Y170393D02*
Y174543D01*
X173453Y177043D02*
X174075Y174543D01*
X174701Y177043D01*
X174075Y176543D02*
X174701Y177043D01*
X173453D02*
X174075Y176543D01*
Y174543D02*
X174390Y176795D01*
X174075Y176543D02*
X174390Y176795D01*
X174075Y174543D02*
Y176543D01*
X173764Y176795D02*
X174075Y174543D01*
X173453Y177043D02*
X173764Y176795D01*
X174075Y174543D02*
Y184543D01*
X168327Y174543D02*
Y195641D01*
X167701Y177043D02*
X168327Y174543D01*
X168953Y177043D01*
X168327Y176543D02*
X168953Y177043D01*
X167701D02*
X168327Y176543D01*
Y174543D02*
X168638Y176795D01*
X168327Y176543D02*
X168638Y176795D01*
X168327Y174543D02*
Y176543D01*
X168016Y176795D02*
X168327Y174543D01*
X167701Y177043D02*
X168016Y176795D01*
X171315Y184543D02*
X178567D01*
X174075D02*
X174701Y182043D01*
X173453D02*
X174075Y184543D01*
X173453Y182043D02*
X174075Y182543D01*
X174701Y182043D01*
X173764Y182291D02*
X174075Y184543D01*
X173764Y182291D02*
X174075Y182543D01*
Y184543D01*
X174390Y182291D01*
X174701Y182043D01*
X198075Y203445D02*
Y229543D01*
X168327Y203445D02*
Y224543D01*
X198075Y229543D02*
X198701Y227043D01*
X197453D02*
X198075Y229543D01*
X197453Y227043D02*
X198075Y227543D01*
X198701Y227043D01*
X197764Y227291D02*
X198075Y229543D01*
X197764Y227291D02*
X198075Y227543D01*
Y229543D01*
X198390Y227291D01*
X198701Y227043D01*
X165567Y224543D02*
X178567D01*
X168327D02*
X168953Y222043D01*
X167701D02*
X168327Y224543D01*
X167701Y222043D02*
X168327Y222543D01*
X168953Y222043D01*
X168016Y222291D02*
X168327Y224543D01*
X168016Y222291D02*
X168327Y222543D01*
Y224543D01*
X168638Y222291D01*
X168953Y222043D01*
X189087Y229543D02*
X200839D01*
M02*
