G04*
G04 #@! TF.GenerationSoftware,Altium Limited,Altium Designer,22.9.1 (49)*
G04*
G04 Layer_Color=65535*
%FSLAX25Y25*%
%MOIN*%
G70*
G04*
G04 #@! TF.SameCoordinates,2D7BEFF4-9F28-405B-851C-CABBC44A95C7*
G04*
G04*
G04 #@! TF.FilePolarity,Positive*
G04*
G01*
G75*
%ADD10C,0.00787*%
%ADD11C,0.00394*%
%ADD12C,0.00700*%
%ADD13C,0.00500*%
%ADD14C,0.00787*%
%ADD15C,0.01000*%
%ADD16C,0.00600*%
G36*
X9407Y249528D02*
X5567D01*
Y250000D01*
X9407D01*
Y249528D01*
D02*
G37*
G36*
Y248324D02*
X8869D01*
Y248796D01*
X9407D01*
Y248324D01*
D02*
G37*
G36*
X8353D02*
X5567D01*
Y248796D01*
X8353D01*
Y248324D01*
D02*
G37*
G36*
X18769Y247219D02*
X18314D01*
Y249489D01*
X17143D01*
Y247364D01*
X16688D01*
Y249489D01*
X15383D01*
Y247131D01*
X14928D01*
Y250000D01*
X18769D01*
Y247219D01*
D02*
G37*
G36*
X14094Y248218D02*
X14088Y248174D01*
Y248124D01*
X14083Y248007D01*
X14066Y247885D01*
X14049Y247752D01*
X14021Y247630D01*
X14005Y247569D01*
X13988Y247519D01*
Y247514D01*
X13983Y247508D01*
X13966Y247475D01*
X13944Y247425D01*
X13905Y247364D01*
X13855Y247297D01*
X13788Y247225D01*
X13711Y247158D01*
X13622Y247092D01*
X13616D01*
X13611Y247086D01*
X13577Y247064D01*
X13522Y247042D01*
X13450Y247008D01*
X13367Y246981D01*
X13267Y246953D01*
X13161Y246936D01*
X13045Y246931D01*
X13039D01*
X13028D01*
X13006D01*
X12978Y246936D01*
X12939D01*
X12900Y246942D01*
X12806Y246964D01*
X12695Y246997D01*
X12578Y247042D01*
X12462Y247108D01*
X12406Y247153D01*
X12351Y247197D01*
X12345Y247203D01*
X12340Y247208D01*
X12323Y247225D01*
X12307Y247247D01*
X12284Y247275D01*
X12262Y247308D01*
X12234Y247353D01*
X12201Y247397D01*
X12173Y247452D01*
X12146Y247514D01*
X12112Y247580D01*
X12085Y247652D01*
X12062Y247736D01*
X12035Y247819D01*
X12018Y247913D01*
X12001Y248013D01*
X11996Y248002D01*
X11985Y247980D01*
X11963Y247947D01*
X11940Y247902D01*
X11879Y247802D01*
X11840Y247752D01*
X11807Y247708D01*
X11796Y247697D01*
X11768Y247669D01*
X11724Y247625D01*
X11668Y247569D01*
X11591Y247508D01*
X11507Y247436D01*
X11407Y247364D01*
X11297Y247286D01*
X10253Y246626D01*
Y247258D01*
X11052Y247763D01*
X11058D01*
X11069Y247774D01*
X11086Y247785D01*
X11108Y247802D01*
X11169Y247841D01*
X11247Y247891D01*
X11330Y247952D01*
X11419Y248013D01*
X11502Y248074D01*
X11580Y248130D01*
X11585Y248135D01*
X11607Y248152D01*
X11641Y248180D01*
X11679Y248218D01*
X11763Y248302D01*
X11801Y248346D01*
X11835Y248391D01*
X11840Y248396D01*
X11846Y248407D01*
X11857Y248429D01*
X11874Y248463D01*
X11890Y248496D01*
X11907Y248535D01*
X11935Y248624D01*
Y248629D01*
X11940Y248640D01*
Y248662D01*
X11946Y248690D01*
X11951Y248729D01*
Y248773D01*
X11957Y248834D01*
Y249489D01*
X10253D01*
Y250000D01*
X14094D01*
Y248218D01*
D02*
G37*
G36*
X6105Y246931D02*
X5567D01*
Y247469D01*
X6105D01*
Y246931D01*
D02*
G37*
G36*
X8353Y246032D02*
X9041D01*
X9324Y245560D01*
X8353D01*
Y245083D01*
X7987D01*
Y245560D01*
X6349D01*
X6338D01*
X6316D01*
X6283D01*
X6244Y245554D01*
X6155Y245549D01*
X6116Y245543D01*
X6088Y245538D01*
X6077Y245532D01*
X6055Y245516D01*
X6027Y245493D01*
X6000Y245455D01*
X5994Y245443D01*
X5983Y245416D01*
X5972Y245366D01*
X5966Y245294D01*
Y245238D01*
X5972Y245210D01*
Y245171D01*
X5977Y245127D01*
X5983Y245083D01*
X5567Y245022D01*
Y245033D01*
X5561Y245055D01*
X5556Y245094D01*
X5550Y245144D01*
X5539Y245199D01*
X5533Y245260D01*
X5528Y245382D01*
Y245427D01*
X5533Y245471D01*
X5539Y245527D01*
X5545Y245593D01*
X5561Y245660D01*
X5578Y245721D01*
X5605Y245782D01*
X5611Y245788D01*
X5622Y245804D01*
X5639Y245826D01*
X5667Y245860D01*
X5694Y245887D01*
X5733Y245921D01*
X5772Y245954D01*
X5822Y245976D01*
X5827D01*
X5850Y245987D01*
X5889Y245993D01*
X5944Y246004D01*
X6016Y246015D01*
X6061Y246021D01*
X6111D01*
X6172Y246026D01*
X6233Y246032D01*
X6299D01*
X6377D01*
X7987D01*
Y246381D01*
X8353D01*
Y246032D01*
D02*
G37*
G36*
X11058Y246348D02*
X11108Y246342D01*
X11169Y246331D01*
X11230Y246315D01*
X11297Y246293D01*
X11357Y246265D01*
X11363Y246259D01*
X11385Y246248D01*
X11419Y246226D01*
X11457Y246198D01*
X11502Y246165D01*
X11546Y246121D01*
X11591Y246076D01*
X11630Y246021D01*
X11635Y246015D01*
X11646Y245993D01*
X11668Y245965D01*
X11690Y245921D01*
X11713Y245871D01*
X11740Y245810D01*
X11763Y245749D01*
X11785Y245676D01*
Y245671D01*
X11790Y245649D01*
X11801Y245616D01*
X11807Y245571D01*
X11818Y245516D01*
X11829Y245443D01*
X11846Y245360D01*
X11857Y245260D01*
Y245255D01*
X11863Y245233D01*
Y245205D01*
X11868Y245166D01*
X11874Y245122D01*
X11885Y245066D01*
X11890Y245005D01*
X11901Y244938D01*
X11929Y244805D01*
X11957Y244661D01*
X11990Y244533D01*
X12007Y244472D01*
X12024Y244417D01*
X12029D01*
X12040D01*
X12073Y244411D01*
X12112D01*
X12134D01*
X12146D01*
X12151D01*
X12157D01*
X12190D01*
X12246Y244417D01*
X12307Y244428D01*
X12373Y244444D01*
X12440Y244472D01*
X12501Y244506D01*
X12551Y244550D01*
X12556Y244555D01*
X12578Y244583D01*
X12601Y244628D01*
X12634Y244683D01*
X12662Y244761D01*
X12689Y244850D01*
X12706Y244961D01*
X12712Y245088D01*
Y245144D01*
X12706Y245199D01*
X12695Y245277D01*
X12684Y245355D01*
X12662Y245438D01*
X12634Y245516D01*
X12595Y245582D01*
X12590Y245588D01*
X12573Y245610D01*
X12545Y245638D01*
X12501Y245671D01*
X12445Y245704D01*
X12373Y245743D01*
X12284Y245776D01*
X12184Y245810D01*
X12246Y246270D01*
X12251D01*
X12257Y246265D01*
X12273D01*
X12296Y246259D01*
X12345Y246243D01*
X12418Y246220D01*
X12490Y246193D01*
X12567Y246159D01*
X12645Y246115D01*
X12717Y246065D01*
X12723Y246059D01*
X12745Y246037D01*
X12778Y246004D01*
X12823Y245960D01*
X12867Y245899D01*
X12912Y245826D01*
X12961Y245743D01*
X13000Y245649D01*
Y245643D01*
X13006Y245638D01*
X13011Y245621D01*
X13017Y245599D01*
X13034Y245543D01*
X13050Y245466D01*
X13067Y245377D01*
X13084Y245266D01*
X13095Y245149D01*
X13100Y245016D01*
Y244955D01*
X13095Y244894D01*
X13089Y244811D01*
X13078Y244716D01*
X13061Y244622D01*
X13039Y244528D01*
X13011Y244439D01*
X13006Y244428D01*
X12995Y244400D01*
X12978Y244361D01*
X12956Y244311D01*
X12923Y244256D01*
X12889Y244200D01*
X12845Y244150D01*
X12800Y244106D01*
X12795Y244100D01*
X12778Y244089D01*
X12751Y244073D01*
X12717Y244050D01*
X12667Y244023D01*
X12617Y244000D01*
X12556Y243978D01*
X12484Y243962D01*
X12479D01*
X12462Y243956D01*
X12429Y243951D01*
X12384Y243945D01*
X12323D01*
X12251Y243939D01*
X12157Y243934D01*
X12051D01*
X11419D01*
X11413D01*
X11391D01*
X11357D01*
X11313D01*
X11263D01*
X11202D01*
X11069Y243928D01*
X10930D01*
X10791Y243923D01*
X10730Y243917D01*
X10675D01*
X10625Y243912D01*
X10586Y243906D01*
X10581D01*
X10558Y243900D01*
X10525Y243895D01*
X10481Y243878D01*
X10431Y243867D01*
X10375Y243845D01*
X10314Y243817D01*
X10253Y243790D01*
Y244284D01*
X10259Y244289D01*
X10281Y244295D01*
X10309Y244306D01*
X10353Y244322D01*
X10403Y244339D01*
X10464Y244350D01*
X10531Y244361D01*
X10603Y244372D01*
Y244378D01*
X10592Y244383D01*
X10564Y244417D01*
X10525Y244467D01*
X10475Y244533D01*
X10425Y244617D01*
X10370Y244700D01*
X10320Y244789D01*
X10281Y244883D01*
X10275Y244894D01*
X10270Y244927D01*
X10253Y244977D01*
X10236Y245038D01*
X10220Y245116D01*
X10209Y245205D01*
X10198Y245305D01*
X10192Y245405D01*
Y245449D01*
X10198Y245482D01*
Y245521D01*
X10203Y245566D01*
X10220Y245665D01*
X10248Y245776D01*
X10286Y245899D01*
X10342Y246009D01*
X10414Y246109D01*
X10425Y246121D01*
X10453Y246148D01*
X10503Y246187D01*
X10569Y246232D01*
X10653Y246276D01*
X10747Y246315D01*
X10864Y246342D01*
X10919Y246348D01*
X10986Y246354D01*
X10997D01*
X11019D01*
X11058Y246348D01*
D02*
G37*
G36*
X16976Y246570D02*
X17032D01*
X17087Y246565D01*
X17160Y246559D01*
X17232Y246548D01*
X17393Y246520D01*
X17570Y246481D01*
X17748Y246426D01*
X17920Y246348D01*
X17925Y246342D01*
X17942Y246337D01*
X17964Y246326D01*
X17992Y246304D01*
X18031Y246282D01*
X18075Y246254D01*
X18175Y246182D01*
X18286Y246087D01*
X18397Y245976D01*
X18508Y245849D01*
X18602Y245699D01*
X18608Y245693D01*
X18614Y245676D01*
X18625Y245654D01*
X18641Y245627D01*
X18658Y245582D01*
X18675Y245538D01*
X18697Y245482D01*
X18719Y245421D01*
X18741Y245355D01*
X18764Y245283D01*
X18797Y245127D01*
X18824Y244950D01*
X18836Y244766D01*
Y244711D01*
X18830Y244672D01*
X18824Y244622D01*
X18819Y244561D01*
X18813Y244500D01*
X18797Y244428D01*
X18764Y244278D01*
X18713Y244111D01*
X18680Y244028D01*
X18641Y243951D01*
X18591Y243873D01*
X18541Y243795D01*
X18536Y243790D01*
X18530Y243778D01*
X18514Y243756D01*
X18486Y243728D01*
X18458Y243701D01*
X18419Y243662D01*
X18375Y243623D01*
X18330Y243579D01*
X18275Y243534D01*
X18208Y243490D01*
X18142Y243440D01*
X18070Y243395D01*
X17986Y243357D01*
X17903Y243312D01*
X17814Y243279D01*
X17715Y243246D01*
X17598Y243745D01*
X17604D01*
X17615Y243751D01*
X17637Y243762D01*
X17664Y243773D01*
X17698Y243784D01*
X17742Y243801D01*
X17831Y243845D01*
X17931Y243900D01*
X18031Y243967D01*
X18125Y244050D01*
X18208Y244139D01*
X18220Y244150D01*
X18242Y244184D01*
X18270Y244239D01*
X18308Y244311D01*
X18342Y244406D01*
X18375Y244511D01*
X18397Y244639D01*
X18403Y244777D01*
Y244822D01*
X18397Y244850D01*
Y244888D01*
X18392Y244933D01*
X18375Y245038D01*
X18353Y245155D01*
X18314Y245277D01*
X18258Y245405D01*
X18186Y245521D01*
Y245527D01*
X18175Y245532D01*
X18147Y245571D01*
X18103Y245621D01*
X18036Y245682D01*
X17953Y245754D01*
X17859Y245821D01*
X17742Y245882D01*
X17615Y245937D01*
X17609D01*
X17598Y245943D01*
X17581Y245949D01*
X17554Y245954D01*
X17520Y245965D01*
X17481Y245976D01*
X17387Y245993D01*
X17276Y246015D01*
X17154Y246037D01*
X17021Y246048D01*
X16876Y246054D01*
X16871D01*
X16854D01*
X16826D01*
X16793D01*
X16754Y246048D01*
X16704D01*
X16649Y246043D01*
X16588Y246037D01*
X16455Y246021D01*
X16310Y245993D01*
X16166Y245960D01*
X16022Y245915D01*
X16016D01*
X16005Y245910D01*
X15989Y245899D01*
X15961Y245887D01*
X15894Y245854D01*
X15816Y245804D01*
X15728Y245743D01*
X15633Y245665D01*
X15550Y245577D01*
X15472Y245471D01*
Y245466D01*
X15467Y245455D01*
X15456Y245438D01*
X15445Y245416D01*
X15433Y245388D01*
X15417Y245355D01*
X15383Y245277D01*
X15350Y245177D01*
X15323Y245066D01*
X15300Y244944D01*
X15295Y244816D01*
Y244777D01*
X15300Y244744D01*
Y244705D01*
X15306Y244666D01*
X15328Y244566D01*
X15356Y244450D01*
X15400Y244333D01*
X15461Y244211D01*
X15495Y244150D01*
X15539Y244095D01*
X15544Y244089D01*
X15550Y244084D01*
X15567Y244067D01*
X15583Y244045D01*
X15611Y244023D01*
X15644Y243995D01*
X15678Y243962D01*
X15722Y243934D01*
X15772Y243900D01*
X15827Y243862D01*
X15883Y243828D01*
X15950Y243795D01*
X16022Y243767D01*
X16099Y243740D01*
X16183Y243712D01*
X16272Y243690D01*
X16144Y243179D01*
X16138D01*
X16116Y243185D01*
X16083Y243196D01*
X16038Y243212D01*
X15989Y243229D01*
X15927Y243251D01*
X15861Y243279D01*
X15789Y243312D01*
X15633Y243390D01*
X15478Y243490D01*
X15400Y243551D01*
X15323Y243612D01*
X15256Y243678D01*
X15189Y243756D01*
X15184Y243762D01*
X15173Y243773D01*
X15161Y243801D01*
X15139Y243828D01*
X15112Y243873D01*
X15084Y243917D01*
X15056Y243978D01*
X15028Y244039D01*
X14995Y244111D01*
X14967Y244189D01*
X14940Y244272D01*
X14912Y244361D01*
X14889Y244456D01*
X14878Y244555D01*
X14867Y244661D01*
X14862Y244772D01*
Y244833D01*
X14867Y244877D01*
Y244927D01*
X14873Y244988D01*
X14884Y245055D01*
X14895Y245133D01*
X14923Y245294D01*
X14967Y245460D01*
X15028Y245627D01*
X15067Y245704D01*
X15112Y245782D01*
X15117Y245788D01*
X15123Y245799D01*
X15139Y245821D01*
X15161Y245843D01*
X15184Y245876D01*
X15217Y245915D01*
X15256Y245960D01*
X15300Y246004D01*
X15350Y246048D01*
X15400Y246098D01*
X15528Y246198D01*
X15678Y246293D01*
X15844Y246376D01*
X15850D01*
X15866Y246387D01*
X15894Y246392D01*
X15927Y246409D01*
X15972Y246420D01*
X16027Y246437D01*
X16088Y246459D01*
X16155Y246476D01*
X16227Y246492D01*
X16310Y246515D01*
X16482Y246542D01*
X16677Y246565D01*
X16876Y246576D01*
X16882D01*
X16904D01*
X16938D01*
X16976Y246570D01*
D02*
G37*
G36*
X7049Y244772D02*
X7110Y244766D01*
X7176Y244761D01*
X7254Y244750D01*
X7332Y244733D01*
X7509Y244689D01*
X7598Y244661D01*
X7692Y244628D01*
X7781Y244583D01*
X7864Y244533D01*
X7948Y244478D01*
X8025Y244417D01*
X8031Y244411D01*
X8042Y244400D01*
X8059Y244378D01*
X8086Y244350D01*
X8114Y244317D01*
X8147Y244272D01*
X8186Y244222D01*
X8220Y244161D01*
X8258Y244100D01*
X8292Y244028D01*
X8325Y243951D01*
X8353Y243867D01*
X8381Y243778D01*
X8397Y243684D01*
X8408Y243584D01*
X8414Y243479D01*
Y243423D01*
X8408Y243384D01*
X8403Y243340D01*
X8392Y243285D01*
X8381Y243223D01*
X8364Y243151D01*
X8347Y243085D01*
X8320Y243007D01*
X8292Y242935D01*
X8253Y242857D01*
X8208Y242779D01*
X8158Y242702D01*
X8098Y242630D01*
X8031Y242563D01*
X8025Y242557D01*
X8014Y242546D01*
X7992Y242530D01*
X7959Y242508D01*
X7920Y242480D01*
X7875Y242452D01*
X7820Y242419D01*
X7753Y242385D01*
X7681Y242352D01*
X7604Y242319D01*
X7515Y242291D01*
X7420Y242263D01*
X7315Y242241D01*
X7204Y242224D01*
X7087Y242213D01*
X6960Y242208D01*
X6954D01*
X6932D01*
X6893D01*
X6838Y242213D01*
Y244295D01*
X6832D01*
X6815D01*
X6793Y244289D01*
X6760D01*
X6721Y244284D01*
X6677Y244272D01*
X6577Y244256D01*
X6466Y244222D01*
X6344Y244178D01*
X6233Y244117D01*
X6133Y244039D01*
Y244034D01*
X6122Y244028D01*
X6094Y243995D01*
X6055Y243945D01*
X6016Y243878D01*
X5972Y243790D01*
X5933Y243690D01*
X5905Y243579D01*
X5900Y243518D01*
X5894Y243451D01*
Y243407D01*
X5900Y243357D01*
X5911Y243296D01*
X5927Y243229D01*
X5950Y243151D01*
X5983Y243079D01*
X6027Y243007D01*
X6033Y243001D01*
X6055Y242974D01*
X6088Y242940D01*
X6133Y242901D01*
X6194Y242857D01*
X6272Y242807D01*
X6360Y242757D01*
X6466Y242713D01*
X6405Y242224D01*
X6399D01*
X6388Y242230D01*
X6366Y242235D01*
X6333Y242247D01*
X6299Y242263D01*
X6255Y242280D01*
X6160Y242324D01*
X6055Y242380D01*
X5944Y242458D01*
X5839Y242546D01*
X5739Y242657D01*
Y242663D01*
X5728Y242674D01*
X5717Y242691D01*
X5700Y242713D01*
X5683Y242746D01*
X5667Y242779D01*
X5644Y242824D01*
X5622Y242874D01*
X5600Y242929D01*
X5578Y242985D01*
X5545Y243124D01*
X5517Y243279D01*
X5506Y243451D01*
Y243512D01*
X5511Y243551D01*
X5517Y243601D01*
X5528Y243662D01*
X5539Y243728D01*
X5550Y243801D01*
X5594Y243956D01*
X5628Y244039D01*
X5661Y244117D01*
X5705Y244200D01*
X5755Y244278D01*
X5811Y244350D01*
X5878Y244422D01*
X5883Y244428D01*
X5894Y244439D01*
X5916Y244456D01*
X5950Y244478D01*
X5988Y244506D01*
X6033Y244533D01*
X6088Y244566D01*
X6149Y244600D01*
X6222Y244633D01*
X6299Y244666D01*
X6388Y244694D01*
X6482Y244722D01*
X6582Y244744D01*
X6693Y244761D01*
X6810Y244772D01*
X6932Y244777D01*
X6938D01*
X6965D01*
X6999D01*
X7049Y244772D01*
D02*
G37*
G36*
X9407Y241170D02*
X5567D01*
Y241642D01*
X9407D01*
Y241170D01*
D02*
G37*
G36*
X14094Y242735D02*
X12717D01*
X12723Y242729D01*
X12734Y242718D01*
X12751Y242702D01*
X12778Y242674D01*
X12806Y242646D01*
X12839Y242607D01*
X12873Y242557D01*
X12912Y242508D01*
X12945Y242452D01*
X12978Y242391D01*
X13039Y242247D01*
X13067Y242169D01*
X13084Y242086D01*
X13095Y241997D01*
X13100Y241908D01*
Y241858D01*
X13095Y241797D01*
X13084Y241725D01*
X13072Y241642D01*
X13050Y241553D01*
X13017Y241464D01*
X12978Y241375D01*
X12973Y241364D01*
X12956Y241336D01*
X12928Y241298D01*
X12889Y241248D01*
X12839Y241198D01*
X12784Y241142D01*
X12717Y241092D01*
X12640Y241048D01*
X12629Y241042D01*
X12601Y241031D01*
X12551Y241015D01*
X12479Y240998D01*
X12390Y240981D01*
X12284Y240965D01*
X12157Y240953D01*
X12012Y240948D01*
X10253D01*
Y241420D01*
X12018D01*
X12024D01*
X12035D01*
X12051D01*
X12073D01*
X12134Y241425D01*
X12212Y241436D01*
X12296Y241459D01*
X12379Y241486D01*
X12462Y241525D01*
X12529Y241575D01*
X12534Y241581D01*
X12556Y241603D01*
X12584Y241636D01*
X12612Y241686D01*
X12645Y241747D01*
X12667Y241819D01*
X12689Y241908D01*
X12695Y242008D01*
Y242041D01*
X12689Y242080D01*
X12684Y242136D01*
X12667Y242191D01*
X12651Y242258D01*
X12623Y242324D01*
X12584Y242396D01*
X12578Y242402D01*
X12562Y242424D01*
X12540Y242458D01*
X12506Y242496D01*
X12462Y242541D01*
X12412Y242585D01*
X12351Y242624D01*
X12284Y242657D01*
X12273Y242663D01*
X12251Y242668D01*
X12207Y242680D01*
X12151Y242696D01*
X12079Y242713D01*
X11990Y242724D01*
X11890Y242729D01*
X11774Y242735D01*
X10253D01*
Y243207D01*
X14094D01*
Y242735D01*
D02*
G37*
G36*
X18769Y239766D02*
X18314D01*
Y242036D01*
X17143D01*
Y239910D01*
X16688D01*
Y242036D01*
X15383D01*
Y239677D01*
X14928D01*
Y242546D01*
X18769D01*
Y239766D01*
D02*
G37*
G36*
X11735Y240376D02*
X11796Y240371D01*
X11863Y240365D01*
X11940Y240354D01*
X12018Y240337D01*
X12196Y240293D01*
X12284Y240265D01*
X12379Y240232D01*
X12467Y240188D01*
X12551Y240138D01*
X12634Y240082D01*
X12712Y240021D01*
X12717Y240016D01*
X12728Y240004D01*
X12745Y239982D01*
X12773Y239954D01*
X12800Y239921D01*
X12834Y239877D01*
X12873Y239827D01*
X12906Y239766D01*
X12945Y239705D01*
X12978Y239633D01*
X13011Y239555D01*
X13039Y239472D01*
X13067Y239383D01*
X13084Y239288D01*
X13095Y239189D01*
X13100Y239083D01*
Y239028D01*
X13095Y238989D01*
X13089Y238944D01*
X13078Y238889D01*
X13067Y238828D01*
X13050Y238756D01*
X13034Y238689D01*
X13006Y238611D01*
X12978Y238539D01*
X12939Y238461D01*
X12895Y238384D01*
X12845Y238306D01*
X12784Y238234D01*
X12717Y238167D01*
X12712Y238162D01*
X12701Y238151D01*
X12678Y238134D01*
X12645Y238112D01*
X12606Y238084D01*
X12562Y238056D01*
X12506Y238023D01*
X12440Y237990D01*
X12368Y237957D01*
X12290Y237923D01*
X12201Y237895D01*
X12107Y237868D01*
X12001Y237845D01*
X11890Y237829D01*
X11774Y237818D01*
X11646Y237812D01*
X11641D01*
X11618D01*
X11580D01*
X11524Y237818D01*
Y239899D01*
X11519D01*
X11502D01*
X11480Y239893D01*
X11446D01*
X11407Y239888D01*
X11363Y239877D01*
X11263Y239860D01*
X11152Y239827D01*
X11030Y239782D01*
X10919Y239721D01*
X10819Y239644D01*
Y239638D01*
X10808Y239633D01*
X10780Y239599D01*
X10741Y239549D01*
X10703Y239483D01*
X10658Y239394D01*
X10619Y239294D01*
X10592Y239183D01*
X10586Y239122D01*
X10581Y239055D01*
Y239011D01*
X10586Y238961D01*
X10597Y238900D01*
X10614Y238833D01*
X10636Y238756D01*
X10669Y238684D01*
X10714Y238611D01*
X10719Y238606D01*
X10741Y238578D01*
X10775Y238545D01*
X10819Y238506D01*
X10880Y238461D01*
X10958Y238412D01*
X11047Y238362D01*
X11152Y238317D01*
X11091Y237829D01*
X11086D01*
X11074Y237834D01*
X11052Y237840D01*
X11019Y237851D01*
X10986Y237868D01*
X10941Y237884D01*
X10847Y237929D01*
X10741Y237984D01*
X10631Y238062D01*
X10525Y238151D01*
X10425Y238262D01*
Y238267D01*
X10414Y238278D01*
X10403Y238295D01*
X10386Y238317D01*
X10370Y238351D01*
X10353Y238384D01*
X10331Y238428D01*
X10309Y238478D01*
X10286Y238534D01*
X10264Y238589D01*
X10231Y238728D01*
X10203Y238883D01*
X10192Y239055D01*
Y239116D01*
X10198Y239155D01*
X10203Y239205D01*
X10214Y239266D01*
X10225Y239333D01*
X10236Y239405D01*
X10281Y239560D01*
X10314Y239644D01*
X10347Y239721D01*
X10392Y239805D01*
X10442Y239882D01*
X10497Y239954D01*
X10564Y240027D01*
X10569Y240032D01*
X10581Y240043D01*
X10603Y240060D01*
X10636Y240082D01*
X10675Y240110D01*
X10719Y240138D01*
X10775Y240171D01*
X10836Y240204D01*
X10908Y240237D01*
X10986Y240271D01*
X11074Y240299D01*
X11169Y240326D01*
X11269Y240349D01*
X11380Y240365D01*
X11496Y240376D01*
X11618Y240382D01*
X11624D01*
X11652D01*
X11685D01*
X11735Y240376D01*
D02*
G37*
G36*
X17820Y238800D02*
X17831Y238789D01*
X17837Y238767D01*
X17853Y238739D01*
X17870Y238706D01*
X17892Y238667D01*
X17948Y238573D01*
X18009Y238461D01*
X18086Y238351D01*
X18175Y238234D01*
X18270Y238117D01*
X18275Y238112D01*
X18281Y238106D01*
X18297Y238090D01*
X18314Y238068D01*
X18369Y238018D01*
X18436Y237951D01*
X18514Y237884D01*
X18602Y237812D01*
X18691Y237751D01*
X18786Y237696D01*
Y237390D01*
X14928D01*
Y237862D01*
X17931D01*
X17925Y237868D01*
X17903Y237895D01*
X17870Y237929D01*
X17831Y237984D01*
X17781Y238045D01*
X17726Y238123D01*
X17664Y238212D01*
X17604Y238312D01*
Y238317D01*
X17598Y238323D01*
X17576Y238356D01*
X17548Y238412D01*
X17515Y238478D01*
X17476Y238556D01*
X17437Y238639D01*
X17398Y238722D01*
X17365Y238806D01*
X17820D01*
Y238800D01*
D02*
G37*
G36*
X9407Y238728D02*
X6616Y237729D01*
X6610D01*
X6599Y237723D01*
X6582Y237718D01*
X6560Y237707D01*
X6527Y237701D01*
X6493Y237690D01*
X6410Y237662D01*
X6316Y237629D01*
X6211Y237596D01*
X5988Y237529D01*
X5994D01*
X6005Y237524D01*
X6022Y237518D01*
X6044Y237512D01*
X6105Y237496D01*
X6188Y237468D01*
X6283Y237440D01*
X6388Y237407D01*
X6499Y237368D01*
X6616Y237324D01*
X9407Y236280D01*
Y235764D01*
X5567Y237263D01*
Y237795D01*
X9407Y239283D01*
Y238728D01*
D02*
G37*
G36*
X11735Y237390D02*
X11796Y237385D01*
X11863Y237379D01*
X11940Y237368D01*
X12018Y237351D01*
X12196Y237307D01*
X12284Y237279D01*
X12379Y237246D01*
X12467Y237202D01*
X12551Y237152D01*
X12634Y237096D01*
X12712Y237035D01*
X12717Y237030D01*
X12728Y237018D01*
X12745Y236996D01*
X12773Y236969D01*
X12800Y236935D01*
X12834Y236891D01*
X12873Y236841D01*
X12906Y236780D01*
X12945Y236719D01*
X12978Y236647D01*
X13011Y236569D01*
X13039Y236486D01*
X13067Y236397D01*
X13084Y236303D01*
X13095Y236203D01*
X13100Y236097D01*
Y236042D01*
X13095Y236003D01*
X13089Y235959D01*
X13078Y235903D01*
X13067Y235842D01*
X13050Y235770D01*
X13034Y235703D01*
X13006Y235626D01*
X12978Y235553D01*
X12939Y235476D01*
X12895Y235398D01*
X12845Y235320D01*
X12784Y235248D01*
X12717Y235181D01*
X12712Y235176D01*
X12701Y235165D01*
X12678Y235148D01*
X12645Y235126D01*
X12606Y235098D01*
X12562Y235070D01*
X12506Y235037D01*
X12440Y235004D01*
X12368Y234971D01*
X12290Y234937D01*
X12201Y234910D01*
X12107Y234882D01*
X12001Y234860D01*
X11890Y234843D01*
X11774Y234832D01*
X11646Y234826D01*
X11641D01*
X11618D01*
X11580D01*
X11524Y234832D01*
Y236913D01*
X11519D01*
X11502D01*
X11480Y236908D01*
X11446D01*
X11407Y236902D01*
X11363Y236891D01*
X11263Y236874D01*
X11152Y236841D01*
X11030Y236796D01*
X10919Y236736D01*
X10819Y236658D01*
Y236652D01*
X10808Y236647D01*
X10780Y236613D01*
X10741Y236563D01*
X10703Y236497D01*
X10658Y236408D01*
X10619Y236308D01*
X10592Y236197D01*
X10586Y236136D01*
X10581Y236069D01*
Y236025D01*
X10586Y235975D01*
X10597Y235914D01*
X10614Y235847D01*
X10636Y235770D01*
X10669Y235698D01*
X10714Y235626D01*
X10719Y235620D01*
X10741Y235592D01*
X10775Y235559D01*
X10819Y235520D01*
X10880Y235476D01*
X10958Y235426D01*
X11047Y235376D01*
X11152Y235331D01*
X11091Y234843D01*
X11086D01*
X11074Y234848D01*
X11052Y234854D01*
X11019Y234865D01*
X10986Y234882D01*
X10941Y234898D01*
X10847Y234943D01*
X10741Y234998D01*
X10631Y235076D01*
X10525Y235165D01*
X10425Y235276D01*
Y235281D01*
X10414Y235293D01*
X10403Y235309D01*
X10386Y235331D01*
X10370Y235365D01*
X10353Y235398D01*
X10331Y235442D01*
X10309Y235492D01*
X10286Y235548D01*
X10264Y235603D01*
X10231Y235742D01*
X10203Y235897D01*
X10192Y236069D01*
Y236130D01*
X10198Y236169D01*
X10203Y236219D01*
X10214Y236280D01*
X10225Y236347D01*
X10236Y236419D01*
X10281Y236575D01*
X10314Y236658D01*
X10347Y236736D01*
X10392Y236819D01*
X10442Y236896D01*
X10497Y236969D01*
X10564Y237041D01*
X10569Y237046D01*
X10581Y237057D01*
X10603Y237074D01*
X10636Y237096D01*
X10675Y237124D01*
X10719Y237152D01*
X10775Y237185D01*
X10836Y237218D01*
X10908Y237252D01*
X10986Y237285D01*
X11074Y237313D01*
X11169Y237340D01*
X11269Y237363D01*
X11380Y237379D01*
X11496Y237390D01*
X11618Y237396D01*
X11624D01*
X11652D01*
X11685D01*
X11735Y237390D01*
D02*
G37*
G36*
X16094Y236180D02*
X16127D01*
X16166Y236175D01*
X16255Y236164D01*
X16355Y236142D01*
X16455Y236108D01*
X16560Y236058D01*
X16660Y235997D01*
X16666D01*
X16671Y235986D01*
X16699Y235964D01*
X16743Y235920D01*
X16799Y235859D01*
X16854Y235781D01*
X16915Y235686D01*
X16965Y235581D01*
X17004Y235453D01*
Y235459D01*
X17010Y235465D01*
X17015Y235481D01*
X17026Y235503D01*
X17049Y235553D01*
X17082Y235620D01*
X17126Y235692D01*
X17182Y235764D01*
X17243Y235831D01*
X17309Y235892D01*
X17320Y235897D01*
X17343Y235914D01*
X17387Y235936D01*
X17443Y235959D01*
X17515Y235986D01*
X17598Y236008D01*
X17692Y236025D01*
X17792Y236031D01*
X17798D01*
X17809D01*
X17831D01*
X17864Y236025D01*
X17898Y236019D01*
X17942Y236014D01*
X18036Y235992D01*
X18147Y235959D01*
X18264Y235903D01*
X18325Y235870D01*
X18386Y235831D01*
X18442Y235781D01*
X18497Y235731D01*
X18503Y235725D01*
X18508Y235714D01*
X18525Y235698D01*
X18541Y235675D01*
X18564Y235648D01*
X18586Y235609D01*
X18614Y235564D01*
X18641Y235520D01*
X18669Y235465D01*
X18697Y235403D01*
X18719Y235337D01*
X18741Y235265D01*
X18775Y235109D01*
X18780Y235020D01*
X18786Y234932D01*
Y234882D01*
X18780Y234848D01*
X18775Y234804D01*
X18769Y234754D01*
X18764Y234699D01*
X18747Y234643D01*
X18713Y234510D01*
X18664Y234377D01*
X18630Y234310D01*
X18591Y234243D01*
X18541Y234183D01*
X18492Y234121D01*
X18486Y234116D01*
X18480Y234110D01*
X18464Y234094D01*
X18442Y234071D01*
X18408Y234049D01*
X18375Y234021D01*
X18292Y233966D01*
X18186Y233910D01*
X18064Y233861D01*
X17925Y233822D01*
X17853Y233816D01*
X17776Y233811D01*
X17770D01*
X17764D01*
X17731D01*
X17681Y233816D01*
X17620Y233827D01*
X17542Y233844D01*
X17465Y233872D01*
X17387Y233905D01*
X17309Y233955D01*
X17298Y233961D01*
X17276Y233983D01*
X17243Y234016D01*
X17198Y234060D01*
X17148Y234121D01*
X17098Y234194D01*
X17049Y234277D01*
X17004Y234377D01*
Y234371D01*
X16999Y234360D01*
X16993Y234343D01*
X16982Y234321D01*
X16954Y234255D01*
X16915Y234177D01*
X16860Y234094D01*
X16799Y234005D01*
X16721Y233922D01*
X16632Y233844D01*
X16627D01*
X16621Y233838D01*
X16588Y233816D01*
X16532Y233783D01*
X16460Y233750D01*
X16371Y233716D01*
X16266Y233683D01*
X16149Y233661D01*
X16022Y233655D01*
X16016D01*
X16000D01*
X15972D01*
X15938Y233661D01*
X15900Y233666D01*
X15850Y233672D01*
X15794Y233683D01*
X15733Y233700D01*
X15606Y233738D01*
X15533Y233766D01*
X15467Y233805D01*
X15395Y233844D01*
X15328Y233888D01*
X15261Y233944D01*
X15195Y234005D01*
X15189Y234010D01*
X15178Y234021D01*
X15161Y234038D01*
X15145Y234066D01*
X15117Y234105D01*
X15089Y234144D01*
X15062Y234194D01*
X15028Y234249D01*
X14995Y234310D01*
X14967Y234382D01*
X14940Y234460D01*
X14912Y234538D01*
X14895Y234627D01*
X14878Y234721D01*
X14867Y234815D01*
X14862Y234921D01*
Y234976D01*
X14867Y235015D01*
X14873Y235065D01*
X14878Y235120D01*
X14889Y235181D01*
X14906Y235248D01*
X14945Y235398D01*
X14973Y235476D01*
X15001Y235548D01*
X15039Y235626D01*
X15084Y235703D01*
X15134Y235775D01*
X15195Y235842D01*
X15200Y235847D01*
X15211Y235859D01*
X15228Y235875D01*
X15256Y235897D01*
X15289Y235920D01*
X15328Y235953D01*
X15372Y235981D01*
X15428Y236014D01*
X15483Y236047D01*
X15550Y236075D01*
X15689Y236130D01*
X15772Y236153D01*
X15855Y236169D01*
X15944Y236180D01*
X16033Y236186D01*
X16038D01*
X16049D01*
X16072D01*
X16094Y236180D01*
D02*
G37*
G36*
X14094Y233788D02*
X10253D01*
Y234260D01*
X14094D01*
Y233788D01*
D02*
G37*
G36*
X9407Y232551D02*
X8952D01*
Y233816D01*
X5567D01*
Y234327D01*
X8952D01*
Y235592D01*
X9407D01*
Y232551D01*
D02*
G37*
G36*
X17581Y233189D02*
X17631Y233184D01*
X17692Y233178D01*
X17753Y233167D01*
X17826Y233150D01*
X17970Y233111D01*
X18047Y233084D01*
X18131Y233050D01*
X18208Y233011D01*
X18281Y232962D01*
X18358Y232911D01*
X18425Y232851D01*
X18430Y232845D01*
X18442Y232834D01*
X18458Y232817D01*
X18480Y232789D01*
X18508Y232756D01*
X18541Y232712D01*
X18569Y232667D01*
X18608Y232612D01*
X18641Y232556D01*
X18669Y232490D01*
X18730Y232340D01*
X18752Y232262D01*
X18769Y232173D01*
X18780Y232085D01*
X18786Y231990D01*
Y231951D01*
X18780Y231924D01*
Y231896D01*
X18775Y231857D01*
X18758Y231763D01*
X18736Y231657D01*
X18697Y231541D01*
X18647Y231424D01*
X18580Y231308D01*
Y231302D01*
X18569Y231296D01*
X18558Y231280D01*
X18541Y231258D01*
X18497Y231202D01*
X18436Y231130D01*
X18353Y231058D01*
X18253Y230975D01*
X18136Y230902D01*
X18003Y230836D01*
X17998D01*
X17986Y230830D01*
X17964Y230819D01*
X17936Y230808D01*
X17898Y230797D01*
X17848Y230780D01*
X17792Y230769D01*
X17731Y230753D01*
X17659Y230736D01*
X17576Y230719D01*
X17487Y230708D01*
X17393Y230697D01*
X17287Y230686D01*
X17176Y230675D01*
X17054Y230669D01*
X16926D01*
X16921D01*
X16893D01*
X16854D01*
X16804D01*
X16743Y230675D01*
X16671D01*
X16588Y230680D01*
X16505Y230692D01*
X16316Y230708D01*
X16116Y230736D01*
X15927Y230775D01*
X15833Y230802D01*
X15750Y230830D01*
X15744D01*
X15733Y230836D01*
X15711Y230847D01*
X15678Y230858D01*
X15644Y230875D01*
X15600Y230897D01*
X15506Y230952D01*
X15400Y231019D01*
X15289Y231097D01*
X15184Y231197D01*
X15089Y231308D01*
Y231313D01*
X15078Y231324D01*
X15067Y231341D01*
X15056Y231363D01*
X15039Y231396D01*
X15017Y231430D01*
X14995Y231474D01*
X14978Y231519D01*
X14934Y231624D01*
X14895Y231752D01*
X14873Y231890D01*
X14862Y232046D01*
Y232090D01*
X14867Y232118D01*
Y232157D01*
X14873Y232201D01*
X14895Y232307D01*
X14923Y232423D01*
X14967Y232545D01*
X15028Y232667D01*
X15067Y232728D01*
X15112Y232784D01*
X15117Y232789D01*
X15123Y232795D01*
X15139Y232812D01*
X15156Y232828D01*
X15184Y232851D01*
X15217Y232878D01*
X15295Y232934D01*
X15395Y232989D01*
X15517Y233045D01*
X15655Y233089D01*
X15816Y233122D01*
X15855Y232667D01*
X15850D01*
X15839Y232662D01*
X15827D01*
X15805Y232656D01*
X15744Y232640D01*
X15678Y232617D01*
X15600Y232590D01*
X15522Y232551D01*
X15450Y232506D01*
X15389Y232451D01*
X15383Y232445D01*
X15367Y232423D01*
X15345Y232384D01*
X15323Y232340D01*
X15295Y232279D01*
X15272Y232207D01*
X15256Y232123D01*
X15250Y232035D01*
Y231996D01*
X15256Y231957D01*
X15261Y231907D01*
X15272Y231846D01*
X15289Y231785D01*
X15311Y231718D01*
X15345Y231657D01*
X15350Y231652D01*
X15361Y231629D01*
X15383Y231596D01*
X15417Y231563D01*
X15456Y231519D01*
X15500Y231474D01*
X15550Y231430D01*
X15611Y231385D01*
X15617Y231380D01*
X15644Y231369D01*
X15683Y231346D01*
X15733Y231324D01*
X15800Y231296D01*
X15877Y231269D01*
X15966Y231241D01*
X16066Y231213D01*
X16072D01*
X16077Y231208D01*
X16094D01*
X16116Y231202D01*
X16172Y231191D01*
X16244Y231174D01*
X16333Y231163D01*
X16427Y231152D01*
X16532Y231147D01*
X16643Y231141D01*
X16649D01*
X16666D01*
X16693D01*
X16738D01*
X16727Y231147D01*
X16699Y231169D01*
X16660Y231202D01*
X16604Y231241D01*
X16549Y231296D01*
X16488Y231363D01*
X16427Y231441D01*
X16371Y231530D01*
X16366Y231541D01*
X16349Y231574D01*
X16327Y231624D01*
X16305Y231685D01*
X16277Y231768D01*
X16255Y231857D01*
X16238Y231957D01*
X16233Y232062D01*
Y232107D01*
X16238Y232140D01*
X16244Y232185D01*
X16249Y232229D01*
X16260Y232284D01*
X16277Y232340D01*
X16316Y232468D01*
X16344Y232534D01*
X16377Y232601D01*
X16416Y232673D01*
X16466Y232739D01*
X16516Y232806D01*
X16577Y232867D01*
X16582Y232873D01*
X16593Y232884D01*
X16610Y232895D01*
X16638Y232917D01*
X16677Y232945D01*
X16715Y232973D01*
X16766Y233000D01*
X16821Y233028D01*
X16882Y233061D01*
X16949Y233089D01*
X17026Y233117D01*
X17104Y233145D01*
X17193Y233167D01*
X17287Y233178D01*
X17381Y233189D01*
X17487Y233195D01*
X17492D01*
X17515D01*
X17542D01*
X17581Y233189D01*
D02*
G37*
G36*
X14094Y228882D02*
X13639D01*
Y230969D01*
X12451D01*
Y229165D01*
X11996D01*
Y230969D01*
X10253D01*
Y231480D01*
X14094D01*
Y228882D01*
D02*
G37*
G36*
X9407Y231280D02*
X6682Y230370D01*
X6677D01*
X6666Y230364D01*
X6649Y230359D01*
X6621Y230347D01*
X6555Y230325D01*
X6471Y230297D01*
X6377Y230270D01*
X6283Y230236D01*
X6194Y230209D01*
X6116Y230187D01*
X6127Y230181D01*
X6155Y230175D01*
X6205Y230159D01*
X6272Y230136D01*
X6360Y230109D01*
X6466Y230070D01*
X6588Y230031D01*
X6732Y229981D01*
X9407Y229060D01*
Y228377D01*
X5567D01*
Y228866D01*
X8780D01*
X5567Y229987D01*
Y230442D01*
X8836Y231552D01*
X5567D01*
Y232040D01*
X9407D01*
Y231280D01*
D02*
G37*
G36*
X15972Y229715D02*
X15966D01*
X15955D01*
X15938Y229709D01*
X15911Y229704D01*
X15850Y229687D01*
X15766Y229665D01*
X15683Y229631D01*
X15589Y229587D01*
X15506Y229532D01*
X15428Y229465D01*
X15422Y229454D01*
X15400Y229432D01*
X15372Y229387D01*
X15339Y229326D01*
X15306Y229260D01*
X15278Y229176D01*
X15256Y229082D01*
X15250Y228977D01*
Y228943D01*
X15256Y228921D01*
X15261Y228854D01*
X15284Y228777D01*
X15311Y228682D01*
X15356Y228588D01*
X15422Y228488D01*
X15461Y228444D01*
X15506Y228399D01*
X15511Y228394D01*
X15517Y228388D01*
X15533Y228377D01*
X15550Y228361D01*
X15611Y228322D01*
X15689Y228277D01*
X15783Y228238D01*
X15900Y228200D01*
X16038Y228172D01*
X16111Y228161D01*
X16188D01*
X16194D01*
X16205D01*
X16227D01*
X16255Y228166D01*
X16288D01*
X16327Y228172D01*
X16416Y228188D01*
X16521Y228216D01*
X16627Y228255D01*
X16727Y228311D01*
X16821Y228388D01*
X16826D01*
X16832Y228399D01*
X16860Y228427D01*
X16899Y228477D01*
X16943Y228544D01*
X16982Y228632D01*
X17021Y228732D01*
X17049Y228849D01*
X17060Y228916D01*
Y229021D01*
X17054Y229065D01*
X17049Y229121D01*
X17032Y229187D01*
X17015Y229254D01*
X16987Y229326D01*
X16954Y229398D01*
X16949Y229404D01*
X16938Y229426D01*
X16910Y229459D01*
X16882Y229504D01*
X16843Y229548D01*
X16793Y229593D01*
X16743Y229643D01*
X16682Y229681D01*
X16743Y230125D01*
X18719Y229754D01*
Y227844D01*
X18270D01*
Y229382D01*
X17232Y229587D01*
X17237Y229581D01*
X17243Y229570D01*
X17254Y229554D01*
X17270Y229526D01*
X17287Y229493D01*
X17309Y229454D01*
X17354Y229365D01*
X17398Y229254D01*
X17437Y229132D01*
X17465Y228999D01*
X17476Y228932D01*
Y228810D01*
X17470Y228777D01*
X17465Y228732D01*
X17459Y228682D01*
X17448Y228627D01*
X17432Y228566D01*
X17393Y228433D01*
X17365Y228361D01*
X17326Y228288D01*
X17287Y228216D01*
X17243Y228144D01*
X17187Y228078D01*
X17126Y228011D01*
X17121Y228005D01*
X17109Y227994D01*
X17093Y227978D01*
X17065Y227955D01*
X17026Y227928D01*
X16987Y227900D01*
X16938Y227867D01*
X16882Y227833D01*
X16821Y227805D01*
X16754Y227772D01*
X16677Y227745D01*
X16599Y227717D01*
X16516Y227695D01*
X16421Y227678D01*
X16327Y227667D01*
X16227Y227661D01*
X16221D01*
X16205D01*
X16177D01*
X16138Y227667D01*
X16094Y227672D01*
X16044Y227678D01*
X15983Y227689D01*
X15922Y227700D01*
X15777Y227733D01*
X15628Y227789D01*
X15550Y227822D01*
X15478Y227867D01*
X15400Y227911D01*
X15328Y227966D01*
X15323Y227972D01*
X15306Y227983D01*
X15284Y228005D01*
X15256Y228033D01*
X15223Y228072D01*
X15178Y228116D01*
X15139Y228172D01*
X15095Y228233D01*
X15051Y228299D01*
X15012Y228377D01*
X14973Y228460D01*
X14934Y228549D01*
X14906Y228644D01*
X14884Y228749D01*
X14867Y228860D01*
X14862Y228977D01*
Y229027D01*
X14867Y229065D01*
X14873Y229110D01*
X14878Y229160D01*
X14884Y229221D01*
X14901Y229282D01*
X14934Y229421D01*
X14984Y229559D01*
X15017Y229631D01*
X15056Y229704D01*
X15100Y229770D01*
X15150Y229837D01*
X15156Y229842D01*
X15161Y229854D01*
X15184Y229865D01*
X15206Y229887D01*
X15234Y229914D01*
X15267Y229942D01*
X15311Y229976D01*
X15361Y230003D01*
X15411Y230037D01*
X15472Y230070D01*
X15606Y230131D01*
X15761Y230181D01*
X15844Y230198D01*
X15933Y230209D01*
X15972Y229715D01*
D02*
G37*
G36*
X11058Y228438D02*
X11108Y228433D01*
X11169Y228422D01*
X11230Y228405D01*
X11297Y228383D01*
X11357Y228355D01*
X11363Y228349D01*
X11385Y228338D01*
X11419Y228316D01*
X11457Y228288D01*
X11502Y228255D01*
X11546Y228211D01*
X11591Y228166D01*
X11630Y228111D01*
X11635Y228105D01*
X11646Y228083D01*
X11668Y228055D01*
X11690Y228011D01*
X11713Y227961D01*
X11740Y227900D01*
X11763Y227839D01*
X11785Y227767D01*
Y227761D01*
X11790Y227739D01*
X11801Y227706D01*
X11807Y227661D01*
X11818Y227606D01*
X11829Y227534D01*
X11846Y227450D01*
X11857Y227350D01*
Y227345D01*
X11863Y227323D01*
Y227295D01*
X11868Y227256D01*
X11874Y227212D01*
X11885Y227156D01*
X11890Y227095D01*
X11901Y227028D01*
X11929Y226895D01*
X11957Y226751D01*
X11990Y226623D01*
X12007Y226562D01*
X12024Y226507D01*
X12029D01*
X12040D01*
X12073Y226501D01*
X12112D01*
X12134D01*
X12146D01*
X12151D01*
X12157D01*
X12190D01*
X12246Y226507D01*
X12307Y226518D01*
X12373Y226535D01*
X12440Y226562D01*
X12501Y226596D01*
X12551Y226640D01*
X12556Y226646D01*
X12578Y226673D01*
X12601Y226718D01*
X12634Y226773D01*
X12662Y226851D01*
X12689Y226940D01*
X12706Y227051D01*
X12712Y227178D01*
Y227234D01*
X12706Y227289D01*
X12695Y227367D01*
X12684Y227445D01*
X12662Y227528D01*
X12634Y227606D01*
X12595Y227672D01*
X12590Y227678D01*
X12573Y227700D01*
X12545Y227728D01*
X12501Y227761D01*
X12445Y227794D01*
X12373Y227833D01*
X12284Y227867D01*
X12184Y227900D01*
X12246Y228361D01*
X12251D01*
X12257Y228355D01*
X12273D01*
X12296Y228349D01*
X12345Y228333D01*
X12418Y228311D01*
X12490Y228283D01*
X12567Y228250D01*
X12645Y228205D01*
X12717Y228155D01*
X12723Y228150D01*
X12745Y228127D01*
X12778Y228094D01*
X12823Y228050D01*
X12867Y227989D01*
X12912Y227917D01*
X12961Y227833D01*
X13000Y227739D01*
Y227733D01*
X13006Y227728D01*
X13011Y227711D01*
X13017Y227689D01*
X13034Y227634D01*
X13050Y227556D01*
X13067Y227467D01*
X13084Y227356D01*
X13095Y227239D01*
X13100Y227106D01*
Y227045D01*
X13095Y226984D01*
X13089Y226901D01*
X13078Y226806D01*
X13061Y226712D01*
X13039Y226618D01*
X13011Y226529D01*
X13006Y226518D01*
X12995Y226490D01*
X12978Y226451D01*
X12956Y226401D01*
X12923Y226346D01*
X12889Y226290D01*
X12845Y226240D01*
X12800Y226196D01*
X12795Y226190D01*
X12778Y226179D01*
X12751Y226163D01*
X12717Y226140D01*
X12667Y226113D01*
X12617Y226091D01*
X12556Y226068D01*
X12484Y226052D01*
X12479D01*
X12462Y226046D01*
X12429Y226041D01*
X12384Y226035D01*
X12323D01*
X12251Y226029D01*
X12157Y226024D01*
X12051D01*
X11419D01*
X11413D01*
X11391D01*
X11357D01*
X11313D01*
X11263D01*
X11202D01*
X11069Y226018D01*
X10930D01*
X10791Y226013D01*
X10730Y226007D01*
X10675D01*
X10625Y226002D01*
X10586Y225996D01*
X10581D01*
X10558Y225991D01*
X10525Y225985D01*
X10481Y225969D01*
X10431Y225957D01*
X10375Y225935D01*
X10314Y225907D01*
X10253Y225880D01*
Y226374D01*
X10259Y226379D01*
X10281Y226385D01*
X10309Y226396D01*
X10353Y226413D01*
X10403Y226429D01*
X10464Y226440D01*
X10531Y226451D01*
X10603Y226462D01*
Y226468D01*
X10592Y226473D01*
X10564Y226507D01*
X10525Y226557D01*
X10475Y226623D01*
X10425Y226707D01*
X10370Y226790D01*
X10320Y226879D01*
X10281Y226973D01*
X10275Y226984D01*
X10270Y227017D01*
X10253Y227067D01*
X10236Y227128D01*
X10220Y227206D01*
X10209Y227295D01*
X10198Y227395D01*
X10192Y227495D01*
Y227539D01*
X10198Y227572D01*
Y227611D01*
X10203Y227656D01*
X10220Y227756D01*
X10248Y227867D01*
X10286Y227989D01*
X10342Y228100D01*
X10414Y228200D01*
X10425Y228211D01*
X10453Y228238D01*
X10503Y228277D01*
X10569Y228322D01*
X10653Y228366D01*
X10747Y228405D01*
X10864Y228433D01*
X10919Y228438D01*
X10986Y228444D01*
X10997D01*
X11019D01*
X11058Y228438D01*
D02*
G37*
G36*
X13039Y224875D02*
X12617D01*
X12623Y224870D01*
X12662Y224847D01*
X12712Y224820D01*
X12773Y224775D01*
X12834Y224731D01*
X12900Y224681D01*
X12956Y224631D01*
X13000Y224581D01*
X13006Y224575D01*
X13017Y224559D01*
X13034Y224525D01*
X13050Y224492D01*
X13067Y224448D01*
X13084Y224392D01*
X13095Y224337D01*
X13100Y224276D01*
Y224237D01*
X13095Y224187D01*
X13084Y224126D01*
X13061Y224054D01*
X13034Y223976D01*
X12995Y223887D01*
X12945Y223793D01*
X12512Y223965D01*
X12517Y223971D01*
X12529Y223993D01*
X12545Y224026D01*
X12562Y224070D01*
X12578Y224120D01*
X12595Y224181D01*
X12606Y224242D01*
X12612Y224304D01*
Y224331D01*
X12606Y224359D01*
X12601Y224398D01*
X12590Y224437D01*
X12573Y224487D01*
X12551Y224537D01*
X12517Y224581D01*
X12512Y224587D01*
X12501Y224603D01*
X12479Y224620D01*
X12451Y224648D01*
X12412Y224675D01*
X12368Y224703D01*
X12318Y224731D01*
X12257Y224753D01*
X12246Y224759D01*
X12212Y224764D01*
X12162Y224775D01*
X12096Y224792D01*
X12012Y224809D01*
X11918Y224820D01*
X11818Y224825D01*
X11707Y224831D01*
X10253D01*
Y225303D01*
X13039D01*
Y224875D01*
D02*
G37*
G36*
X9407Y223271D02*
X8952D01*
Y225541D01*
X7781D01*
Y223415D01*
X7326D01*
Y225541D01*
X6022D01*
Y223182D01*
X5567D01*
Y226052D01*
X9407D01*
Y223271D01*
D02*
G37*
G36*
X8353Y222461D02*
X9041D01*
X9324Y221989D01*
X8353D01*
Y221512D01*
X7987D01*
Y221989D01*
X6349D01*
X6338D01*
X6316D01*
X6283D01*
X6244Y221984D01*
X6155Y221978D01*
X6116Y221972D01*
X6088Y221967D01*
X6077Y221961D01*
X6055Y221945D01*
X6027Y221922D01*
X6000Y221884D01*
X5994Y221873D01*
X5983Y221845D01*
X5972Y221795D01*
X5966Y221723D01*
Y221667D01*
X5972Y221639D01*
Y221601D01*
X5977Y221556D01*
X5983Y221512D01*
X5567Y221451D01*
Y221462D01*
X5561Y221484D01*
X5556Y221523D01*
X5550Y221573D01*
X5539Y221628D01*
X5533Y221689D01*
X5528Y221812D01*
Y221856D01*
X5533Y221900D01*
X5539Y221956D01*
X5545Y222022D01*
X5561Y222089D01*
X5578Y222150D01*
X5605Y222211D01*
X5611Y222217D01*
X5622Y222233D01*
X5639Y222255D01*
X5667Y222289D01*
X5694Y222317D01*
X5733Y222350D01*
X5772Y222383D01*
X5822Y222405D01*
X5827D01*
X5850Y222416D01*
X5889Y222422D01*
X5944Y222433D01*
X6016Y222444D01*
X6061Y222450D01*
X6111D01*
X6172Y222455D01*
X6233Y222461D01*
X6299D01*
X6377D01*
X7987D01*
Y222811D01*
X8353D01*
Y222461D01*
D02*
G37*
G36*
X11718Y223682D02*
X11774D01*
X11835Y223676D01*
X11913Y223665D01*
X11990Y223654D01*
X12079Y223632D01*
X12168Y223610D01*
X12262Y223582D01*
X12362Y223549D01*
X12456Y223504D01*
X12545Y223460D01*
X12634Y223399D01*
X12717Y223338D01*
X12789Y223260D01*
X12795Y223254D01*
X12800Y223243D01*
X12817Y223221D01*
X12839Y223194D01*
X12862Y223160D01*
X12889Y223116D01*
X12917Y223071D01*
X12945Y223016D01*
X12973Y222955D01*
X13000Y222888D01*
X13050Y222738D01*
X13089Y222566D01*
X13095Y222478D01*
X13100Y222383D01*
Y222328D01*
X13095Y222289D01*
X13089Y222239D01*
X13078Y222183D01*
X13067Y222122D01*
X13056Y222050D01*
X13006Y221900D01*
X12978Y221823D01*
X12939Y221745D01*
X12900Y221667D01*
X12845Y221589D01*
X12789Y221517D01*
X12723Y221445D01*
X12717Y221440D01*
X12706Y221429D01*
X12684Y221412D01*
X12656Y221390D01*
X12617Y221362D01*
X12567Y221329D01*
X12512Y221295D01*
X12451Y221262D01*
X12384Y221229D01*
X12301Y221196D01*
X12218Y221162D01*
X12123Y221134D01*
X12024Y221112D01*
X11918Y221096D01*
X11807Y221084D01*
X11685Y221079D01*
X11679D01*
X11663D01*
X11635D01*
X11596D01*
X11552Y221084D01*
X11496Y221090D01*
X11441D01*
X11380Y221101D01*
X11241Y221118D01*
X11102Y221151D01*
X10964Y221190D01*
X10836Y221245D01*
X10830D01*
X10825Y221251D01*
X10808Y221262D01*
X10786Y221273D01*
X10730Y221312D01*
X10664Y221362D01*
X10586Y221429D01*
X10508Y221512D01*
X10431Y221606D01*
X10358Y221717D01*
Y221723D01*
X10353Y221728D01*
X10342Y221745D01*
X10331Y221773D01*
X10320Y221800D01*
X10309Y221834D01*
X10275Y221917D01*
X10248Y222011D01*
X10220Y222128D01*
X10198Y222250D01*
X10192Y222383D01*
Y222439D01*
X10198Y222483D01*
X10203Y222533D01*
X10214Y222588D01*
X10225Y222655D01*
X10236Y222722D01*
X10281Y222872D01*
X10314Y222955D01*
X10347Y223032D01*
X10392Y223110D01*
X10442Y223188D01*
X10497Y223260D01*
X10564Y223332D01*
X10569Y223338D01*
X10581Y223349D01*
X10603Y223365D01*
X10636Y223388D01*
X10675Y223415D01*
X10719Y223443D01*
X10775Y223477D01*
X10841Y223510D01*
X10914Y223543D01*
X10997Y223576D01*
X11086Y223604D01*
X11180Y223632D01*
X11285Y223654D01*
X11396Y223671D01*
X11519Y223682D01*
X11646Y223687D01*
X11657D01*
X11679D01*
X11718Y223682D01*
D02*
G37*
G36*
X9407Y220574D02*
X8031D01*
X8036Y220568D01*
X8048Y220557D01*
X8064Y220541D01*
X8092Y220513D01*
X8120Y220485D01*
X8153Y220446D01*
X8186Y220396D01*
X8225Y220346D01*
X8258Y220291D01*
X8292Y220230D01*
X8353Y220086D01*
X8381Y220008D01*
X8397Y219924D01*
X8408Y219836D01*
X8414Y219747D01*
Y219697D01*
X8408Y219636D01*
X8397Y219564D01*
X8386Y219480D01*
X8364Y219392D01*
X8331Y219303D01*
X8292Y219214D01*
X8286Y219203D01*
X8269Y219175D01*
X8242Y219136D01*
X8203Y219087D01*
X8153Y219037D01*
X8098Y218981D01*
X8031Y218931D01*
X7953Y218887D01*
X7942Y218881D01*
X7914Y218870D01*
X7864Y218853D01*
X7792Y218837D01*
X7703Y218820D01*
X7598Y218803D01*
X7470Y218792D01*
X7326Y218787D01*
X5567D01*
Y219258D01*
X7332D01*
X7337D01*
X7348D01*
X7365D01*
X7387D01*
X7448Y219264D01*
X7526Y219275D01*
X7609Y219297D01*
X7692Y219325D01*
X7776Y219364D01*
X7842Y219414D01*
X7848Y219420D01*
X7870Y219442D01*
X7898Y219475D01*
X7925Y219525D01*
X7959Y219586D01*
X7981Y219658D01*
X8003Y219747D01*
X8009Y219847D01*
Y219880D01*
X8003Y219919D01*
X7998Y219974D01*
X7981Y220030D01*
X7964Y220097D01*
X7937Y220163D01*
X7898Y220235D01*
X7892Y220241D01*
X7875Y220263D01*
X7853Y220296D01*
X7820Y220335D01*
X7776Y220380D01*
X7726Y220424D01*
X7665Y220463D01*
X7598Y220496D01*
X7587Y220502D01*
X7565Y220507D01*
X7520Y220518D01*
X7465Y220535D01*
X7393Y220552D01*
X7304Y220563D01*
X7204Y220568D01*
X7087Y220574D01*
X5567D01*
Y221046D01*
X9407D01*
Y220574D01*
D02*
G37*
G36*
X13039Y220063D02*
X11491D01*
X11485D01*
X11474D01*
X11457D01*
X11430D01*
X11369D01*
X11291Y220058D01*
X11208D01*
X11124Y220052D01*
X11052Y220047D01*
X10991Y220036D01*
X10986D01*
X10964Y220024D01*
X10930Y220013D01*
X10886Y219997D01*
X10841Y219969D01*
X10791Y219936D01*
X10747Y219897D01*
X10703Y219847D01*
X10697Y219841D01*
X10686Y219819D01*
X10669Y219791D01*
X10653Y219747D01*
X10631Y219697D01*
X10614Y219636D01*
X10603Y219569D01*
X10597Y219492D01*
Y219453D01*
X10603Y219414D01*
X10608Y219364D01*
X10625Y219303D01*
X10642Y219236D01*
X10669Y219164D01*
X10703Y219092D01*
X10708Y219081D01*
X10725Y219059D01*
X10747Y219025D01*
X10780Y218987D01*
X10825Y218942D01*
X10875Y218898D01*
X10930Y218859D01*
X10997Y218826D01*
X11008Y218820D01*
X11030Y218814D01*
X11074Y218803D01*
X11135Y218787D01*
X11213Y218770D01*
X11308Y218759D01*
X11419Y218754D01*
X11546Y218748D01*
X13039D01*
Y218276D01*
X10253D01*
Y218698D01*
X10658D01*
X10653Y218704D01*
X10636Y218715D01*
X10614Y218731D01*
X10586Y218759D01*
X10553Y218792D01*
X10508Y218831D01*
X10469Y218876D01*
X10425Y218931D01*
X10381Y218992D01*
X10342Y219059D01*
X10303Y219131D01*
X10264Y219209D01*
X10236Y219297D01*
X10214Y219386D01*
X10198Y219486D01*
X10192Y219586D01*
Y219625D01*
X10198Y219675D01*
X10203Y219736D01*
X10214Y219808D01*
X10231Y219886D01*
X10253Y219963D01*
X10286Y220047D01*
X10292Y220058D01*
X10303Y220080D01*
X10325Y220119D01*
X10353Y220163D01*
X10386Y220219D01*
X10425Y220269D01*
X10469Y220319D01*
X10520Y220363D01*
X10525Y220369D01*
X10547Y220380D01*
X10575Y220396D01*
X10619Y220419D01*
X10669Y220446D01*
X10730Y220468D01*
X10797Y220491D01*
X10869Y220507D01*
X10875D01*
X10897Y220513D01*
X10930Y220518D01*
X10975D01*
X11041Y220524D01*
X11113Y220530D01*
X11208Y220535D01*
X11313D01*
X13039D01*
Y220063D01*
D02*
G37*
G36*
X7049Y218215D02*
X7110Y218210D01*
X7176Y218204D01*
X7254Y218193D01*
X7332Y218176D01*
X7509Y218132D01*
X7598Y218104D01*
X7692Y218071D01*
X7781Y218026D01*
X7864Y217976D01*
X7948Y217921D01*
X8025Y217860D01*
X8031Y217854D01*
X8042Y217843D01*
X8059Y217821D01*
X8086Y217793D01*
X8114Y217760D01*
X8147Y217716D01*
X8186Y217666D01*
X8220Y217605D01*
X8258Y217544D01*
X8292Y217471D01*
X8325Y217394D01*
X8353Y217311D01*
X8381Y217222D01*
X8397Y217127D01*
X8408Y217027D01*
X8414Y216922D01*
Y216866D01*
X8408Y216828D01*
X8403Y216783D01*
X8392Y216728D01*
X8381Y216667D01*
X8364Y216595D01*
X8347Y216528D01*
X8320Y216450D01*
X8292Y216378D01*
X8253Y216300D01*
X8208Y216223D01*
X8158Y216145D01*
X8098Y216073D01*
X8031Y216006D01*
X8025Y216001D01*
X8014Y215990D01*
X7992Y215973D01*
X7959Y215951D01*
X7920Y215923D01*
X7875Y215895D01*
X7820Y215862D01*
X7753Y215829D01*
X7681Y215795D01*
X7604Y215762D01*
X7515Y215734D01*
X7420Y215706D01*
X7315Y215684D01*
X7204Y215668D01*
X7087Y215657D01*
X6960Y215651D01*
X6954D01*
X6932D01*
X6893D01*
X6838Y215657D01*
Y217738D01*
X6832D01*
X6815D01*
X6793Y217732D01*
X6760D01*
X6721Y217727D01*
X6677Y217716D01*
X6577Y217699D01*
X6466Y217666D01*
X6344Y217621D01*
X6233Y217560D01*
X6133Y217482D01*
Y217477D01*
X6122Y217471D01*
X6094Y217438D01*
X6055Y217388D01*
X6016Y217322D01*
X5972Y217233D01*
X5933Y217133D01*
X5905Y217022D01*
X5900Y216961D01*
X5894Y216894D01*
Y216850D01*
X5900Y216800D01*
X5911Y216739D01*
X5927Y216672D01*
X5950Y216595D01*
X5983Y216522D01*
X6027Y216450D01*
X6033Y216445D01*
X6055Y216417D01*
X6088Y216384D01*
X6133Y216345D01*
X6194Y216300D01*
X6272Y216250D01*
X6360Y216200D01*
X6466Y216156D01*
X6405Y215668D01*
X6399D01*
X6388Y215673D01*
X6366Y215679D01*
X6333Y215690D01*
X6299Y215706D01*
X6255Y215723D01*
X6160Y215768D01*
X6055Y215823D01*
X5944Y215901D01*
X5839Y215990D01*
X5739Y216101D01*
Y216106D01*
X5728Y216117D01*
X5717Y216134D01*
X5700Y216156D01*
X5683Y216189D01*
X5667Y216223D01*
X5644Y216267D01*
X5622Y216317D01*
X5600Y216372D01*
X5578Y216428D01*
X5545Y216567D01*
X5517Y216722D01*
X5506Y216894D01*
Y216955D01*
X5511Y216994D01*
X5517Y217044D01*
X5528Y217105D01*
X5539Y217172D01*
X5550Y217244D01*
X5594Y217399D01*
X5628Y217482D01*
X5661Y217560D01*
X5705Y217643D01*
X5755Y217721D01*
X5811Y217793D01*
X5878Y217865D01*
X5883Y217871D01*
X5894Y217882D01*
X5916Y217899D01*
X5950Y217921D01*
X5988Y217949D01*
X6033Y217976D01*
X6088Y218010D01*
X6149Y218043D01*
X6222Y218076D01*
X6299Y218110D01*
X6388Y218137D01*
X6482Y218165D01*
X6582Y218187D01*
X6693Y218204D01*
X6810Y218215D01*
X6932Y218221D01*
X6938D01*
X6965D01*
X6999D01*
X7049Y218215D01*
D02*
G37*
G36*
X14094Y217066D02*
X11901D01*
X13039Y215951D01*
Y215335D01*
X12001Y216406D01*
X10253Y215229D01*
Y215812D01*
X11674Y216739D01*
X11357Y217066D01*
X10253D01*
Y217538D01*
X14094D01*
Y217066D01*
D02*
G37*
G36*
X8353Y214652D02*
X7931D01*
X7937Y214647D01*
X7975Y214624D01*
X8025Y214597D01*
X8086Y214552D01*
X8147Y214508D01*
X8214Y214458D01*
X8269Y214408D01*
X8314Y214358D01*
X8320Y214352D01*
X8331Y214336D01*
X8347Y214302D01*
X8364Y214269D01*
X8381Y214225D01*
X8397Y214169D01*
X8408Y214114D01*
X8414Y214053D01*
Y214014D01*
X8408Y213964D01*
X8397Y213903D01*
X8375Y213831D01*
X8347Y213753D01*
X8308Y213664D01*
X8258Y213570D01*
X7825Y213742D01*
X7831Y213747D01*
X7842Y213770D01*
X7859Y213803D01*
X7875Y213847D01*
X7892Y213897D01*
X7909Y213958D01*
X7920Y214019D01*
X7925Y214080D01*
Y214108D01*
X7920Y214136D01*
X7914Y214175D01*
X7903Y214214D01*
X7887Y214264D01*
X7864Y214314D01*
X7831Y214358D01*
X7825Y214363D01*
X7814Y214380D01*
X7792Y214397D01*
X7764Y214424D01*
X7726Y214452D01*
X7681Y214480D01*
X7631Y214508D01*
X7570Y214530D01*
X7559Y214535D01*
X7526Y214541D01*
X7476Y214552D01*
X7409Y214569D01*
X7326Y214585D01*
X7232Y214597D01*
X7132Y214602D01*
X7021Y214608D01*
X5567D01*
Y215079D01*
X8353D01*
Y214652D01*
D02*
G37*
G36*
Y212865D02*
X7953D01*
X7959Y212859D01*
X7975Y212848D01*
X7998Y212832D01*
X8025Y212809D01*
X8059Y212776D01*
X8098Y212737D01*
X8142Y212693D01*
X8186Y212637D01*
X8225Y212582D01*
X8269Y212515D01*
X8308Y212443D01*
X8342Y212365D01*
X8369Y212277D01*
X8392Y212188D01*
X8408Y212088D01*
X8414Y211982D01*
Y211938D01*
X8408Y211894D01*
X8403Y211833D01*
X8392Y211760D01*
X8375Y211683D01*
X8353Y211599D01*
X8320Y211522D01*
X8314Y211511D01*
X8303Y211489D01*
X8286Y211450D01*
X8258Y211405D01*
X8225Y211350D01*
X8181Y211300D01*
X8136Y211250D01*
X8081Y211206D01*
X8075Y211200D01*
X8053Y211189D01*
X8025Y211172D01*
X7987Y211144D01*
X7931Y211122D01*
X7875Y211100D01*
X7809Y211072D01*
X7737Y211056D01*
X7731D01*
X7709Y211050D01*
X7676Y211045D01*
X7631Y211039D01*
X7565D01*
X7487Y211033D01*
X7393Y211028D01*
X7276D01*
X5567D01*
Y211500D01*
X7254D01*
X7259D01*
X7265D01*
X7304D01*
X7354D01*
X7415Y211505D01*
X7487Y211511D01*
X7559Y211522D01*
X7626Y211539D01*
X7687Y211555D01*
X7692D01*
X7709Y211566D01*
X7737Y211583D01*
X7770Y211599D01*
X7803Y211627D01*
X7842Y211661D01*
X7881Y211705D01*
X7914Y211755D01*
X7920Y211760D01*
X7931Y211777D01*
X7942Y211810D01*
X7959Y211849D01*
X7975Y211894D01*
X7992Y211949D01*
X7998Y212016D01*
X8003Y212082D01*
Y212110D01*
X7998Y212132D01*
X7992Y212188D01*
X7981Y212260D01*
X7953Y212338D01*
X7920Y212426D01*
X7875Y212515D01*
X7809Y212598D01*
X7798Y212610D01*
X7770Y212632D01*
X7748Y212649D01*
X7720Y212665D01*
X7687Y212687D01*
X7648Y212704D01*
X7604Y212726D01*
X7548Y212748D01*
X7487Y212765D01*
X7420Y212782D01*
X7348Y212793D01*
X7271Y212804D01*
X7176Y212815D01*
X7082D01*
X5567D01*
Y213287D01*
X8353D01*
Y212865D01*
D02*
G37*
G36*
X7049Y210456D02*
X7110Y210451D01*
X7176Y210445D01*
X7254Y210434D01*
X7332Y210417D01*
X7509Y210373D01*
X7598Y210345D01*
X7692Y210312D01*
X7781Y210267D01*
X7864Y210218D01*
X7948Y210162D01*
X8025Y210101D01*
X8031Y210096D01*
X8042Y210084D01*
X8059Y210062D01*
X8086Y210034D01*
X8114Y210001D01*
X8147Y209957D01*
X8186Y209907D01*
X8220Y209846D01*
X8258Y209785D01*
X8292Y209713D01*
X8325Y209635D01*
X8353Y209552D01*
X8381Y209463D01*
X8397Y209368D01*
X8408Y209268D01*
X8414Y209163D01*
Y209108D01*
X8408Y209069D01*
X8403Y209024D01*
X8392Y208969D01*
X8381Y208908D01*
X8364Y208836D01*
X8347Y208769D01*
X8320Y208691D01*
X8292Y208619D01*
X8253Y208541D01*
X8208Y208464D01*
X8158Y208386D01*
X8098Y208314D01*
X8031Y208247D01*
X8025Y208242D01*
X8014Y208231D01*
X7992Y208214D01*
X7959Y208192D01*
X7920Y208164D01*
X7875Y208136D01*
X7820Y208103D01*
X7753Y208070D01*
X7681Y208036D01*
X7604Y208003D01*
X7515Y207975D01*
X7420Y207948D01*
X7315Y207925D01*
X7204Y207909D01*
X7087Y207898D01*
X6960Y207892D01*
X6954D01*
X6932D01*
X6893D01*
X6838Y207898D01*
Y209979D01*
X6832D01*
X6815D01*
X6793Y209973D01*
X6760D01*
X6721Y209968D01*
X6677Y209957D01*
X6577Y209940D01*
X6466Y209907D01*
X6344Y209862D01*
X6233Y209801D01*
X6133Y209724D01*
Y209718D01*
X6122Y209713D01*
X6094Y209679D01*
X6055Y209629D01*
X6016Y209563D01*
X5972Y209474D01*
X5933Y209374D01*
X5905Y209263D01*
X5900Y209202D01*
X5894Y209135D01*
Y209091D01*
X5900Y209041D01*
X5911Y208980D01*
X5927Y208913D01*
X5950Y208836D01*
X5983Y208764D01*
X6027Y208691D01*
X6033Y208686D01*
X6055Y208658D01*
X6088Y208625D01*
X6133Y208586D01*
X6194Y208541D01*
X6272Y208491D01*
X6360Y208442D01*
X6466Y208397D01*
X6405Y207909D01*
X6399D01*
X6388Y207914D01*
X6366Y207920D01*
X6333Y207931D01*
X6299Y207948D01*
X6255Y207964D01*
X6160Y208009D01*
X6055Y208064D01*
X5944Y208142D01*
X5839Y208231D01*
X5739Y208342D01*
Y208347D01*
X5728Y208358D01*
X5717Y208375D01*
X5700Y208397D01*
X5683Y208431D01*
X5667Y208464D01*
X5644Y208508D01*
X5622Y208558D01*
X5600Y208614D01*
X5578Y208669D01*
X5545Y208808D01*
X5517Y208963D01*
X5506Y209135D01*
Y209196D01*
X5511Y209235D01*
X5517Y209285D01*
X5528Y209346D01*
X5539Y209413D01*
X5550Y209485D01*
X5594Y209640D01*
X5628Y209724D01*
X5661Y209801D01*
X5705Y209885D01*
X5755Y209962D01*
X5811Y210034D01*
X5878Y210107D01*
X5883Y210112D01*
X5894Y210123D01*
X5916Y210140D01*
X5950Y210162D01*
X5988Y210190D01*
X6033Y210218D01*
X6088Y210251D01*
X6149Y210284D01*
X6222Y210317D01*
X6299Y210351D01*
X6388Y210379D01*
X6482Y210406D01*
X6582Y210429D01*
X6693Y210445D01*
X6810Y210456D01*
X6932Y210462D01*
X6938D01*
X6965D01*
X6999D01*
X7049Y210456D01*
D02*
G37*
G36*
X8353Y207237D02*
X9041D01*
X9324Y206766D01*
X8353D01*
Y206288D01*
X7987D01*
Y206766D01*
X6349D01*
X6338D01*
X6316D01*
X6283D01*
X6244Y206760D01*
X6155Y206754D01*
X6116Y206749D01*
X6088Y206743D01*
X6077Y206738D01*
X6055Y206721D01*
X6027Y206699D01*
X6000Y206660D01*
X5994Y206649D01*
X5983Y206621D01*
X5972Y206571D01*
X5966Y206499D01*
Y206444D01*
X5972Y206416D01*
Y206377D01*
X5977Y206333D01*
X5983Y206288D01*
X5567Y206227D01*
Y206238D01*
X5561Y206260D01*
X5556Y206299D01*
X5550Y206349D01*
X5539Y206405D01*
X5533Y206466D01*
X5528Y206588D01*
Y206632D01*
X5533Y206677D01*
X5539Y206732D01*
X5545Y206799D01*
X5561Y206865D01*
X5578Y206926D01*
X5605Y206988D01*
X5611Y206993D01*
X5622Y207010D01*
X5639Y207032D01*
X5667Y207065D01*
X5694Y207093D01*
X5733Y207126D01*
X5772Y207159D01*
X5822Y207182D01*
X5827D01*
X5850Y207193D01*
X5889Y207198D01*
X5944Y207209D01*
X6016Y207221D01*
X6061Y207226D01*
X6111D01*
X6172Y207232D01*
X6233Y207237D01*
X6299D01*
X6377D01*
X7987D01*
Y207587D01*
X8353D01*
Y207237D01*
D02*
G37*
G36*
X9407Y203524D02*
X6682Y202614D01*
X6677D01*
X6666Y202608D01*
X6649Y202603D01*
X6621Y202592D01*
X6555Y202570D01*
X6471Y202542D01*
X6377Y202514D01*
X6283Y202481D01*
X6194Y202453D01*
X6116Y202431D01*
X6127Y202425D01*
X6155Y202420D01*
X6205Y202403D01*
X6272Y202381D01*
X6360Y202353D01*
X6466Y202314D01*
X6588Y202275D01*
X6732Y202226D01*
X9407Y201304D01*
Y200622D01*
X5567D01*
Y201110D01*
X8780D01*
X5567Y202231D01*
Y202686D01*
X8836Y203796D01*
X5567D01*
Y204285D01*
X9407D01*
Y203524D01*
D02*
G37*
G36*
X7032Y200028D02*
X7087D01*
X7148Y200022D01*
X7226Y200011D01*
X7304Y200000D01*
X7393Y199978D01*
X7481Y199956D01*
X7576Y199928D01*
X7676Y199895D01*
X7770Y199850D01*
X7859Y199806D01*
X7948Y199745D01*
X8031Y199684D01*
X8103Y199606D01*
X8109Y199600D01*
X8114Y199589D01*
X8131Y199567D01*
X8153Y199539D01*
X8175Y199506D01*
X8203Y199462D01*
X8231Y199417D01*
X8258Y199362D01*
X8286Y199301D01*
X8314Y199234D01*
X8364Y199084D01*
X8403Y198912D01*
X8408Y198823D01*
X8414Y198729D01*
Y198674D01*
X8408Y198635D01*
X8403Y198585D01*
X8392Y198529D01*
X8381Y198468D01*
X8369Y198396D01*
X8320Y198246D01*
X8292Y198169D01*
X8253Y198091D01*
X8214Y198013D01*
X8158Y197935D01*
X8103Y197863D01*
X8036Y197791D01*
X8031Y197786D01*
X8020Y197775D01*
X7998Y197758D01*
X7970Y197736D01*
X7931Y197708D01*
X7881Y197675D01*
X7825Y197641D01*
X7764Y197608D01*
X7698Y197575D01*
X7615Y197541D01*
X7531Y197508D01*
X7437Y197480D01*
X7337Y197458D01*
X7232Y197441D01*
X7121Y197430D01*
X6999Y197425D01*
X6993D01*
X6976D01*
X6949D01*
X6910D01*
X6865Y197430D01*
X6810Y197436D01*
X6754D01*
X6693Y197447D01*
X6555Y197464D01*
X6416Y197497D01*
X6277Y197536D01*
X6149Y197591D01*
X6144D01*
X6138Y197597D01*
X6122Y197608D01*
X6100Y197619D01*
X6044Y197658D01*
X5977Y197708D01*
X5900Y197775D01*
X5822Y197858D01*
X5744Y197952D01*
X5672Y198063D01*
Y198069D01*
X5667Y198074D01*
X5655Y198091D01*
X5644Y198119D01*
X5633Y198146D01*
X5622Y198180D01*
X5589Y198263D01*
X5561Y198357D01*
X5533Y198474D01*
X5511Y198596D01*
X5506Y198729D01*
Y198785D01*
X5511Y198829D01*
X5517Y198879D01*
X5528Y198934D01*
X5539Y199001D01*
X5550Y199068D01*
X5594Y199217D01*
X5628Y199301D01*
X5661Y199378D01*
X5705Y199456D01*
X5755Y199534D01*
X5811Y199606D01*
X5878Y199678D01*
X5883Y199684D01*
X5894Y199695D01*
X5916Y199711D01*
X5950Y199734D01*
X5988Y199761D01*
X6033Y199789D01*
X6088Y199822D01*
X6155Y199856D01*
X6227Y199889D01*
X6310Y199922D01*
X6399Y199950D01*
X6493Y199978D01*
X6599Y200000D01*
X6710Y200017D01*
X6832Y200028D01*
X6960Y200033D01*
X6971D01*
X6993D01*
X7032Y200028D01*
D02*
G37*
G36*
X7060Y197042D02*
X7104D01*
X7204Y197031D01*
X7321Y197014D01*
X7448Y196986D01*
X7581Y196953D01*
X7709Y196909D01*
X7715D01*
X7726Y196903D01*
X7742Y196892D01*
X7764Y196881D01*
X7825Y196848D01*
X7903Y196803D01*
X7987Y196748D01*
X8070Y196676D01*
X8158Y196592D01*
X8231Y196492D01*
Y196487D01*
X8236Y196481D01*
X8247Y196465D01*
X8258Y196442D01*
X8286Y196387D01*
X8325Y196309D01*
X8358Y196221D01*
X8386Y196115D01*
X8408Y195999D01*
X8414Y195876D01*
Y195832D01*
X8408Y195788D01*
X8403Y195727D01*
X8386Y195654D01*
X8369Y195577D01*
X8342Y195499D01*
X8303Y195427D01*
X8297Y195416D01*
X8286Y195394D01*
X8258Y195360D01*
X8231Y195316D01*
X8192Y195260D01*
X8142Y195210D01*
X8092Y195155D01*
X8031Y195105D01*
X9407D01*
Y194633D01*
X5567D01*
Y195072D01*
X5916D01*
X5911Y195077D01*
X5900Y195083D01*
X5878Y195099D01*
X5850Y195122D01*
X5822Y195149D01*
X5789Y195183D01*
X5750Y195221D01*
X5711Y195271D01*
X5672Y195321D01*
X5633Y195377D01*
X5600Y195443D01*
X5572Y195516D01*
X5545Y195588D01*
X5522Y195671D01*
X5511Y195760D01*
X5506Y195854D01*
Y195887D01*
X5511Y195910D01*
X5517Y195976D01*
X5528Y196054D01*
X5550Y196148D01*
X5583Y196254D01*
X5628Y196359D01*
X5689Y196465D01*
Y196470D01*
X5700Y196476D01*
X5722Y196509D01*
X5767Y196559D01*
X5822Y196620D01*
X5894Y196692D01*
X5983Y196764D01*
X6083Y196836D01*
X6199Y196898D01*
X6205D01*
X6216Y196903D01*
X6233Y196909D01*
X6255Y196920D01*
X6288Y196931D01*
X6327Y196948D01*
X6366Y196959D01*
X6416Y196970D01*
X6527Y196997D01*
X6655Y197025D01*
X6799Y197042D01*
X6954Y197047D01*
X6960D01*
X6971D01*
X6993D01*
X7026D01*
X7060Y197042D01*
D02*
G37*
G36*
X8353Y193423D02*
X6804D01*
X6799D01*
X6788D01*
X6771D01*
X6743D01*
X6682D01*
X6605Y193418D01*
X6521D01*
X6438Y193412D01*
X6366Y193407D01*
X6305Y193395D01*
X6299D01*
X6277Y193384D01*
X6244Y193373D01*
X6199Y193357D01*
X6155Y193329D01*
X6105Y193296D01*
X6061Y193257D01*
X6016Y193207D01*
X6011Y193201D01*
X6000Y193179D01*
X5983Y193151D01*
X5966Y193107D01*
X5944Y193057D01*
X5927Y192996D01*
X5916Y192929D01*
X5911Y192852D01*
Y192813D01*
X5916Y192774D01*
X5922Y192724D01*
X5939Y192663D01*
X5955Y192596D01*
X5983Y192524D01*
X6016Y192452D01*
X6022Y192441D01*
X6038Y192419D01*
X6061Y192385D01*
X6094Y192347D01*
X6138Y192302D01*
X6188Y192258D01*
X6244Y192219D01*
X6310Y192186D01*
X6322Y192180D01*
X6344Y192174D01*
X6388Y192163D01*
X6449Y192147D01*
X6527Y192130D01*
X6621Y192119D01*
X6732Y192113D01*
X6860Y192108D01*
X8353D01*
Y191636D01*
X5567D01*
Y192058D01*
X5972D01*
X5966Y192063D01*
X5950Y192075D01*
X5927Y192091D01*
X5900Y192119D01*
X5866Y192152D01*
X5822Y192191D01*
X5783Y192236D01*
X5739Y192291D01*
X5694Y192352D01*
X5655Y192419D01*
X5617Y192491D01*
X5578Y192569D01*
X5550Y192657D01*
X5528Y192746D01*
X5511Y192846D01*
X5506Y192946D01*
Y192985D01*
X5511Y193035D01*
X5517Y193096D01*
X5528Y193168D01*
X5545Y193246D01*
X5567Y193323D01*
X5600Y193407D01*
X5605Y193418D01*
X5617Y193440D01*
X5639Y193479D01*
X5667Y193523D01*
X5700Y193579D01*
X5739Y193629D01*
X5783Y193679D01*
X5833Y193723D01*
X5839Y193728D01*
X5861Y193740D01*
X5889Y193756D01*
X5933Y193779D01*
X5983Y193806D01*
X6044Y193828D01*
X6111Y193851D01*
X6183Y193867D01*
X6188D01*
X6211Y193873D01*
X6244Y193878D01*
X6288D01*
X6355Y193884D01*
X6427Y193889D01*
X6521Y193895D01*
X6627D01*
X8353D01*
Y193423D01*
D02*
G37*
G36*
X9407Y190437D02*
X5567D01*
Y190909D01*
X9407D01*
Y190437D01*
D02*
G37*
G36*
X7049Y189860D02*
X7110Y189855D01*
X7176Y189849D01*
X7254Y189838D01*
X7332Y189821D01*
X7509Y189777D01*
X7598Y189749D01*
X7692Y189716D01*
X7781Y189672D01*
X7864Y189621D01*
X7948Y189566D01*
X8025Y189505D01*
X8031Y189499D01*
X8042Y189488D01*
X8059Y189466D01*
X8086Y189438D01*
X8114Y189405D01*
X8147Y189361D01*
X8186Y189311D01*
X8220Y189250D01*
X8258Y189189D01*
X8292Y189117D01*
X8325Y189039D01*
X8353Y188955D01*
X8381Y188867D01*
X8397Y188772D01*
X8408Y188672D01*
X8414Y188567D01*
Y188512D01*
X8408Y188473D01*
X8403Y188428D01*
X8392Y188373D01*
X8381Y188312D01*
X8364Y188240D01*
X8347Y188173D01*
X8320Y188095D01*
X8292Y188023D01*
X8253Y187945D01*
X8208Y187868D01*
X8158Y187790D01*
X8098Y187718D01*
X8031Y187651D01*
X8025Y187646D01*
X8014Y187635D01*
X7992Y187618D01*
X7959Y187596D01*
X7920Y187568D01*
X7875Y187540D01*
X7820Y187507D01*
X7753Y187474D01*
X7681Y187440D01*
X7604Y187407D01*
X7515Y187379D01*
X7420Y187352D01*
X7315Y187329D01*
X7204Y187313D01*
X7087Y187302D01*
X6960Y187296D01*
X6954D01*
X6932D01*
X6893D01*
X6838Y187302D01*
Y189383D01*
X6832D01*
X6815D01*
X6793Y189377D01*
X6760D01*
X6721Y189372D01*
X6677Y189361D01*
X6577Y189344D01*
X6466Y189311D01*
X6344Y189266D01*
X6233Y189205D01*
X6133Y189128D01*
Y189122D01*
X6122Y189117D01*
X6094Y189083D01*
X6055Y189033D01*
X6016Y188967D01*
X5972Y188878D01*
X5933Y188778D01*
X5905Y188667D01*
X5900Y188606D01*
X5894Y188539D01*
Y188495D01*
X5900Y188445D01*
X5911Y188384D01*
X5927Y188317D01*
X5950Y188240D01*
X5983Y188167D01*
X6027Y188095D01*
X6033Y188090D01*
X6055Y188062D01*
X6088Y188029D01*
X6133Y187990D01*
X6194Y187945D01*
X6272Y187896D01*
X6360Y187846D01*
X6466Y187801D01*
X6405Y187313D01*
X6399D01*
X6388Y187318D01*
X6366Y187324D01*
X6333Y187335D01*
X6299Y187352D01*
X6255Y187368D01*
X6160Y187413D01*
X6055Y187468D01*
X5944Y187546D01*
X5839Y187635D01*
X5739Y187746D01*
Y187751D01*
X5728Y187762D01*
X5717Y187779D01*
X5700Y187801D01*
X5683Y187834D01*
X5667Y187868D01*
X5644Y187912D01*
X5622Y187962D01*
X5600Y188018D01*
X5578Y188073D01*
X5545Y188212D01*
X5517Y188367D01*
X5506Y188539D01*
Y188600D01*
X5511Y188639D01*
X5517Y188689D01*
X5528Y188750D01*
X5539Y188817D01*
X5550Y188889D01*
X5594Y189044D01*
X5628Y189128D01*
X5661Y189205D01*
X5705Y189288D01*
X5755Y189366D01*
X5811Y189438D01*
X5878Y189511D01*
X5883Y189516D01*
X5894Y189527D01*
X5916Y189544D01*
X5950Y189566D01*
X5988Y189594D01*
X6033Y189621D01*
X6088Y189655D01*
X6149Y189688D01*
X6222Y189721D01*
X6299Y189755D01*
X6388Y189783D01*
X6482Y189810D01*
X6582Y189832D01*
X6693Y189849D01*
X6810Y189860D01*
X6932Y189866D01*
X6938D01*
X6965D01*
X6999D01*
X7049Y189860D01*
D02*
G37*
G36*
X8353Y185021D02*
X6682Y184421D01*
X6677D01*
X6671Y184416D01*
X6655Y184410D01*
X6638Y184405D01*
X6582Y184388D01*
X6510Y184366D01*
X6427Y184338D01*
X6333Y184305D01*
X6227Y184277D01*
X6122Y184244D01*
X6133Y184238D01*
X6160Y184232D01*
X6205Y184216D01*
X6272Y184199D01*
X6344Y184171D01*
X6438Y184144D01*
X6538Y184105D01*
X6649Y184066D01*
X8353Y183450D01*
Y182961D01*
X5567Y184022D01*
Y184471D01*
X8353Y185520D01*
Y185021D01*
D02*
G37*
G36*
X7631Y182667D02*
X7698D01*
X7770Y182662D01*
X7853Y182656D01*
X8025Y182640D01*
X8208Y182612D01*
X8392Y182579D01*
X8475Y182556D01*
X8558Y182534D01*
X8564D01*
X8575Y182529D01*
X8597Y182518D01*
X8625Y182506D01*
X8664Y182495D01*
X8702Y182473D01*
X8797Y182429D01*
X8897Y182373D01*
X9002Y182301D01*
X9108Y182218D01*
X9196Y182118D01*
Y182112D01*
X9207Y182107D01*
X9219Y182090D01*
X9230Y182068D01*
X9252Y182040D01*
X9268Y182007D01*
X9313Y181924D01*
X9352Y181824D01*
X9391Y181707D01*
X9413Y181569D01*
X9424Y181419D01*
Y181369D01*
X9418Y181308D01*
X9407Y181236D01*
X9391Y181152D01*
X9368Y181063D01*
X9341Y180969D01*
X9296Y180880D01*
Y180875D01*
X9291Y180869D01*
X9274Y180841D01*
X9246Y180797D01*
X9207Y180742D01*
X9152Y180681D01*
X9091Y180614D01*
X9019Y180553D01*
X8935Y180492D01*
X8924Y180486D01*
X8897Y180464D01*
X8847Y180442D01*
X8775Y180403D01*
X8691Y180370D01*
X8597Y180325D01*
X8486Y180286D01*
X8364Y180253D01*
X8358D01*
X8347Y180248D01*
X8331Y180242D01*
X8303Y180236D01*
X8269Y180231D01*
X8231Y180225D01*
X8181Y180214D01*
X8125Y180209D01*
X8064Y180198D01*
X7998Y180192D01*
X7920Y180186D01*
X7842Y180175D01*
X7753Y180170D01*
X7665D01*
X7565Y180164D01*
X7459D01*
X7454D01*
X7431D01*
X7393D01*
X7348D01*
X7287Y180170D01*
X7221D01*
X7148Y180175D01*
X7071Y180181D01*
X6893Y180198D01*
X6710Y180225D01*
X6532Y180259D01*
X6449Y180281D01*
X6366Y180309D01*
X6360D01*
X6349Y180314D01*
X6327Y180325D01*
X6299Y180336D01*
X6260Y180348D01*
X6222Y180370D01*
X6127Y180414D01*
X6027Y180470D01*
X5916Y180542D01*
X5816Y180625D01*
X5722Y180725D01*
Y180730D01*
X5711Y180736D01*
X5700Y180753D01*
X5689Y180775D01*
X5672Y180803D01*
X5650Y180830D01*
X5611Y180914D01*
X5572Y181014D01*
X5533Y181130D01*
X5511Y181269D01*
X5500Y181419D01*
Y181474D01*
X5506Y181513D01*
X5511Y181557D01*
X5522Y181613D01*
X5533Y181674D01*
X5550Y181740D01*
X5572Y181807D01*
X5594Y181879D01*
X5628Y181951D01*
X5667Y182024D01*
X5711Y182096D01*
X5767Y182168D01*
X5827Y182235D01*
X5894Y182296D01*
X5900Y182301D01*
X5916Y182312D01*
X5944Y182329D01*
X5988Y182357D01*
X6038Y182384D01*
X6105Y182412D01*
X6183Y182451D01*
X6272Y182484D01*
X6371Y182518D01*
X6488Y182551D01*
X6616Y182584D01*
X6760Y182612D01*
X6915Y182640D01*
X7082Y182656D01*
X7265Y182667D01*
X7459Y182673D01*
X7465D01*
X7487D01*
X7526D01*
X7570D01*
X7631Y182667D01*
D02*
G37*
G36*
X6105Y178882D02*
X5567D01*
Y179421D01*
X6105D01*
Y178882D01*
D02*
G37*
G36*
X8458Y177828D02*
X8469Y177817D01*
X8475Y177795D01*
X8491Y177767D01*
X8508Y177733D01*
X8530Y177695D01*
X8586Y177600D01*
X8647Y177489D01*
X8725Y177378D01*
X8813Y177262D01*
X8908Y177145D01*
X8913Y177140D01*
X8919Y177134D01*
X8935Y177117D01*
X8952Y177095D01*
X9008Y177045D01*
X9074Y176979D01*
X9152Y176912D01*
X9241Y176840D01*
X9330Y176779D01*
X9424Y176723D01*
Y176418D01*
X5567D01*
Y176890D01*
X8569D01*
X8564Y176895D01*
X8541Y176923D01*
X8508Y176956D01*
X8469Y177012D01*
X8419Y177073D01*
X8364Y177151D01*
X8303Y177240D01*
X8242Y177339D01*
Y177345D01*
X8236Y177350D01*
X8214Y177384D01*
X8186Y177439D01*
X8153Y177506D01*
X8114Y177584D01*
X8075Y177667D01*
X8036Y177750D01*
X8003Y177833D01*
X8458D01*
Y177828D01*
D02*
G37*
G36*
X64843Y236934D02*
X64886D01*
X65000Y236912D01*
X65136Y236891D01*
X65280Y236855D01*
X65438Y236805D01*
X65588Y236733D01*
X65595D01*
X65603Y236726D01*
X65624Y236712D01*
X65653Y236697D01*
X65724Y236654D01*
X65818Y236590D01*
X65918Y236511D01*
X66018Y236418D01*
X66119Y236303D01*
X66205Y236181D01*
Y236174D01*
X66212Y236167D01*
X66226Y236145D01*
X66234Y236117D01*
X66269Y236045D01*
X66305Y235952D01*
X66348Y235830D01*
X66377Y235694D01*
X66406Y235543D01*
X66413Y235378D01*
Y235342D01*
X66406Y235306D01*
Y235249D01*
X66399Y235185D01*
X66384Y235113D01*
X66363Y235027D01*
X66341Y234941D01*
X66312Y234840D01*
X66277Y234740D01*
X66234Y234640D01*
X66176Y234532D01*
X66112Y234432D01*
X66040Y234331D01*
X65954Y234231D01*
X65854Y234138D01*
X65846Y234131D01*
X65825Y234116D01*
X65796Y234095D01*
X65746Y234066D01*
X65681Y234023D01*
X65610Y233987D01*
X65517Y233944D01*
X65416Y233901D01*
X65294Y233851D01*
X65158Y233808D01*
X65008Y233772D01*
X64843Y233736D01*
X64656Y233700D01*
X64455Y233679D01*
X64240Y233664D01*
X64011Y233657D01*
X64004D01*
X63996D01*
X63975D01*
X63946D01*
X63875Y233664D01*
X63774D01*
X63660Y233672D01*
X63523Y233686D01*
X63373Y233700D01*
X63208Y233722D01*
X63043Y233751D01*
X62864Y233786D01*
X62692Y233829D01*
X62520Y233880D01*
X62355Y233944D01*
X62197Y234016D01*
X62046Y234095D01*
X61917Y234188D01*
X61910Y234195D01*
X61896Y234209D01*
X61867Y234238D01*
X61824Y234274D01*
X61781Y234317D01*
X61738Y234374D01*
X61681Y234446D01*
X61630Y234518D01*
X61580Y234604D01*
X61523Y234697D01*
X61480Y234805D01*
X61430Y234912D01*
X61394Y235034D01*
X61365Y235163D01*
X61351Y235299D01*
X61344Y235443D01*
Y235500D01*
X61351Y235543D01*
Y235593D01*
X61358Y235651D01*
X61387Y235787D01*
X61422Y235937D01*
X61480Y236095D01*
X61566Y236253D01*
X61616Y236332D01*
X61673Y236403D01*
X61681Y236411D01*
X61688Y236418D01*
X61709Y236439D01*
X61731Y236461D01*
X61767Y236497D01*
X61810Y236525D01*
X61910Y236604D01*
X62039Y236683D01*
X62197Y236755D01*
X62376Y236819D01*
X62577Y236862D01*
X62627Y236253D01*
X62620D01*
X62613Y236246D01*
X62570Y236239D01*
X62505Y236217D01*
X62426Y236188D01*
X62340Y236160D01*
X62254Y236117D01*
X62175Y236066D01*
X62111Y236016D01*
X62097Y236002D01*
X62068Y235973D01*
X62025Y235923D01*
X61975Y235851D01*
X61932Y235758D01*
X61888Y235658D01*
X61860Y235536D01*
X61845Y235407D01*
Y235357D01*
X61853Y235299D01*
X61867Y235235D01*
X61888Y235149D01*
X61917Y235063D01*
X61953Y234977D01*
X62010Y234891D01*
X62018Y234876D01*
X62046Y234840D01*
X62097Y234790D01*
X62168Y234726D01*
X62254Y234654D01*
X62355Y234575D01*
X62484Y234503D01*
X62627Y234432D01*
X62634D01*
X62649Y234424D01*
X62670Y234417D01*
X62699Y234403D01*
X62742Y234396D01*
X62792Y234382D01*
X62849Y234367D01*
X62921Y234353D01*
X63000Y234331D01*
X63086Y234317D01*
X63179Y234303D01*
X63279Y234295D01*
X63394Y234281D01*
X63509Y234274D01*
X63638Y234267D01*
X63767D01*
X63760Y234274D01*
X63717Y234303D01*
X63660Y234353D01*
X63588Y234417D01*
X63502Y234489D01*
X63423Y234582D01*
X63344Y234683D01*
X63272Y234797D01*
Y234805D01*
X63265Y234812D01*
X63244Y234855D01*
X63222Y234919D01*
X63186Y235005D01*
X63158Y235106D01*
X63136Y235220D01*
X63115Y235342D01*
X63107Y235471D01*
Y235529D01*
X63115Y235572D01*
X63122Y235629D01*
X63129Y235686D01*
X63143Y235758D01*
X63165Y235830D01*
X63215Y235995D01*
X63251Y236081D01*
X63301Y236167D01*
X63351Y236253D01*
X63409Y236346D01*
X63480Y236432D01*
X63559Y236511D01*
X63566Y236518D01*
X63581Y236532D01*
X63602Y236554D01*
X63638Y236576D01*
X63688Y236611D01*
X63738Y236647D01*
X63803Y236683D01*
X63875Y236726D01*
X63954Y236769D01*
X64039Y236805D01*
X64140Y236841D01*
X64240Y236877D01*
X64348Y236898D01*
X64470Y236920D01*
X64592Y236934D01*
X64721Y236941D01*
X64728D01*
X64742D01*
X64764D01*
X64800D01*
X64843Y236934D01*
D02*
G37*
G36*
X66327Y164597D02*
X62448D01*
X62455Y164590D01*
X62484Y164554D01*
X62527Y164511D01*
X62577Y164439D01*
X62641Y164361D01*
X62713Y164260D01*
X62792Y164146D01*
X62871Y164016D01*
Y164009D01*
X62878Y164002D01*
X62907Y163959D01*
X62942Y163887D01*
X62986Y163801D01*
X63036Y163701D01*
X63086Y163593D01*
X63136Y163486D01*
X63179Y163378D01*
X62591D01*
Y163385D01*
X62577Y163400D01*
X62570Y163428D01*
X62548Y163464D01*
X62527Y163507D01*
X62498Y163558D01*
X62426Y163679D01*
X62347Y163823D01*
X62247Y163966D01*
X62132Y164117D01*
X62010Y164267D01*
X62003Y164275D01*
X61996Y164282D01*
X61975Y164303D01*
X61953Y164332D01*
X61881Y164397D01*
X61795Y164482D01*
X61695Y164568D01*
X61580Y164662D01*
X61466Y164741D01*
X61344Y164812D01*
Y165207D01*
X66327D01*
Y164597D01*
D02*
G37*
G36*
X183827Y163597D02*
X179948D01*
X179955Y163590D01*
X179984Y163554D01*
X180027Y163511D01*
X180077Y163440D01*
X180141Y163361D01*
X180213Y163260D01*
X180292Y163145D01*
X180371Y163016D01*
Y163009D01*
X180378Y163002D01*
X180407Y162959D01*
X180443Y162887D01*
X180485Y162801D01*
X180536Y162701D01*
X180586Y162593D01*
X180636Y162486D01*
X180679Y162378D01*
X180091D01*
Y162385D01*
X180077Y162400D01*
X180070Y162428D01*
X180048Y162464D01*
X180027Y162507D01*
X179998Y162558D01*
X179926Y162679D01*
X179847Y162823D01*
X179747Y162966D01*
X179632Y163117D01*
X179510Y163267D01*
X179503Y163275D01*
X179496Y163282D01*
X179475Y163303D01*
X179453Y163332D01*
X179381Y163397D01*
X179295Y163482D01*
X179195Y163568D01*
X179080Y163662D01*
X178965Y163741D01*
X178844Y163812D01*
Y164207D01*
X183827D01*
Y163597D01*
D02*
G37*
G36*
X182343Y235934D02*
X182386D01*
X182500Y235912D01*
X182637Y235891D01*
X182780Y235855D01*
X182938Y235805D01*
X183088Y235733D01*
X183095D01*
X183103Y235726D01*
X183124Y235712D01*
X183153Y235697D01*
X183224Y235654D01*
X183318Y235590D01*
X183418Y235511D01*
X183519Y235418D01*
X183619Y235303D01*
X183705Y235181D01*
Y235174D01*
X183712Y235167D01*
X183726Y235145D01*
X183734Y235117D01*
X183769Y235045D01*
X183805Y234952D01*
X183848Y234830D01*
X183877Y234694D01*
X183906Y234543D01*
X183913Y234378D01*
Y234342D01*
X183906Y234306D01*
Y234249D01*
X183898Y234185D01*
X183884Y234113D01*
X183863Y234027D01*
X183841Y233941D01*
X183812Y233840D01*
X183777Y233740D01*
X183734Y233640D01*
X183676Y233532D01*
X183612Y233432D01*
X183540Y233331D01*
X183454Y233231D01*
X183353Y233138D01*
X183346Y233131D01*
X183325Y233116D01*
X183296Y233095D01*
X183246Y233066D01*
X183182Y233023D01*
X183110Y232987D01*
X183017Y232944D01*
X182916Y232901D01*
X182794Y232851D01*
X182658Y232808D01*
X182508Y232772D01*
X182343Y232736D01*
X182156Y232700D01*
X181955Y232679D01*
X181740Y232664D01*
X181511Y232657D01*
X181504D01*
X181497D01*
X181475D01*
X181446D01*
X181375Y232664D01*
X181274D01*
X181159Y232672D01*
X181023Y232686D01*
X180873Y232700D01*
X180708Y232722D01*
X180543Y232751D01*
X180364Y232786D01*
X180192Y232829D01*
X180019Y232880D01*
X179855Y232944D01*
X179697Y233016D01*
X179546Y233095D01*
X179417Y233188D01*
X179410Y233195D01*
X179396Y233209D01*
X179367Y233238D01*
X179324Y233274D01*
X179281Y233317D01*
X179238Y233374D01*
X179181Y233446D01*
X179130Y233518D01*
X179080Y233604D01*
X179023Y233697D01*
X178980Y233804D01*
X178930Y233912D01*
X178894Y234034D01*
X178865Y234163D01*
X178851Y234299D01*
X178844Y234443D01*
Y234500D01*
X178851Y234543D01*
Y234593D01*
X178858Y234651D01*
X178887Y234787D01*
X178922Y234937D01*
X178980Y235095D01*
X179066Y235253D01*
X179116Y235332D01*
X179173Y235403D01*
X179181Y235411D01*
X179188Y235418D01*
X179209Y235439D01*
X179231Y235461D01*
X179267Y235497D01*
X179310Y235525D01*
X179410Y235604D01*
X179539Y235683D01*
X179697Y235755D01*
X179876Y235819D01*
X180077Y235862D01*
X180127Y235253D01*
X180120D01*
X180113Y235246D01*
X180070Y235239D01*
X180005Y235217D01*
X179926Y235188D01*
X179840Y235160D01*
X179754Y235117D01*
X179675Y235066D01*
X179611Y235016D01*
X179596Y235002D01*
X179568Y234973D01*
X179525Y234923D01*
X179475Y234851D01*
X179432Y234758D01*
X179388Y234658D01*
X179360Y234536D01*
X179346Y234407D01*
Y234357D01*
X179353Y234299D01*
X179367Y234235D01*
X179388Y234149D01*
X179417Y234063D01*
X179453Y233977D01*
X179510Y233891D01*
X179518Y233876D01*
X179546Y233840D01*
X179596Y233790D01*
X179668Y233726D01*
X179754Y233654D01*
X179855Y233575D01*
X179984Y233503D01*
X180127Y233432D01*
X180134D01*
X180149Y233424D01*
X180170Y233417D01*
X180199Y233403D01*
X180242Y233396D01*
X180292Y233382D01*
X180349Y233367D01*
X180421Y233353D01*
X180500Y233331D01*
X180586Y233317D01*
X180679Y233303D01*
X180780Y233295D01*
X180894Y233281D01*
X181009Y233274D01*
X181138Y233267D01*
X181267D01*
X181260Y233274D01*
X181217Y233303D01*
X181159Y233353D01*
X181088Y233417D01*
X181002Y233489D01*
X180923Y233582D01*
X180844Y233683D01*
X180772Y233797D01*
Y233804D01*
X180765Y233812D01*
X180744Y233855D01*
X180722Y233919D01*
X180686Y234005D01*
X180658Y234106D01*
X180636Y234220D01*
X180615Y234342D01*
X180607Y234471D01*
Y234529D01*
X180615Y234572D01*
X180622Y234629D01*
X180629Y234686D01*
X180643Y234758D01*
X180665Y234830D01*
X180715Y234995D01*
X180751Y235081D01*
X180801Y235167D01*
X180851Y235253D01*
X180909Y235346D01*
X180980Y235432D01*
X181059Y235511D01*
X181066Y235518D01*
X181081Y235532D01*
X181102Y235554D01*
X181138Y235576D01*
X181188Y235611D01*
X181238Y235647D01*
X181303Y235683D01*
X181375Y235726D01*
X181454Y235769D01*
X181539Y235805D01*
X181640Y235841D01*
X181740Y235877D01*
X181848Y235898D01*
X181970Y235920D01*
X182092Y235934D01*
X182221Y235941D01*
X182228D01*
X182242D01*
X182264D01*
X182300D01*
X182343Y235934D01*
D02*
G37*
G36*
X75188Y232166D02*
X75249Y232155D01*
X75315Y232139D01*
X75388Y232111D01*
X75471Y232078D01*
X75548Y232033D01*
X75560Y232028D01*
X75582Y232005D01*
X75621Y231978D01*
X75665Y231933D01*
X75715Y231872D01*
X75770Y231806D01*
X75820Y231728D01*
X75870Y231634D01*
Y231628D01*
X75876Y231623D01*
X75887Y231589D01*
X75904Y231534D01*
X75926Y231462D01*
X75948Y231373D01*
X75965Y231273D01*
X75976Y231167D01*
X75981Y231045D01*
Y230995D01*
X75976Y230957D01*
Y230912D01*
X75970Y230857D01*
X75965Y230801D01*
X75954Y230740D01*
X75926Y230607D01*
X75887Y230468D01*
X75832Y230335D01*
X75798Y230274D01*
X75759Y230218D01*
X75754Y230213D01*
X75748Y230207D01*
X75715Y230174D01*
X75665Y230124D01*
X75587Y230068D01*
X75493Y230007D01*
X75382Y229946D01*
X75243Y229896D01*
X75088Y229858D01*
X75016Y230324D01*
X75021D01*
X75027D01*
X75060Y230335D01*
X75116Y230346D01*
X75177Y230368D01*
X75243Y230396D01*
X75315Y230429D01*
X75388Y230479D01*
X75449Y230540D01*
X75454Y230551D01*
X75471Y230574D01*
X75493Y230618D01*
X75521Y230673D01*
X75548Y230746D01*
X75571Y230829D01*
X75587Y230929D01*
X75593Y231045D01*
Y231101D01*
X75587Y231156D01*
X75576Y231228D01*
X75560Y231306D01*
X75537Y231389D01*
X75510Y231462D01*
X75465Y231528D01*
X75460Y231534D01*
X75443Y231556D01*
X75415Y231578D01*
X75376Y231611D01*
X75332Y231639D01*
X75276Y231667D01*
X75221Y231683D01*
X75154Y231689D01*
X75149D01*
X75127D01*
X75099Y231683D01*
X75060Y231672D01*
X75021Y231656D01*
X74982Y231628D01*
X74938Y231595D01*
X74905Y231545D01*
X74899Y231539D01*
X74893Y231523D01*
X74877Y231495D01*
X74860Y231450D01*
X74838Y231384D01*
X74821Y231345D01*
X74810Y231301D01*
X74794Y231251D01*
X74777Y231195D01*
X74760Y231134D01*
X74744Y231062D01*
Y231056D01*
X74738Y231040D01*
X74733Y231012D01*
X74721Y230979D01*
X74710Y230934D01*
X74694Y230884D01*
X74666Y230779D01*
X74627Y230657D01*
X74594Y230540D01*
X74555Y230429D01*
X74533Y230379D01*
X74516Y230340D01*
X74511Y230329D01*
X74499Y230307D01*
X74477Y230274D01*
X74449Y230229D01*
X74411Y230180D01*
X74366Y230130D01*
X74316Y230080D01*
X74255Y230035D01*
X74250Y230030D01*
X74227Y230018D01*
X74189Y230002D01*
X74144Y229985D01*
X74089Y229969D01*
X74022Y229952D01*
X73956Y229941D01*
X73878Y229935D01*
X73867D01*
X73845D01*
X73811Y229941D01*
X73761Y229946D01*
X73711Y229958D01*
X73650Y229969D01*
X73595Y229991D01*
X73534Y230018D01*
X73528Y230024D01*
X73506Y230035D01*
X73478Y230052D01*
X73439Y230080D01*
X73401Y230113D01*
X73351Y230152D01*
X73306Y230196D01*
X73267Y230252D01*
X73262Y230257D01*
X73256Y230274D01*
X73240Y230296D01*
X73223Y230329D01*
X73201Y230374D01*
X73179Y230424D01*
X73156Y230485D01*
X73134Y230551D01*
X73129Y230562D01*
X73123Y230585D01*
X73112Y230624D01*
X73101Y230673D01*
X73090Y230734D01*
X73084Y230801D01*
X73073Y230879D01*
Y231012D01*
X73079Y231073D01*
X73084Y231156D01*
X73095Y231245D01*
X73118Y231339D01*
X73140Y231439D01*
X73173Y231534D01*
Y231539D01*
X73179Y231545D01*
X73190Y231573D01*
X73212Y231617D01*
X73240Y231672D01*
X73278Y231733D01*
X73323Y231795D01*
X73373Y231850D01*
X73428Y231900D01*
X73434Y231906D01*
X73456Y231917D01*
X73495Y231939D01*
X73539Y231967D01*
X73606Y231994D01*
X73678Y232022D01*
X73761Y232044D01*
X73856Y232066D01*
X73917Y231606D01*
X73906D01*
X73883Y231600D01*
X73845Y231589D01*
X73795Y231573D01*
X73745Y231545D01*
X73689Y231511D01*
X73634Y231473D01*
X73584Y231417D01*
X73578Y231412D01*
X73567Y231389D01*
X73545Y231356D01*
X73523Y231306D01*
X73501Y231251D01*
X73478Y231178D01*
X73467Y231090D01*
X73462Y230995D01*
Y230940D01*
X73467Y230884D01*
X73473Y230812D01*
X73489Y230740D01*
X73506Y230662D01*
X73534Y230590D01*
X73573Y230529D01*
X73578Y230524D01*
X73589Y230507D01*
X73611Y230485D01*
X73645Y230463D01*
X73678Y230435D01*
X73722Y230413D01*
X73772Y230396D01*
X73822Y230390D01*
X73828D01*
X73839D01*
X73856Y230396D01*
X73878D01*
X73933Y230413D01*
X73989Y230446D01*
X73994Y230451D01*
X74000Y230457D01*
X74017Y230468D01*
X74033Y230490D01*
X74050Y230512D01*
X74072Y230546D01*
X74089Y230585D01*
X74111Y230629D01*
Y230635D01*
X74116Y230646D01*
X74122Y230668D01*
X74139Y230707D01*
X74155Y230762D01*
X74172Y230834D01*
X74189Y230879D01*
X74200Y230929D01*
X74216Y230984D01*
X74233Y231045D01*
Y231051D01*
X74239Y231067D01*
X74244Y231095D01*
X74255Y231129D01*
X74266Y231167D01*
X74278Y231217D01*
X74311Y231323D01*
X74344Y231439D01*
X74383Y231556D01*
X74422Y231661D01*
X74438Y231706D01*
X74455Y231745D01*
X74461Y231756D01*
X74472Y231778D01*
X74488Y231811D01*
X74516Y231861D01*
X74549Y231911D01*
X74594Y231961D01*
X74644Y232011D01*
X74699Y232055D01*
X74705Y232061D01*
X74727Y232072D01*
X74760Y232094D01*
X74810Y232116D01*
X74871Y232133D01*
X74938Y232155D01*
X75016Y232166D01*
X75104Y232172D01*
X75116D01*
X75143D01*
X75188Y232166D01*
D02*
G37*
G36*
X75920Y228875D02*
X74172D01*
X74167D01*
X74161D01*
X74128D01*
X74078D01*
X74017Y228870D01*
X73950Y228864D01*
X73883Y228859D01*
X73817Y228848D01*
X73767Y228831D01*
X73761D01*
X73745Y228820D01*
X73722Y228809D01*
X73695Y228792D01*
X73661Y228770D01*
X73628Y228742D01*
X73595Y228709D01*
X73562Y228664D01*
X73556Y228659D01*
X73550Y228642D01*
X73539Y228620D01*
X73523Y228581D01*
X73506Y228542D01*
X73495Y228492D01*
X73489Y228442D01*
X73484Y228381D01*
Y228354D01*
X73489Y228331D01*
X73495Y228276D01*
X73506Y228209D01*
X73534Y228132D01*
X73567Y228048D01*
X73617Y227965D01*
X73684Y227887D01*
X73695Y227882D01*
X73722Y227860D01*
X73767Y227826D01*
X73834Y227793D01*
X73922Y227754D01*
X74028Y227726D01*
X74155Y227704D01*
X74305Y227693D01*
X75920D01*
Y227221D01*
X74116D01*
X74111D01*
X74100D01*
X74089D01*
X74067D01*
X74006Y227216D01*
X73939Y227205D01*
X73861Y227194D01*
X73783Y227171D01*
X73711Y227144D01*
X73645Y227105D01*
X73639Y227099D01*
X73617Y227083D01*
X73595Y227055D01*
X73562Y227016D01*
X73534Y226966D01*
X73506Y226899D01*
X73489Y226822D01*
X73484Y226727D01*
Y226694D01*
X73489Y226655D01*
X73495Y226611D01*
X73512Y226555D01*
X73528Y226489D01*
X73556Y226428D01*
X73589Y226361D01*
X73595Y226356D01*
X73611Y226333D01*
X73634Y226306D01*
X73667Y226267D01*
X73711Y226228D01*
X73767Y226189D01*
X73828Y226150D01*
X73900Y226117D01*
X73911Y226111D01*
X73939Y226106D01*
X73983Y226095D01*
X74044Y226078D01*
X74128Y226061D01*
X74227Y226050D01*
X74344Y226045D01*
X74477Y226039D01*
X75920D01*
Y225567D01*
X73134D01*
Y225989D01*
X73534D01*
X73523Y225995D01*
X73501Y226011D01*
X73462Y226045D01*
X73417Y226084D01*
X73362Y226133D01*
X73306Y226195D01*
X73251Y226261D01*
X73201Y226339D01*
X73195Y226350D01*
X73179Y226378D01*
X73162Y226422D01*
X73134Y226483D01*
X73112Y226555D01*
X73095Y226639D01*
X73079Y226733D01*
X73073Y226833D01*
Y226883D01*
X73079Y226944D01*
X73090Y227010D01*
X73106Y227094D01*
X73129Y227177D01*
X73162Y227260D01*
X73206Y227338D01*
X73212Y227349D01*
X73229Y227371D01*
X73256Y227404D01*
X73301Y227449D01*
X73351Y227493D01*
X73412Y227543D01*
X73484Y227588D01*
X73567Y227621D01*
X73562Y227626D01*
X73545Y227638D01*
X73523Y227654D01*
X73489Y227682D01*
X73450Y227715D01*
X73412Y227754D01*
X73367Y227799D01*
X73317Y227854D01*
X73273Y227915D01*
X73229Y227976D01*
X73190Y228048D01*
X73151Y228126D01*
X73118Y228209D01*
X73095Y228298D01*
X73079Y228387D01*
X73073Y228487D01*
Y228526D01*
X73079Y228553D01*
Y228592D01*
X73084Y228631D01*
X73101Y228725D01*
X73129Y228825D01*
X73173Y228931D01*
X73229Y229036D01*
X73306Y229125D01*
X73317Y229136D01*
X73351Y229158D01*
X73401Y229197D01*
X73439Y229214D01*
X73478Y229236D01*
X73528Y229258D01*
X73578Y229275D01*
X73634Y229297D01*
X73700Y229314D01*
X73767Y229325D01*
X73845Y229336D01*
X73922Y229347D01*
X74011D01*
X75920D01*
Y228875D01*
D02*
G37*
G36*
Y224402D02*
X74172D01*
X74167D01*
X74161D01*
X74128D01*
X74078D01*
X74017Y224396D01*
X73950Y224391D01*
X73883Y224385D01*
X73817Y224374D01*
X73767Y224358D01*
X73761D01*
X73745Y224346D01*
X73722Y224335D01*
X73695Y224319D01*
X73661Y224296D01*
X73628Y224269D01*
X73595Y224235D01*
X73562Y224191D01*
X73556Y224185D01*
X73550Y224169D01*
X73539Y224147D01*
X73523Y224108D01*
X73506Y224069D01*
X73495Y224019D01*
X73489Y223969D01*
X73484Y223908D01*
Y223880D01*
X73489Y223858D01*
X73495Y223802D01*
X73506Y223736D01*
X73534Y223658D01*
X73567Y223575D01*
X73617Y223492D01*
X73684Y223414D01*
X73695Y223409D01*
X73722Y223386D01*
X73767Y223353D01*
X73834Y223320D01*
X73922Y223281D01*
X74028Y223253D01*
X74155Y223231D01*
X74305Y223220D01*
X75920D01*
Y222748D01*
X74116D01*
X74111D01*
X74100D01*
X74089D01*
X74067D01*
X74006Y222743D01*
X73939Y222731D01*
X73861Y222720D01*
X73783Y222698D01*
X73711Y222670D01*
X73645Y222632D01*
X73639Y222626D01*
X73617Y222609D01*
X73595Y222582D01*
X73562Y222543D01*
X73534Y222493D01*
X73506Y222426D01*
X73489Y222348D01*
X73484Y222254D01*
Y222221D01*
X73489Y222182D01*
X73495Y222137D01*
X73512Y222082D01*
X73528Y222015D01*
X73556Y221954D01*
X73589Y221888D01*
X73595Y221882D01*
X73611Y221860D01*
X73634Y221832D01*
X73667Y221793D01*
X73711Y221755D01*
X73767Y221716D01*
X73828Y221677D01*
X73900Y221644D01*
X73911Y221638D01*
X73939Y221633D01*
X73983Y221621D01*
X74044Y221605D01*
X74128Y221588D01*
X74227Y221577D01*
X74344Y221571D01*
X74477Y221566D01*
X75920D01*
Y221094D01*
X73134D01*
Y221516D01*
X73534D01*
X73523Y221521D01*
X73501Y221538D01*
X73462Y221571D01*
X73417Y221610D01*
X73362Y221660D01*
X73306Y221721D01*
X73251Y221788D01*
X73201Y221866D01*
X73195Y221877D01*
X73179Y221904D01*
X73162Y221949D01*
X73134Y222010D01*
X73112Y222082D01*
X73095Y222165D01*
X73079Y222260D01*
X73073Y222359D01*
Y222410D01*
X73079Y222470D01*
X73090Y222537D01*
X73106Y222620D01*
X73129Y222704D01*
X73162Y222787D01*
X73206Y222865D01*
X73212Y222876D01*
X73229Y222898D01*
X73256Y222931D01*
X73301Y222976D01*
X73351Y223020D01*
X73412Y223070D01*
X73484Y223114D01*
X73567Y223148D01*
X73562Y223153D01*
X73545Y223164D01*
X73523Y223181D01*
X73489Y223209D01*
X73450Y223242D01*
X73412Y223281D01*
X73367Y223325D01*
X73317Y223381D01*
X73273Y223442D01*
X73229Y223503D01*
X73190Y223575D01*
X73151Y223653D01*
X73118Y223736D01*
X73095Y223825D01*
X73079Y223914D01*
X73073Y224013D01*
Y224052D01*
X73079Y224080D01*
Y224119D01*
X73084Y224158D01*
X73101Y224252D01*
X73129Y224352D01*
X73173Y224457D01*
X73229Y224563D01*
X73306Y224652D01*
X73317Y224663D01*
X73351Y224685D01*
X73401Y224724D01*
X73439Y224741D01*
X73478Y224763D01*
X73528Y224785D01*
X73578Y224801D01*
X73634Y224824D01*
X73700Y224840D01*
X73767Y224851D01*
X73845Y224863D01*
X73922Y224874D01*
X74011D01*
X75920D01*
Y224402D01*
D02*
G37*
G36*
X74622Y220539D02*
X74677Y220534D01*
X74733D01*
X74794Y220522D01*
X74932Y220506D01*
X75071Y220473D01*
X75210Y220434D01*
X75337Y220378D01*
X75343D01*
X75349Y220373D01*
X75365Y220361D01*
X75388Y220350D01*
X75443Y220312D01*
X75510Y220262D01*
X75587Y220195D01*
X75665Y220112D01*
X75743Y220017D01*
X75815Y219906D01*
Y219901D01*
X75820Y219895D01*
X75832Y219879D01*
X75843Y219851D01*
X75854Y219823D01*
X75865Y219790D01*
X75898Y219707D01*
X75926Y219612D01*
X75954Y219496D01*
X75976Y219374D01*
X75981Y219240D01*
Y219185D01*
X75976Y219141D01*
X75970Y219091D01*
X75959Y219035D01*
X75948Y218969D01*
X75937Y218902D01*
X75893Y218752D01*
X75859Y218669D01*
X75826Y218591D01*
X75782Y218513D01*
X75732Y218436D01*
X75676Y218363D01*
X75609Y218291D01*
X75604Y218286D01*
X75593Y218275D01*
X75571Y218258D01*
X75537Y218236D01*
X75498Y218208D01*
X75454Y218180D01*
X75399Y218147D01*
X75332Y218114D01*
X75260Y218080D01*
X75177Y218047D01*
X75088Y218019D01*
X74993Y217992D01*
X74888Y217969D01*
X74777Y217953D01*
X74655Y217942D01*
X74527Y217936D01*
X74516D01*
X74494D01*
X74455Y217942D01*
X74400D01*
X74339Y217947D01*
X74261Y217958D01*
X74183Y217969D01*
X74094Y217992D01*
X74006Y218014D01*
X73911Y218042D01*
X73811Y218075D01*
X73717Y218119D01*
X73628Y218164D01*
X73539Y218225D01*
X73456Y218286D01*
X73384Y218363D01*
X73378Y218369D01*
X73373Y218380D01*
X73356Y218402D01*
X73334Y218430D01*
X73312Y218463D01*
X73284Y218508D01*
X73256Y218552D01*
X73229Y218608D01*
X73201Y218669D01*
X73173Y218735D01*
X73123Y218885D01*
X73084Y219057D01*
X73079Y219146D01*
X73073Y219240D01*
Y219296D01*
X73079Y219335D01*
X73084Y219385D01*
X73095Y219440D01*
X73106Y219501D01*
X73118Y219573D01*
X73168Y219723D01*
X73195Y219801D01*
X73234Y219879D01*
X73273Y219956D01*
X73328Y220034D01*
X73384Y220106D01*
X73450Y220178D01*
X73456Y220184D01*
X73467Y220195D01*
X73489Y220212D01*
X73517Y220234D01*
X73556Y220262D01*
X73606Y220295D01*
X73661Y220328D01*
X73722Y220361D01*
X73789Y220395D01*
X73872Y220428D01*
X73956Y220461D01*
X74050Y220489D01*
X74150Y220511D01*
X74255Y220528D01*
X74366Y220539D01*
X74488Y220545D01*
X74494D01*
X74511D01*
X74538D01*
X74577D01*
X74622Y220539D01*
D02*
G37*
G36*
X74733Y217542D02*
X74766Y217531D01*
X74810Y217514D01*
X74860Y217498D01*
X74921Y217476D01*
X74988Y217448D01*
X75060Y217414D01*
X75215Y217337D01*
X75371Y217237D01*
X75449Y217176D01*
X75526Y217115D01*
X75593Y217048D01*
X75659Y216970D01*
X75665Y216965D01*
X75676Y216954D01*
X75687Y216926D01*
X75709Y216898D01*
X75737Y216854D01*
X75765Y216810D01*
X75793Y216748D01*
X75820Y216687D01*
X75854Y216615D01*
X75881Y216538D01*
X75909Y216454D01*
X75937Y216366D01*
X75959Y216271D01*
X75970Y216171D01*
X75981Y216066D01*
X75987Y215955D01*
Y215894D01*
X75981Y215849D01*
Y215799D01*
X75976Y215738D01*
X75965Y215672D01*
X75954Y215594D01*
X75926Y215433D01*
X75881Y215267D01*
X75820Y215100D01*
X75782Y215022D01*
X75737Y214945D01*
X75732Y214939D01*
X75726Y214928D01*
X75709Y214906D01*
X75687Y214884D01*
X75665Y214850D01*
X75632Y214811D01*
X75593Y214767D01*
X75548Y214723D01*
X75498Y214678D01*
X75449Y214628D01*
X75321Y214528D01*
X75171Y214434D01*
X75005Y214351D01*
X74999D01*
X74982Y214340D01*
X74955Y214334D01*
X74921Y214318D01*
X74877Y214306D01*
X74821Y214290D01*
X74760Y214268D01*
X74694Y214251D01*
X74622Y214234D01*
X74538Y214212D01*
X74366Y214184D01*
X74172Y214162D01*
X73972Y214151D01*
X73967D01*
X73944D01*
X73911D01*
X73872Y214157D01*
X73817D01*
X73761Y214162D01*
X73689Y214168D01*
X73617Y214179D01*
X73456Y214207D01*
X73278Y214245D01*
X73101Y214301D01*
X72929Y214379D01*
X72923Y214384D01*
X72907Y214390D01*
X72884Y214401D01*
X72857Y214423D01*
X72818Y214445D01*
X72773Y214473D01*
X72673Y214545D01*
X72562Y214639D01*
X72452Y214751D01*
X72341Y214878D01*
X72246Y215028D01*
X72241Y215034D01*
X72235Y215050D01*
X72224Y215072D01*
X72207Y215100D01*
X72191Y215144D01*
X72174Y215189D01*
X72152Y215244D01*
X72130Y215305D01*
X72107Y215372D01*
X72085Y215444D01*
X72052Y215600D01*
X72024Y215777D01*
X72013Y215960D01*
Y216016D01*
X72019Y216055D01*
X72024Y216105D01*
X72030Y216166D01*
X72035Y216227D01*
X72052Y216299D01*
X72085Y216449D01*
X72135Y216615D01*
X72168Y216699D01*
X72207Y216776D01*
X72257Y216854D01*
X72307Y216932D01*
X72313Y216937D01*
X72318Y216948D01*
X72335Y216970D01*
X72363Y216998D01*
X72391Y217026D01*
X72429Y217065D01*
X72474Y217104D01*
X72518Y217148D01*
X72574Y217193D01*
X72640Y217237D01*
X72707Y217287D01*
X72779Y217331D01*
X72862Y217370D01*
X72945Y217414D01*
X73034Y217448D01*
X73134Y217481D01*
X73251Y216982D01*
X73245D01*
X73234Y216976D01*
X73212Y216965D01*
X73184Y216954D01*
X73151Y216943D01*
X73106Y216926D01*
X73018Y216882D01*
X72918Y216826D01*
X72818Y216760D01*
X72724Y216676D01*
X72640Y216587D01*
X72629Y216576D01*
X72607Y216543D01*
X72579Y216488D01*
X72540Y216416D01*
X72507Y216321D01*
X72474Y216216D01*
X72452Y216088D01*
X72446Y215949D01*
Y215905D01*
X72452Y215877D01*
Y215838D01*
X72457Y215794D01*
X72474Y215688D01*
X72496Y215572D01*
X72535Y215450D01*
X72590Y215322D01*
X72662Y215206D01*
Y215200D01*
X72673Y215195D01*
X72701Y215156D01*
X72746Y215106D01*
X72812Y215045D01*
X72895Y214972D01*
X72990Y214906D01*
X73106Y214845D01*
X73234Y214789D01*
X73240D01*
X73251Y214784D01*
X73267Y214778D01*
X73295Y214773D01*
X73328Y214762D01*
X73367Y214751D01*
X73462Y214734D01*
X73573Y214712D01*
X73695Y214689D01*
X73828Y214678D01*
X73972Y214673D01*
X73978D01*
X73994D01*
X74022D01*
X74055D01*
X74094Y214678D01*
X74144D01*
X74200Y214684D01*
X74261Y214689D01*
X74394Y214706D01*
X74538Y214734D01*
X74683Y214767D01*
X74827Y214811D01*
X74832D01*
X74844Y214817D01*
X74860Y214828D01*
X74888Y214839D01*
X74955Y214873D01*
X75032Y214922D01*
X75121Y214984D01*
X75215Y215061D01*
X75299Y215150D01*
X75376Y215255D01*
Y215261D01*
X75382Y215272D01*
X75393Y215289D01*
X75404Y215311D01*
X75415Y215339D01*
X75432Y215372D01*
X75465Y215450D01*
X75498Y215550D01*
X75526Y215661D01*
X75548Y215783D01*
X75554Y215910D01*
Y215949D01*
X75548Y215983D01*
Y216021D01*
X75543Y216060D01*
X75521Y216160D01*
X75493Y216277D01*
X75449Y216393D01*
X75388Y216515D01*
X75354Y216576D01*
X75310Y216632D01*
X75304Y216637D01*
X75299Y216643D01*
X75282Y216660D01*
X75265Y216682D01*
X75238Y216704D01*
X75204Y216732D01*
X75171Y216765D01*
X75127Y216793D01*
X75077Y216826D01*
X75021Y216865D01*
X74966Y216898D01*
X74899Y216932D01*
X74827Y216959D01*
X74749Y216987D01*
X74666Y217015D01*
X74577Y217037D01*
X74705Y217548D01*
X74710D01*
X74733Y217542D01*
D02*
G37*
G36*
X75920Y212331D02*
X75926Y212309D01*
X75931Y212270D01*
X75937Y212220D01*
X75948Y212164D01*
X75954Y212103D01*
X75959Y211981D01*
Y211937D01*
X75954Y211892D01*
X75948Y211837D01*
X75942Y211770D01*
X75926Y211703D01*
X75909Y211643D01*
X75881Y211581D01*
X75876Y211576D01*
X75865Y211559D01*
X75848Y211537D01*
X75820Y211504D01*
X75793Y211476D01*
X75754Y211443D01*
X75715Y211409D01*
X75665Y211387D01*
X75659D01*
X75637Y211376D01*
X75598Y211370D01*
X75543Y211359D01*
X75471Y211348D01*
X75426Y211343D01*
X75376D01*
X75315Y211337D01*
X75254Y211332D01*
X75188D01*
X75110D01*
X73501D01*
Y210982D01*
X73134D01*
Y211332D01*
X72446D01*
X72163Y211803D01*
X73134D01*
Y212281D01*
X73501D01*
Y211803D01*
X75138D01*
X75149D01*
X75171D01*
X75204D01*
X75243Y211809D01*
X75332Y211814D01*
X75371Y211820D01*
X75399Y211826D01*
X75410Y211831D01*
X75432Y211848D01*
X75460Y211870D01*
X75487Y211909D01*
X75493Y211920D01*
X75504Y211948D01*
X75515Y211998D01*
X75521Y212070D01*
Y212125D01*
X75515Y212153D01*
Y212192D01*
X75510Y212236D01*
X75504Y212281D01*
X75920Y212342D01*
Y212331D01*
D02*
G37*
G36*
X72474Y211010D02*
Y211004D01*
X72468Y210988D01*
X72463Y210960D01*
X72457Y210921D01*
Y210877D01*
X72452Y210832D01*
X72446Y210732D01*
Y210699D01*
X72452Y210660D01*
X72457Y210616D01*
X72468Y210566D01*
X72485Y210516D01*
X72507Y210471D01*
X72540Y210433D01*
X72546Y210427D01*
X72557Y210421D01*
X72579Y210405D01*
X72618Y210388D01*
X72662Y210371D01*
X72718Y210360D01*
X72790Y210349D01*
X72879Y210344D01*
X73134D01*
Y210882D01*
X73501D01*
Y210344D01*
X75920D01*
Y209872D01*
X73501D01*
Y209456D01*
X73134D01*
Y209872D01*
X72840D01*
X72834D01*
X72829D01*
X72796D01*
X72746Y209878D01*
X72685D01*
X72618Y209883D01*
X72546Y209894D01*
X72479Y209905D01*
X72424Y209922D01*
X72418Y209928D01*
X72391Y209933D01*
X72357Y209950D01*
X72318Y209978D01*
X72274Y210011D01*
X72224Y210050D01*
X72174Y210100D01*
X72130Y210161D01*
X72124Y210166D01*
X72113Y210194D01*
X72091Y210233D01*
X72069Y210288D01*
X72052Y210355D01*
X72030Y210438D01*
X72019Y210532D01*
X72013Y210644D01*
Y210721D01*
X72019Y210771D01*
X72024Y210838D01*
X72035Y210915D01*
X72046Y210993D01*
X72063Y211082D01*
X72474Y211010D01*
D02*
G37*
G36*
X74649Y209178D02*
Y207097D01*
X74655D01*
X74672D01*
X74694Y207103D01*
X74727D01*
X74766Y207108D01*
X74810Y207119D01*
X74910Y207136D01*
X75021Y207169D01*
X75143Y207214D01*
X75254Y207275D01*
X75354Y207352D01*
Y207358D01*
X75365Y207363D01*
X75393Y207397D01*
X75432Y207447D01*
X75471Y207513D01*
X75515Y207602D01*
X75554Y207702D01*
X75582Y207813D01*
X75587Y207874D01*
X75593Y207941D01*
Y207985D01*
X75587Y208035D01*
X75576Y208096D01*
X75560Y208163D01*
X75537Y208240D01*
X75504Y208313D01*
X75460Y208385D01*
X75454Y208390D01*
X75432Y208418D01*
X75399Y208451D01*
X75354Y208490D01*
X75293Y208535D01*
X75215Y208584D01*
X75127Y208634D01*
X75021Y208679D01*
X75082Y209167D01*
X75088D01*
X75099Y209162D01*
X75121Y209156D01*
X75154Y209145D01*
X75188Y209128D01*
X75232Y209112D01*
X75326Y209067D01*
X75432Y209012D01*
X75543Y208934D01*
X75648Y208845D01*
X75748Y208734D01*
Y208729D01*
X75759Y208718D01*
X75770Y208701D01*
X75787Y208679D01*
X75804Y208646D01*
X75820Y208612D01*
X75843Y208568D01*
X75865Y208518D01*
X75887Y208462D01*
X75909Y208407D01*
X75942Y208268D01*
X75970Y208113D01*
X75981Y207941D01*
Y207880D01*
X75976Y207841D01*
X75970Y207791D01*
X75959Y207730D01*
X75948Y207663D01*
X75937Y207591D01*
X75893Y207436D01*
X75859Y207352D01*
X75826Y207275D01*
X75782Y207191D01*
X75732Y207114D01*
X75676Y207042D01*
X75609Y206969D01*
X75604Y206964D01*
X75593Y206953D01*
X75571Y206936D01*
X75537Y206914D01*
X75498Y206886D01*
X75454Y206858D01*
X75399Y206825D01*
X75337Y206792D01*
X75265Y206758D01*
X75188Y206725D01*
X75099Y206697D01*
X75005Y206670D01*
X74905Y206647D01*
X74794Y206631D01*
X74677Y206620D01*
X74555Y206614D01*
X74549D01*
X74522D01*
X74488D01*
X74438Y206620D01*
X74377Y206625D01*
X74311Y206631D01*
X74233Y206642D01*
X74155Y206659D01*
X73978Y206703D01*
X73889Y206731D01*
X73795Y206764D01*
X73706Y206808D01*
X73623Y206858D01*
X73539Y206914D01*
X73462Y206975D01*
X73456Y206980D01*
X73445Y206992D01*
X73428Y207014D01*
X73401Y207042D01*
X73373Y207075D01*
X73339Y207119D01*
X73301Y207169D01*
X73267Y207230D01*
X73229Y207291D01*
X73195Y207363D01*
X73162Y207441D01*
X73134Y207524D01*
X73106Y207613D01*
X73090Y207708D01*
X73079Y207807D01*
X73073Y207913D01*
Y207968D01*
X73079Y208007D01*
X73084Y208052D01*
X73095Y208107D01*
X73106Y208168D01*
X73123Y208240D01*
X73140Y208307D01*
X73168Y208385D01*
X73195Y208457D01*
X73234Y208535D01*
X73278Y208612D01*
X73328Y208690D01*
X73390Y208762D01*
X73456Y208829D01*
X73462Y208834D01*
X73473Y208845D01*
X73495Y208862D01*
X73528Y208884D01*
X73567Y208912D01*
X73611Y208940D01*
X73667Y208973D01*
X73734Y209006D01*
X73806Y209039D01*
X73883Y209073D01*
X73972Y209101D01*
X74067Y209128D01*
X74172Y209151D01*
X74283Y209167D01*
X74400Y209178D01*
X74527Y209184D01*
X74533D01*
X74555D01*
X74594D01*
X74649Y209178D01*
D02*
G37*
G36*
X75920Y203828D02*
X72080D01*
Y204339D01*
X75465D01*
Y206231D01*
X75920D01*
Y203828D01*
D02*
G37*
G36*
X171658Y230940D02*
X171719Y230928D01*
X171785Y230912D01*
X171858Y230884D01*
X171941Y230851D01*
X172018Y230806D01*
X172029Y230801D01*
X172052Y230779D01*
X172091Y230751D01*
X172135Y230707D01*
X172185Y230645D01*
X172240Y230579D01*
X172290Y230501D01*
X172340Y230407D01*
Y230401D01*
X172346Y230396D01*
X172357Y230362D01*
X172374Y230307D01*
X172396Y230235D01*
X172418Y230146D01*
X172435Y230046D01*
X172446Y229941D01*
X172451Y229819D01*
Y229769D01*
X172446Y229730D01*
Y229685D01*
X172440Y229630D01*
X172435Y229574D01*
X172424Y229513D01*
X172396Y229380D01*
X172357Y229241D01*
X172301Y229108D01*
X172268Y229047D01*
X172229Y228992D01*
X172224Y228986D01*
X172218Y228980D01*
X172185Y228947D01*
X172135Y228897D01*
X172057Y228842D01*
X171963Y228781D01*
X171852Y228720D01*
X171713Y228670D01*
X171558Y228631D01*
X171486Y229097D01*
X171491D01*
X171497D01*
X171530Y229108D01*
X171586Y229119D01*
X171647Y229141D01*
X171713Y229169D01*
X171785Y229202D01*
X171858Y229252D01*
X171918Y229313D01*
X171924Y229325D01*
X171941Y229347D01*
X171963Y229391D01*
X171991Y229447D01*
X172018Y229519D01*
X172041Y229602D01*
X172057Y229702D01*
X172063Y229819D01*
Y229874D01*
X172057Y229929D01*
X172046Y230002D01*
X172029Y230079D01*
X172007Y230163D01*
X171980Y230235D01*
X171935Y230301D01*
X171930Y230307D01*
X171913Y230329D01*
X171885Y230351D01*
X171846Y230385D01*
X171802Y230412D01*
X171747Y230440D01*
X171691Y230457D01*
X171624Y230462D01*
X171619D01*
X171597D01*
X171569Y230457D01*
X171530Y230446D01*
X171491Y230429D01*
X171452Y230401D01*
X171408Y230368D01*
X171375Y230318D01*
X171369Y230312D01*
X171363Y230296D01*
X171347Y230268D01*
X171330Y230224D01*
X171308Y230157D01*
X171291Y230118D01*
X171280Y230074D01*
X171264Y230024D01*
X171247Y229968D01*
X171230Y229907D01*
X171214Y229835D01*
Y229830D01*
X171208Y229813D01*
X171203Y229785D01*
X171192Y229752D01*
X171180Y229708D01*
X171164Y229658D01*
X171136Y229552D01*
X171097Y229430D01*
X171064Y229313D01*
X171025Y229202D01*
X171003Y229152D01*
X170986Y229114D01*
X170981Y229103D01*
X170969Y229080D01*
X170947Y229047D01*
X170920Y229003D01*
X170881Y228953D01*
X170836Y228903D01*
X170786Y228853D01*
X170725Y228808D01*
X170720Y228803D01*
X170697Y228792D01*
X170659Y228775D01*
X170614Y228758D01*
X170559Y228742D01*
X170492Y228725D01*
X170426Y228714D01*
X170348Y228709D01*
X170337D01*
X170315D01*
X170281Y228714D01*
X170231Y228720D01*
X170181Y228731D01*
X170120Y228742D01*
X170065Y228764D01*
X170004Y228792D01*
X169998Y228797D01*
X169976Y228808D01*
X169948Y228825D01*
X169909Y228853D01*
X169871Y228886D01*
X169821Y228925D01*
X169776Y228969D01*
X169737Y229025D01*
X169732Y229030D01*
X169726Y229047D01*
X169710Y229069D01*
X169693Y229103D01*
X169671Y229147D01*
X169649Y229197D01*
X169626Y229258D01*
X169604Y229325D01*
X169599Y229336D01*
X169593Y229358D01*
X169582Y229397D01*
X169571Y229447D01*
X169560Y229508D01*
X169554Y229574D01*
X169543Y229652D01*
Y229785D01*
X169549Y229846D01*
X169554Y229929D01*
X169565Y230018D01*
X169588Y230113D01*
X169610Y230213D01*
X169643Y230307D01*
Y230312D01*
X169649Y230318D01*
X169660Y230346D01*
X169682Y230390D01*
X169710Y230446D01*
X169748Y230507D01*
X169793Y230568D01*
X169843Y230623D01*
X169898Y230673D01*
X169904Y230679D01*
X169926Y230690D01*
X169965Y230712D01*
X170009Y230740D01*
X170076Y230767D01*
X170148Y230795D01*
X170231Y230818D01*
X170326Y230840D01*
X170387Y230379D01*
X170376D01*
X170353Y230374D01*
X170315Y230362D01*
X170265Y230346D01*
X170215Y230318D01*
X170159Y230285D01*
X170104Y230246D01*
X170054Y230190D01*
X170048Y230185D01*
X170037Y230163D01*
X170015Y230129D01*
X169993Y230079D01*
X169971Y230024D01*
X169948Y229952D01*
X169937Y229863D01*
X169932Y229769D01*
Y229713D01*
X169937Y229658D01*
X169943Y229585D01*
X169959Y229513D01*
X169976Y229436D01*
X170004Y229363D01*
X170043Y229302D01*
X170048Y229297D01*
X170059Y229280D01*
X170081Y229258D01*
X170115Y229236D01*
X170148Y229208D01*
X170193Y229186D01*
X170242Y229169D01*
X170292Y229164D01*
X170298D01*
X170309D01*
X170326Y229169D01*
X170348D01*
X170403Y229186D01*
X170459Y229219D01*
X170464Y229225D01*
X170470Y229230D01*
X170487Y229241D01*
X170503Y229263D01*
X170520Y229286D01*
X170542Y229319D01*
X170559Y229358D01*
X170581Y229402D01*
Y229408D01*
X170587Y229419D01*
X170592Y229441D01*
X170609Y229480D01*
X170625Y229535D01*
X170642Y229608D01*
X170659Y229652D01*
X170670Y229702D01*
X170686Y229757D01*
X170703Y229819D01*
Y229824D01*
X170709Y229841D01*
X170714Y229868D01*
X170725Y229902D01*
X170736Y229941D01*
X170747Y229991D01*
X170781Y230096D01*
X170814Y230213D01*
X170853Y230329D01*
X170892Y230434D01*
X170908Y230479D01*
X170925Y230518D01*
X170931Y230529D01*
X170942Y230551D01*
X170958Y230584D01*
X170986Y230634D01*
X171019Y230684D01*
X171064Y230734D01*
X171114Y230784D01*
X171169Y230829D01*
X171175Y230834D01*
X171197Y230845D01*
X171230Y230868D01*
X171280Y230890D01*
X171341Y230906D01*
X171408Y230928D01*
X171486Y230940D01*
X171574Y230945D01*
X171586D01*
X171613D01*
X171658Y230940D01*
D02*
G37*
G36*
X172390Y227648D02*
X170642D01*
X170636D01*
X170631D01*
X170598D01*
X170548D01*
X170487Y227643D01*
X170420Y227637D01*
X170353Y227632D01*
X170287Y227621D01*
X170237Y227604D01*
X170231D01*
X170215Y227593D01*
X170193Y227582D01*
X170165Y227565D01*
X170131Y227543D01*
X170098Y227515D01*
X170065Y227482D01*
X170031Y227438D01*
X170026Y227432D01*
X170020Y227415D01*
X170009Y227393D01*
X169993Y227354D01*
X169976Y227315D01*
X169965Y227266D01*
X169959Y227216D01*
X169954Y227154D01*
Y227127D01*
X169959Y227105D01*
X169965Y227049D01*
X169976Y226982D01*
X170004Y226905D01*
X170037Y226821D01*
X170087Y226738D01*
X170154Y226661D01*
X170165Y226655D01*
X170193Y226633D01*
X170237Y226600D01*
X170303Y226566D01*
X170392Y226527D01*
X170498Y226500D01*
X170625Y226477D01*
X170775Y226466D01*
X172390D01*
Y225994D01*
X170587D01*
X170581D01*
X170570D01*
X170559D01*
X170537D01*
X170475Y225989D01*
X170409Y225978D01*
X170331Y225967D01*
X170254Y225945D01*
X170181Y225917D01*
X170115Y225878D01*
X170109Y225872D01*
X170087Y225856D01*
X170065Y225828D01*
X170031Y225789D01*
X170004Y225739D01*
X169976Y225673D01*
X169959Y225595D01*
X169954Y225501D01*
Y225467D01*
X169959Y225429D01*
X169965Y225384D01*
X169982Y225328D01*
X169998Y225262D01*
X170026Y225201D01*
X170059Y225134D01*
X170065Y225129D01*
X170081Y225107D01*
X170104Y225079D01*
X170137Y225040D01*
X170181Y225001D01*
X170237Y224962D01*
X170298Y224923D01*
X170370Y224890D01*
X170381Y224885D01*
X170409Y224879D01*
X170453Y224868D01*
X170514Y224851D01*
X170598Y224835D01*
X170697Y224823D01*
X170814Y224818D01*
X170947Y224812D01*
X172390D01*
Y224341D01*
X169604D01*
Y224762D01*
X170004D01*
X169993Y224768D01*
X169971Y224785D01*
X169932Y224818D01*
X169887Y224857D01*
X169832Y224907D01*
X169776Y224968D01*
X169721Y225034D01*
X169671Y225112D01*
X169665Y225123D01*
X169649Y225151D01*
X169632Y225195D01*
X169604Y225256D01*
X169582Y225328D01*
X169565Y225412D01*
X169549Y225506D01*
X169543Y225606D01*
Y225656D01*
X169549Y225717D01*
X169560Y225784D01*
X169576Y225867D01*
X169599Y225950D01*
X169632Y226033D01*
X169676Y226111D01*
X169682Y226122D01*
X169699Y226144D01*
X169726Y226178D01*
X169771Y226222D01*
X169821Y226267D01*
X169882Y226316D01*
X169954Y226361D01*
X170037Y226394D01*
X170031Y226400D01*
X170015Y226411D01*
X169993Y226427D01*
X169959Y226455D01*
X169921Y226488D01*
X169882Y226527D01*
X169837Y226572D01*
X169787Y226627D01*
X169743Y226688D01*
X169699Y226749D01*
X169660Y226821D01*
X169621Y226899D01*
X169588Y226982D01*
X169565Y227071D01*
X169549Y227160D01*
X169543Y227260D01*
Y227299D01*
X169549Y227326D01*
Y227365D01*
X169554Y227404D01*
X169571Y227499D01*
X169599Y227599D01*
X169643Y227704D01*
X169699Y227809D01*
X169776Y227898D01*
X169787Y227909D01*
X169821Y227931D01*
X169871Y227970D01*
X169909Y227987D01*
X169948Y228009D01*
X169998Y228031D01*
X170048Y228048D01*
X170104Y228070D01*
X170170Y228087D01*
X170237Y228098D01*
X170315Y228109D01*
X170392Y228120D01*
X170481D01*
X172390D01*
Y227648D01*
D02*
G37*
G36*
Y223175D02*
X170642D01*
X170636D01*
X170631D01*
X170598D01*
X170548D01*
X170487Y223170D01*
X170420Y223164D01*
X170353Y223159D01*
X170287Y223147D01*
X170237Y223131D01*
X170231D01*
X170215Y223120D01*
X170193Y223109D01*
X170165Y223092D01*
X170131Y223070D01*
X170098Y223042D01*
X170065Y223009D01*
X170031Y222964D01*
X170026Y222959D01*
X170020Y222942D01*
X170009Y222920D01*
X169993Y222881D01*
X169976Y222842D01*
X169965Y222792D01*
X169959Y222742D01*
X169954Y222681D01*
Y222654D01*
X169959Y222631D01*
X169965Y222576D01*
X169976Y222509D01*
X170004Y222431D01*
X170037Y222348D01*
X170087Y222265D01*
X170154Y222187D01*
X170165Y222182D01*
X170193Y222160D01*
X170237Y222126D01*
X170303Y222093D01*
X170392Y222054D01*
X170498Y222026D01*
X170625Y222004D01*
X170775Y221993D01*
X172390D01*
Y221521D01*
X170587D01*
X170581D01*
X170570D01*
X170559D01*
X170537D01*
X170475Y221516D01*
X170409Y221505D01*
X170331Y221494D01*
X170254Y221471D01*
X170181Y221444D01*
X170115Y221405D01*
X170109Y221399D01*
X170087Y221382D01*
X170065Y221355D01*
X170031Y221316D01*
X170004Y221266D01*
X169976Y221199D01*
X169959Y221122D01*
X169954Y221027D01*
Y220994D01*
X169959Y220955D01*
X169965Y220911D01*
X169982Y220855D01*
X169998Y220789D01*
X170026Y220728D01*
X170059Y220661D01*
X170065Y220655D01*
X170081Y220633D01*
X170104Y220605D01*
X170137Y220567D01*
X170181Y220528D01*
X170237Y220489D01*
X170298Y220450D01*
X170370Y220417D01*
X170381Y220411D01*
X170409Y220406D01*
X170453Y220395D01*
X170514Y220378D01*
X170598Y220361D01*
X170697Y220350D01*
X170814Y220345D01*
X170947Y220339D01*
X172390D01*
Y219867D01*
X169604D01*
Y220289D01*
X170004D01*
X169993Y220295D01*
X169971Y220311D01*
X169932Y220345D01*
X169887Y220384D01*
X169832Y220433D01*
X169776Y220495D01*
X169721Y220561D01*
X169671Y220639D01*
X169665Y220650D01*
X169649Y220678D01*
X169632Y220722D01*
X169604Y220783D01*
X169582Y220855D01*
X169565Y220938D01*
X169549Y221033D01*
X169543Y221133D01*
Y221183D01*
X169549Y221244D01*
X169560Y221310D01*
X169576Y221394D01*
X169599Y221477D01*
X169632Y221560D01*
X169676Y221638D01*
X169682Y221649D01*
X169699Y221671D01*
X169726Y221704D01*
X169771Y221749D01*
X169821Y221793D01*
X169882Y221843D01*
X169954Y221888D01*
X170037Y221921D01*
X170031Y221926D01*
X170015Y221937D01*
X169993Y221954D01*
X169959Y221982D01*
X169921Y222015D01*
X169882Y222054D01*
X169837Y222098D01*
X169787Y222154D01*
X169743Y222215D01*
X169699Y222276D01*
X169660Y222348D01*
X169621Y222426D01*
X169588Y222509D01*
X169565Y222598D01*
X169549Y222687D01*
X169543Y222787D01*
Y222826D01*
X169549Y222853D01*
Y222892D01*
X169554Y222931D01*
X169571Y223025D01*
X169599Y223125D01*
X169643Y223231D01*
X169699Y223336D01*
X169776Y223425D01*
X169787Y223436D01*
X169821Y223458D01*
X169871Y223497D01*
X169909Y223514D01*
X169948Y223536D01*
X169998Y223558D01*
X170048Y223575D01*
X170104Y223597D01*
X170170Y223614D01*
X170237Y223625D01*
X170315Y223636D01*
X170392Y223647D01*
X170481D01*
X172390D01*
Y223175D01*
D02*
G37*
G36*
X171092Y219312D02*
X171147Y219307D01*
X171203D01*
X171264Y219296D01*
X171402Y219279D01*
X171541Y219246D01*
X171680Y219207D01*
X171808Y219151D01*
X171813D01*
X171819Y219146D01*
X171835Y219135D01*
X171858Y219124D01*
X171913Y219085D01*
X171980Y219035D01*
X172057Y218968D01*
X172135Y218885D01*
X172213Y218791D01*
X172285Y218680D01*
Y218674D01*
X172290Y218669D01*
X172301Y218652D01*
X172313Y218624D01*
X172324Y218596D01*
X172335Y218563D01*
X172368Y218480D01*
X172396Y218386D01*
X172424Y218269D01*
X172446Y218147D01*
X172451Y218014D01*
Y217958D01*
X172446Y217914D01*
X172440Y217864D01*
X172429Y217808D01*
X172418Y217742D01*
X172407Y217675D01*
X172362Y217525D01*
X172329Y217442D01*
X172296Y217364D01*
X172251Y217287D01*
X172202Y217209D01*
X172146Y217137D01*
X172080Y217065D01*
X172074Y217059D01*
X172063Y217048D01*
X172041Y217031D01*
X172007Y217009D01*
X171968Y216981D01*
X171924Y216954D01*
X171869Y216920D01*
X171802Y216887D01*
X171730Y216854D01*
X171647Y216820D01*
X171558Y216793D01*
X171463Y216765D01*
X171358Y216743D01*
X171247Y216726D01*
X171125Y216715D01*
X170997Y216709D01*
X170986D01*
X170964D01*
X170925Y216715D01*
X170870D01*
X170808Y216721D01*
X170731Y216732D01*
X170653Y216743D01*
X170564Y216765D01*
X170475Y216787D01*
X170381Y216815D01*
X170281Y216848D01*
X170187Y216893D01*
X170098Y216937D01*
X170009Y216998D01*
X169926Y217059D01*
X169854Y217137D01*
X169848Y217142D01*
X169843Y217153D01*
X169826Y217176D01*
X169804Y217203D01*
X169782Y217237D01*
X169754Y217281D01*
X169726Y217325D01*
X169699Y217381D01*
X169671Y217442D01*
X169643Y217509D01*
X169593Y217658D01*
X169554Y217830D01*
X169549Y217919D01*
X169543Y218014D01*
Y218069D01*
X169549Y218108D01*
X169554Y218158D01*
X169565Y218214D01*
X169576Y218274D01*
X169588Y218347D01*
X169638Y218496D01*
X169665Y218574D01*
X169704Y218652D01*
X169743Y218730D01*
X169798Y218807D01*
X169854Y218879D01*
X169921Y218952D01*
X169926Y218957D01*
X169937Y218968D01*
X169959Y218985D01*
X169987Y219007D01*
X170026Y219035D01*
X170076Y219068D01*
X170131Y219102D01*
X170193Y219135D01*
X170259Y219168D01*
X170342Y219201D01*
X170426Y219235D01*
X170520Y219262D01*
X170620Y219285D01*
X170725Y219301D01*
X170836Y219312D01*
X170958Y219318D01*
X170964D01*
X170981D01*
X171008D01*
X171047D01*
X171092Y219312D01*
D02*
G37*
G36*
X171203Y216315D02*
X171236Y216304D01*
X171280Y216288D01*
X171330Y216271D01*
X171391Y216249D01*
X171458Y216221D01*
X171530Y216188D01*
X171685Y216110D01*
X171841Y216010D01*
X171918Y215949D01*
X171996Y215888D01*
X172063Y215821D01*
X172129Y215744D01*
X172135Y215738D01*
X172146Y215727D01*
X172157Y215699D01*
X172179Y215671D01*
X172207Y215627D01*
X172235Y215583D01*
X172263Y215522D01*
X172290Y215461D01*
X172324Y215388D01*
X172351Y215311D01*
X172379Y215228D01*
X172407Y215139D01*
X172429Y215044D01*
X172440Y214945D01*
X172451Y214839D01*
X172457Y214728D01*
Y214667D01*
X172451Y214623D01*
Y214573D01*
X172446Y214512D01*
X172435Y214445D01*
X172424Y214367D01*
X172396Y214206D01*
X172351Y214040D01*
X172290Y213873D01*
X172251Y213796D01*
X172207Y213718D01*
X172202Y213712D01*
X172196Y213701D01*
X172179Y213679D01*
X172157Y213657D01*
X172135Y213624D01*
X172102Y213585D01*
X172063Y213540D01*
X172018Y213496D01*
X171968Y213452D01*
X171918Y213402D01*
X171791Y213302D01*
X171641Y213207D01*
X171475Y213124D01*
X171469D01*
X171452Y213113D01*
X171425Y213107D01*
X171391Y213091D01*
X171347Y213080D01*
X171291Y213063D01*
X171230Y213041D01*
X171164Y213024D01*
X171092Y213007D01*
X171008Y212985D01*
X170836Y212958D01*
X170642Y212935D01*
X170442Y212924D01*
X170437D01*
X170414D01*
X170381D01*
X170342Y212930D01*
X170287D01*
X170231Y212935D01*
X170159Y212941D01*
X170087Y212952D01*
X169926Y212980D01*
X169748Y213019D01*
X169571Y213074D01*
X169399Y213152D01*
X169393Y213157D01*
X169377Y213163D01*
X169354Y213174D01*
X169327Y213196D01*
X169288Y213218D01*
X169243Y213246D01*
X169143Y213318D01*
X169033Y213413D01*
X168921Y213524D01*
X168810Y213651D01*
X168716Y213801D01*
X168711Y213807D01*
X168705Y213823D01*
X168694Y213846D01*
X168677Y213873D01*
X168661Y213918D01*
X168644Y213962D01*
X168622Y214018D01*
X168600Y214079D01*
X168577Y214145D01*
X168555Y214217D01*
X168522Y214373D01*
X168494Y214550D01*
X168483Y214734D01*
Y214789D01*
X168489Y214828D01*
X168494Y214878D01*
X168500Y214939D01*
X168505Y215000D01*
X168522Y215072D01*
X168555Y215222D01*
X168605Y215388D01*
X168639Y215472D01*
X168677Y215549D01*
X168727Y215627D01*
X168777Y215705D01*
X168783Y215710D01*
X168788Y215722D01*
X168805Y215744D01*
X168833Y215772D01*
X168860Y215799D01*
X168899Y215838D01*
X168944Y215877D01*
X168988Y215921D01*
X169044Y215966D01*
X169110Y216010D01*
X169177Y216060D01*
X169249Y216104D01*
X169332Y216143D01*
X169415Y216188D01*
X169504Y216221D01*
X169604Y216254D01*
X169721Y215755D01*
X169715D01*
X169704Y215749D01*
X169682Y215738D01*
X169654Y215727D01*
X169621Y215716D01*
X169576Y215699D01*
X169488Y215655D01*
X169388Y215599D01*
X169288Y215533D01*
X169193Y215450D01*
X169110Y215361D01*
X169099Y215350D01*
X169077Y215316D01*
X169049Y215261D01*
X169010Y215189D01*
X168977Y215094D01*
X168944Y214989D01*
X168921Y214861D01*
X168916Y214722D01*
Y214678D01*
X168921Y214650D01*
Y214612D01*
X168927Y214567D01*
X168944Y214462D01*
X168966Y214345D01*
X169005Y214223D01*
X169060Y214095D01*
X169132Y213979D01*
Y213973D01*
X169143Y213968D01*
X169171Y213929D01*
X169216Y213879D01*
X169282Y213818D01*
X169366Y213746D01*
X169460Y213679D01*
X169576Y213618D01*
X169704Y213563D01*
X169710D01*
X169721Y213557D01*
X169737Y213551D01*
X169765Y213546D01*
X169798Y213535D01*
X169837Y213524D01*
X169932Y213507D01*
X170043Y213485D01*
X170165Y213463D01*
X170298Y213452D01*
X170442Y213446D01*
X170448D01*
X170464D01*
X170492D01*
X170526D01*
X170564Y213452D01*
X170614D01*
X170670Y213457D01*
X170731Y213463D01*
X170864Y213479D01*
X171008Y213507D01*
X171153Y213540D01*
X171297Y213585D01*
X171302D01*
X171314Y213590D01*
X171330Y213601D01*
X171358Y213613D01*
X171425Y213646D01*
X171502Y213696D01*
X171591Y213757D01*
X171685Y213835D01*
X171769Y213923D01*
X171846Y214029D01*
Y214034D01*
X171852Y214045D01*
X171863Y214062D01*
X171874Y214084D01*
X171885Y214112D01*
X171902Y214145D01*
X171935Y214223D01*
X171968Y214323D01*
X171996Y214434D01*
X172018Y214556D01*
X172024Y214684D01*
Y214722D01*
X172018Y214756D01*
Y214795D01*
X172013Y214833D01*
X171991Y214933D01*
X171963Y215050D01*
X171918Y215166D01*
X171858Y215289D01*
X171824Y215350D01*
X171780Y215405D01*
X171774Y215411D01*
X171769Y215416D01*
X171752Y215433D01*
X171735Y215455D01*
X171708Y215477D01*
X171674Y215505D01*
X171641Y215538D01*
X171597Y215566D01*
X171547Y215599D01*
X171491Y215638D01*
X171436Y215671D01*
X171369Y215705D01*
X171297Y215733D01*
X171219Y215760D01*
X171136Y215788D01*
X171047Y215810D01*
X171175Y216321D01*
X171180D01*
X171203Y216315D01*
D02*
G37*
G36*
X172390Y211104D02*
X172396Y211082D01*
X172401Y211043D01*
X172407Y210993D01*
X172418Y210937D01*
X172424Y210876D01*
X172429Y210754D01*
Y210710D01*
X172424Y210665D01*
X172418Y210610D01*
X172413Y210543D01*
X172396Y210477D01*
X172379Y210416D01*
X172351Y210355D01*
X172346Y210349D01*
X172335Y210332D01*
X172318Y210310D01*
X172290Y210277D01*
X172263Y210249D01*
X172224Y210216D01*
X172185Y210183D01*
X172135Y210160D01*
X172129D01*
X172107Y210149D01*
X172068Y210144D01*
X172013Y210133D01*
X171941Y210121D01*
X171896Y210116D01*
X171846D01*
X171785Y210110D01*
X171724Y210105D01*
X171658D01*
X171580D01*
X169971D01*
Y209755D01*
X169604D01*
Y210105D01*
X168916D01*
X168633Y210577D01*
X169604D01*
Y211054D01*
X169971D01*
Y210577D01*
X171608D01*
X171619D01*
X171641D01*
X171674D01*
X171713Y210582D01*
X171802Y210588D01*
X171841Y210593D01*
X171869Y210599D01*
X171880Y210604D01*
X171902Y210621D01*
X171930Y210643D01*
X171957Y210682D01*
X171963Y210693D01*
X171974Y210721D01*
X171985Y210771D01*
X171991Y210843D01*
Y210898D01*
X171985Y210926D01*
Y210965D01*
X171980Y211010D01*
X171974Y211054D01*
X172390Y211115D01*
Y211104D01*
D02*
G37*
G36*
Y208828D02*
X170625D01*
X170620D01*
X170609D01*
X170592D01*
X170570D01*
X170509Y208823D01*
X170431Y208812D01*
X170348Y208790D01*
X170265Y208762D01*
X170181Y208723D01*
X170115Y208673D01*
X170109Y208667D01*
X170087Y208645D01*
X170059Y208612D01*
X170031Y208562D01*
X169998Y208501D01*
X169976Y208429D01*
X169954Y208340D01*
X169948Y208240D01*
Y208207D01*
X169954Y208168D01*
X169959Y208112D01*
X169976Y208057D01*
X169993Y207990D01*
X170020Y207924D01*
X170059Y207852D01*
X170065Y207846D01*
X170081Y207824D01*
X170104Y207790D01*
X170137Y207752D01*
X170181Y207707D01*
X170231Y207663D01*
X170292Y207624D01*
X170359Y207591D01*
X170370Y207585D01*
X170392Y207580D01*
X170437Y207569D01*
X170492Y207552D01*
X170564Y207535D01*
X170653Y207524D01*
X170753Y207519D01*
X170870Y207513D01*
X172390D01*
Y207041D01*
X168550D01*
Y207513D01*
X169926D01*
X169921Y207519D01*
X169909Y207530D01*
X169893Y207546D01*
X169865Y207574D01*
X169837Y207602D01*
X169804Y207641D01*
X169771Y207691D01*
X169732Y207741D01*
X169699Y207796D01*
X169665Y207857D01*
X169604Y208001D01*
X169576Y208079D01*
X169560Y208162D01*
X169549Y208251D01*
X169543Y208340D01*
Y208390D01*
X169549Y208451D01*
X169560Y208523D01*
X169571Y208606D01*
X169593Y208695D01*
X169626Y208784D01*
X169665Y208873D01*
X169671Y208884D01*
X169687Y208912D01*
X169715Y208950D01*
X169754Y209000D01*
X169804Y209050D01*
X169860Y209106D01*
X169926Y209156D01*
X170004Y209200D01*
X170015Y209206D01*
X170043Y209217D01*
X170093Y209234D01*
X170165Y209250D01*
X170254Y209267D01*
X170359Y209283D01*
X170487Y209295D01*
X170631Y209300D01*
X172390D01*
Y208828D01*
D02*
G37*
G36*
X172168Y206320D02*
X172229D01*
X172296Y206314D01*
X172368Y206309D01*
X172518Y206292D01*
X172673Y206270D01*
X172746Y206253D01*
X172812Y206237D01*
X172873Y206214D01*
X172929Y206192D01*
X172934D01*
X172940Y206187D01*
X172973Y206164D01*
X173023Y206137D01*
X173084Y206092D01*
X173151Y206031D01*
X173223Y205959D01*
X173295Y205870D01*
X173356Y205770D01*
Y205765D01*
X173362Y205759D01*
X173373Y205743D01*
X173378Y205720D01*
X173395Y205693D01*
X173406Y205659D01*
X173434Y205576D01*
X173467Y205476D01*
X173489Y205354D01*
X173511Y205215D01*
X173517Y205065D01*
Y205015D01*
X173511Y204982D01*
Y204938D01*
X173506Y204893D01*
X173500Y204838D01*
X173489Y204777D01*
X173461Y204649D01*
X173423Y204516D01*
X173367Y204383D01*
X173289Y204261D01*
X173284Y204255D01*
X173278Y204250D01*
X173245Y204211D01*
X173195Y204166D01*
X173123Y204111D01*
X173029Y204055D01*
X172912Y204005D01*
X172845Y203989D01*
X172773Y203978D01*
X172701Y203967D01*
X172618D01*
X172679Y204427D01*
X172690D01*
X172712Y204433D01*
X172751Y204444D01*
X172801Y204455D01*
X172851Y204477D01*
X172901Y204505D01*
X172951Y204538D01*
X172990Y204583D01*
X172995Y204594D01*
X173012Y204616D01*
X173034Y204655D01*
X173056Y204710D01*
X173084Y204777D01*
X173106Y204860D01*
X173123Y204960D01*
X173128Y205065D01*
Y205121D01*
X173123Y205176D01*
X173112Y205254D01*
X173095Y205332D01*
X173073Y205415D01*
X173040Y205498D01*
X172995Y205571D01*
X172990Y205576D01*
X172973Y205598D01*
X172940Y205632D01*
X172901Y205670D01*
X172845Y205709D01*
X172784Y205748D01*
X172712Y205787D01*
X172629Y205815D01*
X172623D01*
X172601Y205820D01*
X172557Y205826D01*
X172501Y205831D01*
X172462Y205837D01*
X172418D01*
X172368Y205842D01*
X172313D01*
X172251D01*
X172179Y205848D01*
X172107D01*
X172024D01*
X172029Y205842D01*
X172041Y205831D01*
X172057Y205815D01*
X172080Y205792D01*
X172107Y205765D01*
X172141Y205726D01*
X172174Y205682D01*
X172207Y205637D01*
X172274Y205521D01*
X172335Y205393D01*
X172357Y205321D01*
X172374Y205243D01*
X172385Y205160D01*
X172390Y205077D01*
Y205049D01*
X172385Y205021D01*
Y204982D01*
X172379Y204932D01*
X172368Y204877D01*
X172357Y204816D01*
X172340Y204749D01*
X172318Y204677D01*
X172290Y204605D01*
X172257Y204533D01*
X172218Y204455D01*
X172168Y204383D01*
X172113Y204311D01*
X172052Y204244D01*
X171980Y204183D01*
X171974Y204177D01*
X171963Y204172D01*
X171935Y204155D01*
X171907Y204133D01*
X171863Y204111D01*
X171819Y204083D01*
X171763Y204055D01*
X171696Y204028D01*
X171630Y204000D01*
X171552Y203972D01*
X171475Y203944D01*
X171386Y203922D01*
X171197Y203883D01*
X171092Y203878D01*
X170986Y203872D01*
X170981D01*
X170969D01*
X170947D01*
X170920D01*
X170881Y203878D01*
X170842D01*
X170742Y203889D01*
X170631Y203906D01*
X170509Y203933D01*
X170381Y203967D01*
X170254Y204017D01*
X170248D01*
X170237Y204022D01*
X170220Y204033D01*
X170198Y204044D01*
X170137Y204078D01*
X170059Y204122D01*
X169976Y204183D01*
X169893Y204255D01*
X169804Y204338D01*
X169732Y204433D01*
Y204438D01*
X169726Y204444D01*
X169715Y204461D01*
X169704Y204483D01*
X169671Y204538D01*
X169638Y204616D01*
X169604Y204710D01*
X169571Y204821D01*
X169549Y204943D01*
X169543Y205077D01*
Y205127D01*
X169549Y205160D01*
X169554Y205199D01*
X169565Y205249D01*
X169576Y205304D01*
X169593Y205365D01*
X169615Y205426D01*
X169643Y205493D01*
X169676Y205559D01*
X169715Y205632D01*
X169760Y205698D01*
X169815Y205765D01*
X169876Y205831D01*
X169948Y205892D01*
X169604D01*
Y206325D01*
X172013D01*
X172018D01*
X172041D01*
X172074D01*
X172118D01*
X172168Y206320D01*
D02*
G37*
G36*
X172390Y202862D02*
X169604D01*
Y203334D01*
X172390D01*
Y202862D01*
D02*
G37*
G36*
X169088D02*
X168550D01*
Y203334D01*
X169088D01*
Y202862D01*
D02*
G37*
G36*
X172390Y201797D02*
X171591Y201291D01*
X171586D01*
X171574Y201280D01*
X171558Y201269D01*
X171536Y201253D01*
X171475Y201214D01*
X171397Y201164D01*
X171314Y201103D01*
X171225Y201042D01*
X171142Y200981D01*
X171064Y200925D01*
X171058Y200920D01*
X171036Y200903D01*
X171003Y200875D01*
X170964Y200836D01*
X170881Y200753D01*
X170842Y200709D01*
X170808Y200664D01*
X170803Y200659D01*
X170797Y200648D01*
X170786Y200625D01*
X170770Y200592D01*
X170753Y200559D01*
X170736Y200520D01*
X170709Y200431D01*
Y200426D01*
X170703Y200415D01*
Y200392D01*
X170697Y200365D01*
X170692Y200326D01*
Y200281D01*
X170686Y200220D01*
Y199565D01*
X172390D01*
Y199055D01*
X168550D01*
Y200836D01*
X168555Y200881D01*
Y200931D01*
X168561Y201047D01*
X168577Y201169D01*
X168594Y201303D01*
X168622Y201425D01*
X168639Y201486D01*
X168655Y201536D01*
Y201541D01*
X168661Y201547D01*
X168677Y201580D01*
X168700Y201630D01*
X168738Y201691D01*
X168788Y201758D01*
X168855Y201830D01*
X168933Y201897D01*
X169021Y201963D01*
X169027D01*
X169033Y201969D01*
X169066Y201991D01*
X169121Y202013D01*
X169193Y202046D01*
X169277Y202074D01*
X169377Y202102D01*
X169482Y202118D01*
X169599Y202124D01*
X169604D01*
X169615D01*
X169638D01*
X169665Y202118D01*
X169704D01*
X169743Y202113D01*
X169837Y202091D01*
X169948Y202057D01*
X170065Y202013D01*
X170181Y201946D01*
X170237Y201902D01*
X170292Y201858D01*
X170298Y201852D01*
X170303Y201847D01*
X170320Y201830D01*
X170337Y201808D01*
X170359Y201780D01*
X170381Y201747D01*
X170409Y201702D01*
X170442Y201658D01*
X170470Y201602D01*
X170498Y201541D01*
X170531Y201475D01*
X170559Y201402D01*
X170581Y201319D01*
X170609Y201236D01*
X170625Y201142D01*
X170642Y201042D01*
X170648Y201053D01*
X170659Y201075D01*
X170681Y201108D01*
X170703Y201153D01*
X170764Y201253D01*
X170803Y201303D01*
X170836Y201347D01*
X170847Y201358D01*
X170875Y201386D01*
X170920Y201430D01*
X170975Y201486D01*
X171053Y201547D01*
X171136Y201619D01*
X171236Y201691D01*
X171347Y201769D01*
X172390Y202429D01*
Y201797D01*
D02*
G37*
%LPC*%
G36*
X13666Y249489D02*
X12395D01*
Y248346D01*
X12401Y248280D01*
X12406Y248202D01*
X12412Y248113D01*
X12423Y248024D01*
X12440Y247935D01*
X12462Y247858D01*
X12467Y247847D01*
X12479Y247824D01*
X12495Y247791D01*
X12517Y247747D01*
X12551Y247697D01*
X12590Y247647D01*
X12640Y247597D01*
X12695Y247558D01*
X12701Y247552D01*
X12723Y247541D01*
X12756Y247525D01*
X12800Y247502D01*
X12851Y247486D01*
X12906Y247469D01*
X12973Y247458D01*
X13039Y247452D01*
X13045D01*
X13050D01*
X13084Y247458D01*
X13134Y247464D01*
X13200Y247475D01*
X13267Y247502D01*
X13344Y247536D01*
X13417Y247586D01*
X13489Y247652D01*
X13494Y247663D01*
X13517Y247691D01*
X13544Y247736D01*
X13577Y247808D01*
X13611Y247891D01*
X13639Y248002D01*
X13661Y248130D01*
X13666Y248280D01*
Y249489D01*
D02*
G37*
G36*
X11002Y245849D02*
X10997D01*
X10969D01*
X10936Y245843D01*
X10891Y245832D01*
X10841Y245815D01*
X10791Y245788D01*
X10736Y245754D01*
X10686Y245710D01*
X10680Y245704D01*
X10669Y245682D01*
X10647Y245649D01*
X10625Y245604D01*
X10603Y245543D01*
X10581Y245471D01*
X10569Y245388D01*
X10564Y245288D01*
Y245244D01*
X10569Y245188D01*
X10581Y245127D01*
X10592Y245049D01*
X10614Y244972D01*
X10642Y244888D01*
X10680Y244805D01*
X10686Y244794D01*
X10703Y244772D01*
X10730Y244733D01*
X10769Y244689D01*
X10814Y244639D01*
X10869Y244583D01*
X10936Y244539D01*
X11008Y244494D01*
X11013Y244489D01*
X11036Y244483D01*
X11074Y244472D01*
X11124Y244456D01*
X11191Y244439D01*
X11269Y244428D01*
X11363Y244422D01*
X11474Y244417D01*
X11652Y244411D01*
Y244417D01*
X11646Y244422D01*
X11641Y244439D01*
X11635Y244461D01*
X11624Y244489D01*
X11613Y244522D01*
X11602Y244561D01*
X11591Y244605D01*
X11574Y244655D01*
X11563Y244716D01*
X11546Y244777D01*
X11530Y244850D01*
X11513Y244927D01*
X11496Y245005D01*
X11485Y245094D01*
X11468Y245188D01*
Y245199D01*
X11463Y245233D01*
X11452Y245288D01*
X11441Y245349D01*
X11430Y245416D01*
X11413Y245482D01*
X11396Y245543D01*
X11374Y245599D01*
Y245604D01*
X11363Y245621D01*
X11352Y245643D01*
X11335Y245665D01*
X11291Y245732D01*
X11224Y245788D01*
X11219D01*
X11208Y245799D01*
X11186Y245804D01*
X11158Y245815D01*
X11124Y245826D01*
X11091Y245837D01*
X11047Y245843D01*
X11002Y245849D01*
D02*
G37*
G36*
X7226Y244267D02*
Y242707D01*
X7232D01*
X7243D01*
X7259Y242713D01*
X7282D01*
X7348Y242724D01*
X7420Y242741D01*
X7509Y242768D01*
X7592Y242796D01*
X7676Y242841D01*
X7748Y242890D01*
X7753D01*
X7759Y242901D01*
X7792Y242929D01*
X7837Y242979D01*
X7887Y243046D01*
X7937Y243129D01*
X7981Y243229D01*
X8014Y243345D01*
X8020Y243407D01*
X8025Y243473D01*
Y243507D01*
X8020Y243529D01*
X8014Y243590D01*
X7998Y243662D01*
X7970Y243751D01*
X7931Y243845D01*
X7875Y243934D01*
X7803Y244023D01*
X7792Y244034D01*
X7764Y244056D01*
X7715Y244095D01*
X7648Y244134D01*
X7570Y244178D01*
X7470Y244217D01*
X7354Y244250D01*
X7226Y244267D01*
D02*
G37*
G36*
X11913Y239871D02*
Y238312D01*
X11918D01*
X11929D01*
X11946Y238317D01*
X11968D01*
X12035Y238328D01*
X12107Y238345D01*
X12196Y238373D01*
X12279Y238401D01*
X12362Y238445D01*
X12434Y238495D01*
X12440D01*
X12445Y238506D01*
X12479Y238534D01*
X12523Y238584D01*
X12573Y238650D01*
X12623Y238734D01*
X12667Y238833D01*
X12701Y238950D01*
X12706Y239011D01*
X12712Y239078D01*
Y239111D01*
X12706Y239133D01*
X12701Y239194D01*
X12684Y239266D01*
X12656Y239355D01*
X12617Y239449D01*
X12562Y239538D01*
X12490Y239627D01*
X12479Y239638D01*
X12451Y239660D01*
X12401Y239699D01*
X12334Y239738D01*
X12257Y239782D01*
X12157Y239821D01*
X12040Y239855D01*
X11913Y239871D01*
D02*
G37*
G36*
Y236885D02*
Y235326D01*
X11918D01*
X11929D01*
X11946Y235331D01*
X11968D01*
X12035Y235342D01*
X12107Y235359D01*
X12196Y235387D01*
X12279Y235415D01*
X12362Y235459D01*
X12434Y235509D01*
X12440D01*
X12445Y235520D01*
X12479Y235548D01*
X12523Y235598D01*
X12573Y235664D01*
X12623Y235748D01*
X12667Y235847D01*
X12701Y235964D01*
X12706Y236025D01*
X12712Y236092D01*
Y236125D01*
X12706Y236147D01*
X12701Y236208D01*
X12684Y236280D01*
X12656Y236369D01*
X12617Y236463D01*
X12562Y236552D01*
X12490Y236641D01*
X12479Y236652D01*
X12451Y236674D01*
X12401Y236713D01*
X12334Y236752D01*
X12257Y236796D01*
X12157Y236835D01*
X12040Y236869D01*
X11913Y236885D01*
D02*
G37*
G36*
X17803Y235548D02*
X17798D01*
X17792D01*
X17759Y235542D01*
X17709Y235537D01*
X17648Y235526D01*
X17576Y235503D01*
X17504Y235476D01*
X17426Y235431D01*
X17359Y235376D01*
X17354Y235370D01*
X17332Y235342D01*
X17304Y235304D01*
X17276Y235254D01*
X17243Y235187D01*
X17215Y235109D01*
X17193Y235020D01*
X17187Y234921D01*
Y234910D01*
X17193Y234876D01*
X17198Y234826D01*
X17210Y234760D01*
X17232Y234687D01*
X17259Y234615D01*
X17304Y234538D01*
X17359Y234471D01*
X17365Y234466D01*
X17393Y234443D01*
X17426Y234416D01*
X17476Y234382D01*
X17537Y234349D01*
X17609Y234321D01*
X17692Y234299D01*
X17781Y234294D01*
X17787D01*
X17792D01*
X17826D01*
X17876Y234305D01*
X17936Y234316D01*
X18003Y234338D01*
X18075Y234371D01*
X18147Y234416D01*
X18220Y234477D01*
X18225Y234482D01*
X18247Y234510D01*
X18275Y234549D01*
X18308Y234599D01*
X18342Y234665D01*
X18369Y234737D01*
X18392Y234826D01*
X18397Y234921D01*
Y234965D01*
X18386Y235015D01*
X18375Y235082D01*
X18353Y235154D01*
X18325Y235231D01*
X18281Y235304D01*
X18220Y235376D01*
X18214Y235381D01*
X18192Y235403D01*
X18153Y235431D01*
X18103Y235459D01*
X18042Y235492D01*
X17970Y235520D01*
X17892Y235542D01*
X17803Y235548D01*
D02*
G37*
G36*
X16033Y235703D02*
X16022D01*
X16000D01*
X15961Y235698D01*
X15911Y235692D01*
X15850Y235681D01*
X15783Y235664D01*
X15717Y235642D01*
X15644Y235614D01*
X15639Y235609D01*
X15611Y235598D01*
X15578Y235576D01*
X15539Y235542D01*
X15489Y235503D01*
X15439Y235453D01*
X15395Y235398D01*
X15350Y235331D01*
X15345Y235320D01*
X15334Y235298D01*
X15317Y235259D01*
X15300Y235209D01*
X15284Y235148D01*
X15267Y235076D01*
X15256Y234998D01*
X15250Y234921D01*
Y234887D01*
X15256Y234865D01*
X15261Y234799D01*
X15278Y234721D01*
X15306Y234632D01*
X15339Y234538D01*
X15395Y234449D01*
X15467Y234360D01*
X15478Y234349D01*
X15506Y234327D01*
X15555Y234288D01*
X15617Y234249D01*
X15694Y234210D01*
X15789Y234171D01*
X15900Y234149D01*
X16016Y234138D01*
X16022D01*
X16033D01*
X16049D01*
X16072Y234144D01*
X16133Y234149D01*
X16216Y234166D01*
X16299Y234194D01*
X16394Y234232D01*
X16488Y234288D01*
X16577Y234366D01*
X16588Y234377D01*
X16610Y234404D01*
X16649Y234454D01*
X16693Y234521D01*
X16732Y234604D01*
X16771Y234704D01*
X16793Y234815D01*
X16804Y234937D01*
Y234971D01*
X16799Y234993D01*
X16793Y235054D01*
X16777Y235132D01*
X16749Y235220D01*
X16710Y235309D01*
X16654Y235403D01*
X16582Y235487D01*
X16571Y235498D01*
X16544Y235520D01*
X16493Y235553D01*
X16432Y235592D01*
X16349Y235637D01*
X16255Y235670D01*
X16149Y235692D01*
X16033Y235703D01*
D02*
G37*
G36*
X17470Y232712D02*
X17465D01*
X17454D01*
X17437D01*
X17409Y232706D01*
X17376D01*
X17343Y232701D01*
X17259Y232684D01*
X17165Y232656D01*
X17065Y232623D01*
X16965Y232567D01*
X16876Y232495D01*
X16865Y232484D01*
X16843Y232456D01*
X16804Y232406D01*
X16766Y232345D01*
X16721Y232262D01*
X16682Y232168D01*
X16660Y232062D01*
X16649Y231946D01*
Y231912D01*
X16654Y231890D01*
X16660Y231829D01*
X16677Y231757D01*
X16704Y231668D01*
X16743Y231579D01*
X16799Y231491D01*
X16876Y231407D01*
X16887Y231396D01*
X16921Y231374D01*
X16971Y231341D01*
X17043Y231296D01*
X17132Y231258D01*
X17237Y231224D01*
X17365Y231202D01*
X17509Y231191D01*
X17515D01*
X17526D01*
X17548D01*
X17576Y231197D01*
X17615D01*
X17653Y231202D01*
X17742Y231219D01*
X17848Y231241D01*
X17959Y231280D01*
X18064Y231335D01*
X18158Y231407D01*
X18164D01*
X18170Y231419D01*
X18197Y231446D01*
X18236Y231491D01*
X18281Y231552D01*
X18319Y231629D01*
X18358Y231718D01*
X18386Y231818D01*
X18397Y231874D01*
Y231962D01*
X18392Y231985D01*
X18386Y232046D01*
X18364Y232118D01*
X18336Y232207D01*
X18286Y232301D01*
X18225Y232395D01*
X18181Y232440D01*
X18136Y232484D01*
X18131D01*
X18125Y232495D01*
X18109Y232506D01*
X18092Y232518D01*
X18036Y232556D01*
X17959Y232595D01*
X17864Y232640D01*
X17748Y232678D01*
X17615Y232701D01*
X17470Y232712D01*
D02*
G37*
G36*
X11002Y227939D02*
X10997D01*
X10969D01*
X10936Y227933D01*
X10891Y227922D01*
X10841Y227905D01*
X10791Y227878D01*
X10736Y227844D01*
X10686Y227800D01*
X10680Y227794D01*
X10669Y227772D01*
X10647Y227739D01*
X10625Y227695D01*
X10603Y227634D01*
X10581Y227561D01*
X10569Y227478D01*
X10564Y227378D01*
Y227334D01*
X10569Y227278D01*
X10581Y227217D01*
X10592Y227139D01*
X10614Y227062D01*
X10642Y226979D01*
X10680Y226895D01*
X10686Y226884D01*
X10703Y226862D01*
X10730Y226823D01*
X10769Y226779D01*
X10814Y226729D01*
X10869Y226673D01*
X10936Y226629D01*
X11008Y226585D01*
X11013Y226579D01*
X11036Y226573D01*
X11074Y226562D01*
X11124Y226546D01*
X11191Y226529D01*
X11269Y226518D01*
X11363Y226512D01*
X11474Y226507D01*
X11652Y226501D01*
Y226507D01*
X11646Y226512D01*
X11641Y226529D01*
X11635Y226551D01*
X11624Y226579D01*
X11613Y226612D01*
X11602Y226651D01*
X11591Y226695D01*
X11574Y226746D01*
X11563Y226806D01*
X11546Y226868D01*
X11530Y226940D01*
X11513Y227017D01*
X11496Y227095D01*
X11485Y227184D01*
X11468Y227278D01*
Y227289D01*
X11463Y227323D01*
X11452Y227378D01*
X11441Y227439D01*
X11430Y227506D01*
X11413Y227572D01*
X11396Y227634D01*
X11374Y227689D01*
Y227695D01*
X11363Y227711D01*
X11352Y227733D01*
X11335Y227756D01*
X11291Y227822D01*
X11224Y227878D01*
X11219D01*
X11208Y227889D01*
X11186Y227894D01*
X11158Y227905D01*
X11124Y227917D01*
X11091Y227928D01*
X11047Y227933D01*
X11002Y227939D01*
D02*
G37*
G36*
X11646Y223205D02*
X11641D01*
X11624D01*
X11596D01*
X11557Y223199D01*
X11513D01*
X11463Y223194D01*
X11346Y223177D01*
X11213Y223149D01*
X11080Y223105D01*
X10952Y223049D01*
X10897Y223010D01*
X10841Y222972D01*
Y222966D01*
X10830Y222960D01*
X10802Y222927D01*
X10758Y222877D01*
X10714Y222811D01*
X10664Y222727D01*
X10619Y222627D01*
X10592Y222511D01*
X10586Y222450D01*
X10581Y222383D01*
Y222350D01*
X10586Y222322D01*
X10597Y222261D01*
X10614Y222178D01*
X10647Y222089D01*
X10691Y221989D01*
X10758Y221895D01*
X10802Y221845D01*
X10847Y221800D01*
X10853Y221795D01*
X10858Y221789D01*
X10875Y221778D01*
X10897Y221762D01*
X10925Y221745D01*
X10958Y221723D01*
X11002Y221701D01*
X11047Y221678D01*
X11102Y221656D01*
X11163Y221639D01*
X11230Y221617D01*
X11302Y221601D01*
X11385Y221584D01*
X11468Y221573D01*
X11563Y221562D01*
X11663D01*
X11668D01*
X11685D01*
X11713D01*
X11746Y221567D01*
X11790D01*
X11840Y221573D01*
X11957Y221589D01*
X12079Y221617D01*
X12212Y221662D01*
X12334Y221723D01*
X12395Y221756D01*
X12445Y221800D01*
X12451D01*
X12456Y221812D01*
X12490Y221845D01*
X12529Y221895D01*
X12578Y221961D01*
X12629Y222045D01*
X12673Y222145D01*
X12701Y222255D01*
X12706Y222317D01*
X12712Y222383D01*
Y222416D01*
X12706Y222444D01*
X12701Y222505D01*
X12678Y222588D01*
X12645Y222683D01*
X12601Y222783D01*
X12534Y222877D01*
X12490Y222927D01*
X12445Y222972D01*
X12440D01*
X12434Y222983D01*
X12418Y222994D01*
X12395Y223010D01*
X12368Y223027D01*
X12334Y223044D01*
X12290Y223066D01*
X12246Y223088D01*
X12190Y223110D01*
X12134Y223132D01*
X12068Y223149D01*
X11996Y223166D01*
X11918Y223182D01*
X11835Y223194D01*
X11740Y223199D01*
X11646Y223205D01*
D02*
G37*
G36*
X7226Y217710D02*
Y216150D01*
X7232D01*
X7243D01*
X7259Y216156D01*
X7282D01*
X7348Y216167D01*
X7420Y216184D01*
X7509Y216212D01*
X7592Y216239D01*
X7676Y216284D01*
X7748Y216334D01*
X7753D01*
X7759Y216345D01*
X7792Y216372D01*
X7837Y216423D01*
X7887Y216489D01*
X7937Y216572D01*
X7981Y216672D01*
X8014Y216789D01*
X8020Y216850D01*
X8025Y216916D01*
Y216950D01*
X8020Y216972D01*
X8014Y217033D01*
X7998Y217105D01*
X7970Y217194D01*
X7931Y217288D01*
X7875Y217377D01*
X7803Y217466D01*
X7792Y217477D01*
X7764Y217499D01*
X7715Y217538D01*
X7648Y217577D01*
X7570Y217621D01*
X7470Y217660D01*
X7354Y217693D01*
X7226Y217710D01*
D02*
G37*
G36*
Y209951D02*
Y208392D01*
X7232D01*
X7243D01*
X7259Y208397D01*
X7282D01*
X7348Y208408D01*
X7420Y208425D01*
X7509Y208453D01*
X7592Y208480D01*
X7676Y208525D01*
X7748Y208575D01*
X7753D01*
X7759Y208586D01*
X7792Y208614D01*
X7837Y208664D01*
X7887Y208730D01*
X7937Y208813D01*
X7981Y208913D01*
X8014Y209030D01*
X8020Y209091D01*
X8025Y209157D01*
Y209191D01*
X8020Y209213D01*
X8014Y209274D01*
X7998Y209346D01*
X7970Y209435D01*
X7931Y209529D01*
X7875Y209618D01*
X7803Y209707D01*
X7792Y209718D01*
X7764Y209740D01*
X7715Y209779D01*
X7648Y209818D01*
X7570Y209862D01*
X7470Y209901D01*
X7354Y209934D01*
X7226Y209951D01*
D02*
G37*
G36*
X6960Y199550D02*
X6954D01*
X6938D01*
X6910D01*
X6871Y199545D01*
X6826D01*
X6777Y199539D01*
X6660Y199523D01*
X6527Y199495D01*
X6394Y199451D01*
X6266Y199395D01*
X6211Y199356D01*
X6155Y199317D01*
Y199312D01*
X6144Y199306D01*
X6116Y199273D01*
X6072Y199223D01*
X6027Y199156D01*
X5977Y199073D01*
X5933Y198973D01*
X5905Y198857D01*
X5900Y198796D01*
X5894Y198729D01*
Y198696D01*
X5900Y198668D01*
X5911Y198607D01*
X5927Y198524D01*
X5961Y198435D01*
X6005Y198335D01*
X6072Y198241D01*
X6116Y198191D01*
X6160Y198146D01*
X6166Y198141D01*
X6172Y198135D01*
X6188Y198124D01*
X6211Y198108D01*
X6238Y198091D01*
X6272Y198069D01*
X6316Y198046D01*
X6360Y198024D01*
X6416Y198002D01*
X6477Y197985D01*
X6543Y197963D01*
X6616Y197947D01*
X6699Y197930D01*
X6782Y197919D01*
X6876Y197908D01*
X6976D01*
X6982D01*
X6999D01*
X7026D01*
X7060Y197913D01*
X7104D01*
X7154Y197919D01*
X7271Y197935D01*
X7393Y197963D01*
X7526Y198008D01*
X7648Y198069D01*
X7709Y198102D01*
X7759Y198146D01*
X7764D01*
X7770Y198157D01*
X7803Y198191D01*
X7842Y198241D01*
X7892Y198307D01*
X7942Y198390D01*
X7987Y198490D01*
X8014Y198601D01*
X8020Y198662D01*
X8025Y198729D01*
Y198762D01*
X8020Y198790D01*
X8014Y198851D01*
X7992Y198934D01*
X7959Y199029D01*
X7914Y199129D01*
X7848Y199223D01*
X7803Y199273D01*
X7759Y199317D01*
X7753D01*
X7748Y199328D01*
X7731Y199340D01*
X7709Y199356D01*
X7681Y199373D01*
X7648Y199390D01*
X7604Y199412D01*
X7559Y199434D01*
X7504Y199456D01*
X7448Y199478D01*
X7382Y199495D01*
X7309Y199512D01*
X7232Y199528D01*
X7148Y199539D01*
X7054Y199545D01*
X6960Y199550D01*
D02*
G37*
G36*
X7054Y196565D02*
X6954D01*
X6949D01*
X6932D01*
X6904D01*
X6865Y196559D01*
X6821D01*
X6771Y196554D01*
X6655Y196537D01*
X6527Y196509D01*
X6394Y196470D01*
X6266Y196415D01*
X6211Y196381D01*
X6155Y196343D01*
Y196337D01*
X6144Y196332D01*
X6116Y196304D01*
X6072Y196254D01*
X6027Y196193D01*
X5977Y196115D01*
X5933Y196021D01*
X5905Y195921D01*
X5900Y195865D01*
X5894Y195810D01*
Y195782D01*
X5900Y195760D01*
X5905Y195699D01*
X5927Y195627D01*
X5955Y195543D01*
X6000Y195455D01*
X6061Y195366D01*
X6100Y195321D01*
X6144Y195282D01*
X6149D01*
X6155Y195271D01*
X6172Y195260D01*
X6194Y195249D01*
X6222Y195233D01*
X6249Y195210D01*
X6294Y195194D01*
X6338Y195171D01*
X6388Y195149D01*
X6444Y195133D01*
X6510Y195110D01*
X6577Y195094D01*
X6655Y195083D01*
X6732Y195072D01*
X6821Y195061D01*
X6915D01*
X6921D01*
X6943D01*
X6971D01*
X7010Y195066D01*
X7054D01*
X7110Y195072D01*
X7171Y195077D01*
X7237Y195088D01*
X7370Y195116D01*
X7509Y195155D01*
X7642Y195210D01*
X7698Y195244D01*
X7753Y195282D01*
X7759D01*
X7764Y195294D01*
X7798Y195321D01*
X7842Y195371D01*
X7892Y195432D01*
X7942Y195510D01*
X7981Y195604D01*
X8014Y195710D01*
X8020Y195765D01*
X8025Y195826D01*
Y195854D01*
X8020Y195876D01*
X8014Y195937D01*
X7992Y196010D01*
X7964Y196093D01*
X7914Y196182D01*
X7853Y196270D01*
X7809Y196315D01*
X7764Y196354D01*
X7759D01*
X7753Y196365D01*
X7737Y196370D01*
X7715Y196387D01*
X7687Y196404D01*
X7654Y196420D01*
X7615Y196437D01*
X7570Y196459D01*
X7515Y196481D01*
X7454Y196498D01*
X7387Y196515D01*
X7315Y196531D01*
X7237Y196542D01*
X7148Y196554D01*
X7054Y196565D01*
D02*
G37*
G36*
X7226Y189355D02*
Y187796D01*
X7232D01*
X7243D01*
X7259Y187801D01*
X7282D01*
X7348Y187812D01*
X7420Y187829D01*
X7509Y187857D01*
X7592Y187884D01*
X7676Y187929D01*
X7748Y187979D01*
X7753D01*
X7759Y187990D01*
X7792Y188018D01*
X7837Y188067D01*
X7887Y188134D01*
X7937Y188217D01*
X7981Y188317D01*
X8014Y188434D01*
X8020Y188495D01*
X8025Y188561D01*
Y188595D01*
X8020Y188617D01*
X8014Y188678D01*
X7998Y188750D01*
X7970Y188839D01*
X7931Y188933D01*
X7875Y189022D01*
X7803Y189111D01*
X7792Y189122D01*
X7764Y189144D01*
X7715Y189183D01*
X7648Y189222D01*
X7570Y189266D01*
X7470Y189305D01*
X7354Y189339D01*
X7226Y189355D01*
D02*
G37*
G36*
X7459Y182190D02*
X7448D01*
X7420D01*
X7370D01*
X7304Y182185D01*
X7232D01*
X7143Y182179D01*
X7049Y182173D01*
X6949Y182162D01*
X6732Y182135D01*
X6627Y182118D01*
X6527Y182096D01*
X6432Y182073D01*
X6344Y182040D01*
X6266Y182007D01*
X6199Y181968D01*
X6194D01*
X6188Y181957D01*
X6149Y181929D01*
X6100Y181879D01*
X6044Y181818D01*
X5988Y181735D01*
X5939Y181641D01*
X5900Y181535D01*
X5894Y181480D01*
X5889Y181419D01*
Y181385D01*
X5894Y181363D01*
X5905Y181308D01*
X5927Y181230D01*
X5966Y181147D01*
X6022Y181052D01*
X6055Y181008D01*
X6100Y180964D01*
X6144Y180919D01*
X6199Y180875D01*
X6205D01*
X6216Y180864D01*
X6233Y180852D01*
X6260Y180841D01*
X6299Y180819D01*
X6349Y180803D01*
X6405Y180780D01*
X6471Y180758D01*
X6555Y180742D01*
X6643Y180719D01*
X6749Y180697D01*
X6860Y180681D01*
X6993Y180669D01*
X7132Y180658D01*
X7287Y180647D01*
X7459D01*
X7465D01*
X7470D01*
X7498D01*
X7548D01*
X7615Y180653D01*
X7687D01*
X7776Y180658D01*
X7870Y180664D01*
X7975Y180675D01*
X8186Y180703D01*
X8292Y180719D01*
X8392Y180742D01*
X8486Y180764D01*
X8575Y180797D01*
X8653Y180830D01*
X8719Y180869D01*
X8725D01*
X8730Y180880D01*
X8747Y180891D01*
X8769Y180908D01*
X8819Y180958D01*
X8880Y181019D01*
X8935Y181102D01*
X8986Y181197D01*
X9008Y181247D01*
X9024Y181302D01*
X9030Y181363D01*
X9035Y181424D01*
Y181457D01*
X9030Y181480D01*
X9019Y181541D01*
X9002Y181613D01*
X8969Y181696D01*
X8919Y181785D01*
X8886Y181829D01*
X8852Y181874D01*
X8808Y181913D01*
X8758Y181951D01*
X8752D01*
X8741Y181963D01*
X8719Y181974D01*
X8691Y181990D01*
X8647Y182007D01*
X8597Y182029D01*
X8536Y182046D01*
X8464Y182068D01*
X8381Y182090D01*
X8286Y182112D01*
X8181Y182135D01*
X8064Y182151D01*
X7931Y182168D01*
X7787Y182179D01*
X7631Y182185D01*
X7459Y182190D01*
D02*
G37*
G36*
X64757Y236317D02*
X64749D01*
X64735D01*
X64706D01*
X64670Y236310D01*
X64627D01*
X64577Y236303D01*
X64463Y236281D01*
X64333Y236253D01*
X64197Y236203D01*
X64068Y236131D01*
X63946Y236038D01*
X63932Y236023D01*
X63896Y235988D01*
X63853Y235930D01*
X63796Y235851D01*
X63738Y235751D01*
X63695Y235636D01*
X63660Y235500D01*
X63645Y235349D01*
Y235306D01*
X63652Y235278D01*
X63660Y235206D01*
X63681Y235106D01*
X63717Y234998D01*
X63774Y234876D01*
X63846Y234762D01*
X63946Y234647D01*
X63961Y234632D01*
X63996Y234604D01*
X64061Y234554D01*
X64154Y234503D01*
X64262Y234453D01*
X64398Y234403D01*
X64549Y234374D01*
X64721Y234360D01*
X64735D01*
X64771D01*
X64835Y234367D01*
X64914Y234374D01*
X65008Y234389D01*
X65108Y234417D01*
X65215Y234446D01*
X65323Y234489D01*
X65337Y234496D01*
X65373Y234518D01*
X65423Y234546D01*
X65488Y234589D01*
X65552Y234640D01*
X65631Y234704D01*
X65696Y234776D01*
X65760Y234862D01*
X65768Y234876D01*
X65782Y234905D01*
X65811Y234955D01*
X65832Y235020D01*
X65861Y235091D01*
X65889Y235177D01*
X65904Y235271D01*
X65911Y235371D01*
Y235407D01*
X65904Y235436D01*
X65897Y235507D01*
X65875Y235600D01*
X65832Y235701D01*
X65782Y235816D01*
X65703Y235930D01*
X65660Y235988D01*
X65603Y236038D01*
X65595D01*
X65588Y236052D01*
X65545Y236081D01*
X65474Y236124D01*
X65380Y236181D01*
X65258Y236231D01*
X65115Y236274D01*
X64950Y236303D01*
X64757Y236317D01*
D02*
G37*
G36*
X182256Y235317D02*
X182249D01*
X182235D01*
X182206D01*
X182170Y235310D01*
X182127D01*
X182077Y235303D01*
X181963Y235281D01*
X181834Y235253D01*
X181697Y235203D01*
X181568Y235131D01*
X181446Y235038D01*
X181432Y235023D01*
X181396Y234988D01*
X181353Y234930D01*
X181296Y234851D01*
X181238Y234751D01*
X181195Y234636D01*
X181159Y234500D01*
X181145Y234349D01*
Y234306D01*
X181152Y234278D01*
X181159Y234206D01*
X181181Y234106D01*
X181217Y233998D01*
X181274Y233876D01*
X181346Y233762D01*
X181446Y233647D01*
X181461Y233632D01*
X181497Y233604D01*
X181561Y233554D01*
X181654Y233503D01*
X181762Y233453D01*
X181898Y233403D01*
X182049Y233374D01*
X182221Y233360D01*
X182235D01*
X182271D01*
X182335Y233367D01*
X182414Y233374D01*
X182508Y233389D01*
X182608Y233417D01*
X182715Y233446D01*
X182823Y233489D01*
X182837Y233496D01*
X182873Y233518D01*
X182923Y233546D01*
X182988Y233589D01*
X183052Y233640D01*
X183131Y233704D01*
X183196Y233776D01*
X183260Y233862D01*
X183267Y233876D01*
X183282Y233905D01*
X183310Y233955D01*
X183332Y234020D01*
X183361Y234091D01*
X183389Y234177D01*
X183404Y234271D01*
X183411Y234371D01*
Y234407D01*
X183404Y234436D01*
X183397Y234507D01*
X183375Y234600D01*
X183332Y234701D01*
X183282Y234816D01*
X183203Y234930D01*
X183160Y234988D01*
X183103Y235038D01*
X183095D01*
X183088Y235052D01*
X183045Y235081D01*
X182974Y235124D01*
X182880Y235181D01*
X182758Y235231D01*
X182615Y235274D01*
X182450Y235303D01*
X182256Y235317D01*
D02*
G37*
G36*
X74611Y220062D02*
X74511D01*
X74505D01*
X74488D01*
X74461D01*
X74427Y220056D01*
X74383D01*
X74333Y220051D01*
X74216Y220034D01*
X74094Y220006D01*
X73961Y219962D01*
X73839Y219901D01*
X73778Y219868D01*
X73728Y219823D01*
X73722D01*
X73717Y219812D01*
X73684Y219779D01*
X73645Y219729D01*
X73595Y219662D01*
X73545Y219579D01*
X73501Y219479D01*
X73473Y219368D01*
X73467Y219307D01*
X73462Y219240D01*
Y219207D01*
X73467Y219179D01*
X73473Y219118D01*
X73495Y219035D01*
X73528Y218941D01*
X73573Y218841D01*
X73639Y218746D01*
X73684Y218696D01*
X73728Y218652D01*
X73734D01*
X73739Y218641D01*
X73756Y218630D01*
X73778Y218613D01*
X73806Y218597D01*
X73839Y218580D01*
X73883Y218558D01*
X73928Y218536D01*
X73983Y218513D01*
X74039Y218491D01*
X74105Y218475D01*
X74178Y218458D01*
X74255Y218441D01*
X74339Y218430D01*
X74433Y218425D01*
X74527Y218419D01*
X74533D01*
X74549D01*
X74577D01*
X74616Y218425D01*
X74660D01*
X74710Y218430D01*
X74827Y218447D01*
X74960Y218475D01*
X75093Y218519D01*
X75221Y218574D01*
X75276Y218613D01*
X75332Y218652D01*
Y218658D01*
X75343Y218663D01*
X75371Y218696D01*
X75415Y218746D01*
X75460Y218813D01*
X75510Y218896D01*
X75554Y218996D01*
X75582Y219113D01*
X75587Y219174D01*
X75593Y219240D01*
Y219274D01*
X75587Y219302D01*
X75576Y219362D01*
X75560Y219446D01*
X75526Y219535D01*
X75482Y219635D01*
X75415Y219729D01*
X75371Y219779D01*
X75326Y219823D01*
X75321Y219829D01*
X75315Y219834D01*
X75299Y219845D01*
X75276Y219862D01*
X75249Y219879D01*
X75215Y219901D01*
X75171Y219923D01*
X75127Y219945D01*
X75071Y219968D01*
X75010Y219984D01*
X74944Y220006D01*
X74871Y220023D01*
X74788Y220040D01*
X74705Y220051D01*
X74611Y220062D01*
D02*
G37*
G36*
X74261Y208684D02*
X74255D01*
X74244D01*
X74227Y208679D01*
X74205D01*
X74139Y208668D01*
X74067Y208651D01*
X73978Y208623D01*
X73895Y208595D01*
X73811Y208551D01*
X73739Y208501D01*
X73734D01*
X73728Y208490D01*
X73695Y208462D01*
X73650Y208412D01*
X73600Y208346D01*
X73550Y208262D01*
X73506Y208163D01*
X73473Y208046D01*
X73467Y207985D01*
X73462Y207918D01*
Y207885D01*
X73467Y207863D01*
X73473Y207802D01*
X73489Y207730D01*
X73517Y207641D01*
X73556Y207547D01*
X73611Y207458D01*
X73684Y207369D01*
X73695Y207358D01*
X73722Y207336D01*
X73772Y207297D01*
X73839Y207258D01*
X73917Y207214D01*
X74017Y207175D01*
X74133Y207141D01*
X74261Y207125D01*
Y208684D01*
D02*
G37*
G36*
X171081Y218835D02*
X170981D01*
X170975D01*
X170958D01*
X170931D01*
X170897Y218829D01*
X170853D01*
X170803Y218824D01*
X170686Y218807D01*
X170564Y218780D01*
X170431Y218735D01*
X170309Y218674D01*
X170248Y218641D01*
X170198Y218596D01*
X170193D01*
X170187Y218585D01*
X170154Y218552D01*
X170115Y218502D01*
X170065Y218435D01*
X170015Y218352D01*
X169971Y218252D01*
X169943Y218141D01*
X169937Y218080D01*
X169932Y218014D01*
Y217980D01*
X169937Y217953D01*
X169943Y217892D01*
X169965Y217808D01*
X169998Y217714D01*
X170043Y217614D01*
X170109Y217520D01*
X170154Y217470D01*
X170198Y217425D01*
X170204D01*
X170209Y217414D01*
X170226Y217403D01*
X170248Y217387D01*
X170276Y217370D01*
X170309Y217353D01*
X170353Y217331D01*
X170398Y217309D01*
X170453Y217287D01*
X170509Y217264D01*
X170575Y217248D01*
X170648Y217231D01*
X170725Y217214D01*
X170808Y217203D01*
X170903Y217198D01*
X170997Y217192D01*
X171003D01*
X171019D01*
X171047D01*
X171086Y217198D01*
X171130D01*
X171180Y217203D01*
X171297Y217220D01*
X171430Y217248D01*
X171563Y217292D01*
X171691Y217348D01*
X171747Y217387D01*
X171802Y217425D01*
Y217431D01*
X171813Y217437D01*
X171841Y217470D01*
X171885Y217520D01*
X171930Y217586D01*
X171980Y217670D01*
X172024Y217770D01*
X172052Y217886D01*
X172057Y217947D01*
X172063Y218014D01*
Y218047D01*
X172057Y218075D01*
X172046Y218136D01*
X172029Y218219D01*
X171996Y218308D01*
X171952Y218408D01*
X171885Y218502D01*
X171841Y218552D01*
X171796Y218596D01*
X171791Y218602D01*
X171785Y218607D01*
X171769Y218619D01*
X171747Y218635D01*
X171719Y218652D01*
X171685Y218674D01*
X171641Y218696D01*
X171597Y218719D01*
X171541Y218741D01*
X171480Y218757D01*
X171414Y218780D01*
X171341Y218796D01*
X171258Y218813D01*
X171175Y218824D01*
X171081Y218835D01*
D02*
G37*
G36*
X171064Y205887D02*
X170969D01*
X170964D01*
X170947D01*
X170920D01*
X170886Y205881D01*
X170842D01*
X170792Y205876D01*
X170681Y205859D01*
X170553Y205831D01*
X170426Y205792D01*
X170298Y205737D01*
X170242Y205698D01*
X170193Y205659D01*
X170187D01*
X170181Y205648D01*
X170154Y205621D01*
X170109Y205571D01*
X170059Y205504D01*
X170015Y205426D01*
X169971Y205332D01*
X169943Y205226D01*
X169932Y205171D01*
Y205082D01*
X169937Y205060D01*
X169943Y204999D01*
X169965Y204927D01*
X169993Y204838D01*
X170043Y204749D01*
X170104Y204660D01*
X170148Y204616D01*
X170193Y204572D01*
X170198D01*
X170204Y204560D01*
X170220Y204549D01*
X170242Y204538D01*
X170265Y204522D01*
X170298Y204505D01*
X170337Y204483D01*
X170381Y204466D01*
X170431Y204444D01*
X170492Y204422D01*
X170553Y204405D01*
X170620Y204388D01*
X170697Y204377D01*
X170775Y204366D01*
X170859Y204355D01*
X170953D01*
X170958D01*
X170975D01*
X171003D01*
X171042Y204361D01*
X171086D01*
X171142Y204366D01*
X171258Y204383D01*
X171391Y204411D01*
X171519Y204444D01*
X171647Y204499D01*
X171702Y204533D01*
X171752Y204572D01*
X171763Y204583D01*
X171791Y204610D01*
X171830Y204655D01*
X171874Y204721D01*
X171924Y204799D01*
X171963Y204893D01*
X171991Y204999D01*
X171996Y205054D01*
X172002Y205116D01*
Y205149D01*
X171996Y205171D01*
X171991Y205232D01*
X171968Y205310D01*
X171941Y205393D01*
X171896Y205487D01*
X171835Y205576D01*
X171796Y205621D01*
X171752Y205665D01*
X171747D01*
X171741Y205676D01*
X171724Y205687D01*
X171702Y205698D01*
X171680Y205715D01*
X171647Y205737D01*
X171608Y205754D01*
X171558Y205776D01*
X171508Y205798D01*
X171452Y205815D01*
X171386Y205837D01*
X171314Y205854D01*
X171241Y205865D01*
X171158Y205876D01*
X171064Y205887D01*
D02*
G37*
G36*
X169604Y201602D02*
X169599D01*
X169593D01*
X169560Y201597D01*
X169510Y201591D01*
X169443Y201580D01*
X169377Y201552D01*
X169299Y201519D01*
X169227Y201469D01*
X169155Y201402D01*
X169149Y201391D01*
X169127Y201364D01*
X169099Y201319D01*
X169066Y201247D01*
X169033Y201164D01*
X169005Y201053D01*
X168983Y200925D01*
X168977Y200775D01*
Y199565D01*
X170248D01*
Y200709D01*
X170242Y200775D01*
X170237Y200853D01*
X170231Y200942D01*
X170220Y201031D01*
X170204Y201119D01*
X170181Y201197D01*
X170176Y201208D01*
X170165Y201230D01*
X170148Y201264D01*
X170126Y201308D01*
X170093Y201358D01*
X170054Y201408D01*
X170004Y201458D01*
X169948Y201497D01*
X169943Y201502D01*
X169921Y201514D01*
X169887Y201530D01*
X169843Y201552D01*
X169793Y201569D01*
X169737Y201586D01*
X169671Y201597D01*
X169604Y201602D01*
D02*
G37*
%LPD*%
D10*
X111067Y143543D02*
X110279D01*
X111067D01*
X116405Y244342D02*
X115402Y244183D01*
X114496Y243722D01*
X113778Y243004D01*
X113316Y242098D01*
X113157Y241094D01*
X132843Y241094D02*
X132684Y242098D01*
X132222Y243004D01*
X131504Y243722D01*
X130598Y244183D01*
X129595Y244342D01*
X129595Y199657D02*
X130598Y199816D01*
X131504Y200278D01*
X132222Y200996D01*
X132684Y201902D01*
X132843Y202905D01*
X113157D02*
X113316Y201902D01*
X113778Y200996D01*
X114496Y200278D01*
X115402Y199816D01*
X116405Y199657D01*
X165213Y2000D02*
Y14728D01*
X98283Y2000D02*
X165213D01*
X98283D02*
Y14728D01*
X165213Y28508D02*
Y121106D01*
X98283Y121028D02*
X165213Y121106D01*
X98283Y28508D02*
Y121028D01*
X116405Y244342D02*
X129594D01*
X132842Y202905D02*
Y241094D01*
X113157Y202905D02*
Y241094D01*
X116405Y199657D02*
X129594D01*
X185008Y125744D02*
X185992D01*
X185008Y131256D02*
X185992D01*
X219453Y205732D02*
X228114D01*
X219453Y197268D02*
X228114D01*
X223291Y164256D02*
X224275D01*
X223291Y158744D02*
X224275D01*
X219453Y185232D02*
X228114D01*
X219453Y176768D02*
X228114D01*
X223291Y224756D02*
X224275D01*
X223291Y219244D02*
X224275D01*
X223532Y138842D02*
X227469D01*
X223532Y144157D02*
X227469D01*
X19945Y10504D02*
X20929D01*
X19945Y16016D02*
X20929D01*
X19945Y37744D02*
X20929D01*
X19945Y43256D02*
X20929D01*
X19945Y65244D02*
X20929D01*
X19945Y70756D02*
X20929D01*
X19945Y92744D02*
X20929D01*
X19945Y98256D02*
X20929D01*
X19945Y120004D02*
X20929D01*
X19945Y125516D02*
X20929D01*
X40008Y16016D02*
X40992D01*
X40008Y10504D02*
X40992D01*
X40008Y43256D02*
X40992D01*
X40008Y37744D02*
X40992D01*
X40008Y70756D02*
X40992D01*
X40008Y65244D02*
X40992D01*
X40008Y98256D02*
X40992D01*
X40008Y92744D02*
X40992D01*
X40008Y125516D02*
X40992D01*
X40008Y120004D02*
X40992D01*
X67988Y121634D02*
Y123886D01*
X71441Y117051D02*
X73106D01*
Y125374D02*
Y128469D01*
Y117051D02*
Y120146D01*
X71441Y128469D02*
X73106D01*
X68072Y12134D02*
Y14386D01*
X71524Y7551D02*
X73190D01*
Y15874D02*
Y18969D01*
Y7551D02*
Y10646D01*
X71524Y18969D02*
X73190D01*
X67988Y66874D02*
Y69126D01*
X71441Y62291D02*
X73106D01*
Y70614D02*
Y73709D01*
Y62291D02*
Y65386D01*
X71441Y73709D02*
X73106D01*
X67988Y39374D02*
Y41626D01*
X71441Y34791D02*
X73106D01*
Y43114D02*
Y46209D01*
Y34791D02*
Y37886D01*
X71441Y46209D02*
X73106D01*
X67988Y94374D02*
Y96626D01*
X71441Y89791D02*
X73106D01*
Y98114D02*
Y101209D01*
Y89791D02*
Y92886D01*
X71441Y101209D02*
X73106D01*
X149008Y234362D02*
X149992D01*
X149008Y228850D02*
X149992D01*
X185508Y145244D02*
X186492D01*
X185508Y150756D02*
X186492D01*
X163531Y151157D02*
X167468D01*
X163531Y145842D02*
X167468D01*
X92217Y208161D02*
X100878D01*
X92217Y216626D02*
X100878D01*
X92217Y227374D02*
X100878D01*
X92217Y235838D02*
X100878D01*
X149008Y209638D02*
X149992D01*
X149008Y215150D02*
X149992D01*
X26244Y152508D02*
Y153492D01*
X31756Y152508D02*
Y153492D01*
X49157Y150532D02*
Y154469D01*
X43842Y150532D02*
Y154469D01*
X165008Y125244D02*
X165992D01*
X165008Y130756D02*
X165992D01*
X200961Y67744D02*
X201945D01*
X200961Y73256D02*
X201945D01*
X200898Y47744D02*
X201882D01*
X200898Y53256D02*
X201882D01*
X200961Y87744D02*
X201945D01*
X200961Y93256D02*
X201945D01*
X200961Y12256D02*
X201945D01*
X200961Y6744D02*
X201945D01*
X196622Y108768D02*
X205283D01*
X196622Y117232D02*
X205283D01*
X200961Y32256D02*
X201945D01*
X200961Y26744D02*
X201945D01*
X225008Y73744D02*
X225992D01*
X225008Y79256D02*
X225992D01*
X225008Y93744D02*
X225992D01*
X225008Y99256D02*
X225992D01*
X223532Y121657D02*
X227469D01*
X223532Y116342D02*
X227469D01*
X221169Y6268D02*
X229831D01*
X221169Y14732D02*
X229831D01*
X221169Y28768D02*
X229831D01*
X221169Y37232D02*
X229831D01*
X221169Y51268D02*
X229831D01*
X221169Y59732D02*
X229831D01*
X81059Y255213D02*
Y263874D01*
X72594Y255213D02*
Y263874D01*
X204059Y255213D02*
Y263874D01*
X195594Y255213D02*
Y263874D01*
X174059Y255213D02*
Y263874D01*
X165594Y255213D02*
Y263874D01*
X189059Y255213D02*
Y263874D01*
X180594Y255213D02*
Y263874D01*
X159059Y255213D02*
Y263874D01*
X150594Y255213D02*
Y263874D01*
X36059Y255213D02*
Y263874D01*
X27594Y255213D02*
Y263874D01*
X66059Y255213D02*
Y263874D01*
X57594Y255213D02*
Y263874D01*
X103681Y256098D02*
Y262988D01*
X97972Y256098D02*
Y262988D01*
X51059Y255213D02*
Y263874D01*
X42594Y255213D02*
Y263874D01*
X144059Y255213D02*
Y263874D01*
X135594Y255213D02*
Y263874D01*
X129059Y255213D02*
Y263874D01*
X120594Y255213D02*
Y263874D01*
D11*
X168658Y94020D02*
X168264D01*
X168658D01*
D12*
X123350Y197382D02*
X122650D01*
X123350D01*
D13*
X134177Y151024D02*
X135476D01*
Y152323D01*
Y177677D02*
Y178976D01*
X134177D02*
X135476D01*
X107524D02*
X108823D01*
X107524Y177677D02*
Y178976D01*
Y151024D02*
Y152323D01*
Y151024D02*
X108823D01*
D14*
X57055Y168771D02*
Y232315D01*
X70599D01*
Y168771D02*
Y232315D01*
X57055Y168771D02*
X70599D01*
X174555Y167771D02*
X188099D01*
Y231315D01*
X174555D02*
X188099D01*
X174555Y167771D02*
Y231315D01*
D15*
X70599Y249500D02*
X76599Y251500D01*
X70599Y249500D02*
X76599Y247500D01*
X168555D02*
X174555Y249500D01*
X168555Y251500D02*
X174555Y249500D01*
X70599D02*
X110500D01*
X132694D02*
X174555D01*
X70599Y233709D02*
Y250500D01*
X174555Y232709D02*
Y250500D01*
X129001Y196499D02*
Y195499D01*
X131001Y193500D01*
X133000Y195499D01*
Y196499D01*
X131001Y193500D02*
Y190501D01*
X134999D02*
X136999D01*
X135999D01*
Y196499D01*
X134999Y195499D01*
X195800Y77000D02*
Y82998D01*
X198799D01*
X199799Y81998D01*
Y79999D01*
X198799Y78999D01*
X195800D01*
X197799D02*
X199799Y77000D01*
X201798Y82998D02*
Y81998D01*
X203797Y79999D01*
X205797Y81998D01*
Y82998D01*
X203797Y79999D02*
Y77000D01*
X34800Y19800D02*
Y25798D01*
X37799D01*
X38799Y24798D01*
Y22799D01*
X37799Y21799D01*
X34800D01*
X36799D02*
X38799Y19800D01*
X40798Y25798D02*
Y19800D01*
X44797D01*
X46796Y25798D02*
Y19800D01*
X50795D01*
X56793Y25798D02*
X52794D01*
Y22799D01*
X54794Y23799D01*
X55793D01*
X56793Y22799D01*
Y20800D01*
X55793Y19800D01*
X53794D01*
X52794Y20800D01*
X34800Y47000D02*
Y52998D01*
X37799D01*
X38799Y51998D01*
Y49999D01*
X37799Y48999D01*
X34800D01*
X36799D02*
X38799Y47000D01*
X40798Y52998D02*
Y47000D01*
X44797D01*
X46796Y52998D02*
Y47000D01*
X50795D01*
X55793D02*
Y52998D01*
X52794Y49999D01*
X56793D01*
X34800Y74500D02*
Y80498D01*
X37799D01*
X38799Y79498D01*
Y77499D01*
X37799Y76499D01*
X34800D01*
X36799D02*
X38799Y74500D01*
X40798Y80498D02*
Y74500D01*
X44797D01*
X46796Y80498D02*
Y74500D01*
X50795D01*
X52794Y79498D02*
X53794Y80498D01*
X55793D01*
X56793Y79498D01*
Y78499D01*
X55793Y77499D01*
X54794D01*
X55793D01*
X56793Y76499D01*
Y75500D01*
X55793Y74500D01*
X53794D01*
X52794Y75500D01*
X34800Y102000D02*
Y107998D01*
X37799D01*
X38799Y106998D01*
Y104999D01*
X37799Y103999D01*
X34800D01*
X36799D02*
X38799Y102000D01*
X40798Y107998D02*
Y102000D01*
X44797D01*
X46796Y107998D02*
Y102000D01*
X50795D01*
X56793D02*
X52794D01*
X56793Y105999D01*
Y106998D01*
X55793Y107998D01*
X53794D01*
X52794Y106998D01*
X34800Y129300D02*
Y135298D01*
X37799D01*
X38799Y134298D01*
Y132299D01*
X37799Y131299D01*
X34800D01*
X36799D02*
X38799Y129300D01*
X40798Y135298D02*
Y129300D01*
X44797D01*
X46796Y135298D02*
Y129300D01*
X50795D01*
X52794D02*
X54794D01*
X53794D01*
Y135298D01*
X52794Y134298D01*
X4100Y19800D02*
Y25798D01*
X7099D01*
X8099Y24798D01*
Y22799D01*
X7099Y21799D01*
X4100D01*
X6099D02*
X8099Y19800D01*
X10098Y25798D02*
Y19800D01*
X14097D01*
X16096Y25798D02*
Y19800D01*
Y22799D01*
X20095D01*
Y25798D01*
Y19800D01*
X26093Y25798D02*
X22094D01*
Y22799D01*
X24093Y23799D01*
X25093D01*
X26093Y22799D01*
Y20800D01*
X25093Y19800D01*
X23094D01*
X22094Y20800D01*
X4100Y47000D02*
Y52998D01*
X7099D01*
X8099Y51998D01*
Y49999D01*
X7099Y48999D01*
X4100D01*
X6099D02*
X8099Y47000D01*
X10098Y52998D02*
Y47000D01*
X14097D01*
X16096Y52998D02*
Y47000D01*
Y49999D01*
X20095D01*
Y52998D01*
Y47000D01*
X25093D02*
Y52998D01*
X22094Y49999D01*
X26093D01*
X4100Y74500D02*
Y80498D01*
X7099D01*
X8099Y79498D01*
Y77499D01*
X7099Y76499D01*
X4100D01*
X6099D02*
X8099Y74500D01*
X10098Y80498D02*
Y74500D01*
X14097D01*
X16096Y80498D02*
Y74500D01*
Y77499D01*
X20095D01*
Y80498D01*
Y74500D01*
X22094Y79498D02*
X23094Y80498D01*
X25093D01*
X26093Y79498D01*
Y78499D01*
X25093Y77499D01*
X24093D01*
X25093D01*
X26093Y76499D01*
Y75500D01*
X25093Y74500D01*
X23094D01*
X22094Y75500D01*
X4100Y102000D02*
Y107998D01*
X7099D01*
X8099Y106998D01*
Y104999D01*
X7099Y103999D01*
X4100D01*
X6099D02*
X8099Y102000D01*
X10098Y107998D02*
Y102000D01*
X14097D01*
X16096Y107998D02*
Y102000D01*
Y104999D01*
X20095D01*
Y107998D01*
Y102000D01*
X26093D02*
X22094D01*
X26093Y105999D01*
Y106998D01*
X25093Y107998D01*
X23094D01*
X22094Y106998D01*
X6100Y129300D02*
Y135298D01*
X9099D01*
X10099Y134298D01*
Y132299D01*
X9099Y131299D01*
X6100D01*
X8099D02*
X10099Y129300D01*
X12098Y135298D02*
Y129300D01*
X16097D01*
X18096Y135298D02*
Y129300D01*
Y132299D01*
X22095D01*
Y135298D01*
Y129300D01*
X24094D02*
X26094D01*
X25094D01*
Y135298D01*
X24094Y134298D01*
X87999Y107504D02*
X82001D01*
Y110503D01*
X83001Y111502D01*
X85000D01*
X86000Y110503D01*
Y107504D01*
Y109503D02*
X87999Y111502D01*
X82001Y117500D02*
Y115501D01*
Y116501D01*
X86999D01*
X87999Y115501D01*
Y114501D01*
X86999Y113502D01*
X87999Y122499D02*
X82001D01*
X85000Y119500D01*
Y123498D01*
X82001Y129497D02*
Y125498D01*
X85000D01*
X84000Y127497D01*
Y128497D01*
X85000Y129497D01*
X86999D01*
X87999Y128497D01*
Y126497D01*
X86999Y125498D01*
X195700Y57000D02*
Y62998D01*
X198699D01*
X199699Y61998D01*
Y59999D01*
X198699Y58999D01*
X195700D01*
X197699D02*
X199699Y57000D01*
X205697Y61998D02*
X204697Y62998D01*
X202698D01*
X201698Y61998D01*
Y58000D01*
X202698Y57000D01*
X204697D01*
X205697Y58000D01*
Y59999D01*
X203697D01*
X179200Y37000D02*
Y42998D01*
X182199D01*
X183199Y41998D01*
Y39999D01*
X182199Y38999D01*
X179200D01*
X181199D02*
X183199Y37000D01*
X185198Y36000D02*
X189197D01*
X191196Y37000D02*
Y42998D01*
X193195Y40999D01*
X195195Y42998D01*
Y37000D01*
X197194Y42998D02*
Y37000D01*
Y39999D01*
X201193D01*
Y42998D01*
Y37000D01*
X206191D02*
Y42998D01*
X203192Y39999D01*
X207191D01*
X179200Y17000D02*
Y22998D01*
X182199D01*
X183199Y21998D01*
Y19999D01*
X182199Y18999D01*
X179200D01*
X181199D02*
X183199Y17000D01*
X185198Y16000D02*
X189197D01*
X191196Y17000D02*
Y22998D01*
X193195Y20999D01*
X195195Y22998D01*
Y17000D01*
X197194Y22998D02*
Y17000D01*
Y19999D01*
X201193D01*
Y22998D01*
Y17000D01*
X203192Y21998D02*
X204192Y22998D01*
X206191D01*
X207191Y21998D01*
Y20999D01*
X206191Y19999D01*
X205192D01*
X206191D01*
X207191Y18999D01*
Y18000D01*
X206191Y17000D01*
X204192D01*
X203192Y18000D01*
X218100Y168000D02*
Y173998D01*
X221099D01*
X222099Y172998D01*
Y170999D01*
X221099Y169999D01*
X218100D01*
X220099D02*
X222099Y168000D01*
X224098D02*
X226097D01*
X225098D01*
Y173998D01*
X224098Y172998D01*
X233095Y173998D02*
X229096D01*
Y170999D01*
X231096Y171999D01*
X232096D01*
X233095Y170999D01*
Y169000D01*
X232096Y168000D01*
X230096D01*
X229096Y169000D01*
X143800Y238100D02*
Y244098D01*
X146799D01*
X147799Y243098D01*
Y241099D01*
X146799Y240099D01*
X143800D01*
X145799D02*
X147799Y238100D01*
X149798D02*
X151797D01*
X150798D01*
Y244098D01*
X149798Y243098D01*
X157796Y238100D02*
Y244098D01*
X154796Y241099D01*
X158795D01*
X143800Y218900D02*
Y224898D01*
X146799D01*
X147799Y223898D01*
Y221899D01*
X146799Y220899D01*
X143800D01*
X145799D02*
X147799Y218900D01*
X149798D02*
X151797D01*
X150798D01*
Y224898D01*
X149798Y223898D01*
X154796D02*
X155796Y224898D01*
X157796D01*
X158795Y223898D01*
Y222899D01*
X157796Y221899D01*
X156796D01*
X157796D01*
X158795Y220899D01*
Y219900D01*
X157796Y218900D01*
X155796D01*
X154796Y219900D01*
X219800Y83000D02*
Y88998D01*
X222799D01*
X223799Y87998D01*
Y85999D01*
X222799Y84999D01*
X219800D01*
X221799D02*
X223799Y83000D01*
X225798D02*
X227797D01*
X226798D01*
Y88998D01*
X225798Y87998D01*
X234795Y83000D02*
X230796D01*
X234795Y86999D01*
Y87998D01*
X233795Y88998D01*
X231796D01*
X230796Y87998D01*
X219800Y103000D02*
Y108998D01*
X222799D01*
X223799Y107998D01*
Y105999D01*
X222799Y104999D01*
X219800D01*
X221799D02*
X223799Y103000D01*
X225798D02*
X227797D01*
X226798D01*
Y108998D01*
X225798Y107998D01*
X230796Y103000D02*
X232796D01*
X231796D01*
Y108998D01*
X230796Y107998D01*
X218900Y125800D02*
Y131798D01*
X221899D01*
X222899Y130798D01*
Y128799D01*
X221899Y127799D01*
X218900D01*
X220899D02*
X222899Y125800D01*
X224898D02*
X226897D01*
X225898D01*
Y131798D01*
X224898Y130798D01*
X229896D02*
X230896Y131798D01*
X232895D01*
X233895Y130798D01*
Y126800D01*
X232895Y125800D01*
X230896D01*
X229896Y126800D01*
Y130798D01*
X218900Y148300D02*
Y154298D01*
X221899D01*
X222899Y153298D01*
Y151299D01*
X221899Y150299D01*
X218900D01*
X220899D02*
X222899Y148300D01*
X224898Y149300D02*
X225898Y148300D01*
X227897D01*
X228897Y149300D01*
Y153298D01*
X227897Y154298D01*
X225898D01*
X224898Y153298D01*
Y152299D01*
X225898Y151299D01*
X228897D01*
X43700Y163100D02*
Y169098D01*
X46699D01*
X47699Y168098D01*
Y166099D01*
X46699Y165099D01*
X43700D01*
X45699D02*
X47699Y163100D01*
X49698Y168098D02*
X50698Y169098D01*
X52697D01*
X53697Y168098D01*
Y167099D01*
X52697Y166099D01*
X53697Y165099D01*
Y164100D01*
X52697Y163100D01*
X50698D01*
X49698Y164100D01*
Y165099D01*
X50698Y166099D01*
X49698Y167099D01*
Y168098D01*
X50698Y166099D02*
X52697D01*
X158900Y155300D02*
Y161298D01*
X161899D01*
X162899Y160298D01*
Y158299D01*
X161899Y157299D01*
X158900D01*
X160899D02*
X162899Y155300D01*
X164898Y161298D02*
X168897D01*
Y160298D01*
X164898Y156300D01*
Y155300D01*
X218100Y228500D02*
Y234498D01*
X221099D01*
X222099Y233498D01*
Y231499D01*
X221099Y230499D01*
X218100D01*
X220099D02*
X222099Y228500D01*
X228097Y234498D02*
X226097Y233498D01*
X224098Y231499D01*
Y229500D01*
X225098Y228500D01*
X227097D01*
X228097Y229500D01*
Y230499D01*
X227097Y231499D01*
X224098D01*
X180300Y154500D02*
Y160498D01*
X183299D01*
X184299Y159498D01*
Y157499D01*
X183299Y156499D01*
X180300D01*
X182299D02*
X184299Y154500D01*
X190297Y160498D02*
X186298D01*
Y157499D01*
X188297Y158499D01*
X189297D01*
X190297Y157499D01*
Y155500D01*
X189297Y154500D01*
X187298D01*
X186298Y155500D01*
X195800Y97000D02*
Y102998D01*
X198799D01*
X199799Y101998D01*
Y99999D01*
X198799Y98999D01*
X195800D01*
X197799D02*
X199799Y97000D01*
X204797D02*
Y102998D01*
X201798Y99999D01*
X205797D01*
X179800Y135000D02*
Y140998D01*
X182799D01*
X183799Y139998D01*
Y137999D01*
X182799Y136999D01*
X179800D01*
X181799D02*
X183799Y135000D01*
X185798Y139998D02*
X186798Y140998D01*
X188797D01*
X189797Y139998D01*
Y138999D01*
X188797Y137999D01*
X187797D01*
X188797D01*
X189797Y136999D01*
Y136000D01*
X188797Y135000D01*
X186798D01*
X185798Y136000D01*
X159800Y134500D02*
Y140498D01*
X162799D01*
X163799Y139498D01*
Y137499D01*
X162799Y136499D01*
X159800D01*
X161799D02*
X163799Y134500D01*
X169797D02*
X165798D01*
X169797Y138499D01*
Y139498D01*
X168797Y140498D01*
X166798D01*
X165798Y139498D01*
X26500Y162700D02*
Y168698D01*
X29499D01*
X30499Y167698D01*
Y165699D01*
X29499Y164699D01*
X26500D01*
X28499D02*
X30499Y162700D01*
X32498D02*
X34497D01*
X33498D01*
Y168698D01*
X32498Y167698D01*
X67599Y133800D02*
Y137798D01*
X66599Y138798D01*
X64600D01*
X63600Y137798D01*
Y133800D01*
X64600Y132800D01*
X66599D01*
X65599Y134799D02*
X67599Y132800D01*
X66599D02*
X67599Y133800D01*
X69598Y132800D02*
X71597D01*
X70598D01*
Y138798D01*
X69598Y137798D01*
X67699Y24300D02*
Y28298D01*
X66699Y29298D01*
X64700D01*
X63700Y28298D01*
Y24300D01*
X64700Y23300D01*
X66699D01*
X65699Y25299D02*
X67699Y23300D01*
X66699D02*
X67699Y24300D01*
X73697Y29298D02*
X69698D01*
Y26299D01*
X71697Y27299D01*
X72697D01*
X73697Y26299D01*
Y24300D01*
X72697Y23300D01*
X70698D01*
X69698Y24300D01*
X67599Y79100D02*
Y83098D01*
X66599Y84098D01*
X64600D01*
X63600Y83098D01*
Y79100D01*
X64600Y78100D01*
X66599D01*
X65599Y80099D02*
X67599Y78100D01*
X66599D02*
X67599Y79100D01*
X69598Y83098D02*
X70598Y84098D01*
X72597D01*
X73597Y83098D01*
Y82099D01*
X72597Y81099D01*
X71597D01*
X72597D01*
X73597Y80099D01*
Y79100D01*
X72597Y78100D01*
X70598D01*
X69598Y79100D01*
X67599Y51600D02*
Y55598D01*
X66599Y56598D01*
X64600D01*
X63600Y55598D01*
Y51600D01*
X64600Y50600D01*
X66599D01*
X65599Y52599D02*
X67599Y50600D01*
X66599D02*
X67599Y51600D01*
X72597Y50600D02*
Y56598D01*
X69598Y53599D01*
X73597D01*
X67599Y106600D02*
Y110598D01*
X66599Y111598D01*
X64600D01*
X63600Y110598D01*
Y106600D01*
X64600Y105600D01*
X66599D01*
X65599Y107599D02*
X67599Y105600D01*
X66599D02*
X67599Y106600D01*
X73597Y105600D02*
X69598D01*
X73597Y109599D01*
Y110598D01*
X72597Y111598D01*
X70598D01*
X69598Y110598D01*
X102599Y273298D02*
X98600D01*
Y270299D01*
X100599D01*
X98600D01*
Y267300D01*
X104598Y273298D02*
Y267300D01*
X107597D01*
X108597Y268300D01*
Y269299D01*
X107597Y270299D01*
X104598D01*
X107597D01*
X108597Y271299D01*
Y272298D01*
X107597Y273298D01*
X104598D01*
X110596Y267300D02*
X112595D01*
X111596D01*
Y273298D01*
X110596Y272298D01*
X107004Y137499D02*
Y131501D01*
X109004Y133500D01*
X111003Y131501D01*
Y137499D01*
X117001D02*
X113003D01*
Y134500D01*
X115002Y135500D01*
X116002D01*
X117001Y134500D01*
Y132501D01*
X116002Y131501D01*
X114002D01*
X113003Y132501D01*
X122999Y137499D02*
X119001D01*
Y134500D01*
X121000Y135500D01*
X122000D01*
X122999Y134500D01*
Y132501D01*
X122000Y131501D01*
X120000D01*
X119001Y132501D01*
X124999Y136499D02*
X125998Y137499D01*
X127998D01*
X128997Y136499D01*
Y132501D01*
X127998Y131501D01*
X125998D01*
X124999Y132501D01*
Y136499D01*
X130997D02*
X131997Y137499D01*
X133996D01*
X134995Y136499D01*
Y132501D01*
X133996Y131501D01*
X131997D01*
X130997Y132501D01*
Y136499D01*
X222899Y214098D02*
X221899Y215098D01*
X219900D01*
X218900Y214098D01*
Y210100D01*
X219900Y209100D01*
X221899D01*
X222899Y210100D01*
X224898Y209100D02*
X226897D01*
X225898D01*
Y215098D01*
X224898Y214098D01*
X229896D02*
X230896Y215098D01*
X232895D01*
X233895Y214098D01*
Y213099D01*
X232895Y212099D01*
X233895Y211099D01*
Y210100D01*
X232895Y209100D01*
X230896D01*
X229896Y210100D01*
Y211099D01*
X230896Y212099D01*
X229896Y213099D01*
Y214098D01*
X230896Y212099D02*
X232895D01*
X222899Y193598D02*
X221899Y194598D01*
X219900D01*
X218900Y193598D01*
Y189600D01*
X219900Y188600D01*
X221899D01*
X222899Y189600D01*
X224898Y188600D02*
X226897D01*
X225898D01*
Y194598D01*
X224898Y193598D01*
X229896Y194598D02*
X233895D01*
Y193598D01*
X229896Y189600D01*
Y188600D01*
X95599Y244198D02*
X94599Y245198D01*
X92600D01*
X91600Y244198D01*
Y240200D01*
X92600Y239200D01*
X94599D01*
X95599Y240200D01*
X97598Y239200D02*
X99597D01*
X98598D01*
Y245198D01*
X97598Y244198D01*
X106595Y245198D02*
X104596Y244198D01*
X102596Y242199D01*
Y240200D01*
X103596Y239200D01*
X105596D01*
X106595Y240200D01*
Y241199D01*
X105596Y242199D01*
X102596D01*
X95599Y224998D02*
X94599Y225998D01*
X92600D01*
X91600Y224998D01*
Y221000D01*
X92600Y220000D01*
X94599D01*
X95599Y221000D01*
X97598Y220000D02*
X99597D01*
X98598D01*
Y225998D01*
X97598Y224998D01*
X106595Y225998D02*
X102596D01*
Y222999D01*
X104596Y223999D01*
X105596D01*
X106595Y222999D01*
Y221000D01*
X105596Y220000D01*
X103596D01*
X102596Y221000D01*
X224599Y23098D02*
X223599Y24098D01*
X221600D01*
X220600Y23098D01*
Y19100D01*
X221600Y18100D01*
X223599D01*
X224599Y19100D01*
X226598Y18100D02*
X228597D01*
X227598D01*
Y24098D01*
X226598Y23098D01*
X234595Y18100D02*
Y24098D01*
X231596Y21099D01*
X235595D01*
X224599Y45598D02*
X223599Y46598D01*
X221600D01*
X220600Y45598D01*
Y41600D01*
X221600Y40600D01*
X223599D01*
X224599Y41600D01*
X226598Y40600D02*
X228597D01*
X227598D01*
Y46598D01*
X226598Y45598D01*
X231596D02*
X232596Y46598D01*
X234595D01*
X235595Y45598D01*
Y44599D01*
X234595Y43599D01*
X233596D01*
X234595D01*
X235595Y42599D01*
Y41600D01*
X234595Y40600D01*
X232596D01*
X231596Y41600D01*
X224599Y68098D02*
X223599Y69098D01*
X221600D01*
X220600Y68098D01*
Y64100D01*
X221600Y63100D01*
X223599D01*
X224599Y64100D01*
X226598Y63100D02*
X228597D01*
X227598D01*
Y69098D01*
X226598Y68098D01*
X235595Y63100D02*
X231596D01*
X235595Y67099D01*
Y68098D01*
X234595Y69098D01*
X232596D01*
X231596Y68098D01*
X199999Y125598D02*
X198999Y126598D01*
X197000D01*
X196000Y125598D01*
Y121600D01*
X197000Y120600D01*
X198999D01*
X199999Y121600D01*
X201998Y120600D02*
X203997D01*
X202998D01*
Y126598D01*
X201998Y125598D01*
X206996Y120600D02*
X208996D01*
X207996D01*
Y126598D01*
X206996Y125598D01*
X200199Y273398D02*
X199199Y274398D01*
X197200D01*
X196200Y273398D01*
Y269400D01*
X197200Y268400D01*
X199199D01*
X200199Y269400D01*
X202198Y268400D02*
X204197D01*
X203198D01*
Y274398D01*
X202198Y273398D01*
X207196D02*
X208196Y274398D01*
X210195D01*
X211195Y273398D01*
Y269400D01*
X210195Y268400D01*
X208196D01*
X207196Y269400D01*
Y273398D01*
X185199D02*
X184199Y274398D01*
X182200D01*
X181200Y273398D01*
Y269400D01*
X182200Y268400D01*
X184199D01*
X185199Y269400D01*
X187198D02*
X188198Y268400D01*
X190197D01*
X191197Y269400D01*
Y273398D01*
X190197Y274398D01*
X188198D01*
X187198Y273398D01*
Y272399D01*
X188198Y271399D01*
X191197D01*
X170199Y273398D02*
X169199Y274398D01*
X167200D01*
X166200Y273398D01*
Y269400D01*
X167200Y268400D01*
X169199D01*
X170199Y269400D01*
X172198Y273398D02*
X173198Y274398D01*
X175197D01*
X176197Y273398D01*
Y272399D01*
X175197Y271399D01*
X176197Y270399D01*
Y269400D01*
X175197Y268400D01*
X173198D01*
X172198Y269400D01*
Y270399D01*
X173198Y271399D01*
X172198Y272399D01*
Y273398D01*
X173198Y271399D02*
X175197D01*
X155199Y273398D02*
X154199Y274398D01*
X152200D01*
X151200Y273398D01*
Y269400D01*
X152200Y268400D01*
X154199D01*
X155199Y269400D01*
X157198Y274398D02*
X161197D01*
Y273398D01*
X157198Y269400D01*
Y268400D01*
X140199Y273398D02*
X139199Y274398D01*
X137200D01*
X136200Y273398D01*
Y269400D01*
X137200Y268400D01*
X139199D01*
X140199Y269400D01*
X146197Y274398D02*
X144197Y273398D01*
X142198Y271399D01*
Y269400D01*
X143198Y268400D01*
X145197D01*
X146197Y269400D01*
Y270399D01*
X145197Y271399D01*
X142198D01*
X125199Y273398D02*
X124199Y274398D01*
X122200D01*
X121200Y273398D01*
Y269400D01*
X122200Y268400D01*
X124199D01*
X125199Y269400D01*
X131197Y274398D02*
X127198D01*
Y271399D01*
X129197Y272399D01*
X130197D01*
X131197Y271399D01*
Y269400D01*
X130197Y268400D01*
X128198D01*
X127198Y269400D01*
X77199Y273398D02*
X76199Y274398D01*
X74200D01*
X73200Y273398D01*
Y269400D01*
X74200Y268400D01*
X76199D01*
X77199Y269400D01*
X82197Y268400D02*
Y274398D01*
X79198Y271399D01*
X83197D01*
X62199Y273398D02*
X61199Y274398D01*
X59200D01*
X58200Y273398D01*
Y269400D01*
X59200Y268400D01*
X61199D01*
X62199Y269400D01*
X64198Y273398D02*
X65198Y274398D01*
X67197D01*
X68197Y273398D01*
Y272399D01*
X67197Y271399D01*
X66197D01*
X67197D01*
X68197Y270399D01*
Y269400D01*
X67197Y268400D01*
X65198D01*
X64198Y269400D01*
X47199Y273398D02*
X46199Y274398D01*
X44200D01*
X43200Y273398D01*
Y269400D01*
X44200Y268400D01*
X46199D01*
X47199Y269400D01*
X53197Y268400D02*
X49198D01*
X53197Y272399D01*
Y273398D01*
X52197Y274398D01*
X50198D01*
X49198Y273398D01*
X32199D02*
X31199Y274398D01*
X29200D01*
X28200Y273398D01*
Y269400D01*
X29200Y268400D01*
X31199D01*
X32199Y269400D01*
X34198Y268400D02*
X36197D01*
X35198D01*
Y274398D01*
X34198Y273398D01*
D16*
X112100Y248100D02*
X113100D01*
X112600D01*
Y251099D01*
X112100Y250599D01*
X114599D02*
X115099Y251099D01*
X116099D01*
X116598Y250599D01*
Y248600D01*
X116099Y248100D01*
X115099D01*
X114599Y248600D01*
Y250599D01*
X117598D02*
X118098Y251099D01*
X119098D01*
X119598Y250599D01*
Y250099D01*
X119098Y249600D01*
X118598D01*
X119098D01*
X119598Y249100D01*
Y248600D01*
X119098Y248100D01*
X118098D01*
X117598Y248600D01*
X120597D02*
X121097Y248100D01*
X122097D01*
X122597Y248600D01*
Y250599D01*
X122097Y251099D01*
X121097D01*
X120597Y250599D01*
Y250099D01*
X121097Y249600D01*
X122597D01*
X123596Y248100D02*
Y248600D01*
X124096D01*
Y248100D01*
X123596D01*
X128095Y251099D02*
X126095D01*
Y249600D01*
X127095Y250099D01*
X127595D01*
X128095Y249600D01*
Y248600D01*
X127595Y248100D01*
X126595D01*
X126095Y248600D01*
X131094Y251099D02*
X130094Y250599D01*
X129095Y249600D01*
Y248600D01*
X129594Y248100D01*
X130594D01*
X131094Y248600D01*
Y249100D01*
X130594Y249600D01*
X129095D01*
M02*
