G04*
G04 #@! TF.GenerationSoftware,Altium Limited,Altium Designer,22.9.1 (49)*
G04*
G04 Layer_Color=32768*
%FSLAX25Y25*%
%MOIN*%
G70*
G04*
G04 #@! TF.SameCoordinates,2D7BEFF4-9F28-405B-851C-CABBC44A95C7*
G04*
G04*
G04 #@! TF.FilePolarity,Positive*
G04*
G01*
G75*
%ADD10C,0.00787*%
%ADD11C,0.00394*%
%ADD53C,0.00197*%
D10*
X179201Y125350D02*
X191799D01*
X179201D02*
Y131650D01*
X191799D01*
Y125350D02*
Y131650D01*
X218272Y204846D02*
X229295D01*
Y198153D02*
Y204846D01*
X218272Y198153D02*
X229295D01*
X218272D02*
Y204846D01*
X217484Y164650D02*
X230083D01*
Y158350D02*
Y164650D01*
X217484Y158350D02*
X230083D01*
X217484D02*
Y164650D01*
X218272Y184346D02*
X229295D01*
Y177653D02*
Y184346D01*
X218272Y177653D02*
X229295D01*
X218272D02*
Y184346D01*
X217484Y225150D02*
X230083D01*
Y218850D02*
Y225150D01*
X217484Y218850D02*
X230083D01*
X217484D02*
Y225150D01*
X14138Y10110D02*
X26736D01*
X14138D02*
Y16409D01*
X26736D01*
Y10110D02*
Y16409D01*
X14138Y37350D02*
X26736D01*
X14138D02*
Y43650D01*
X26736D01*
Y37350D02*
Y43650D01*
X14138Y64850D02*
X26736D01*
X14138D02*
Y71150D01*
X26736D01*
Y64850D02*
Y71150D01*
X14138Y92350D02*
X26736D01*
X14138D02*
Y98650D01*
X26736D01*
Y92350D02*
Y98650D01*
X14138Y119610D02*
X26736D01*
X14138D02*
Y125909D01*
X26736D01*
Y119610D02*
Y125909D01*
X46799Y10110D02*
Y16409D01*
X34201D02*
X46799D01*
X34201Y10110D02*
Y16409D01*
Y10110D02*
X46799D01*
Y37350D02*
Y43650D01*
X34201D02*
X46799D01*
X34201Y37350D02*
Y43650D01*
Y37350D02*
X46799D01*
Y64850D02*
Y71150D01*
X34201D02*
X46799D01*
X34201Y64850D02*
Y71150D01*
Y64850D02*
X46799D01*
Y92350D02*
Y98650D01*
X34201D02*
X46799D01*
X34201Y92350D02*
Y98650D01*
Y92350D02*
X46799D01*
Y119610D02*
Y125909D01*
X34201D02*
X46799D01*
X34201Y119610D02*
Y125909D01*
Y119610D02*
X46799D01*
X62979Y116067D02*
Y129453D01*
Y116067D02*
X78115D01*
Y129453D01*
X62979D02*
X78115D01*
X63063Y6567D02*
Y19953D01*
Y6567D02*
X78199D01*
Y19953D01*
X63063D02*
X78199D01*
X62979Y61307D02*
Y74693D01*
Y61307D02*
X78115D01*
Y74693D01*
X62979D02*
X78115D01*
X62979Y33807D02*
Y47193D01*
Y33807D02*
X78115D01*
Y47193D01*
X62979D02*
X78115D01*
X62979Y88807D02*
Y102193D01*
Y88807D02*
X78115D01*
Y102193D01*
X62979D02*
X78115D01*
X155799Y228457D02*
Y234756D01*
X143201D02*
X155799D01*
X143201Y228457D02*
Y234756D01*
Y228457D02*
X155799D01*
X179701Y144850D02*
Y151150D01*
Y144850D02*
X192299D01*
Y151150D01*
X179701D02*
X192299D01*
X91035Y209047D02*
Y215740D01*
Y209047D02*
X102059D01*
Y215740D01*
X91035D02*
X102059D01*
X91035Y228260D02*
Y234953D01*
Y228260D02*
X102059D01*
Y234953D01*
X91035D02*
X102059D01*
X143201Y209244D02*
Y215543D01*
Y209244D02*
X155799D01*
Y215543D01*
X143201D02*
X155799D01*
X25850Y159299D02*
X32150D01*
X25850Y146701D02*
Y159299D01*
Y146701D02*
X32150D01*
Y159299D01*
X159201Y124850D02*
Y131150D01*
Y124850D02*
X171799D01*
Y131150D01*
X159201D02*
X171799D01*
X195154Y67350D02*
Y73650D01*
Y67350D02*
X207752D01*
Y73650D01*
X195154D02*
X207752D01*
X195091Y47350D02*
Y53650D01*
Y47350D02*
X207689D01*
Y53650D01*
X195091D02*
X207689D01*
X195154Y87350D02*
Y93650D01*
Y87350D02*
X207752D01*
Y93650D01*
X195154D02*
X207752D01*
Y6350D02*
Y12650D01*
X195154D02*
X207752D01*
X195154Y6350D02*
Y12650D01*
Y6350D02*
X207752D01*
X195441Y109653D02*
Y116346D01*
Y109653D02*
X206465D01*
Y116346D01*
X195441D02*
X206465D01*
X207752Y26350D02*
Y32650D01*
X195154D02*
X207752D01*
X195154Y26350D02*
Y32650D01*
Y26350D02*
X207752D01*
X219201Y73350D02*
Y79650D01*
Y73350D02*
X231799D01*
Y79650D01*
X219201D02*
X231799D01*
X219201Y93350D02*
Y99650D01*
Y93350D02*
X231799D01*
Y99650D01*
X219201D02*
X231799D01*
X219988Y7153D02*
Y13846D01*
Y7153D02*
X231012D01*
Y13846D01*
X219988D02*
X231012D01*
X219988Y29653D02*
Y36346D01*
Y29653D02*
X231012D01*
Y36346D01*
X219988D02*
X231012D01*
X219988Y52153D02*
Y58846D01*
Y52153D02*
X231012D01*
Y58846D01*
X219988D02*
X231012D01*
X73480Y254032D02*
X80173D01*
Y265055D01*
X73480D02*
X80173D01*
X73480Y254032D02*
Y265055D01*
X196480Y254032D02*
X203173D01*
Y265055D01*
X196480D02*
X203173D01*
X196480Y254032D02*
Y265055D01*
X166480Y254032D02*
X173173D01*
Y265055D01*
X166480D02*
X173173D01*
X166480Y254032D02*
Y265055D01*
X181480Y254032D02*
X188173D01*
Y265055D01*
X181480D02*
X188173D01*
X181480Y254032D02*
Y265055D01*
X151480Y254032D02*
X158173D01*
Y265055D01*
X151480D02*
X158173D01*
X151480Y254032D02*
Y265055D01*
X28480Y254032D02*
X35173D01*
Y265055D01*
X28480D02*
X35173D01*
X28480Y254032D02*
Y265055D01*
X58480Y254032D02*
X65173D01*
Y265055D01*
X58480D02*
X65173D01*
X58480Y254032D02*
Y265055D01*
X98563Y255213D02*
X103091D01*
Y263874D01*
X98563D02*
X103091D01*
X98563Y255213D02*
Y263874D01*
X43480Y254032D02*
X50173D01*
Y265055D01*
X43480D02*
X50173D01*
X43480Y254032D02*
Y265055D01*
X136480Y254032D02*
X143173D01*
Y265055D01*
X136480D02*
X143173D01*
X136480Y254032D02*
Y265055D01*
X121480Y254032D02*
X128173D01*
Y265055D01*
X121480D02*
X128173D01*
X121480Y254032D02*
Y265055D01*
D11*
X91425Y-12831D02*
Y125043D01*
Y-12831D02*
X172071D01*
Y125043D01*
X91425D02*
X172071D01*
X121031Y222000D02*
X124968D01*
X123000Y220031D02*
Y223968D01*
X225500Y139531D02*
Y143468D01*
X223532Y141500D02*
X227469D01*
X163531Y148500D02*
X167468D01*
X165500Y146531D02*
Y150468D01*
X46500Y150532D02*
Y154469D01*
X44531Y152500D02*
X48468D01*
X223532Y119000D02*
X227469D01*
X225500Y117031D02*
Y120968D01*
D53*
X129988Y199264D02*
X131043Y199493D01*
X131975Y200037D01*
X132694Y200843D01*
X133128Y201831D01*
X133236Y202905D01*
Y241094D02*
X133128Y242169D01*
X132694Y243157D01*
X131975Y243963D01*
X131043Y244507D01*
X129988Y244736D01*
X116012D02*
X114957Y244507D01*
X114024Y243963D01*
X113306Y243157D01*
X112872Y242169D01*
X112764Y241094D01*
Y202512D02*
X112923Y201508D01*
X113384Y200603D01*
X114103Y199884D01*
X115008Y199423D01*
X116012Y199264D01*
X100988Y152638D02*
X106539D01*
Y150039D02*
Y152638D01*
Y150039D02*
X109138D01*
Y144488D02*
Y150039D01*
Y144488D02*
X133862D01*
Y150039D01*
X136461D01*
Y152638D01*
X142012D01*
Y177362D01*
X136461D02*
X142012D01*
X136461D02*
Y179961D01*
X133862D02*
X136461D01*
X133862D02*
Y185512D01*
X109138D02*
X133862D01*
X109138Y179961D02*
Y185512D01*
X106539Y179961D02*
X109138D01*
X106539Y177362D02*
Y179961D01*
X100988Y177362D02*
X106539D01*
X100988Y152638D02*
Y177362D01*
X116012Y199264D02*
X129988D01*
X112764Y202905D02*
Y241094D01*
X133236Y202905D02*
Y241094D01*
X116012Y244736D02*
X129988D01*
X218020Y137760D02*
X232980D01*
X218020Y145240D02*
X232980D01*
Y137760D02*
Y145240D01*
X218020Y137760D02*
Y145240D01*
X158020Y144760D02*
Y152240D01*
X172980Y144760D02*
Y152240D01*
X158020D02*
X172980D01*
X158020Y144760D02*
X172980D01*
X42760Y159980D02*
X50240D01*
X42760Y145020D02*
X50240D01*
Y159980D01*
X42760Y145020D02*
Y159980D01*
X218020Y115260D02*
Y122740D01*
X232980Y115260D02*
Y122740D01*
X218020D02*
X232980D01*
X218020Y115260D02*
X232980D01*
M02*
