G04*
G04 #@! TF.GenerationSoftware,Altium Limited,Altium Designer,22.9.1 (49)*
G04*
G04 Layer_Color=16711935*
%FSLAX25Y25*%
%MOIN*%
G70*
G04*
G04 #@! TF.SameCoordinates,2D7BEFF4-9F28-405B-851C-CABBC44A95C7*
G04*
G04*
G04 #@! TF.FilePolarity,Negative*
G04*
G01*
G75*
%ADD28C,0.00000*%
%ADD33C,0.10072*%
%ADD34C,0.06312*%
%ADD35C,0.06824*%
%ADD36C,0.05918*%
%ADD37C,0.06493*%
%ADD38R,0.06493X0.06493*%
%ADD39C,0.05524*%
%ADD40R,0.05524X0.05524*%
%ADD41C,0.07178*%
%ADD42C,0.04737*%
D28*
X67217Y225543D02*
X67066Y226542D01*
X66628Y227453D01*
X65940Y228194D01*
X65065Y228699D01*
X64080Y228924D01*
X63072Y228848D01*
X62132Y228479D01*
X61342Y227849D01*
X60773Y227014D01*
X60475Y226049D01*
Y225038D01*
X60773Y224072D01*
X61342Y223237D01*
X62132Y222607D01*
X63072Y222238D01*
X64080Y222163D01*
X65065Y222388D01*
X65940Y222893D01*
X66628Y223634D01*
X67066Y224544D01*
X67217Y225543D01*
Y215543D02*
X67066Y216543D01*
X66628Y217453D01*
X65940Y218194D01*
X65065Y218699D01*
X64080Y218924D01*
X63072Y218848D01*
X62132Y218479D01*
X61342Y217849D01*
X60773Y217014D01*
X60475Y216049D01*
Y215038D01*
X60773Y214072D01*
X61342Y213238D01*
X62132Y212608D01*
X63072Y212238D01*
X64080Y212163D01*
X65065Y212388D01*
X65940Y212893D01*
X66628Y213634D01*
X67066Y214544D01*
X67217Y215543D01*
Y205543D02*
X67066Y206542D01*
X66628Y207453D01*
X65940Y208194D01*
X65065Y208699D01*
X64080Y208924D01*
X63072Y208848D01*
X62132Y208479D01*
X61342Y207849D01*
X60773Y207014D01*
X60475Y206049D01*
Y205038D01*
X60773Y204072D01*
X61342Y203238D01*
X62132Y202607D01*
X63072Y202238D01*
X64080Y202163D01*
X65065Y202388D01*
X65940Y202893D01*
X66628Y203634D01*
X67066Y204544D01*
X67217Y205543D01*
Y195543D02*
X67066Y196543D01*
X66628Y197453D01*
X65940Y198194D01*
X65065Y198699D01*
X64080Y198924D01*
X63072Y198848D01*
X62132Y198479D01*
X61342Y197849D01*
X60773Y197014D01*
X60475Y196049D01*
Y195038D01*
X60773Y194072D01*
X61342Y193237D01*
X62132Y192607D01*
X63072Y192238D01*
X64080Y192163D01*
X65065Y192388D01*
X65940Y192893D01*
X66628Y193634D01*
X67066Y194544D01*
X67217Y195543D01*
Y185543D02*
X67066Y186542D01*
X66628Y187453D01*
X65940Y188194D01*
X65065Y188699D01*
X64080Y188924D01*
X63072Y188848D01*
X62132Y188479D01*
X61342Y187849D01*
X60773Y187014D01*
X60475Y186049D01*
Y185038D01*
X60773Y184072D01*
X61342Y183238D01*
X62132Y182607D01*
X63072Y182238D01*
X64080Y182163D01*
X65065Y182388D01*
X65940Y182893D01*
X66628Y183634D01*
X67066Y184544D01*
X67217Y185543D01*
Y175543D02*
X67066Y176542D01*
X66628Y177453D01*
X65940Y178194D01*
X65065Y178699D01*
X64080Y178924D01*
X63072Y178848D01*
X62132Y178479D01*
X61342Y177849D01*
X60773Y177014D01*
X60475Y176049D01*
Y175038D01*
X60773Y174073D01*
X61342Y173238D01*
X62132Y172608D01*
X63072Y172238D01*
X64080Y172163D01*
X65065Y172388D01*
X65940Y172893D01*
X66628Y173634D01*
X67066Y174544D01*
X67217Y175543D01*
X184717Y174543D02*
X184566Y175542D01*
X184128Y176453D01*
X183440Y177194D01*
X182565Y177699D01*
X181580Y177924D01*
X180572Y177848D01*
X179632Y177479D01*
X178842Y176849D01*
X178272Y176014D01*
X177975Y175049D01*
Y174038D01*
X178272Y173073D01*
X178842Y172238D01*
X179632Y171607D01*
X180572Y171238D01*
X181580Y171163D01*
X182565Y171388D01*
X183440Y171893D01*
X184128Y172634D01*
X184566Y173544D01*
X184717Y174543D01*
Y184543D02*
X184566Y185543D01*
X184128Y186453D01*
X183440Y187194D01*
X182565Y187699D01*
X181580Y187924D01*
X180572Y187848D01*
X179632Y187479D01*
X178842Y186849D01*
X178272Y186014D01*
X177975Y185049D01*
Y184038D01*
X178272Y183072D01*
X178842Y182238D01*
X179632Y181607D01*
X180572Y181238D01*
X181580Y181163D01*
X182565Y181388D01*
X183440Y181893D01*
X184128Y182634D01*
X184566Y183544D01*
X184717Y184543D01*
Y194543D02*
X184566Y195543D01*
X184128Y196453D01*
X183440Y197194D01*
X182565Y197699D01*
X181580Y197924D01*
X180572Y197848D01*
X179632Y197479D01*
X178842Y196849D01*
X178272Y196014D01*
X177975Y195049D01*
Y194038D01*
X178272Y193072D01*
X178842Y192237D01*
X179632Y191607D01*
X180572Y191238D01*
X181580Y191163D01*
X182565Y191388D01*
X183440Y191893D01*
X184128Y192634D01*
X184566Y193544D01*
X184717Y194543D01*
Y204543D02*
X184566Y205542D01*
X184128Y206453D01*
X183440Y207194D01*
X182565Y207699D01*
X181580Y207924D01*
X180572Y207848D01*
X179632Y207479D01*
X178842Y206849D01*
X178272Y206014D01*
X177975Y205049D01*
Y204038D01*
X178272Y203073D01*
X178842Y202238D01*
X179632Y201607D01*
X180572Y201238D01*
X181580Y201163D01*
X182565Y201388D01*
X183440Y201893D01*
X184128Y202634D01*
X184566Y203544D01*
X184717Y204543D01*
Y214543D02*
X184566Y215543D01*
X184128Y216453D01*
X183440Y217194D01*
X182565Y217699D01*
X181580Y217924D01*
X180572Y217848D01*
X179632Y217479D01*
X178842Y216849D01*
X178272Y216014D01*
X177975Y215049D01*
Y214038D01*
X178272Y213072D01*
X178842Y212238D01*
X179632Y211608D01*
X180572Y211238D01*
X181580Y211163D01*
X182565Y211388D01*
X183440Y211893D01*
X184128Y212634D01*
X184566Y213544D01*
X184717Y214543D01*
Y224543D02*
X184566Y225542D01*
X184128Y226453D01*
X183440Y227194D01*
X182565Y227699D01*
X181580Y227924D01*
X180572Y227848D01*
X179632Y227479D01*
X178842Y226849D01*
X178272Y226014D01*
X177975Y225049D01*
Y224038D01*
X178272Y223072D01*
X178842Y222237D01*
X179632Y221607D01*
X180572Y221238D01*
X181580Y221163D01*
X182565Y221388D01*
X183440Y221893D01*
X184128Y222634D01*
X184566Y223544D01*
X184717Y224543D01*
D33*
X99996Y21500D02*
D03*
X163500D02*
D03*
D34*
X106748Y34020D02*
D03*
X156748D02*
D03*
D35*
X107772Y114020D02*
D03*
X117772D02*
D03*
X145724D02*
D03*
X155724D02*
D03*
D36*
X109740Y60240D02*
D03*
X153756D02*
D03*
X109740Y65988D02*
D03*
X153756D02*
D03*
D37*
X107772Y104020D02*
D03*
X115764D02*
D03*
X123756D02*
D03*
X139740D02*
D03*
X147732D02*
D03*
X155724D02*
D03*
X111768Y94020D02*
D03*
X119760D02*
D03*
X127752D02*
D03*
X135744D02*
D03*
X143736D02*
D03*
D38*
X151728D02*
D03*
D39*
X123000Y231606D02*
D03*
Y222000D02*
D03*
D40*
Y212394D02*
D03*
D41*
X63827Y225543D02*
D03*
Y215543D02*
D03*
Y205543D02*
D03*
Y195543D02*
D03*
Y185543D02*
D03*
Y175543D02*
D03*
X181327Y174543D02*
D03*
Y184543D02*
D03*
Y194543D02*
D03*
Y204543D02*
D03*
Y214543D02*
D03*
Y224543D02*
D03*
D42*
X138500Y146500D02*
D03*
X97000Y150500D02*
D03*
X88714Y165928D02*
D03*
X98000Y160000D02*
D03*
X94881Y165000D02*
D03*
X130100Y168119D02*
D03*
X118500Y244000D02*
D03*
X107300Y255200D02*
D03*
X74552Y268348D02*
D03*
X233000Y199500D02*
D03*
X200400Y153800D02*
D03*
X44437Y136563D02*
D03*
X87900Y125960D02*
D03*
X97500Y204600D02*
D03*
X62600Y167200D02*
D03*
X149206Y238600D02*
D03*
X220831Y174400D02*
D03*
X135835Y141372D02*
D03*
X212100Y139500D02*
D03*
X127000Y156000D02*
D03*
X220284Y126600D02*
D03*
X227720Y149820D02*
D03*
X205390Y22190D02*
D03*
X211900Y76000D02*
D03*
X204500Y178900D02*
D03*
X145100D02*
D03*
X74200Y44600D02*
D03*
Y77300D02*
D03*
X66964Y77336D02*
D03*
X36563Y85100D02*
D03*
X47600Y130100D02*
D03*
Y152500D02*
D03*
X39100Y156937D02*
D03*
X192000Y100000D02*
D03*
X184100Y98900D02*
D03*
X109800Y200900D02*
D03*
X229437Y107500D02*
D03*
X221563Y90000D02*
D03*
M02*
