G04*
G04 #@! TF.GenerationSoftware,Altium Limited,Altium Designer,22.9.1 (49)*
G04*
G04 Layer_Color=16711935*
%FSLAX25Y25*%
%MOIN*%
G70*
G04*
G04 #@! TF.SameCoordinates,2D7BEFF4-9F28-405B-851C-CABBC44A95C7*
G04*
G04*
G04 #@! TF.FilePolarity,Positive*
G04*
G01*
G75*
%ADD10C,0.00787*%
%ADD11C,0.00394*%
%ADD13C,0.00500*%
%ADD15C,0.01000*%
G36*
X107913Y154520D02*
Y153783D01*
X103736D01*
Y154520D01*
X107913D01*
D02*
G37*
G36*
X107907Y158466D02*
Y157726D01*
X103745D01*
Y158466D01*
X107907D01*
D02*
G37*
G36*
X107912Y156507D02*
Y155753D01*
X103755D01*
Y156507D01*
X107912D01*
D02*
G37*
G36*
X107904Y162415D02*
Y161667D01*
X103757D01*
Y162415D01*
X107904D01*
D02*
G37*
G36*
X107909Y160451D02*
Y159693D01*
X103762D01*
Y160451D01*
X107909D01*
D02*
G37*
G36*
X107903Y164388D02*
Y163636D01*
X103761D01*
Y164388D01*
X107903D01*
D02*
G37*
G36*
X111079Y151374D02*
Y147271D01*
X110236D01*
Y151374D01*
X111079D01*
D02*
G37*
G36*
X113048Y151386D02*
Y147271D01*
X112217D01*
Y151386D01*
X113048D01*
D02*
G37*
G36*
X115023Y151380D02*
Y147264D01*
X114179D01*
Y151380D01*
X115023D01*
D02*
G37*
G36*
X116997Y151382D02*
Y147258D01*
X116149D01*
Y151382D01*
X116997D01*
D02*
G37*
G36*
X118965Y151390D02*
Y147259D01*
X118126D01*
Y151390D01*
X118965D01*
D02*
G37*
G36*
X120933Y151397D02*
Y147260D01*
X120101D01*
Y151397D01*
X120933D01*
D02*
G37*
G36*
X107877Y168310D02*
Y167599D01*
X103747D01*
Y168310D01*
X107877D01*
D02*
G37*
G36*
X107896Y166354D02*
Y165611D01*
X103759D01*
Y166354D01*
X107896D01*
D02*
G37*
G36*
X107890Y170296D02*
Y169554D01*
X103765D01*
Y170296D01*
X107890D01*
D02*
G37*
G36*
X107891Y172270D02*
Y171522D01*
X103770D01*
Y172270D01*
X107891D01*
D02*
G37*
G36*
X107893Y174243D02*
Y173488D01*
X103774D01*
Y174243D01*
X107893D01*
D02*
G37*
G36*
X107892Y176214D02*
Y175458D01*
X103777D01*
Y176214D01*
X107892D01*
D02*
G37*
G36*
X113007Y182727D02*
Y178610D01*
X112258D01*
Y182727D01*
X113007D01*
D02*
G37*
G36*
X111016Y182730D02*
Y178633D01*
X110293D01*
Y182730D01*
X111016D01*
D02*
G37*
G36*
X114977Y182730D02*
Y178609D01*
X114230D01*
Y182730D01*
X114977D01*
D02*
G37*
G36*
X116953Y182730D02*
Y178602D01*
X116198D01*
Y182730D01*
X116953D01*
D02*
G37*
G36*
X118920Y182735D02*
Y178603D01*
X118171D01*
Y182735D01*
X118920D01*
D02*
G37*
G36*
X120889Y182740D02*
Y178603D01*
X120145D01*
Y182740D01*
X120889D01*
D02*
G37*
G36*
X124875Y151402D02*
Y147254D01*
X124044D01*
Y151402D01*
X124875D01*
D02*
G37*
G36*
X122899Y151402D02*
Y147262D01*
X122076D01*
Y151402D01*
X122899D01*
D02*
G37*
G36*
X126862Y151399D02*
Y147236D01*
X126009D01*
Y151399D01*
X126862D01*
D02*
G37*
G36*
X128839Y151401D02*
Y147228D01*
X127980D01*
Y151401D01*
X128839D01*
D02*
G37*
G36*
X130776Y151413D02*
Y147259D01*
X129960D01*
Y151413D01*
X130776D01*
D02*
G37*
G36*
X132766Y151412D02*
Y147237D01*
X131928D01*
Y151412D01*
X132766D01*
D02*
G37*
G36*
X139229Y154568D02*
Y153766D01*
X135084D01*
Y154568D01*
X139229D01*
D02*
G37*
G36*
X139253Y156542D02*
Y155711D01*
X135089D01*
Y156542D01*
X139253D01*
D02*
G37*
G36*
X139243Y158511D02*
Y157689D01*
X135090D01*
Y158511D01*
X139243D01*
D02*
G37*
G36*
X139258Y162463D02*
Y161611D01*
X135104D01*
Y162463D01*
X139258D01*
D02*
G37*
G36*
X139263Y160491D02*
Y159638D01*
X135101D01*
Y160491D01*
X139263D01*
D02*
G37*
G36*
X139248Y164431D02*
Y163591D01*
X135104D01*
Y164431D01*
X139248D01*
D02*
G37*
G36*
X139230Y168362D02*
Y167545D01*
X135098D01*
Y168362D01*
X139230D01*
D02*
G37*
G36*
X139239Y166397D02*
Y165568D01*
X135102D01*
Y166397D01*
X139239D01*
D02*
G37*
G36*
X139226Y170329D02*
Y169517D01*
X135097D01*
Y170329D01*
X139226D01*
D02*
G37*
G36*
X139224Y174271D02*
Y173457D01*
X135101D01*
Y174271D01*
X139224D01*
D02*
G37*
G36*
X139234Y172317D02*
Y171478D01*
X135116D01*
Y172317D01*
X139234D01*
D02*
G37*
G36*
X139233Y176279D02*
Y175416D01*
X135141D01*
Y176279D01*
X139233D01*
D02*
G37*
G36*
X124839Y182729D02*
Y178589D01*
X124072D01*
Y182729D01*
X124839D01*
D02*
G37*
G36*
X122861Y182741D02*
Y178599D01*
X122115D01*
Y182741D01*
X122861D01*
D02*
G37*
G36*
X126803Y182749D02*
Y178595D01*
X126060D01*
Y182749D01*
X126803D01*
D02*
G37*
G36*
X128776Y182742D02*
Y178589D01*
X128022D01*
Y182742D01*
X128776D01*
D02*
G37*
G36*
X130746Y182753D02*
Y178588D01*
X130000D01*
Y182753D01*
X130746D01*
D02*
G37*
G36*
X132717Y182752D02*
Y178585D01*
X131968D01*
Y182752D01*
X132717D01*
D02*
G37*
D10*
X181268Y125744D02*
X189732D01*
X181268D02*
Y131256D01*
X189732D01*
Y125744D02*
Y131256D01*
X219453Y204354D02*
X228114D01*
Y198646D02*
Y204354D01*
X219453Y198646D02*
X228114D01*
X219453D02*
Y204354D01*
X219551Y164256D02*
X228016D01*
Y158744D02*
Y164256D01*
X219551Y158744D02*
X228016D01*
X219551D02*
Y164256D01*
X219453Y183854D02*
X228114D01*
Y178146D02*
Y183854D01*
X219453Y178146D02*
X228114D01*
X219453D02*
Y183854D01*
X219551Y224756D02*
X228016D01*
Y219244D02*
Y224756D01*
X219551Y219244D02*
X228016D01*
X219551D02*
Y224756D01*
X16205Y10504D02*
X24669D01*
X16205D02*
Y16016D01*
X24669D01*
Y10504D02*
Y16016D01*
X16205Y37744D02*
X24669D01*
X16205D02*
Y43256D01*
X24669D01*
Y37744D02*
Y43256D01*
X16205Y65244D02*
X24669D01*
X16205D02*
Y70756D01*
X24669D01*
Y65244D02*
Y70756D01*
X16205Y92744D02*
X24669D01*
X16205D02*
Y98256D01*
X24669D01*
Y92744D02*
Y98256D01*
X16205Y120004D02*
X24669D01*
X16205D02*
Y125516D01*
X24669D01*
Y120004D02*
Y125516D01*
X44732Y10504D02*
Y16016D01*
X36268D02*
X44732D01*
X36268Y10504D02*
Y16016D01*
Y10504D02*
X44732D01*
Y37744D02*
Y43256D01*
X36268D02*
X44732D01*
X36268Y37744D02*
Y43256D01*
Y37744D02*
X44732D01*
Y65244D02*
Y70756D01*
X36268D02*
X44732D01*
X36268Y65244D02*
Y70756D01*
Y65244D02*
X44732D01*
Y92744D02*
Y98256D01*
X36268D02*
X44732D01*
X36268Y92744D02*
Y98256D01*
Y92744D02*
X44732D01*
Y120004D02*
Y125516D01*
X36268D02*
X44732D01*
X36268Y120004D02*
Y125516D01*
Y120004D02*
X44732D01*
X67988Y117051D02*
Y128469D01*
Y117051D02*
X73106D01*
Y128469D01*
X67988D02*
X73106D01*
X68072Y7551D02*
Y18969D01*
Y7551D02*
X73190D01*
Y18969D01*
X68072D02*
X73190D01*
X67988Y62291D02*
Y73709D01*
Y62291D02*
X73106D01*
Y73709D01*
X67988D02*
X73106D01*
X67988Y34791D02*
Y46209D01*
Y34791D02*
X73106D01*
Y46209D01*
X67988D02*
X73106D01*
X67988Y89791D02*
Y101209D01*
Y89791D02*
X73106D01*
Y101209D01*
X67988D02*
X73106D01*
X153732Y228850D02*
Y234362D01*
X145268D02*
X153732D01*
X145268Y228850D02*
Y234362D01*
Y228850D02*
X153732D01*
X181768Y145244D02*
Y150756D01*
Y145244D02*
X190232D01*
Y150756D01*
X181768D02*
X190232D01*
X92217Y209539D02*
Y215248D01*
Y209539D02*
X100878D01*
Y215248D01*
X92217D02*
X100878D01*
X92217Y228752D02*
Y234461D01*
Y228752D02*
X100878D01*
Y234461D01*
X92217D02*
X100878D01*
X145268Y209638D02*
Y215150D01*
Y209638D02*
X153732D01*
Y215150D01*
X145268D02*
X153732D01*
X26244Y157232D02*
X31756D01*
X26244Y148768D02*
Y157232D01*
Y148768D02*
X31756D01*
Y157232D01*
X161268Y125244D02*
Y130756D01*
Y125244D02*
X169732D01*
Y130756D01*
X161268D02*
X169732D01*
X197220Y67744D02*
Y73256D01*
Y67744D02*
X205685D01*
Y73256D01*
X197220D02*
X205685D01*
X197158Y47744D02*
Y53256D01*
Y47744D02*
X205622D01*
Y53256D01*
X197158D02*
X205622D01*
X197220Y87744D02*
Y93256D01*
Y87744D02*
X205685D01*
Y93256D01*
X197220D02*
X205685D01*
Y6744D02*
Y12256D01*
X197220D02*
X205685D01*
X197220Y6744D02*
Y12256D01*
Y6744D02*
X205685D01*
X196622Y110146D02*
Y115854D01*
Y110146D02*
X205283D01*
Y115854D01*
X196622D02*
X205283D01*
X205685Y26744D02*
Y32256D01*
X197220D02*
X205685D01*
X197220Y26744D02*
Y32256D01*
Y26744D02*
X205685D01*
X221268Y73744D02*
Y79256D01*
Y73744D02*
X229732D01*
Y79256D01*
X221268D02*
X229732D01*
X221268Y93744D02*
Y99256D01*
Y93744D02*
X229732D01*
Y99256D01*
X221268D02*
X229732D01*
X221169Y7646D02*
Y13354D01*
Y7646D02*
X229831D01*
Y13354D01*
X221169D02*
X229831D01*
X221169Y30146D02*
Y35854D01*
Y30146D02*
X229831D01*
Y35854D01*
X221169D02*
X229831D01*
X221169Y52646D02*
Y58354D01*
Y52646D02*
X229831D01*
Y58354D01*
X221169D02*
X229831D01*
X73972Y255213D02*
X79681D01*
Y263874D01*
X73972D02*
X79681D01*
X73972Y255213D02*
Y263874D01*
X196972Y255213D02*
X202681D01*
Y263874D01*
X196972D02*
X202681D01*
X196972Y255213D02*
Y263874D01*
X166972Y255213D02*
X172681D01*
Y263874D01*
X166972D02*
X172681D01*
X166972Y255213D02*
Y263874D01*
X181972Y255213D02*
X187681D01*
Y263874D01*
X181972D02*
X187681D01*
X181972Y255213D02*
Y263874D01*
X151972Y255213D02*
X157681D01*
Y263874D01*
X151972D02*
X157681D01*
X151972Y255213D02*
Y263874D01*
X28972Y255213D02*
X34681D01*
Y263874D01*
X28972D02*
X34681D01*
X28972Y255213D02*
Y263874D01*
X58972Y255213D02*
X64681D01*
Y263874D01*
X58972D02*
X64681D01*
X58972Y255213D02*
Y263874D01*
X98957Y256098D02*
X102697D01*
Y262988D01*
X98957D02*
X102697D01*
X98957Y256098D02*
Y262988D01*
X43972Y255213D02*
X49681D01*
Y263874D01*
X43972D02*
X49681D01*
X43972Y255213D02*
Y263874D01*
X136972Y255213D02*
X142681D01*
Y263874D01*
X136972D02*
X142681D01*
X136972Y255213D02*
Y263874D01*
X121972Y255213D02*
X127681D01*
Y263874D01*
X121972D02*
X127681D01*
X121972Y255213D02*
Y263874D01*
D11*
X113157Y202905D02*
X113316Y201902D01*
X113778Y200996D01*
X114496Y200278D01*
X115402Y199816D01*
X116405Y199657D01*
X129595Y199657D02*
X130598Y199816D01*
X131504Y200278D01*
X132222Y200996D01*
X132684Y201902D01*
X132843Y202905D01*
Y241094D02*
X132684Y242098D01*
X132222Y243004D01*
X131504Y243722D01*
X130598Y244183D01*
X129595Y244342D01*
X116405Y244342D02*
X115402Y244183D01*
X114496Y243722D01*
X113778Y243004D01*
X113316Y242098D01*
X113157Y241094D01*
X117488Y242669D02*
X116504Y242406D01*
X115783Y241685D01*
X115520Y240701D01*
X128512Y201331D02*
X129496Y201594D01*
X130217Y202315D01*
X130480Y203299D01*
Y240701D02*
X130217Y241685D01*
X129496Y242406D01*
X128512Y242669D01*
X115520Y203299D02*
X115783Y202315D01*
X116504Y201594D01*
X117488Y201331D01*
X98283Y-8894D02*
Y121106D01*
Y-8894D02*
X165213D01*
Y121106D01*
X98283D02*
X165213D01*
X116405Y244342D02*
X129594D01*
X132842Y202905D02*
Y241094D01*
X113157Y202905D02*
Y241094D01*
X116405Y199657D02*
X129594D01*
X130480Y203299D02*
Y240701D01*
X117488Y242669D02*
X128512D01*
X117488Y201331D02*
X128512D01*
X115520Y203299D02*
Y240701D01*
X219103Y138252D02*
X231898D01*
X219103Y144748D02*
X231898D01*
Y138252D02*
Y144748D01*
X219103Y138252D02*
Y144748D01*
X159102Y145252D02*
Y151748D01*
X171898Y145252D02*
Y151748D01*
X159102D02*
X171898D01*
X159102Y145252D02*
X171898D01*
X43252Y158898D02*
X49748D01*
X43252Y146102D02*
X49748D01*
Y158898D01*
X43252Y146102D02*
Y158898D01*
X219103Y115752D02*
Y122248D01*
X231898Y115752D02*
Y122248D01*
X219103D02*
X231898D01*
X219103Y115752D02*
X231898D01*
D13*
X107524Y151024D02*
Y178976D01*
Y151024D02*
X135476D01*
Y178976D01*
X107524D02*
X135476D01*
D15*
X115988Y157126D02*
X115784Y158087D01*
X115206Y158881D01*
X114356Y159372D01*
X113379Y159475D01*
X112444Y159171D01*
X111715Y158514D01*
X111315Y157617D01*
Y156635D01*
X111715Y155737D01*
X112444Y155080D01*
X113379Y154777D01*
X114356Y154879D01*
X115206Y155370D01*
X115784Y156165D01*
X115988Y157126D01*
M02*
