M48
;Layer_Color=9474304
;FILE_FORMAT=2:4
INCH,TZ
;TYPE=PLATED
T1F00S00C0.0197
T2F00S00C0.0276
T3F00S00C0.0350
T4F00S00C0.0402
T5F00S00C0.0618
;TYPE=NON_PLATED
T6F00S00C0.1102
%
T01
X20539Y2219
X21190Y7600
X22156Y9000
X22944Y10750
X22028Y12660
X21210Y13950
X22772Y14982
X20040Y15380
X20450Y17890
X22083Y17440
X14510Y17890
X13010Y16812
X12700Y15600
X13850Y14650
X13584Y14137
X9700Y15050
X9800Y16000
X9488Y16500
X18410Y9890
X19200Y10000
X8790Y12596
X8871Y16593
X6260Y16720
X4760Y15250
X3910Y15694
X4444Y13656
X4760Y13010
X3656Y8510
X6696Y7734
X7420Y7730
Y4460
X7455Y26835
X10730Y25520
X11850Y24400
X14921Y23860
X10980Y20090
X9750Y20460
X23300Y19950
T02
X12300Y21239
Y22200
Y23161
T03
X10974Y6024
Y6599
X11177Y9402
X11976
X12775
X13574
X14374
X15173
X14773Y10402
X15572
X13974
X12376
X11576
X10777
X15376Y6599
Y6024
T04
X10777Y11402
X11777
X14572
X15572
X18133Y17454
Y18454
X6383Y18554
Y17554
Y19554
Y20554
Y21554
Y22554
X18133Y22454
Y21454
Y20454
Y19454
T05
X10000Y2150
X16350
T06
X10675Y3402
X15675
M30
