G04*
G04 #@! TF.GenerationSoftware,Altium Limited,Altium Designer,22.9.1 (49)*
G04*
G04 Layer_Physical_Order=2*
G04 Layer_Color=16711680*
%FSLAX25Y25*%
%MOIN*%
G70*
G04*
G04 #@! TF.SameCoordinates,2D7BEFF4-9F28-405B-851C-CABBC44A95C7*
G04*
G04*
G04 #@! TF.FilePolarity,Positive*
G04*
G01*
G75*
%ADD12C,0.00700*%
%ADD43C,0.09272*%
%ADD44C,0.05512*%
%ADD45C,0.06024*%
%ADD46C,0.05118*%
%ADD47C,0.05693*%
%ADD48R,0.05693X0.05693*%
%ADD49C,0.04724*%
%ADD50R,0.04724X0.04724*%
%ADD51C,0.06378*%
%ADD52C,0.03937*%
D12*
X138500Y146500D02*
X139100Y145900D01*
X223800D01*
X47600Y152500D02*
X94731D01*
X96731Y150500D02*
X97000D01*
X94731Y152500D02*
X96731Y150500D01*
X88928Y165928D02*
X97543Y174543D01*
X95191Y164691D02*
X95500Y165000D01*
X94881Y165000D02*
Y165000D01*
Y165000D02*
X95191Y164691D01*
X92400Y161900D02*
X95191Y164691D01*
X42163Y160000D02*
X98000D01*
X88714Y165928D02*
X88928D01*
X39100Y156937D02*
X42163Y160000D01*
X60700Y162700D02*
X61500Y161900D01*
X92400D01*
X57900Y165500D02*
X60700Y162700D01*
X95500Y165000D02*
X189200D01*
X212931Y166500D02*
X220831Y174400D01*
X132594Y166500D02*
X212931D01*
X130976Y168119D02*
X132594Y166500D01*
X130100Y168119D02*
X130976D01*
X189200Y165000D02*
X200400Y153800D01*
X161870Y244000D02*
X181327Y224543D01*
X118500Y244000D02*
X161870D01*
X87700Y255200D02*
X107300D01*
X74552Y268348D02*
X87700Y255200D01*
X114720Y199500D02*
X233000D01*
X100764Y185543D02*
X114720Y199500D01*
X63827Y185543D02*
X100764D01*
X97543Y174543D02*
X181327D01*
X44437Y136563D02*
X77297D01*
X87900Y125960D01*
X63827Y215543D02*
X74770Y204600D01*
X97500D01*
X59488Y170312D02*
X62600Y167200D01*
X59488Y170312D02*
Y201204D01*
X63827Y205543D01*
X123000Y212394D02*
X149206Y238600D01*
X135835Y141372D02*
X137707Y139500D01*
X212100D01*
X127000Y138929D02*
Y156000D01*
Y138929D02*
X139329Y126600D01*
X220284D01*
X223800Y145900D02*
X227720Y149820D01*
X198600Y15400D02*
X205390Y22190D01*
X106096Y15400D02*
X198600D01*
X99996Y21500D02*
X106096Y15400D01*
X153764Y76000D02*
X211900D01*
X135744Y94020D02*
X153764Y76000D01*
X145100Y178900D02*
X204500D01*
X74200Y44600D02*
Y77300D01*
X59200Y85100D02*
X66964Y77336D01*
X36563Y85100D02*
X59200D01*
X147732Y99900D02*
Y104020D01*
X146832Y99000D02*
X147732Y99900D01*
X78700Y99000D02*
X146832D01*
X47600Y130100D02*
X78700Y99000D01*
X57900Y165500D02*
Y219617D01*
X63827Y225543D01*
X155724Y114020D02*
X177980D01*
X192000Y100000D01*
X117772Y114020D02*
X127280D01*
X132300Y109000D01*
X174000D01*
X184100Y98900D01*
X63827Y195543D02*
X69183Y200900D01*
X109800D01*
X215957Y94020D02*
X229437Y107500D01*
X151728Y94020D02*
X215957D01*
X147756Y90000D02*
X221563D01*
X143736Y94020D02*
X147756Y90000D01*
D43*
X99996Y21500D02*
D03*
X163500D02*
D03*
D44*
X106748Y34020D02*
D03*
X156748D02*
D03*
D45*
X107772Y114020D02*
D03*
X117772D02*
D03*
X145724D02*
D03*
X155724D02*
D03*
D46*
X109740Y60240D02*
D03*
X153756D02*
D03*
X109740Y65988D02*
D03*
X153756D02*
D03*
D47*
X107772Y104020D02*
D03*
X115764D02*
D03*
X123756D02*
D03*
X139740D02*
D03*
X147732D02*
D03*
X155724D02*
D03*
X111768Y94020D02*
D03*
X119760D02*
D03*
X127752D02*
D03*
X135744D02*
D03*
X143736D02*
D03*
D48*
X151728D02*
D03*
D49*
X123000Y231606D02*
D03*
Y222000D02*
D03*
D50*
Y212394D02*
D03*
D51*
X63827Y225543D02*
D03*
Y215543D02*
D03*
Y205543D02*
D03*
Y195543D02*
D03*
Y185543D02*
D03*
Y175543D02*
D03*
X181327Y174543D02*
D03*
Y184543D02*
D03*
Y194543D02*
D03*
Y204543D02*
D03*
Y214543D02*
D03*
Y224543D02*
D03*
D52*
X138500Y146500D02*
D03*
X97000Y150500D02*
D03*
X88714Y165928D02*
D03*
X98000Y160000D02*
D03*
X94881Y165000D02*
D03*
X130100Y168119D02*
D03*
X118500Y244000D02*
D03*
X107300Y255200D02*
D03*
X74552Y268348D02*
D03*
X233000Y199500D02*
D03*
X200400Y153800D02*
D03*
X44437Y136563D02*
D03*
X87900Y125960D02*
D03*
X97500Y204600D02*
D03*
X62600Y167200D02*
D03*
X149206Y238600D02*
D03*
X220831Y174400D02*
D03*
X135835Y141372D02*
D03*
X212100Y139500D02*
D03*
X127000Y156000D02*
D03*
X220284Y126600D02*
D03*
X227720Y149820D02*
D03*
X205390Y22190D02*
D03*
X211900Y76000D02*
D03*
X204500Y178900D02*
D03*
X145100D02*
D03*
X74200Y44600D02*
D03*
Y77300D02*
D03*
X66964Y77336D02*
D03*
X36563Y85100D02*
D03*
X47600Y130100D02*
D03*
Y152500D02*
D03*
X39100Y156937D02*
D03*
X192000Y100000D02*
D03*
X184100Y98900D02*
D03*
X109800Y200900D02*
D03*
X229437Y107500D02*
D03*
X221563Y90000D02*
D03*
M02*
